<svg width="25" height="25" viewBox="0 0 25 25" fill="none" xmlns="http://www.w3.org/2000/svg">
<path fill-rule="evenodd" clip-rule="evenodd" d="M7.55176 10.4167C7.55176 7.68401 9.76702 5.46875 12.4997 5.46875C15.2323 5.46875 17.4476 7.68401 17.4476 10.4167C17.4476 13.1494 15.2323 15.3646 12.4997 15.3646C9.76702 15.3646 7.55176 13.1494 7.55176 10.4167ZM12.4997 7.03125C10.63 7.03125 9.11426 8.54695 9.11426 10.4167C9.11426 12.2864 10.63 13.8021 12.4997 13.8021C14.3694 13.8021 15.8851 12.2864 15.8851 10.4167C15.8851 8.54695 14.3694 7.03125 12.4997 7.03125Z" fill="#E2725B"/>
<path fill-rule="evenodd" clip-rule="evenodd" d="M3.67116 9.22593C4.04025 4.74821 7.78207 1.30212 12.2749 1.30212H12.7249C17.2179 1.30212 20.9596 4.74821 21.3287 9.22593C21.527 11.6313 20.784 14.0197 19.2562 15.8882L14.2635 21.9942C13.352 23.1089 11.6479 23.1089 10.7364 21.9942L5.74366 15.8882C4.21589 14.0197 3.47289 11.6313 3.67116 9.22593ZM12.2749 2.86462C8.59525 2.86462 5.53066 5.687 5.22838 9.35429C5.06335 11.3562 5.68174 13.344 6.95326 14.8991L11.946 21.0051C12.2323 21.3552 12.7676 21.3552 13.0539 21.0051L18.0466 14.8991C19.3182 13.344 19.9365 11.3562 19.7715 9.35429C19.4692 5.687 16.4046 2.86462 12.7249 2.86462H12.2749Z" fill="#E2725B"/>
</svg>
