<svg width="859" height="879" viewBox="0 0 859 879" fill="none" xmlns="http://www.w3.org/2000/svg">
<path d="M99.8923 792.567H131.892L154.892 820.459L80.8923 833.41L99.8923 792.567Z" fill="#FFF4E4"/>
<path d="M565.892 765.67V718.85L624.892 709.884L603.892 747.739L565.892 765.67Z" fill="#FFF4E4"/>
<path d="M754.163 144.982L709.122 131.607L717.351 72.7211L747.768 103.583L754.163 144.982Z" fill="#FFE2B9"/>
<path d="M474.162 439.772L459.931 399.079L487.57 409.082L487.765 437.256L474.162 439.772Z" fill="#FFE2B9"/>
<path d="M491.58 363.271L459.22 344.497L479.22 321.585L501.031 354.655L491.58 363.271Z" fill="white"/>
<path d="M466.898 483.666L435.614 435.251L403.303 501.249L463.481 535.268L466.898 483.666Z" fill="#FFF4E4"/>
<path d="M830.023 78.358L836.248 21.1153L769.47 52.2035L794.798 116.347L830.023 78.358Z" fill="#FFF4E4"/>
<path d="M514.892 779.013L520.892 744.75L534.892 752.719L539.892 799.539L514.892 779.013Z" fill="white"/>
<path d="M38.5656 871.701L3.65856 872.433L8.81304 857.213L53.9707 843.31L38.5656 871.701Z" fill="white"/>
<path d="M656.158 130.16L682.647 107.501L688.373 122.517L662.369 161.834L656.158 130.16Z" fill="white"/>
<path d="M531.892 382.144L566.892 344.289L592.963 373.745L557.934 393.643L531.892 382.144Z" fill="#FFF4E4"/>
<path d="M222.892 760.689H164.892L205.892 823.448L230.892 819.09L222.892 760.689Z" fill="#FFE2B9"/>
</svg>
