<svg width="244" height="191" viewBox="0 0 244 191" fill="none" xmlns="http://www.w3.org/2000/svg">
<g clip-path="url(#clip0_141_1703)">
<path d="M217.086 163.253C217.086 174.551 169.654 188.766 109.96 190.113C35.8497 191.771 -2.3027 180.132 0.108268 168.844C2.53892 157.458 50.2564 149.107 109.97 149.195C181.443 149.292 217.096 151.956 217.096 163.253H217.086Z" fill="#A89E91"/>
<path d="M244 88.1781C244 136.872 202.207 176.356 150.651 176.356C99.0958 176.356 55.2161 136.833 57.3024 88.1781C59.3984 39.0938 99.0958 -0.36097 150.651 1.60458e-05C212.372 0.439053 244 39.4743 244 88.1781Z" fill="#FD9D73"/>
<path d="M238.115 155.536C238.115 163.936 197.168 175.517 145.613 175.517C94.0573 175.517 47.6486 163.487 49.725 155.087C51.8309 146.619 94.0573 145.019 145.613 145.077C207.334 145.155 238.115 147.126 238.115 155.536Z" fill="#C77D68"/>
<path d="M88.8319 100.998C88.8319 100.998 68.9636 103.496 68.3338 116.94C67.704 130.384 79.0601 136.014 88.8319 138.199C98.6038 140.385 92.8273 134.658 92.8273 134.658C92.8273 134.658 72.6932 128.121 74.0119 118.501C75.1731 110.062 91.9908 105.993 91.9908 105.993L88.8418 100.988L88.8319 100.998Z" fill="#FEB794"/>
<path d="M87.3657 90.2563C87.3657 90.2563 93.8803 88.1685 115.333 88.1685C136.786 88.1685 139.945 90.2563 139.945 90.2563L139.905 99.8468L103.554 104.013L89.4716 100.052L87.3657 90.2563Z" fill="#96584E"/>
<path d="M118.62 37.767C116.671 37.2304 114.437 37.1328 112.804 38.3914C110.176 40.411 110.452 44.8989 112.272 47.7673C114.093 50.6356 116.986 52.4601 119.377 54.7918C120.913 56.2846 122.359 58.3139 122.064 60.5188C121.818 62.3725 120.391 63.797 118.846 64.6555C117.301 65.5141 115.589 65.9629 114.034 66.7922C110.147 68.8605 107.549 73.3777 107.392 78.0413C107.244 82.7048 109.488 87.3391 113.04 90.0124C117.842 93.632 123.127 98.1784 128.992 97.9638C130.537 97.9053 135.044 96.9004 136.481 96.2857C137.917 95.671 137.307 90.6953 137.543 89.0562C137.878 86.8318 136.254 84.822 134.562 83.4951C132.603 81.9536 130.36 80.8023 128.667 78.9291C126.974 77.0559 125.941 74.1095 127.083 71.807C127.88 70.1972 129.494 69.3093 130.881 68.2556C134.109 65.8068 136.412 61.9725 137.16 57.7968C137.908 53.6211 137.101 49.1429 134.945 45.5721C133.204 42.6744 130.468 40.7329 127.23 40.7524C125.656 40.7524 125.361 41.0256 123.855 40.3427C122.044 39.5134 120.568 38.3231 118.6 37.7767L118.62 37.767Z" fill="#FCC3A6"/>
<path d="M134.532 96.3345C129.513 97.232 122.704 98.0906 113.591 98.5979C98.8793 99.4077 91.2429 97.0369 87.3657 94.7832V149.877C87.3657 149.877 86.1061 154.043 91.7841 155.302C96.8816 156.424 124.485 156.2 132.525 155.546C133.952 153.595 135.349 151.36 135.723 149.673C136.323 147.009 135.221 114.784 134.532 96.3442V96.3345Z" fill="#EC6641"/>
<path d="M113.591 98.598C122.704 98.0907 129.513 97.2419 134.532 96.3346C134.473 94.8711 134.424 93.4857 134.375 92.2174C130.389 93.1637 123.865 94.1101 113.591 94.2174C92.6207 94.4223 87.3657 90.2563 87.3657 90.2563V94.7833C91.243 97.037 98.8892 99.4078 113.591 98.598Z" fill="#C15F4C"/>
<path d="M139.915 95.2029C138.409 95.5736 136.628 95.9639 134.522 96.3346C135.211 114.774 136.313 146.999 135.713 149.663C135.339 151.351 133.932 153.585 132.515 155.536C133.43 155.458 134.109 155.38 134.453 155.292C137.819 154.463 140.131 154.248 139.925 146.951C139.758 141.077 139.866 107.876 139.925 95.1931L139.915 95.2029Z" fill="#CC5E40"/>
<path d="M139.915 95.2028C139.925 92.1393 139.935 90.2563 139.935 90.2563C139.935 90.2563 138.527 91.232 134.375 92.2174C134.424 93.4857 134.473 94.8711 134.532 96.3346C136.628 95.9541 138.409 95.5736 139.925 95.2028H139.915Z" fill="#B75139"/>
<path d="M184.71 152.063C174.141 152.356 156.959 149.458 155.699 154.151C154.44 158.844 156.644 161.341 186.609 160.717C216.574 160.093 212.47 157.273 211.841 153.839C211.211 150.404 196.194 151.751 184.72 152.063H184.71Z" fill="#924C43"/>
<path d="M211.831 153.839C211.831 155.878 199.618 156.814 183.903 156.814C168.187 156.814 155.699 156.19 155.699 154.151C155.699 152.112 161.584 149.526 183.903 149.77C202.689 149.975 211.831 151.8 211.831 153.839Z" fill="#A3615D"/>
<path d="M182.811 80.9878C179.032 80.9878 177.388 116.638 177.142 130.55C176.965 140.677 176.513 151.751 176.513 151.751C176.513 151.751 176.621 153.312 182.712 153.292C188.813 153.273 188.499 151.751 188.499 151.751C188.499 151.751 189.128 135.292 189.443 130.843C189.758 126.394 191.51 80.978 182.811 80.978V80.9878Z" fill="#9D5A4C"/>
<path d="M174.613 18.1372C174.613 18.1372 173.984 12.5078 176.503 11.8834C179.022 11.259 192.268 10.9467 193.852 11.8834C195.436 12.82 195.741 18.1372 195.741 18.1372H174.613Z" fill="#FCB763"/>
<path d="M183.45 15.6297C178.107 15.2492 161.378 15.9419 159.793 20.9469C158.209 25.9519 154.745 58.4407 151.596 67.6799C148.447 76.9192 141.824 90.1586 145.288 90.2562C148.752 90.3537 220.983 92.5489 221.298 88.1683C221.612 83.7877 218.65 77.5046 214.99 63.7774C210.571 47.2013 212.47 20.625 203.004 17.5029C195.308 14.9565 187.869 15.9419 183.45 15.6297Z" fill="#FBD5A5"/>
</g>
<defs>
<clipPath id="clip0_141_1703">
<rect width="244" height="190.269" fill="white"/>
</clipPath>
</defs>
</svg>
