<svg width="300" height="90" viewBox="0 0 300 90" fill="none" xmlns="http://www.w3.org/2000/svg">
<g clip-path="url(#clip0_141_1675)">
<path d="M157.531 68.0056C157.709 67.9805 158.04 67.7347 158.289 67.6845C158.805 62.5923 157.46 57.4649 158.384 52.3777C160.535 51.9362 165.163 51.3743 165.483 53.8426C166.123 58.8195 165.755 66.4453 165.821 71.7032C165.886 76.961 165.631 81.9178 165.957 87.005C166.17 89.2828 159.154 89.6289 158.627 89.0068C157.442 87.6021 158.254 84.2959 158.218 82.6653C158.153 79.7153 157.845 76.7402 158.017 73.7752H149.899V87.9332C149.899 89.1373 145.182 88.9968 144.21 88.9015C143.155 88.7961 142.45 88.5252 142.178 87.6021C142.19 80.202 141.929 72.7768 142.095 65.3817C142.112 64.5991 142.071 63.8238 142.095 63.1013C142.142 61.4206 142.077 54.3243 142.592 53.4362C143.161 52.4579 149.514 51.5549 149.911 54.3995C150.45 58.2676 149.596 62.6475 149.549 66.5005C149.543 67.0323 149.792 67.5039 149.905 68.0106C152.221 67.7799 155.326 68.3267 157.537 68.0106L157.531 68.0056Z" fill="#E2725B"/>
<path d="M195.36 53.983C196.106 53.8676 198.589 53.8726 199.099 54.2539L208.994 71.5776L208.402 52.518C208.799 51.5196 214.031 51.3641 214.606 52.4026L215.346 87.2608C213.918 88.1638 210.908 87.8277 209.83 86.6888L200.402 69.3802L200.509 86.7942C199.59 87.9883 194.672 89.1371 193.908 87.8026L193.748 55.6386C194.02 54.881 194.334 54.1536 195.371 53.988L195.36 53.983Z" fill="#E2725B"/>
<path d="M117.918 59.2057C116.348 58.9298 116.627 56.0651 116.763 54.9312C116.959 53.2756 118.037 53.2806 119.856 53.1502C125.734 52.7338 132.424 53.2606 138.391 52.8692C140.542 52.5883 139.997 58.117 139.434 58.5936C138.415 59.4566 132.306 58.3879 132.027 59.3913C132.027 68.743 131.926 78.0596 132.673 87.3712C132.643 89.6088 125.805 89.7593 125.071 88.3445C124.579 78.6717 125.284 68.8735 124.579 59.2107C122.635 58.98 119.72 59.5268 117.924 59.2107L117.918 59.2057Z" fill="#E2725B"/>
<path d="M189.517 52.6084L189.529 87.9482C189.63 89.2626 187.36 89.368 186.098 89.4433C184.302 89.5486 182.424 89.8045 182.063 87.9181L182.045 53.1603C182.311 51.6351 189.001 50.7019 189.511 52.6084H189.517Z" fill="#E2725B"/>
<path d="M89.5054 53.1602C90.4298 53.0047 93.4578 52.9946 94.0207 53.6017C95.4369 55.3025 100.017 68.151 101.037 68.5524C101.759 68.8333 101.692 68.2765 102.459 66.957C104.527 63.3999 105.943 57.6253 108.325 54.6051C108.722 54.1034 108.526 53.5816 109.469 53.4311C110.962 53.1903 114.031 53.2756 114.825 54.5299L115.151 71.0258C115.151 71.9389 115.151 72.862 115.151 73.7751C115.145 77.8339 115.667 83.2522 115.169 87.1203C115.104 87.6371 114.896 87.9632 114.505 88.3445C113.142 88.6606 109.593 89.1723 108.349 88.4699C107.993 88.2692 107.863 87.9231 107.756 87.597C107.567 81.1451 107.649 74.6882 108.005 68.2765C107.712 68.6013 107.92 68.3354 107.712 68.6013C106.018 70.8088 104.568 74.5879 103.057 77.0061C101.386 77.6181 99.3359 77.7335 98.5834 76.118L94.3762 68.0005C94.4533 72.3503 94.2696 76.7151 94.3585 81.0698C94.3822 82.1284 95.4369 86.4882 93.837 86.9297C92.6045 87.2708 88.6996 87.5819 87.9115 86.5283L87.8759 54.5299C88.2611 53.978 88.4092 53.3408 89.4995 53.1552L89.5054 53.1602Z" fill="#E2725B"/>
<path d="M277.831 60.8563C280.125 65.2913 279.965 73.8904 278.157 78.4509C276.522 82.5648 271.811 86.3978 267.231 88.0334C263.954 89.2074 256.428 91.2995 255.788 86.8042C254.319 76.4391 256.156 64.8799 255.409 54.3843C255.516 52.8642 257.483 52.7688 258.876 52.6484C265.957 52.0414 274.845 55.1017 277.825 60.8613L277.831 60.8563ZM270.49 64.333C268.985 61.0218 267.29 59.5267 262.899 58.9347C262.763 66.7061 262.958 74.4222 263.545 82.1635C263.871 83.7087 266.988 81.7722 267.764 81.0648C271.941 77.2468 272.558 68.8785 270.49 64.3381V64.333Z" fill="#E2725B"/>
<path d="M240.091 62.7177C239.416 63.2897 235.298 63.6208 234.628 63.2144C234.356 63.0488 234.047 60.5805 233.49 59.7828C230.688 55.7742 224.679 60.1841 227.766 64.6292C230.611 68.7231 237.65 69.3301 239.831 75.3104C243.475 85.3043 229.058 93.8081 220.851 85.6103C218.76 83.5182 215.447 77.4426 219.897 76.2737C224.857 74.9743 223.245 78.3457 225.42 80.9144C228.24 84.2407 233.526 82.254 233.04 78.3156C232.661 75.2552 226.937 73.0578 224.418 71.0409C219.459 67.0775 217.776 61.7946 221.29 56.5568C226.089 49.4026 239.534 50.9428 240.494 59.3563C240.577 60.0738 240.648 62.2612 240.097 62.7278L240.091 62.7177Z" fill="#E2725B"/>
<path d="M244.139 52.3977C244.945 51.7153 250.965 50.7019 251.196 52.7488C251.083 63.7461 251.38 74.7484 251.184 85.7457C251.166 86.6136 251.777 88.2442 250.746 88.9215C250.621 89.0017 248.109 89.6941 247.807 89.7292C246.9 89.8295 244.607 89.6941 244.026 89.0519C243.807 88.8061 243.433 86.0016 243.41 85.4497C243.161 78.4259 243.7 71.0609 243.748 64.017C243.759 62.3263 243.398 53.0147 244.133 52.3876L244.139 52.3977Z" fill="#E2725B"/>
<path d="M298.286 53.712C298.221 53.9328 298.316 54.2739 298.286 54.5348C298.221 55.177 298.494 56.6118 298.144 57.0283C298.061 57.1236 295.721 57.5601 295.525 57.5601H288.871V66.9067C290.352 66.7763 296.366 66.1492 297.16 67.1726C297.759 67.9453 297.072 71.2314 296.005 71.713C295.881 71.7682 294.322 72.1345 294.227 72.1345H289.197L289.522 81.7571C289.807 82.0079 296.236 81.0647 297.64 81.2052C299.4 81.3808 299.477 82.3942 299.584 83.8241C299.791 86.6286 299.234 87.5768 296.017 88.0785C293.581 88.4598 289.902 88.4799 287.401 88.3645C286.714 88.3344 283.544 88.1337 283.235 88.0434C282.975 87.9681 282.832 87.8377 282.773 87.6119L282.364 53.6067C282.572 52.9494 293.179 52.518 294.571 52.6033C295.804 52.6785 297.676 52.7387 298.292 53.712H298.286Z" fill="#E2725B"/>
<path d="M58.6629 76.2535C59.4214 79.048 60.7902 83.1368 61.1754 85.8109C61.3591 87.0953 61.5131 87.4063 60.1917 88.1338C58.6926 88.9566 55.2261 89.4783 54.1181 88.0786L51.3212 77.3271C48.6606 76.8054 45.8104 77.1867 43.0906 77.0964C42.4092 80.8942 42.1899 82.5348 37.1058 81.4511C35.3874 81.0849 35.0378 81.0297 35.3637 79.4845C36.3414 74.8738 38.7116 69.4906 40.1278 64.8248C41.2122 61.2677 42.0655 57.6755 43.0432 54.0984C43.9143 52.5532 49.2472 52.6134 51.019 52.8943C52.7124 53.6013 53.1285 57.5451 53.5433 59.005C55.1906 64.7495 57.0986 70.504 58.657 76.2535H58.6629ZM44.6964 71.5777C46.7124 71.5827 49.7805 72.4908 49.5435 69.8317C49.3065 67.1727 48.2124 64.1013 47.6177 61.1322C47.2124 62.6013 46.5689 63.6257 46.2785 64.8097C46.0415 65.793 44.2461 71.1964 44.6964 71.5827V71.5777Z" fill="#E2725B"/>
<path d="M68.0787 52.8842C74.7686 52.5129 81.8023 54.0782 83.9888 60.0334C85.6835 64.639 84.4747 69.1794 80.4216 72.5458C79.5743 73.2482 78.6913 73.0927 78.7684 74.4623C78.7921 74.9239 79.505 75.7351 79.7124 76.1013C79.9198 76.4676 80.3325 77.1013 80.5046 77.4223C81.9563 80.1315 83.094 82.9812 84.8065 85.595C86.0746 87.3159 81.1623 89.132 79.912 89.0568C78.8395 88.9916 77.6603 86.9697 77.1626 86.1519C76.5107 85.0883 76.3508 84.396 75.8649 83.4026C75.2012 82.033 74.5968 80.6483 73.9154 79.2786C73.6309 78.7067 72.4517 75.5761 72.2503 75.4707C71.8355 75.245 70.7393 75.3804 70.3482 75.7065C69.483 76.429 70.3304 86.3426 70.0223 88.0785C69.7912 88.545 70.0637 88.6353 69.2519 88.9313C67.4624 89.5785 63.7353 89.8796 62.882 88.0785L62.5561 60.3143C62.5738 58.7691 62.2361 55.8442 62.5561 54.5398L62.882 54.2638C63.8064 53.145 66.5084 52.9745 68.0787 52.8892V52.8842ZM70.0282 69.656C80.3505 70.8149 80.8423 56.4814 70.0282 58.3828V69.656Z" fill="#E2725B"/>
<path d="M62.556 54.5354C62.5798 54.4348 62.8112 54.3493 62.8824 54.2588L62.556 54.5354Z" fill="#E2725B"/>
<path d="M74.899 1.75096C75.7582 1.71584 76.6352 1.76099 77.4944 1.75096C80.552 1.71584 84.9132 0.918134 85.2094 4.43004C85.328 5.8348 85.1324 6.56728 83.5088 6.69773C81.6067 6.85325 79.3254 6.88335 77.3403 6.99373C76.7122 7.02885 74.899 6.57732 74.899 7.10912V16.8672C76.41 16.6465 83.0881 16.1648 83.8406 17.1331C84.3325 17.7652 83.7814 20.6751 83.3073 21.3725C82.7622 22.1702 81.423 22.2856 80.4216 22.3658C79.3254 22.4511 75.5863 22.0046 75.2723 22.8174L75.5508 32.8163L84.6465 32.2644C86.0509 32.8765 86.0983 33.1273 86.2642 34.6023C86.4894 36.5941 86.3649 38.8818 83.6747 39.4086C80.5046 40.0307 74.1524 39.7548 70.6859 39.6845C70.0519 39.6695 69.406 39.7548 68.7838 39.6494C68.6001 39.5541 68.1379 37.2262 68.0964 36.7948C67.6817 32.3246 68.0787 26.9413 68.0964 22.3658C68.1083 18.2419 68.1794 14.2684 68.0846 10.1444C68.049 8.72961 67.7646 3.6825 68.0787 2.73931C68.1024 2.66405 69.6312 2.03693 69.726 2.02188C70.8459 1.8513 73.5598 1.80614 74.9227 1.74594L74.899 1.75096Z" fill="#E2725B"/>
<path d="M37.4791 39.9004C36.7088 41.0192 30.9195 41.1998 29.9359 40.2315C29.0115 39.3185 29.5211 34.7329 29.45 33.2178C28.9937 22.9881 29.1004 12.6982 29.1004 2.4284C29.1596 -0.280785 37.0643 -0.837673 37.5502 1.34473C37.645 9.30672 37.4554 17.2988 37.5443 25.2457C37.5502 25.908 37.8939 26.51 37.8998 27.1673C37.9235 29.164 38.2079 38.8418 37.485 39.8954L37.4791 39.9004Z" fill="#E2725B"/>
<path d="M59.6347 1.47508C62.3783 2.58384 64.6714 6.05561 65.0685 8.55408C65.3944 10.591 65.8447 13.3905 62.8819 13.842C62.6864 13.8721 62.4434 13.8219 62.2301 13.842C61.3946 13.9173 60.4821 13.7918 59.6347 13.842C57.3652 13.1346 58.7577 10.4605 57.1815 8.63435C55.0128 6.13086 52.293 8.27313 51.013 10.2498C47.9021 15.0712 48.2162 24.3677 50.9419 29.3094C51.8545 30.96 53.804 33.1374 56.2512 32.2795C58.017 31.6574 57.5667 30.2275 58.3193 29.3596C59.3207 28.1957 62.8938 28.6472 63.8656 29.6406C65.0803 30.8798 63.8893 34.7378 63.0538 36.1225C60.5058 40.3719 54.8528 40.9589 50.1005 39.0976C46.6815 37.7581 45.3127 36.0372 43.7661 33.1876C39.6301 25.5617 39.4049 10.4455 46.4741 3.94345C49.7035 0.973381 55.1846 -0.321006 59.6288 1.47006L59.6347 1.47508Z" fill="#E2725B"/>
<path d="M198.281 2.57361C199.027 3.09538 200.461 4.66069 200.935 5.40822C201.978 7.0538 203.726 12.2313 200.876 13.019C200.527 13.1143 198.239 13.3301 197.789 13.32C195.01 13.2649 196.035 12.2213 195.537 10.8015C193.534 5.08713 186.862 7.98696 188.03 12.7581C188.859 16.1396 194.577 18.4725 197.469 20.7201C197.666 20.873 198.136 21.0346 198.212 21.1013C205.212 25.6013 202.044 39.1024 191.129 40.2363C187.259 40.6376 183.242 38.9419 180.931 36.3632C178.821 34.0102 175.71 27.5934 180.978 26.8308C185.245 26.2137 183.994 27.5984 185.132 30.0568C188.012 36.2779 196.041 33.2927 193.979 28.065C192.681 24.7688 184.717 21.9643 181.903 18.2217C174.176 7.93178 188.077 -4.51542 198.275 2.57361H198.281Z" fill="#E2725B"/>
<path d="M170.36 27.3177C170.36 29.5452 170.087 32.0537 170.685 34.191C170.662 35.4001 171.041 39.0274 170.217 39.7047C168.813 40.8636 162.028 41.6212 162.55 38.4655L162.52 9.35178C162.413 8.99558 162.123 8.96046 161.756 8.90025C159.984 8.62432 157.513 8.98053 155.421 8.62432C154.888 8.53401 154.532 8.36343 154.124 8.07245C154.106 7.89183 154.124 7.70621 154.124 7.52058C154.1 6.38673 153.869 3.67755 154.449 2.84473C155.078 1.94668 156.559 2.32296 157.697 2.29285C160.482 2.22763 163.474 2.06207 166.141 2.01692C169.868 1.95672 173.613 2.06207 177.346 2.01692C178.993 2.28282 178.821 7.38512 177.695 8.09251C176.167 9.05578 170.395 7.97211 170.111 9.33673C170.046 9.63775 170.371 10.2197 170.377 10.6662C170.419 16.215 170.36 21.7689 170.366 27.3127L170.36 27.3177Z" fill="#E2725B"/>
<path d="M117.433 40.2415C117.184 40.3268 116.722 40.4573 116.461 40.5175C115.916 40.663 115.015 40.7733 114.511 40.7934C113.125 40.8536 112.254 40.8135 110.938 40.5175C110.772 40.4823 110.115 40.2917 109.966 40.2415C99.2945 36.5641 99.5611 18.0965 102.008 10.2749C103.051 6.93863 105.848 2.37817 109.966 1.20419C115.85 -0.471489 121.083 2.0019 123.666 6.51219C128.122 14.2936 128.822 36.3784 117.439 40.2415H117.433ZM115.696 7.89186C113.137 5.8098 110.369 8.58421 109.723 10.7516C108.236 15.7184 107.768 28.7375 111.187 33.017C113.409 35.7965 115.91 34.3616 117.036 31.7879C119.258 26.7307 119.465 14.2283 116.745 9.34178C116.538 8.9655 116.016 8.14773 115.696 7.89186Z" fill="#E2725B"/>
<path d="M221.918 1.56039C231.659 0.827905 241.081 5.49874 243.315 13.7918C246.343 25.0299 240.773 39.2983 225.384 40.5074C220.715 40.8736 218.522 41.0944 218.09 36.7948C217.154 27.5485 217.343 15.2819 218.084 6.00546C218.374 2.39823 216.774 1.94168 221.918 1.55537V1.56039ZM226.854 33.9151C231.76 33.5237 234.326 28.4766 235.15 24.8544C236.655 18.2269 235.582 9.94882 226.392 8.33836C226.018 8.36847 225.888 9.54746 225.864 9.84848C225.479 14.7651 226.196 20.033 225.864 24.9948L226.854 33.9201V33.9151Z" fill="#E2725B"/>
<path d="M254.615 22.3709C253.501 22.6619 254.437 25.8276 254.467 26.6203C254.538 28.6823 254.39 30.7593 254.449 32.8163C254.959 33.2428 262.674 31.6373 264.197 32.3999C265.382 32.9919 265.174 37.1711 264.623 38.2447C264.114 39.2381 260.677 39.6043 259.48 39.6846C257.755 39.8 248.814 39.8752 247.848 39.3685C247.249 39.0575 247.03 36.554 246.971 35.7111C246.793 33.0772 247.297 30.5185 247.327 28.015C247.415 19.5212 247.238 11.0475 247.007 2.58382C249.78 2.26775 261.72 0.888076 263.397 2.28782C264.167 2.93 264.712 6.26129 263.331 6.6476C261.672 7.1192 256.452 6.55729 254.331 6.95364C254.188 6.98876 253.803 7.8567 253.803 7.93195V16.4558C253.803 17.374 258.384 16.6114 259.124 16.6214C259.586 16.6264 261.637 16.8321 262.016 16.9224C263.74 17.3338 262.857 22.3659 260.132 22.3659C258.952 22.3659 255.397 22.1602 254.609 22.3659L254.615 22.3709Z" fill="#E2725B"/>
<path d="M206.15 40.4471C205.753 40.111 205.463 38.7212 205.409 38.1844C204.301 26.9513 206.233 14.3888 205.463 3.01521C205.463 1.12882 207.24 0.607049 209.196 0.401352C211.151 0.195654 213.77 -0.030111 213.877 2.15229L213.847 38.9821C214.078 41.3251 206.908 41.0893 206.15 40.4471Z" fill="#E2725B"/>
<path d="M137.165 2.36301C138.166 3.19082 137.248 6.96361 137.224 8.19779C137.111 13.5058 136.412 27.2975 138.812 31.6272C140.424 34.5421 143.629 33.4685 144.619 30.679C145.383 28.5267 145.585 24.8242 145.697 22.5213C146.035 15.7333 145.312 8.97543 145.022 2.2125C146.426 1.27934 150.041 1.2392 151.522 1.90145C153.11 2.60884 152.417 6.80808 152.494 8.22789C152.879 15.3671 153.78 27.744 150.888 34.3414C147.274 42.5944 135.553 42.3084 131.666 34.3866C128.756 28.4514 128.875 12.1913 129.438 5.4585C129.485 4.91165 129.669 3.48682 129.847 3.05536C130.457 1.61046 136.057 1.45493 137.165 2.36803V2.36301Z" fill="#E2725B"/>
<path d="M21.0628 76.7722L18.2814 88.4921C17.6549 89.6077 13.1947 89.6578 12.7186 89.0813C12.2425 88.5047 11.2276 83.7415 10.9645 82.6385C9.08521 74.9046 6.94278 65.3657 5.87783 57.5441C5.7776 56.8422 5.5145 55.338 5.97806 54.8116C6.64209 54.047 11.7413 53.7336 12.3552 55.1751L15.8007 74.7291L16.8781 70.9812C17.6424 69.1888 17.4795 63.6485 18.7324 62.583C19.4841 61.9438 23.3681 61.8435 24.007 62.6332C24.6961 63.4855 26.1369 71.8461 26.6256 73.7263C26.7509 74.2152 26.3249 74.5787 27.2144 74.4408L29.6826 52.7434C30.284 50.9008 37.2876 51.2517 36.586 54.0595L30.9856 88.3166C30.2088 89.6829 26.0743 90.1968 25.1472 89.2442L21.0628 76.7722Z" fill="#E2725B"/>
</g>
<defs>
<clipPath id="clip0_141_1675">
<rect width="299.62" height="89.7693" fill="white"/>
</clipPath>
</defs>
</svg>
