<svg width="28" height="28" viewBox="0 0 28 28" fill="none" xmlns="http://www.w3.org/2000/svg">
<g clip-path="url(#clip0_141_221)">
<path d="M27.6233 17.2174C29.3994 9.69216 24.7389 2.15193 17.2136 0.375816C9.68841 -1.4003 2.14818 3.26028 0.372068 10.7855C-1.40405 18.3107 3.25653 25.851 10.7818 27.6271C18.307 29.4032 25.8472 24.7426 27.6233 17.2174Z" fill="#F5F5F0"/>
<path d="M18.4473 21.5675H9.55646C7.83576 21.5675 6.43274 20.1683 6.43274 18.4438V9.55292C6.43274 7.83222 7.83198 6.4292 9.55646 6.4292H18.4473C20.168 6.4292 21.571 7.82844 21.571 9.55292V18.4438C21.571 20.1645 20.1718 21.5675 18.4473 21.5675ZM9.55646 7.94568C8.67153 7.94568 7.94922 8.66799 7.94922 9.55292V18.4438C7.94922 19.3287 8.67153 20.051 9.55646 20.051H18.4473C19.3323 20.051 20.0546 19.3287 20.0546 18.4438V9.55292C20.0546 8.66799 19.3323 7.94568 18.4473 7.94568H9.55646Z" fill="#E2725B"/>
<path d="M14 17.7859C11.9125 17.7859 10.2145 16.0879 10.2145 14.0004C10.2145 11.9128 11.9125 10.2148 14 10.2148C16.0875 10.2148 17.7855 11.9128 17.7855 14.0004C17.7855 16.0879 16.0875 17.7859 14 17.7859ZM14 11.7313C12.7482 11.7313 11.731 12.7486 11.731 14.0004C11.731 15.2521 12.7482 16.2694 14 16.2694C15.2518 16.2694 16.269 15.2521 16.269 14.0004C16.269 12.7486 15.2518 11.7313 14 11.7313Z" fill="#E2725B"/>
<path d="M17.7855 10.9746C18.2032 10.9746 18.5419 10.636 18.5419 10.2183C18.5419 9.80054 18.2032 9.46191 17.7855 9.46191C17.3678 9.46191 17.0292 9.80054 17.0292 10.2183C17.0292 10.636 17.3678 10.9746 17.7855 10.9746Z" fill="#E2725B"/>
</g>
<defs>
<clipPath id="clip0_141_221">
<rect width="28" height="28" fill="white"/>
</clipPath>
</defs>
</svg>
