<svg width="28" height="28" viewBox="0 0 28 28" fill="none" xmlns="http://www.w3.org/2000/svg">
<g clip-path="url(#clip0_141_218)">
<path d="M23.8973 23.8995C29.3646 18.4322 29.3646 9.56784 23.8973 4.10051C18.43 -1.36683 9.56565 -1.36683 4.09832 4.10051C-1.36902 9.56785 -1.36902 18.4322 4.09832 23.8995C9.56565 29.3668 18.43 29.3668 23.8973 23.8995Z" fill="#F5F5F0"/>
<path d="M16.5943 7.91143H18.731V4.40576H16.5943C13.8185 4.40576 11.5646 6.6559 11.5646 9.42413V11.6251H9.27283V14.8585H11.5646V23.5905H15.0702V14.8585H18.5759V11.6251H15.0702V9.42413C15.0702 8.58837 15.7547 7.90765 16.5981 7.90765L16.5943 7.91143Z" fill="#E2725B"/>
</g>
<defs>
<clipPath id="clip0_141_218">
<rect width="28" height="28" fill="white"/>
</clipPath>
</defs>
</svg>
