<svg width="28" height="28" viewBox="0 0 28 28" fill="none" xmlns="http://www.w3.org/2000/svg">
<g clip-path="url(#clip0_141_238)">
<path d="M23.8973 23.8995C29.3646 18.4322 29.3646 9.56784 23.8973 4.10051C18.43 -1.36683 9.56566 -1.36683 4.09832 4.10051C-1.36902 9.56785 -1.36902 18.4322 4.09832 23.8995C9.56566 29.3668 18.43 29.3668 23.8973 23.8995Z" fill="#F5F5F0"/>
<path d="M5.04863 23.1293L6.2966 18.474C5.45705 17.0785 5.01837 15.4902 5.01837 13.8565C5.01837 8.90243 9.04971 4.87109 14.0038 4.87109C18.9579 4.87109 22.9892 8.90243 22.9892 13.8565C22.9892 18.8106 18.9579 22.8419 14.0038 22.8419C12.5667 22.8419 11.1448 22.494 9.87791 21.836L5.05241 23.1293H5.04863ZM10.0367 20.4632L10.2636 20.588C11.4019 21.2196 12.6953 21.5561 14 21.5561C18.2469 21.5561 21.6996 18.0996 21.6996 13.8565C21.6996 9.61339 18.2431 6.15689 14 6.15689C9.75689 6.15689 6.30038 9.61339 6.30038 13.8565C6.30038 15.3389 6.72394 16.7798 7.52566 18.024L7.68072 18.2622L6.86386 21.3141L10.0367 20.4632Z" fill="#E2725B"/>
<path d="M16.8666 15.2369C16.5376 15.0289 16.1027 15.0969 15.8795 15.4108C15.7358 15.615 15.5921 15.8192 15.4484 16.0235C14.053 15.0402 12.8352 13.8225 11.8482 12.4232C12.0524 12.2795 12.2566 12.1358 12.4608 11.9921C12.771 11.769 12.839 11.3341 12.6348 11.0051C12.3587 10.5626 12.1054 10.105 11.8785 9.63232C11.7083 9.28062 11.3036 9.0991 10.9482 9.2428C10.6721 9.35626 10.3922 9.47349 10.1162 9.58694C9.36739 9.87814 9.07241 10.903 9.5716 11.803C11.0805 14.541 13.3382 16.7987 16.0762 18.3076C16.98 18.8068 18.0011 18.5081 18.2923 17.7631C18.4057 17.487 18.523 17.2071 18.6364 16.9311C18.7801 16.5756 18.5986 16.171 18.2469 16.0008C17.7742 15.7739 17.3128 15.5205 16.8741 15.2444L16.8666 15.2369Z" fill="#E2725B"/>
</g>
<defs>
<clipPath id="clip0_141_238">
<rect width="28" height="28" fill="white"/>
</clipPath>
</defs>
</svg>
