<svg width="28" height="28" viewBox="0 0 28 28" fill="none" xmlns="http://www.w3.org/2000/svg">
<path fill-rule="evenodd" clip-rule="evenodd" d="M3.79199 11.7014C3.79199 8.55085 6.55599 6.125 9.80032 6.125C11.4727 6.125 12.9443 6.90916 14.0003 7.9238C15.0564 6.90916 16.5279 6.125 18.2003 6.125C21.4447 6.125 24.2087 8.55085 24.2087 11.7014C24.2087 13.8597 23.2883 15.7575 22.0132 17.3617C20.7403 18.9634 19.0753 20.3225 17.4811 21.427C16.8721 21.8489 16.2561 22.2379 15.6923 22.5251C15.1629 22.7947 14.5541 23.0417 14.0003 23.0417C13.4465 23.0417 12.8377 22.7947 12.3083 22.5251C11.7446 22.2379 11.1285 21.8489 10.5196 21.427C8.92538 20.3225 7.26034 18.9634 5.98745 17.3617C4.71235 15.7575 3.79199 13.8597 3.79199 11.7014ZM9.80032 7.875C7.37453 7.875 5.54199 9.65895 5.54199 11.7014C5.54199 13.3389 6.23708 14.8633 7.35743 16.2729C8.47998 17.6853 9.9904 18.9314 11.5162 19.9885C12.0935 20.3884 12.6373 20.7287 13.1026 20.9657C13.602 21.22 13.8915 21.2917 14.0003 21.2917C14.1092 21.2917 14.3986 21.22 14.8981 20.9657C15.3633 20.7287 15.9071 20.3884 16.4845 19.9885C18.0103 18.9314 19.5206 17.6853 20.6432 16.2729C21.7636 14.8633 22.4587 13.3389 22.4587 11.7014C22.4587 9.65895 20.6261 7.875 18.2003 7.875C16.8071 7.875 15.5063 8.70732 14.694 9.76374C14.5284 9.97915 14.272 10.1054 14.0003 10.1054C13.7286 10.1054 13.4723 9.97915 13.3066 9.76374C12.4944 8.70732 11.1935 7.875 9.80032 7.875Z" fill="#EADCCA"/>
</svg>
