<svg width="28" height="28" viewBox="0 0 28 28" fill="none" xmlns="http://www.w3.org/2000/svg">
<path d="M14 1.45834C14.4832 1.45834 14.875 1.8501 14.875 2.33334V3.50001C14.875 3.98326 14.4832 4.37501 14 4.37501C13.5168 4.37501 13.125 3.98326 13.125 3.50001V2.33334C13.125 1.8501 13.5168 1.45834 14 1.45834Z" fill="#EADCCA"/>
<path fill-rule="evenodd" clip-rule="evenodd" d="M7.29199 14C7.29199 10.2951 10.2954 7.29166 14.0003 7.29166C17.7052 7.29166 20.7087 10.2951 20.7087 14C20.7087 17.7049 17.7052 20.7083 14.0003 20.7083C10.2954 20.7083 7.29199 17.7049 7.29199 14ZM14.0003 9.04166C11.2619 9.04166 9.04199 11.2616 9.04199 14C9.04199 16.7384 11.2619 18.9583 14.0003 18.9583C16.7387 18.9583 18.9587 16.7384 18.9587 14C18.9587 11.2616 16.7387 9.04166 14.0003 9.04166Z" fill="#EADCCA"/>
<path d="M6.36872 5.13174C6.02701 4.79003 5.47299 4.79003 5.13129 5.13174C4.78957 5.47345 4.78957 6.02747 5.13129 6.36918L5.95624 7.19413C6.29795 7.53585 6.85197 7.53585 7.19367 7.19413C7.53539 6.85243 7.53539 6.2984 7.19367 5.9567L6.36872 5.13174Z" fill="#EADCCA"/>
<path d="M26.5417 14C26.5417 14.4832 26.1499 14.875 25.6667 14.875H24.5C24.0168 14.875 23.625 14.4832 23.625 14C23.625 13.5168 24.0168 13.125 24.5 13.125H25.6667C26.1499 13.125 26.5417 13.5168 26.5417 14Z" fill="#EADCCA"/>
<path d="M22.8685 6.36915C23.2102 6.02743 23.2102 5.47342 22.8685 5.13171C22.5268 4.79 21.9728 4.79 21.631 5.13171L20.8061 5.95666C20.4644 6.29838 20.4644 6.8524 20.8061 7.1941C21.1478 7.53582 21.7019 7.53582 22.0436 7.1941L22.8685 6.36915Z" fill="#EADCCA"/>
<path d="M14 23.625C14.4832 23.625 14.875 24.0168 14.875 24.5V25.6667C14.875 26.1499 14.4832 26.5417 14 26.5417C13.5168 26.5417 13.125 26.1499 13.125 25.6667V24.5C13.125 24.0168 13.5168 23.625 14 23.625Z" fill="#EADCCA"/>
<path d="M22.0435 20.8059C21.7017 20.4642 21.1478 20.4642 20.8061 20.8059C20.4644 21.1476 20.4644 21.7016 20.8061 22.0434L21.631 22.8683C21.9728 23.21 22.5267 23.21 22.8684 22.8683C23.2101 22.5266 23.2101 21.9725 22.8684 21.6308L22.0435 20.8059Z" fill="#EADCCA"/>
<path d="M4.37467 14C4.37467 14.4832 3.98292 14.875 3.49967 14.875H2.33301C1.84976 14.875 1.45801 14.4832 1.45801 14C1.45801 13.5168 1.84976 13.125 2.33301 13.125H3.49967C3.98292 13.125 4.37467 13.5168 4.37467 14Z" fill="#EADCCA"/>
<path d="M7.19368 22.0434C7.53538 21.7016 7.53538 21.1476 7.19368 20.8059C6.85196 20.4642 6.29795 20.4642 5.95624 20.8059L5.13128 21.6308C4.78957 21.9725 4.78957 22.5266 5.13128 22.8683C5.47298 23.21 6.02701 23.21 6.36872 22.8683L7.19368 22.0434Z" fill="#EADCCA"/>
</svg>
