<svg width="208" height="43" viewBox="0 0 208 43" fill="none" xmlns="http://www.w3.org/2000/svg">
<g clip-path="url(#clip0_141_516)">
<path d="M207.127 34.2945C206.963 34.7637 205.093 38.3932 204.691 38.7646C204.527 38.908 201.45 41.0062 201.122 41.1235C195.984 42.9675 190.907 42.355 187.434 38.1C185.148 35.3045 182.692 28.5799 187.966 27.6741C191.33 27.0942 190.409 28.847 191.228 30.9257C191.794 32.3462 192.886 34.4965 194.531 34.8745C199.976 36.1256 202.2 30.4891 198.393 26.7488C192.538 20.9951 184.814 20.0893 186.179 9.39636C187.659 -2.23495 206.417 -3.37527 207.843 8.25604C208.184 11.0449 208.273 12.8043 204.93 13.104C200.051 13.5341 202.289 11.1688 200.576 8.6861C198.645 5.88416 194.885 7.16132 194.073 10.1392C192.668 15.3326 199.437 18.115 202.753 20.8061C207.045 24.2923 209.017 29.0099 207.12 34.2945H207.127Z" fill="#E2725B"/>
<path d="M100.353 27.8955C100.871 27.6283 100.987 26.3837 101.131 25.8299C103.13 17.9193 104.529 9.81321 105.948 1.79184C106.787 -0.215131 112.546 0.736226 113.215 2.16326C113.536 2.84094 113.058 4.03339 112.901 4.82185C110.533 16.6682 106.931 28.3777 104.392 40.198C103.314 42.5568 98.9608 41.3643 96.8251 40.9473C92.8879 28.5927 89.8651 15.9253 86.4671 3.40133C86.3647 2.84745 86.4534 2.20887 86.9379 1.84397C88.2343 0.853516 92.5263 -0.0978401 93.6044 1.64849C94.355 2.867 95.3376 7.59772 95.8016 9.31146C97.4733 15.4692 98.6333 21.7573 100.353 27.8955Z" fill="#E2725B"/>
<path d="M172.238 33.6689C172.361 34.0533 172.941 34.0859 173.309 34.125C176.025 34.4313 179.116 33.2779 181.764 33.8839C183.19 37.6894 183.34 41.1038 178.291 41.5208C175.527 41.7489 169.154 41.8401 166.493 41.5208C166.158 41.4818 165.776 41.5404 165.558 41.2276L165.155 2.33929C165.442 1.53781 171.29 1.02303 172.395 0.970905C173.903 0.899227 180.126 0.840582 180.931 1.77239C181.736 2.7042 181.893 6.29459 180.761 6.29459H171.931C172.265 8.18427 170.914 15.7625 171.761 16.9615C172.19 17.5675 173.521 16.955 174.244 16.9354C175.418 16.9029 179.198 16.8116 179.996 17.3851C180.945 18.0693 180.085 22.1353 178.748 22.7153C177.219 23.3734 173.985 22.3699 172.245 23.1649V33.6689H172.238Z" fill="#E2725B"/>
<path d="M126.842 8.37331C126.692 8.34725 126.105 8.05402 126.057 7.87157C125.92 7.31118 126.009 2.57395 126.221 2.15691C126.35 1.9093 126.63 1.70078 126.903 1.62911L147.926 1.25769C150.212 1.20556 150.007 6.78989 148.984 7.62396C147.674 8.69912 141.812 7.46757 141.546 8.5688C141.628 12.6935 141.485 16.8313 141.546 20.9625C141.628 26.3253 142.003 31.864 142.174 37.2268C142.276 40.4197 142.802 42.0227 138.919 42.4006C136.934 42.5961 134.689 42.9805 134.422 40.7846C134.191 38.8493 134.177 35.7541 134.109 33.6885C133.836 25.4717 134.47 17.1506 133.965 8.96628C133.883 8.83596 133.126 8.37331 133.037 8.37331C131.27 8.37331 128.431 8.62093 126.842 8.37331Z" fill="#E2725B"/>
<path d="M74.0142 1.27068C73.7413 3.02352 75.4198 7.73469 72.6359 8.08656C71.5919 8.21688 66.4674 7.69559 66.2559 8.56875L66.6858 41.1494C66.1195 42.4396 59.8009 42.8371 59.2823 42.1203L58.8388 8.65998C57.2489 8.1843 51.9539 8.77075 51.0805 7.93017C50.521 7.39585 50.6779 3.40145 51.06 2.56739C51.8174 0.899256 53.9532 1.58345 55.2633 1.57042C61.5477 1.51829 67.7571 1.38145 74.021 1.26416L74.0142 1.27068Z" fill="#E2725B"/>
<path d="M83.8468 0.755767C84.2358 1.10764 84.5633 2.32616 84.5633 2.88003L84.5428 41.0581C84.1744 42.8891 79.3843 42.9608 77.8831 42.6936C76.9893 42.5372 76.6071 41.2536 76.4843 40.4781L76.5184 2.91913C76.1431 0.201896 82.7756 -0.215137 83.8468 0.749251V0.755767Z" fill="#E2725B"/>
<path d="M122.898 42.0356C121.949 42.9087 115.037 43.5734 115.521 40.4847L115.549 2.61945C115.89 0.0911846 122.809 -0.566945 123.266 1.72022C123.327 8.82281 123.211 15.9254 123.266 23.0345C123.293 26.8855 123.3 31.0754 123.362 34.7961C123.389 36.3926 124.146 40.8887 122.898 42.0421V42.0356Z" fill="#E2725B"/>
<path d="M160.154 41.6577C157.963 42.9479 153.508 44.1208 152.389 41.0843L152.477 2.36539C152.757 1.15339 154.211 0.553904 155.384 0.404033C156.148 0.306291 160.161 0.123839 160.161 1.12081V41.6577H160.154Z" fill="#E2725B"/>
<path d="M30.0097 5.70806C35.5844 -3.0366 49.5248 -1.67472 50.1594 9.3962C50.2822 11.54 50.1389 13.573 47.4982 13.977C40.7089 15.0001 45.1782 8.90097 41.398 7.41529C38.9484 6.4509 37.2698 8.5491 36.2668 10.3541C33.4692 15.378 33.8581 23.8034 35.755 29.0749C36.5602 31.3165 38.3684 34.9329 41.4936 33.9881C43.4587 33.3886 42.7559 30.5867 44.4277 30.2804C49.129 29.4138 49.8046 31.4207 49.1495 35.3826C48.5968 38.7318 45.4921 41.3122 42.1009 41.814H41.7938C41.5891 41.827 41.3776 41.8075 41.1729 41.814C40.2039 41.8466 38.1705 41.9769 37.3654 41.801C37.1334 41.7488 36.6967 41.6315 36.4851 41.5599C35.9938 41.3904 35.523 41.0386 35.2842 40.9213C34.5473 40.5564 33.4282 39.7028 32.8073 39.1489C25.2878 32.4503 24.8784 13.775 30.0165 5.70806H30.0097Z" fill="#E2725B"/>
<path d="M13.4764 0.436523C13.7493 0.436523 14.2065 0.436523 14.3498 0.456072C16.4378 0.703685 16.3832 0.254072 17.2156 2.38485L26.5911 39.0381C27.0483 41.3514 20.7638 42.029 19.6107 41.2406C18.2801 40.3218 17.2702 31.5185 16.4855 29.4333C15.6326 27.1657 10.2011 28.5602 8.05854 28.2409C7.42395 29.4529 7.25337 33.33 5.87502 33.6949C4.70139 34.0077 0.354833 33.7992 0.00683594 32.4373C0.941652 28.6514 1.65812 24.8395 2.96822 21.1644C4.84468 15.3454 5.75903 8.88144 7.62183 3.11466C8.14724 1.47259 8.30418 1.08162 10.1875 0.684137C10.283 0.664588 10.4058 0.671104 10.5082 0.651556C10.6924 0.618975 10.9107 0.658072 11.1086 0.632008C11.211 0.618975 11.3406 0.586395 11.443 0.579878C12.2754 0.482136 12.6576 0.488653 13.49 0.449556L13.4764 0.436523ZM12.3437 10.1456C11.7364 10.2498 11.8387 10.7711 11.7159 11.1686C11.3475 12.348 9.11617 21.2751 9.27311 21.7964C9.51194 22.6044 14.2201 22.5458 14.459 21.5097L12.3437 10.1456Z" fill="#E2725B"/>
</g>
<defs>
<clipPath id="clip0_141_516">
<rect width="208" height="43" fill="white"/>
</clipPath>
</defs>
</svg>
