<svg width="77" height="45" viewBox="0 0 77 45" fill="none" xmlns="http://www.w3.org/2000/svg">
<g clip-path="url(#clip0_245_20)">
<path d="M41.5 32C41.4745 31.9506 40.9779 30.8268 40.9397 30.7466C40.6339 30.0864 39.3854 27.4085 39.3345 26.8963C39.2071 25.687 42.0927 25.218 42.7806 25.8967C43.8571 27.9083 44.5005 30.1481 45.6535 32.1041L48.6155 25.5265C49.1187 24.9404 51.9788 25.8659 52.1062 26.3287C52.2018 26.6557 51.9916 27.0012 51.8833 27.3036C50.7685 30.3702 48.8448 33.4677 47.6855 36.559C47.6473 38.2497 47.6027 39.9527 47.6409 41.6434C47.66 42.4085 48.2397 44.1238 47.2905 44.5434C46.8255 44.747 44.2839 44.8149 44.0482 44.3459C43.9591 44.167 43.8571 42.0691 43.8317 41.6125C43.7489 40.1008 44.0291 38.299 43.7998 36.8367C43.6278 35.726 42.086 33.2834 41.5 32Z" fill="#F6F5F1"/>
<path d="M2.86654 25.1316C5.36356 23.9654 8.24278 24.7984 9.40211 27.248C10.2493 29.0374 10.2812 30.0247 8.0262 30.364C6.22988 30.6355 6.88598 30.3023 6.46557 29.167C5.74576 27.1987 3.51628 27.9021 3.82203 30.3332C4.10231 32.536 8.37655 34.4735 9.65054 36.4603C12.5107 40.9153 8.44025 46.5734 3.236 44.3768C1.54159 43.661 -0.229256 41.3102 0.146572 39.4652C0.261231 38.8914 1.89831 38.3669 2.48434 38.3114C3.82203 38.1757 3.47169 39.2061 3.7456 40.0144C4.64376 42.68 8.14086 41.1127 6.42098 38.1942C5.3126 36.3184 2.57989 35.1707 1.26768 33.5047C-0.808921 30.8638 -0.382134 26.6557 2.86654 25.1378V25.1316Z" fill="#F6F5F1"/>
<path d="M19.3392 25.5944C20.6896 25.5512 22.0337 25.4772 23.3841 25.4772C23.9001 25.508 23.9319 26.014 23.9765 26.4459C24.3077 29.7902 22.7535 28.6425 20.1418 29.0004L20.4284 43.7659C19.4921 44.7408 16.7848 45.1172 16.6128 43.3402C16.3772 40.8474 16.4982 38.6433 16.46 36.0703C16.46 35.9654 16.46 35.4252 16.46 35.3203V35C16.46 34.8951 16.46 34.6894 16.46 34.5845C16.46 34.2822 16.4663 34.1728 16.46 33.8828C16.46 33.7779 16.46 33.5987 16.46 33.5C16.4536 33.2347 16.46 33.1049 16.46 33C16.4633 32.3704 16.46 32.3139 16.46 32.2645C16.46 32.0391 16.4682 31.86 16.46 31.6475C16.4281 30.8268 16.4854 29.9938 16.46 29.167H13.5043C13.2368 29.167 12.9629 29.42 12.6125 28.9449C12.3577 28.5993 12.2303 26.1004 12.9501 25.8412C15.0777 25.7733 17.218 25.6685 19.3456 25.6067L19.3392 25.5944Z" fill="#F6F5F1"/>
<path d="M15.4535 1.88811C16.2243 1.12299 17.4855 0.370217 18.5875 0.197449C29.2445 -1.42534 28.4355 17.5977 21.0272 19.603C11.6061 22.1514 10.5932 6.7318 15.4535 1.88811ZM21.2565 4.21431C20.403 3.4492 19.1481 3.54175 18.2818 4.24517C15.8867 6.19498 15.9567 12.3406 17.2244 14.8519C18.0588 16.4994 19.7469 16.8881 21.0591 15.4566C23.0529 13.2785 23.5306 6.26285 21.2502 4.20814L21.2565 4.21431Z" fill="#F6F5F1"/>
<path d="M39.2963 1.7647C43.4176 5.79391 42.5067 17.536 36.4744 19.5413C25.2696 23.2682 24.7409 -1.5796 36.3597 0.203619C37.5573 0.388728 38.4745 0.956395 39.3026 1.77087L39.2963 1.7647ZM34.5443 3.72686C33.0664 4.05389 31.888 6.81818 31.7287 8.12628C31.4931 10.0267 31.5695 16.3821 34.5124 16.376C37.1751 16.376 38.0923 11.594 38.1178 9.66269C38.1433 7.73139 37.5127 3.06664 34.5443 3.72686Z" fill="#F6F5F1"/>
<path d="M51.8642 19.4982C51.7622 19.3624 51.4055 18.9181 51.3864 18.8811C51.1316 18.406 51.1889 18.5849 51.0679 18.4184C50.7558 17.9864 50.6348 17.3447 50.4054 16.9683C49.9787 16.2649 48.6219 14.0066 48.1696 13.5562C47.7173 13.1057 47.4562 13.2353 47.3861 13.84C47.2205 15.1789 47.7173 17.4558 47.6536 18.9367C47.6281 19.529 47.4498 19.8622 46.8192 19.9548C45.8127 20.109 43.9654 20.2571 43.7488 19.0786C43.6151 18.3628 43.5769 16.8388 43.545 16.0243C43.4686 14.167 43.596 12.2912 43.5577 10.434C43.5004 7.78075 43.0354 4.03538 43.4049 1.46236C43.4622 1.04895 43.545 0.876186 43.9782 0.795972C44.3731 0.721929 46.2522 0.672566 46.5835 0.758951C46.679 0.783632 47.2587 1.26492 47.2205 1.45619V7.57096L51.8642 0.0431958C52.533 -0.271489 55.2721 1.19087 55.3549 1.62279C55.4568 2.14727 50.7303 8.6014 50.2844 9.69355L55.546 18.19C55.6097 18.8688 53.119 20.325 52.4502 20.0905C52.3865 20.072 51.9406 19.5907 51.8642 19.492V19.4982Z" fill="#F6F5F1"/>
<path d="M10.0645 17.5854C8.21721 19.6154 4.43983 20.3126 1.82815 19.5475C0.515937 19.165 0.936354 17.3262 0.840804 16.3204C0.496827 12.7478 0.343948 9.21226 0.210179 5.62115C0.178329 4.76348 -0.305787 1.37598 0.318468 0.894697C0.522307 0.74044 1.7326 0.320859 2.03836 0.277667C5.32525 -0.185106 9.37017 0.290007 10.2365 3.96751C10.7142 6.00371 10.039 7.65118 8.68222 9.18758C11.8927 10.6808 12.2876 15.1481 10.0645 17.5854ZM6.06417 7.36117C7.04514 6.48499 7.25535 4.60922 6.10876 3.7824C5.3571 3.23941 4.59908 3.3875 3.72002 3.38133L3.87927 8.03374C4.61182 8.10161 5.52272 7.84246 6.06417 7.36117ZM4.30606 11.1497C3.90475 11.2793 4.02578 12.3961 4.03852 12.7602C4.08311 13.8832 4.29332 15.1543 4.39524 16.2896C4.56086 16.7647 5.75204 16.4439 6.12787 16.3143C8.61852 15.4628 8.59941 11.5323 5.71382 11.1374C5.40169 11.0942 4.5736 11.0634 4.31243 11.1436L4.30606 11.1497Z" fill="#F6F5F1"/>
<path d="M34.1621 25.4895C34.3404 25.6746 34.436 26.0572 34.5251 26.304C35.6781 29.6545 36.3788 33.7824 37.2642 37.281C37.5827 38.5212 39.1561 43.26 39.0096 44.1053C38.8758 44.8889 36.3724 45.1419 35.7545 44.9383C34.85 44.6421 34.3404 38.8297 33.627 37.8239C33.3594 37.6573 30.3146 37.4167 30.0789 37.5524C29.5247 38.2127 29.5247 40.5018 28.7794 40.7178C28.4928 40.798 25.9321 40.2118 25.8939 40.0576L29.8241 25.4463C30.3656 24.7491 33.5569 24.8416 34.1684 25.4895H34.1621ZM31.9772 29.4694C31.5 30.5 30.6013 33.8256 30.7223 34.3315C30.8115 34.7203 33.1747 35.2694 33.0855 34.0601C33.0091 33.0605 32.4868 30.9811 32.2129 29.9383C32.1683 29.7655 32 29.5 31.9772 29.4755V29.4694Z" fill="#F6F5F1"/>
<path d="M75.6942 19.9609C75.4712 19.9979 75.1463 19.9609 74.8915 19.9609C74.2482 19.9671 73.5793 20.1214 73.2226 19.4858C72.7003 18.5603 72.5028 16.3081 72.2289 15.1851C72.1397 14.8087 71.7066 13.0378 71.5346 12.9144C71.1587 12.6491 68.1585 12.5504 67.8527 12.7478C67.4005 13.6364 67.2603 14.6421 66.9482 15.58C66.8909 15.7528 66.5979 15.8577 66.5787 15.9317C66.05 15.8762 63.8078 15.4751 63.6104 15.1604C64.7506 10.8227 65.8589 6.34924 67.1839 2.02386C67.254 1.80173 67.5 1.00002 67.5 1.00002C67.5573 0.814914 67.6298 0.555328 67.7763 0.431922C68.4069 -0.0802128 71.6683 -0.0678722 72.1525 0.697245C73.7195 6.70095 75.1973 12.7108 76.9681 18.659C77.2102 19.4179 76.312 19.8499 75.7005 19.9548L75.6942 19.9609ZM71.0505 9.73057C70.7065 8.18799 70.5472 6.5652 70.0504 5.05965C69.9994 4.89922 70.0122 4.5907 69.7828 4.62773C69.9039 5.50391 68.4961 8.96545 68.6745 9.48375C68.8273 9.92801 70.6173 9.98972 71.0568 9.73057H71.0505Z" fill="#F6F5F1"/>
</g>
<defs>
<clipPath id="clip0_245_20">
<rect width="77" height="45" fill="white"/>
</clipPath>
</defs>
</svg>
