<svg width="28" height="28" viewBox="0 0 28 28" fill="none" xmlns="http://www.w3.org/2000/svg">
<path fill-rule="evenodd" clip-rule="evenodd" d="M8.45801 11.6667C8.45801 8.60609 10.9391 6.125 13.9997 6.125C17.0602 6.125 19.5414 8.60609 19.5414 11.6667C19.5414 14.7273 17.0602 17.2083 13.9997 17.2083C10.9391 17.2083 8.45801 14.7273 8.45801 11.6667ZM13.9997 7.875C11.9056 7.875 10.208 9.57258 10.208 11.6667C10.208 13.7607 11.9056 15.4583 13.9997 15.4583C16.0937 15.4583 17.7914 13.7607 17.7914 11.6667C17.7914 9.57258 16.0937 7.875 13.9997 7.875Z" fill="#F5F5F0"/>
<path fill-rule="evenodd" clip-rule="evenodd" d="M4.11146 10.333C4.52485 5.31799 8.71569 1.45837 13.7477 1.45837H14.2517C19.2838 1.45837 23.4746 5.31799 23.8879 10.333C24.11 13.027 23.2779 15.7021 21.5667 17.7947L15.9749 24.6335C14.954 25.882 13.0454 25.882 12.0245 24.6335L6.43266 17.7947C4.72156 15.7021 3.8894 13.027 4.11146 10.333ZM13.7477 3.20837C9.62645 3.20837 6.1941 6.36943 5.85555 10.4768C5.67072 12.7189 6.36331 14.9453 7.78742 16.687L13.3793 23.5258C13.7 23.9179 14.2994 23.9179 14.6201 23.5258L20.212 16.687C21.6361 14.9453 22.3287 12.7189 22.1439 10.4768C21.8053 6.36943 18.373 3.20837 14.2517 3.20837H13.7477Z" fill="#F5F5F0"/>
</svg>
