<svg width="18" height="15" viewBox="0 0 18 15" fill="none" xmlns="http://www.w3.org/2000/svg">
<path fill-rule="evenodd" clip-rule="evenodd" d="M4.75194 0.143049C7.4483 -0.0601808 10.1565 -0.0468406 12.8507 0.182919L14.4745 0.321389C15.701 0.425989 16.6964 1.3568 16.8829 2.57355L16.9853 3.24188C17.3329 5.50978 17.3005 7.81975 16.8892 10.0769C16.6862 11.1907 15.7161 12.0001 14.584 12.0001H5.60756C5.40104 12.0001 5.19774 12.0512 5.01583 12.149L1.10504 14.2507C0.87261 14.3756 0.59163 14.3692 0.36515 14.2338C0.13867 14.0984 0 13.854 0 13.5901V5.07284C0 2.49424 1.98741 0.351409 4.55871 0.157609L4.75194 0.143049ZM4.75 5.09013C4.05964 5.09013 3.5 5.64975 3.5 6.34015C3.5 7.03045 4.05964 7.59015 4.75 7.59015C5.44036 7.59015 6 7.03045 6 6.34015C6 5.64975 5.44036 5.09013 4.75 5.09013ZM8.75 5.09013C8.0596 5.09013 7.5 5.64975 7.5 6.34015C7.5 7.03045 8.0596 7.59015 8.75 7.59015C9.4404 7.59015 10 7.03045 10 6.34015C10 5.64975 9.4404 5.09013 8.75 5.09013ZM11.5 6.34015C11.5 5.64975 12.0596 5.09013 12.75 5.09013C13.4404 5.09013 14 5.64975 14 6.34015C14 7.03045 13.4404 7.59015 12.75 7.59015C12.0596 7.59015 11.5 7.03045 11.5 6.34015Z" fill="#F5F5F0"/>
</svg>
