<svg width="24" height="24" viewBox="0 0 24 24" fill="none" xmlns="http://www.w3.org/2000/svg">
<path d="M7.28934 4.90761C10.424 4.63513 13.5764 4.63512 16.711 4.90761L18.2213 5.03889C19.2266 5.12629 20.0877 5.72596 20.5339 6.58374C20.5909 6.69347 20.5481 6.82633 20.443 6.89144L14.177 10.7704C12.8332 11.6023 11.1386 11.6197 9.77788 10.8157L3.47005 7.08833C3.36814 7.02811 3.32136 6.90415 3.36729 6.79505C3.77545 5.82548 4.69308 5.1333 5.77911 5.0389L7.28934 4.90761Z" fill="#F5F5F0"/>
<path d="M3.3623 8.76688C3.20633 8.67472 3.00733 8.7739 2.98915 8.95414C2.73542 11.4698 2.79683 14.0092 3.17338 16.5133C3.3719 17.8334 4.44931 18.8455 5.77925 18.9611L7.28948 19.0924C10.4241 19.3649 13.5765 19.3649 16.7111 19.0924L18.2214 18.9611C19.5513 18.8455 20.6287 17.8334 20.8272 16.5133C21.2148 13.9363 21.2685 11.3217 20.9885 8.73428C20.9688 8.55276 20.7665 8.45541 20.6112 8.55151L14.9667 12.0458C13.1485 13.1713 10.8559 13.1949 9.01492 12.1071L3.3623 8.76688Z" fill="#F5F5F0"/>
</svg>
