<svg width="17" height="17" viewBox="0 0 17 17" fill="none" xmlns="http://www.w3.org/2000/svg">
<path d="M0.833052 6.55999C2.74945 10.7339 6.15945 14.0524 10.399 15.8514L11.0786 16.1542C12.6335 16.847 14.4612 16.3207 15.4095 14.9072L16.2976 13.5835C16.5864 13.1531 16.4985 12.5734 16.0951 12.248L13.0832 9.81816C12.6409 9.46126 11.9904 9.54446 11.6519 10.0011L10.7202 11.2584C8.32935 10.079 6.38825 8.13796 5.20895 5.74714L6.46615 4.81542C6.92285 4.477 7.00595 3.82648 6.64905 3.3841L4.21923 0.372161C3.89388 -0.0311191 3.31438 -0.119089 2.88401 0.169481L1.55117 1.06318C0.128832 2.01688 -0.394547 3.85973 0.314183 5.41868L0.832273 6.5583L0.833052 6.55999Z" fill="#F5F5F0"/>
</svg>
