<svg width="20" height="21" viewBox="0 0 20 21" fill="none" xmlns="http://www.w3.org/2000/svg">
<path d="M0.03367 20.3199L1.42256 15.1389C0.488215 13.5859 0 11.8182 0 10C0 4.48656 4.48653 3.05176e-05 10 3.05176e-05C15.5135 3.05176e-05 20 4.48656 20 10C20 15.5135 15.5135 20 10 20C8.40067 20 6.81818 19.6128 5.40825 18.8805L0.0378785 20.3199H0.03367ZM5.58502 17.3527L5.83754 17.4916C7.10438 18.1945 8.54377 18.5691 9.99579 18.5691C14.7222 18.5691 18.5648 14.7223 18.5648 10C18.5648 5.27781 14.718 1.43101 9.99579 1.43101C5.27357 1.43101 1.42677 5.27781 1.42677 10C1.42677 11.6499 1.89815 13.2534 2.7904 14.6381L2.96296 14.9032L2.05387 18.2997L5.58502 17.3527Z" fill="#F6F5F1"/>
<path d="M13.1867 11.5362C12.8205 11.3047 12.3365 11.3804 12.0882 11.7298C11.9283 11.957 11.7683 12.1843 11.6084 12.4116C10.0554 11.3173 8.70017 9.9621 7.60168 8.40486C7.82895 8.24493 8.05623 8.08499 8.2835 7.92506C8.62862 7.67675 8.70437 7.19274 8.4771 6.82658C8.16986 6.33415 7.88788 5.82489 7.63535 5.2988C7.44596 4.90739 6.99562 4.70537 6.6 4.8653C6.29276 4.99156 5.98131 5.12203 5.67407 5.2483C4.84074 5.57237 4.51246 6.71294 5.06801 7.71462C6.7473 10.7618 9.25993 13.2744 12.3071 14.9537C13.313 15.5092 14.4493 15.1767 14.7734 14.3476C14.8997 14.0404 15.0301 13.7289 15.1564 13.4217C15.3163 13.0261 15.1143 12.5757 14.7229 12.3863C14.1968 12.1338 13.6833 11.8518 13.1951 11.5446L13.1867 11.5362Z" fill="#F6F5F1"/>
</svg>
