<svg width="29" height="26" viewBox="0 0 29 26" fill="none" xmlns="http://www.w3.org/2000/svg">
<g clip-path="url(#clip0_141_1419)">
<path d="M3.48265 9.64201C2.93322 9.06028 2.59647 8.28753 2.59647 7.43663V4.99683C2.59647 3.19953 4.08967 1.73652 5.92405 1.73652H23.0804C24.9147 1.73652 26.4079 3.19953 26.4079 4.99683V7.43663C26.4079 8.28753 26.0712 9.06028 25.5218 9.64201L26.3016 11.3047C27.4448 10.3887 28.1803 8.99516 28.1803 7.43663V4.99683C28.1803 2.24445 25.894 0 23.0804 0H5.91962C3.11045 0 0.824127 2.24011 0.824127 4.99683V7.43663C0.824127 8.99516 1.55522 10.3887 2.70281 11.3047L3.48265 9.64201Z" fill="white"/>
<path d="M0.88616 16.3754H2.26859L5.4145 9.68109C4.94483 9.07765 4.66126 8.32661 4.66126 7.51045C4.66126 7.3585 4.67455 7.2109 4.69227 7.06329L3.48265 9.64202L2.70281 11.3047L0.0797424 16.879C0.0797424 16.879 0.0797424 16.8833 0.0797424 16.8876C0.217099 16.5837 0.52726 16.371 0.88616 16.371V16.3754Z" fill="white"/>
<path d="M25.5173 9.64202L24.3077 7.06329C24.3254 7.2109 24.3387 7.3585 24.3387 7.51045C24.3387 8.32661 24.0552 9.07765 23.5855 9.68109L26.7314 16.3754H28.1138C28.4727 16.3754 28.7829 16.5881 28.9202 16.892C28.9202 16.892 28.9202 16.8876 28.9202 16.8833L26.3016 11.3047L25.5218 9.64202H25.5173Z" fill="white"/>
<path d="M8.31672 11.092H11.7285C12.8362 11.092 13.8287 10.6058 14.4978 9.84173C13.9483 9.21225 13.6116 8.40042 13.6116 7.51046C13.6116 8.53066 12.7653 9.35551 11.7285 9.35551H8.31672C7.27546 9.35551 6.4336 8.52632 6.4336 7.51046C6.4336 6.4946 7.2799 5.66541 8.31672 5.66541H11.7285C12.7697 5.66541 13.6116 6.4946 13.6116 7.51046C13.6116 6.62049 13.9483 5.80433 14.4978 5.17919C13.8287 4.41512 12.8362 3.92889 11.7285 3.92889H8.31672C6.45575 3.92889 4.91824 5.30074 4.69227 7.06765C4.67455 7.21525 4.66125 7.36286 4.66125 7.5148C4.66125 8.33096 4.94483 9.08201 5.4145 9.68545C6.08356 10.5407 7.13368 11.1007 8.31672 11.1007V11.092Z" fill="white"/>
<path d="M20.6788 3.92451H17.2671C16.1594 3.92451 15.1668 4.41074 14.4978 5.17481C13.9483 5.80429 13.6116 6.61612 13.6116 7.50608C13.6116 8.39605 13.9483 9.21221 14.4978 9.83736C15.1713 10.6014 16.1594 11.0876 17.2671 11.0876H20.6788C21.8619 11.0876 22.912 10.532 23.581 9.67239C24.0507 9.06895 24.3343 8.3179 24.3343 7.50174C24.3343 7.34979 24.321 7.20219 24.3033 7.05459C24.0773 5.28768 22.5398 3.91583 20.6788 3.91583V3.92451ZM22.5664 7.51042C22.5664 8.53063 21.7201 9.35547 20.6833 9.35547H17.2715C16.2302 9.35547 15.3884 8.52628 15.3884 7.51042C15.3884 6.49456 16.2347 5.66537 17.2715 5.66537H20.6833C21.7245 5.66537 22.5664 6.49456 22.5664 7.51042Z" fill="white"/>
<path d="M28.9823 17.083C28.969 17.0179 28.9468 16.9528 28.9202 16.892C28.7829 16.5881 28.4727 16.3754 28.1138 16.3754H0.886167C0.527267 16.3754 0.217107 16.5881 0.0797497 16.892C0.0531645 16.9528 0.0310102 17.0179 0.0177176 17.083C0.0177176 17.096 0.0177176 17.109 0.0177176 17.1264C0.0132868 17.1655 0.00442505 17.2046 0.00442505 17.248V21.6283C0.00442505 21.1508 0.403203 20.7601 0.890598 20.7601C1.37799 20.7601 1.77677 21.1508 1.77677 21.6283V18.1162H27.2321V21.6283C27.2321 21.1508 27.6309 20.7601 28.1183 20.7601C28.6056 20.7601 29.0044 21.1508 29.0044 21.6283V17.248C29.0044 17.2089 28.9956 17.1655 28.9911 17.1264C28.9911 17.1134 28.9911 17.096 28.9911 17.083H28.9823Z" fill="white"/>
<path d="M27.2276 22.1666H1.77234V23.9031H27.2276V22.1666Z" fill="white"/>
<path d="M1.77235 22.1667V21.624C1.77235 21.1465 1.37357 20.7557 0.886173 20.7557C0.398778 20.7557 0 21.1465 0 21.624V25.1318C0 25.6093 0.398778 26 0.886173 26C1.37357 26 1.77235 25.6093 1.77235 25.1318V22.1667Z" fill="white"/>
<path d="M28.1138 20.7557C27.6264 20.7557 27.2277 21.1465 27.2277 21.624V25.1318C27.2277 25.6093 27.6264 26 28.1138 26C28.6012 26 29 25.6093 29 25.1318V21.624C29 21.1465 28.6012 20.7557 28.1138 20.7557Z" fill="white"/>
</g>
<defs>
<clipPath id="clip0_141_1419">
<rect width="29" height="26" fill="white"/>
</clipPath>
</defs>
</svg>
