<svg width="27" height="27" viewBox="0 0 27 27" fill="none" xmlns="http://www.w3.org/2000/svg">
<g clip-path="url(#clip0_141_1410)">
<path d="M4.94434 12.5069V12.0692C4.21574 12.065 3.62613 11.4716 3.62613 10.7436C3.62613 10.0156 4.21574 9.42224 4.94434 9.41803V7.73474C3.28921 7.73895 1.94153 9.08979 1.94153 10.7436C1.94153 12.3975 3.29342 13.7525 4.95697 13.7525C4.98645 13.7525 5.01593 13.7525 5.04541 13.7483C4.98645 13.3443 4.94434 12.9319 4.94434 12.5069Z" fill="white"/>
<path d="M22.0557 9.41803C22.7843 9.42224 23.3739 10.0156 23.3739 10.7436C23.3739 11.4716 22.7843 12.065 22.0557 12.0692V12.4858C22.0557 12.9151 22.0136 13.3359 21.9504 13.7483C21.9799 13.7483 22.0136 13.7525 22.0431 13.7525C23.7066 13.7525 25.0543 12.4017 25.0543 10.7436C25.0543 9.08558 23.7066 7.73895 22.0515 7.73474V9.41803H22.0557Z" fill="white"/>
<path d="M20.847 18.209H19.8404C19.2424 18.8739 18.5433 19.442 17.7642 19.8923H20.847C23.3107 19.8923 25.3154 21.8954 25.3154 24.3572V25.3209H1.6846V24.3572C1.6846 21.8954 3.68928 19.8923 6.15302 19.8923H9.219C8.43987 19.442 7.74497 18.8739 7.14693 18.209H6.15302C2.76275 18.209 0 20.9654 0 24.3572V27.0042H27V24.3572C27 20.9696 24.2415 18.209 20.847 18.209Z" fill="white"/>
<path d="M9.21896 19.8923C10.4782 20.6203 11.9312 21.0453 13.4894 21.0453C15.0477 21.0453 16.5049 20.6203 17.7683 19.8923C18.5475 19.442 19.2466 18.8739 19.8446 18.209C20.948 16.9886 21.7019 15.4484 21.9546 13.7483C22.0177 13.3359 22.0599 12.915 22.0599 12.4858V6.43016C21.6134 6.71211 21.087 6.87624 20.5227 6.87624H20.3753V12.4858C20.3753 16.2774 17.2882 19.3663 13.4894 19.3663C9.69065 19.3663 6.62888 16.29 6.62888 12.5111V6.67424C5.64339 6.27025 4.94849 5.30236 4.94849 4.17455V3.60223V12.5111C4.94849 12.9319 4.9906 13.3443 5.04956 13.7525C5.29804 15.4526 6.0519 16.9928 7.15111 18.2132C7.74914 18.8781 8.44825 19.4462 9.22317 19.8965L9.21896 19.8923Z" fill="white"/>
<path d="M8.9621 13.2517C8.9621 15.7514 10.9963 17.7882 13.4979 17.7882C15.9995 17.7882 18.0337 15.7556 18.0337 13.2517V12.4101H8.95789V13.2517H8.9621ZM16.227 14.0934C15.869 15.2549 14.7824 16.1049 13.5021 16.1049C12.2218 16.1049 11.1352 15.2591 10.7773 14.0934H16.2312H16.227Z" fill="white"/>
<path d="M12.5756 8.89618H8.69678V10.3733H12.5756V8.89618Z" fill="white"/>
<path d="M18.3032 8.89618H14.4244V10.3733H18.3032V8.89618Z" fill="white"/>
<path d="M6.62894 6.67425C6.9448 6.80471 7.29015 6.87625 7.65234 6.87625H20.5227C21.0871 6.87625 21.6135 6.71213 22.0599 6.43017C22.8643 5.92098 23.4034 5.02463 23.4034 4.00203V0H7.82501C6.23727 0 4.94434 1.29193 4.94434 2.87843V4.17456C4.94434 5.30237 5.63924 6.27026 6.62473 6.67425H6.62894ZM7.82501 1.68329H21.7146V3.99782C21.7146 4.6543 21.1797 5.19295 20.5185 5.19295H7.64813C7.08378 5.19295 6.62894 4.73426 6.62894 4.17456V2.87843C6.62894 2.22195 7.1638 1.68329 7.82501 1.68329Z" fill="white"/>
</g>
<defs>
<clipPath id="clip0_141_1410">
<rect width="27" height="27" fill="white"/>
</clipPath>
</defs>
</svg>
