<svg width="26" height="26" viewBox="0 0 26 26" fill="none" xmlns="http://www.w3.org/2000/svg">
<g clip-path="url(#clip0_141_1402)">
<path d="M23.3063 0H2.69366C1.21007 0 0 1.20593 0 2.69366V23.3063C0 24.7899 1.21007 26 2.69366 26H23.3063C24.7899 26 26 24.7899 26 23.3063V2.69366C26 1.21007 24.7899 0 23.3063 0ZM24.649 22.2786L24.3424 22.03V23.3063C24.3424 23.8782 23.8782 24.3424 23.3063 24.3424H22.9044L23.1323 24.5288L22.088 25.8177L20.2687 24.3465H2.69366C2.6605 24.3465 2.62735 24.3382 2.5942 24.3382L1.97259 25.1049L0.683774 24.0606L1.65763 22.8588V19.1457L1.50845 19.3322L0.219637 18.2879L1.65763 16.5142V2.69366C1.65763 2.12177 2.12177 1.65763 2.69366 1.65763H13.6921L14.8897 0.178196L16.1785 1.22251L15.8263 1.65763H18.8349L20.0325 0.178196L21.3213 1.22251L20.9691 1.65763H23.3105C23.8824 1.65763 24.3465 2.12177 24.3465 2.69366V19.8999L25.6975 20.9939L24.6532 22.2828L24.649 22.2786Z" fill="white"/>
<path d="M4.74501 12.6975L1.65766 16.5101L0.219666 18.2837L1.50848 19.328L1.65766 19.1416L5.75617 14.0816C5.52824 13.8247 5.15113 13.3689 4.74501 12.6975Z" fill="white"/>
<path d="M9.4278 9.55215L15.8221 1.65766L16.1744 1.22253L14.8856 0.178223L13.6879 1.65766L9.88365 6.35291C9.85878 7.54226 9.68473 8.61144 9.4278 9.548V9.55215Z" fill="white"/>
<path d="M24.3424 19.8999L13.3813 11.0192L20.9649 1.65766L21.3172 1.22253L20.0284 0.178223L18.8307 1.65766L11.5703 10.6172C11.4335 10.7871 11.3672 11.0067 11.3879 11.2264C11.4128 11.446 11.5206 11.6449 11.6905 11.7858L24.3382 22.0341L24.6449 22.2828L25.6892 20.994L24.3382 19.8999H24.3424Z" fill="white"/>
<path d="M9.38636 13.7004C9.16672 13.7252 8.96781 13.833 8.83105 14.0029L1.65764 22.8547L0.683777 24.0564L1.97259 25.1008L2.5942 24.3341L9.59356 15.6937L20.2729 24.3465L22.0921 25.8177L23.1364 24.5289L22.9085 24.3424L9.99554 13.8827C9.82563 13.746 9.61014 13.6838 9.38636 13.7004Z" fill="white"/>
<path d="M9.89605 6.07525C9.89605 5.0268 9.48993 4.01564 8.77715 3.30286C8.13067 2.65638 7.29357 2.29999 6.41088 2.29999C5.52819 2.29999 4.66622 2.66467 4.01145 3.32772C3.30696 4.04465 2.91327 5.04752 2.9257 6.08354C2.97129 9.13359 3.91614 11.3382 4.74081 12.6975C5.14693 13.3688 5.52404 13.8247 5.75197 14.0816C5.87629 14.2184 5.95917 14.3013 5.97989 14.322C6.10007 14.4339 6.2534 14.4919 6.40673 14.4919C6.56006 14.4919 6.72168 14.4339 6.84186 14.3137C6.93303 14.2225 8.59067 12.5566 9.42363 9.55214C9.68056 8.61558 9.85461 7.5464 9.87948 6.35705C9.87948 6.26173 9.88777 6.17056 9.88777 6.07525H9.89605ZM6.41088 3.54321C6.9579 3.54321 7.4842 3.77114 7.89446 4.1814C8.37517 4.66212 8.64868 5.35004 8.64868 6.07111C8.64868 9.55214 7.16096 11.9267 6.40673 12.913C5.66494 11.9557 4.22694 9.64331 4.17307 6.06282C4.16064 5.35832 4.42586 4.67869 4.89829 4.19798C5.31269 3.77528 5.85143 3.54321 6.41088 3.54321Z" fill="white"/>
<path d="M6.41089 7.57952C7.27286 7.57952 7.97735 6.87917 7.97735 6.01306C7.97735 5.14695 7.27286 4.44659 6.41089 4.44659C5.54892 4.44659 4.84442 5.14695 4.84442 6.01306C4.84442 6.87917 5.54477 7.57952 6.41089 7.57952ZM6.41089 5.27541C6.81701 5.27541 7.14853 5.60694 7.14853 6.01306C7.14853 6.41918 6.81701 6.75071 6.41089 6.75071C6.00477 6.75071 5.67324 6.41918 5.67324 6.01306C5.67324 5.60694 6.00477 5.27541 6.41089 5.27541Z" fill="white"/>
</g>
<defs>
<clipPath id="clip0_141_1402">
<rect width="26" height="26" fill="white"/>
</clipPath>
</defs>
</svg>
