<svg width="31" height="29" viewBox="0 0 31 29" fill="none" xmlns="http://www.w3.org/2000/svg">
<g clip-path="url(#clip0_141_1436)">
<path d="M25.6083 21.7687L24.104 27.2418H6.76904L5.26481 21.7687H3.38904L5.19684 28.3478C5.30105 28.7356 5.66352 29 6.07129 29H24.8018C25.2141 29 25.572 28.7312 25.6762 28.3478L27.484 21.7687H25.6083Z" fill="white"/>
<path d="M27.9553 15.8462H27.1715C25.7805 12.6735 21.3176 8.71191 15.6269 8.71191C9.93614 8.71191 5.38718 12.7263 4.05512 15.8462H3.04021C1.3638 15.8462 -0.0045166 17.1726 -0.0045166 18.8031C-0.0045166 20.4335 1.35927 21.7643 3.04021 21.7643H27.9553C29.6317 21.7643 31 20.4379 31 18.8031C31 17.1682 29.6362 15.8462 27.9553 15.8462ZM27.9553 20.0061H3.04474C2.36511 20.0061 1.81235 19.4685 1.81235 18.8075C1.81235 18.1465 2.36511 17.6133 3.04474 17.6133H4.69849C5.10174 17.6133 5.45968 17.3533 5.56842 16.9743C6.37037 14.2599 10.5841 10.479 15.6314 10.479C20.937 10.479 24.9332 14.6565 25.6808 16.992C25.7986 17.3621 26.1475 17.6133 26.5462 17.6133H27.9598C28.6394 17.6133 29.1922 18.1509 29.1922 18.8075C29.1922 19.4641 28.6394 20.0061 27.9598 20.0061H27.9553Z" fill="white"/>
<path d="M15.4139 17.9438C15.9123 17.9438 16.3201 17.5472 16.3201 17.0625V12.8365C16.3201 12.3518 15.9123 11.9552 15.4139 11.9552C14.9155 11.9552 14.5078 12.3518 14.5078 12.8365V17.0625C14.5078 17.5472 14.9155 17.9438 15.4139 17.9438Z" fill="white"/>
<path d="M9.43776 18.0187C9.58727 18.1112 9.75492 18.1509 9.91803 18.1509C10.2216 18.1509 10.5161 18.0055 10.6883 17.7366L13.5019 13.3697C13.7692 12.9555 13.6378 12.4134 13.2165 12.1535C12.7906 11.8935 12.2333 12.0213 11.966 12.4311L9.15231 16.798C8.88499 17.2123 9.01639 17.7543 9.43776 18.0143V18.0187Z" fill="white"/>
<path d="M19.9901 17.7411C20.1622 18.0099 20.4567 18.1553 20.7603 18.1553C20.9234 18.1553 21.0911 18.1112 21.2406 18.0231C21.6665 17.7631 21.7933 17.2211 21.526 16.8069L18.7124 12.4399C18.4451 12.0257 17.8878 11.9023 17.4619 12.1623C17.036 12.4223 16.9091 12.9643 17.1764 13.3785L19.9901 17.7455V17.7411Z" fill="white"/>
<path d="M9.5465 4.98829C9.51479 5.38929 9.04811 5.79911 8.88953 5.90928C8.47723 6.18689 8.37302 6.73331 8.65846 7.13432C8.83516 7.38109 9.11608 7.51769 9.40605 7.51769C9.58275 7.51769 9.76398 7.46922 9.91803 7.36346C10.054 7.27092 11.2456 6.43807 11.3543 5.13371C11.3996 4.5961 11.2682 3.78528 10.3892 2.97006C10.0449 2.64837 10.054 2.44567 10.0585 2.37957C10.0721 2.0667 10.4164 1.70535 10.5841 1.57756C10.9783 1.28232 11.0553 0.73149 10.7562 0.348114C10.4527 -0.0396693 9.88632 -0.114582 9.4876 0.176255C9.3698 0.264388 8.32318 1.06639 8.25068 2.27381C8.2235 2.76735 8.35036 3.51207 9.13873 4.24357C9.4287 4.51237 9.56463 4.76355 9.55104 4.98829H9.5465Z" fill="white"/>
<path d="M15.3369 4.98829C15.3051 5.38929 14.8385 5.79911 14.6799 5.90928C14.2676 6.18689 14.1634 6.73331 14.4488 7.13432C14.6255 7.38109 14.9064 7.51769 15.1964 7.51769C15.3731 7.51769 15.5543 7.46922 15.7084 7.36346C15.8443 7.27092 17.0359 6.43807 17.1447 5.13371C17.19 4.5961 17.0586 3.78528 16.1796 2.97006C15.8353 2.64837 15.8443 2.44567 15.8488 2.37957C15.8624 2.0667 16.2113 1.70535 16.3744 1.57756C16.7686 1.28232 16.8456 0.73149 16.5421 0.348114C16.2385 -0.0396693 15.6721 -0.114582 15.2734 0.176255C15.1556 0.264388 14.109 1.06639 14.0365 2.27381C14.0093 2.76735 14.1362 3.51207 14.9246 4.24357C15.2145 4.51237 15.3505 4.76355 15.3369 4.98829Z" fill="white"/>
<path d="M21.1318 4.98829C21.1001 5.38929 20.6334 5.79911 20.4749 5.90928C20.0626 6.18689 19.9583 6.73331 20.2438 7.13432C20.4205 7.38109 20.7014 7.51769 20.9914 7.51769C21.1681 7.51769 21.3493 7.46922 21.5034 7.36346C21.6393 7.27092 22.8309 6.43807 22.9396 5.13371C22.9849 4.5961 22.8536 3.78528 21.9746 2.97006C21.6302 2.64837 21.6393 2.44567 21.6438 2.37957C21.6574 2.0667 22.0018 1.70535 22.1694 1.57756C22.5636 1.28232 22.6406 0.73149 22.3416 0.348114C22.038 -0.0396693 21.4716 -0.114582 21.0729 0.176255C20.9551 0.264388 19.9085 1.06639 19.836 2.27381C19.8088 2.76735 19.9357 3.51207 20.7241 4.24357C21.014 4.51237 21.15 4.76355 21.1364 4.98829H21.1318Z" fill="white"/>
</g>
<defs>
<clipPath id="clip0_141_1436">
<rect width="31" height="29" fill="white"/>
</clipPath>
</defs>
</svg>
