<svg width="272" height="61" viewBox="0 0 272 61" fill="none" xmlns="http://www.w3.org/2000/svg">
<g clip-path="url(#clip0_141_260)">
<path d="M138.207 12.7883V6.56092C138.207 5.86084 143.48 6.32756 144.241 6.14754C145.326 5.88751 145.278 3.78728 145.083 3.06053C144.687 1.61371 141.957 2.16044 140.734 2.18711C139.049 2.22711 136.401 2.11376 134.83 2.56048C134.222 2.73383 134.004 3.16721 133.923 3.65393C133.315 7.26766 133.607 12.1015 133.728 15.7819C133.817 18.4489 133.607 23.0894 134.408 25.523C134.481 25.7497 134.619 26.0897 134.846 26.2364C136.077 27.0165 142.565 25.8497 144.387 25.943C145.82 25.823 145.658 22.2026 144.468 22.0159C142.605 21.7226 140.143 22.3693 138.207 22.1693V16.7887H142.224C143.472 16.7887 143.512 13.715 142.702 13.015C141.763 12.2015 139.43 13.015 138.207 12.7949V12.7883Z" fill="#F6F5F1"/>
<path d="M117.837 26.1696C117.311 19.7689 117.521 12.3814 117.837 5.95403C117.886 4.97393 117.457 2.24696 118.469 1.7069C119.149 1.34686 122.268 1.38687 122.454 2.44698C122.438 6.00737 122.033 9.53442 122.13 13.0948H126.9C127.103 13.0948 127.168 12.7214 127.192 12.5614C127.386 11.2079 127.313 9.10104 127.378 7.64088C127.419 6.66078 127.038 3.62044 127.832 3.09372C128.626 2.567 131.598 2.51366 131.679 3.78046C131.217 10.5079 132.262 17.7353 131.679 24.4027C131.614 25.1028 131.59 25.9496 130.602 26.1296C129.614 26.3096 127.257 26.3629 126.892 25.4028C126.576 24.5761 126.86 21.6135 126.9 20.5C126.933 19.6132 127.176 17.8887 126.998 16.9352H123.167C122.235 16.9352 122.187 17.4353 122.13 18.082C121.919 20.6956 122.697 23.9893 122.697 26.623C122.697 28.5965 118.599 28.6832 118.113 27.8564C117.983 27.6364 117.862 26.5096 117.837 26.1629V26.1696Z" fill="#F6F5F1"/>
<path d="M218.536 3.46024C221.533 6.06719 221.46 11.3611 218.868 14.1547C218.585 14.4614 217.297 15.3282 217.321 15.6016C218.439 17.6951 219.168 19.9287 220.091 22.0889C220.61 23.3024 222.343 25.2493 220.634 26.0627C217.411 27.5962 216.925 26.1227 215.928 23.9758C214.859 21.6756 214.138 19.1753 213.345 16.8017C211.247 16.4217 212.211 18.2952 212.251 19.3153C212.332 21.5956 212.251 23.8958 212.162 26.1761C211.798 27.0895 208.469 27.0962 207.967 26.3761C207.505 25.716 207.805 22.4957 207.764 21.4689C207.554 16.0016 206.784 9.34088 207.375 3.94029C207.546 2.36012 208.598 1.72005 210.469 1.5667C213.223 1.34001 216.568 1.74672 218.536 3.46691V3.46024ZM212.057 12.9413C217.159 13.248 217.581 5.5338 212.705 5.40045C212.276 5.38712 211.911 5.38045 211.871 5.78716L212.057 12.9413Z" fill="#F6F5F1"/>
<path d="M169.616 25.243C169.454 26.1164 167.008 26.7698 166.061 26.6298C165.899 26.6031 165.526 26.4298 165.405 26.3298C163.517 23.3961 162.756 20.0224 161.582 16.8621C161.096 16.7287 160.318 16.662 160.262 17.1754L160.31 26.2898C159.314 27.2099 157 27.5 156.5 27C156.045 26.3835 156.039 24.5172 156 23.5C156 22 155.616 19.4997 155.58 17.6421C155.5 13.5 155 8 155.58 3.79396C155.993 0.746964 162.343 1.26035 164.74 2.2538C169.138 4.08066 169.851 9.80129 167.826 13.1016C167.421 13.7684 165.664 15.2352 165.656 15.6286L169.592 25.243H169.616ZM160.27 12.9416C165.178 13.175 165.818 5.53415 160.918 5.40081C160.488 5.38747 160.124 5.3808 160.083 5.78752L160.27 12.9416Z" fill="#F6F5F1"/>
<path d="M179.53 14.3277C178.785 11.2874 177.918 8.02701 177.343 4.97334C177.23 4.37994 176.8 3.19981 177.367 2.77977C177.934 2.35972 180.793 2.16637 181.587 2.47973C182.745 7.20692 183.904 11.9941 184.608 16.8346L185.321 19.5483L188.779 0.939565C189.168 -0.320572 193.372 -0.253898 193.704 0.746211C193.825 1.11959 193.08 4.57996 192.934 5.28004C191.881 10.3606 190.642 15.7412 189.346 20.7817C189.03 22.0152 188.115 26.1357 187.2 26.8624C186.398 27.4958 184.357 27.0958 183.539 26.6224C182.486 26.009 182.186 24.3555 181.895 23.362C180.996 20.3684 180.259 17.3014 179.522 14.3144L179.53 14.3277Z" fill="#F6F5F1"/>
<path d="M199.066 16.6352C198.758 16.7152 198.798 17.1085 198.774 17.3219C198.701 18.062 198.669 21.7624 199.066 22.1758C199.244 22.3624 199.333 22.3158 199.568 22.2958C200.702 22.2158 202.054 22.0424 203.172 22.0157C204.29 21.9891 205.837 21.7224 206.063 22.8758C206.177 23.4426 206.217 25.3094 205.715 25.6495C205.245 25.9695 201.179 26.2295 200.183 26.3229C199.365 26.4029 198.677 26.6096 198.328 26.6429C195.753 26.9163 195.226 26.2962 194.878 24.3827C193.995 19.4821 194.052 12.3414 194.287 7.32747C194.336 6.36737 194.392 4.17379 194.716 3.37371C194.967 2.75364 195.542 2.47361 196.296 2.36693C197.794 2.16024 200.297 2.0469 201.852 2.01356C203.796 1.97355 205.65 1.64685 205.877 3.6404C206.282 7.17412 203.723 6.00066 200.734 6.16735C200.143 6.20068 199.576 6.39404 198.968 6.32736L198.782 12.4014C198.798 12.6814 198.944 12.7347 199.252 12.7881C200.459 12.9814 202.516 12.1947 203.472 13.0148C204.201 13.6415 204.201 16.6352 203.18 16.6352C202.346 16.6352 199.616 16.4951 199.066 16.6352Z" fill="#F6F5F1"/>
<path d="M112.224 15.2481C112.265 17.8884 112.16 20.5354 112.224 23.1756C112.241 24.1091 112.961 25.7226 111.536 26.2893C110.451 26.716 107.94 26.8494 107.6 25.6026C107.47 25.1225 107.397 23.6357 107.365 23.029C107.065 17.4817 107.608 11.7477 107.365 6.18712C106.441 6.2938 103.704 6.56049 103.007 6.20045C102.254 5.81374 102.246 3.0001 103.202 2.49338C104.976 2.44004 106.733 2.18001 108.491 2.03333L109 1.99955C109.308 1.97288 109.739 1.89998 110.047 1.87998C110.428 1.85331 110.778 1.79997 110.875 1.7933C111.499 1.7533 111.981 1.76663 112.597 1.72663C112.621 1.72663 112.824 1.72663 112.97 1.72663C113.261 1.71329 113.723 1.72708 113.812 1.72708C114.047 1.72708 115.367 1.73996 115.594 1.7933C116.695 2.06667 116.801 4.70696 116.25 5.27368C116.161 5.36036 115.565 5.5 115.5 5.5L112.314 5.7204C112.111 5.7204 112.046 6.09377 112.022 6.25379C111.641 8.93408 112.176 12.5145 112.216 15.2548L112.224 15.2481Z" fill="#F6F5F1"/>
<path d="M171.301 24.8263C171.123 22.9327 171.196 20.9525 171.123 19.0523C170.945 14.4385 170.459 8.6845 170.92 4.13734C170.953 3.85731 170.977 3.4906 171.147 3.25058C171.738 2.43049 175.569 1.93043 175.926 3.56394C176.46 6.01088 175.764 9.8713 175.764 12.4449C175.764 13.5784 175.974 14.8385 175.966 16.0586C175.966 17.7655 176 18.9998 176 20.4998C176 20.4998 176.016 21.2968 176 21.5435C175.968 21.9702 175.966 22.5435 175.966 22.9794C175.966 23.5435 175.966 24.1393 175.78 24.6729C175.65 25.0435 175.594 25.133 175.594 25.133C175 26.0435 174.816 26.3931 173.609 26.4998C171.876 26.6465 171.422 26.1931 171.293 24.8263H171.301Z" fill="#F6F5F1"/>
<path d="M138.207 12.7883C139.43 13.015 141.763 12.2016 142.702 13.0083C143.512 13.7084 143.472 16.7821 142.224 16.7821H138.207V22.1627C140.143 22.3627 142.597 21.7159 144.468 22.0093C145.667 22.196 145.829 25.8164 144.387 25.9364C142.565 25.8364 136.077 27.0032 134.846 26.2298C134.619 26.0831 134.481 25.7431 134.408 25.5164C133.607 23.0828 133.817 18.4423 133.728 15.7753C133.607 12.0949 133.323 7.26103 133.923 3.6473C134.004 3.16059 134.222 2.7272 134.83 2.55385C136.401 2.10714 139.049 2.22048 140.734 2.18048C141.957 2.15381 144.687 1.60041 145.083 3.05391C145.278 3.78065 145.326 5.88088 144.241 6.14091C143.472 6.3276 138.207 5.86088 138.207 6.55429V12.7816V12.7883Z" fill="#F6F5F1"/>
<path d="M82.8724 15.7149C82.5889 15.6882 82.6051 16.1216 82.5646 16.3016C81.6656 19.7754 81.2687 23.4224 80.3049 26.9028C78.9604 28.1096 76.6926 27.8696 76.0528 26.1761C74.9432 23.2824 74.3762 18.3285 73.7526 15.1548C73.0965 11.8212 72.0193 7.83405 71.6872 4.54702C71.6467 4.17365 71.5576 3.59358 71.752 3.26021C72.0922 2.66682 75.826 2.07342 76.2958 3.06019L78.7661 16.635L81.0987 6.79393C81.4307 6.38056 84.1197 6.29388 84.5652 6.86728L86.8897 16.4883C87.2218 16.315 87.1327 16.0616 87.1732 15.8016C87.7077 12.3545 88.0641 8.93417 88.4772 5.50046C88.5743 4.72037 88.8092 2.60681 89.0522 2.00674C89.1332 1.80672 89.7892 1.21332 90.1051 1.15332C91.3443 0.906623 94.0738 0.78661 94.0657 2.25344C92.3729 9.43422 91.644 16.915 89.9107 24.0692C89.5463 25.576 89.6111 26.3827 87.4404 26.4961C86.8006 26.5294 85.8935 26.5894 85.5047 26.096L82.8643 15.7349L82.8724 15.7149Z" fill="#F6F5F1"/>
<path d="M62.2596 1.90666C68.812 0.979896 70.9745 8.28069 71.4685 12.2545C72.0841 17.215 71.3228 27.9162 62.6079 27.0761C56.1365 26.4493 55.1241 16.8016 55.3914 12.7145C55.6181 9.21413 57.1165 2.63341 62.2596 1.90666ZM62.6241 6.20713C62.13 6.30048 61.7817 6.65385 61.5145 6.98055C59.4005 9.56083 59.6273 18.8285 61.4578 21.5555C62.1867 22.6489 63.9929 23.6624 65.1997 22.4622C67.8724 19.8086 67.589 10.0076 65.2725 7.19391C64.5841 6.36048 63.9119 5.96044 62.6322 6.20047L62.6241 6.20713Z" fill="#F6F5F1"/>
<path d="M15.818 25.1961C11.8736 21.189 11.825 9.18098 14.9757 4.83384C17.5999 1.21344 22.751 0.753394 25.7478 4.34045C29.595 8.94762 30.2915 22.1357 24.8245 26.0028C22.2408 27.8297 17.94 27.343 15.818 25.1894V25.1961ZM19.8191 6.20732C19.3655 6.294 19.0416 6.59403 18.7824 6.89406C16.4822 9.57436 16.6927 19.5821 19.2359 22.1557C20.1431 23.0692 21.4471 23.3492 22.4919 22.3958C25.0999 20.0155 24.8407 8.85428 22.0302 6.62737C21.4066 6.13398 20.6776 6.04064 19.8191 6.20732Z" fill="#F6F5F1"/>
<path d="M12.5297 5.52071C11.9546 5.96076 10.602 5.56072 9.87311 5.55405C8.26944 5.53405 6.69007 5.59406 5.0945 5.71407L4.90821 12.3281C6.04212 12.3681 8.94168 11.8547 9.83261 12.3148C10.5373 12.6815 10.6263 15.0951 10.2295 15.7018C9.75972 16.4419 5.93683 16.2752 4.90821 16.3219L5.054 27.1297C4.70573 28.1232 0.68846 28.1965 0.429282 27.1564C0.0891096 25.8229 0.307792 23.656 0.242997 22.2359C-0.00808246 16.2085 -0.210566 9.50115 0.429282 3.48716C0.518374 2.6604 0.542672 2.24702 1.49029 1.90032C3.06967 1.33359 5.16739 1.62029 6.87635 1.56695C8.14795 1.52694 11.6793 1.02689 12.5783 1.78697C13.1533 2.27369 13.129 5.054 12.5216 5.52071H12.5297Z" fill="#F6F5F1"/>
<path d="M48.2397 2.68052C48.6527 3.00055 48.7985 4.78075 48.8066 5.33414C48.92 10.6214 48.021 16.2887 48.4664 21.6426C48.4907 21.9493 48.6851 23.2494 48.839 23.3361C49.7542 23.4228 50.8233 23.4561 51.7467 23.4028C52.8644 23.3361 55.6748 22.4493 56.1041 23.6695C56.2742 24.1429 56.2985 26.1698 56.0474 26.6298C55.8935 26.9098 55.3833 27.1032 55.035 27.1832C53.4637 27.5366 46.8304 27.8033 45.332 27.4566C44.1252 27.1699 44.0847 26.4298 43.9956 25.483C43.7769 23.1228 43.6149 21 43.6149 18.2622C43.6149 13.8438 42.9022 8.14778 43.6392 3.81397C43.7202 3.32059 43.9389 2.88721 44.5464 2.72052C45.2267 2.52717 47.7537 2.31381 48.2478 2.68719L48.2397 2.68052Z" fill="#F6F5F1"/>
<path d="M32.9157 2.53339C34.244 2.42671 35.3293 2.3467 35.5561 3.65351C36.0988 6.82052 35.5 11 35.3941 13.948C35.3941 14.8125 35.386 15.4948 35.3941 16.2416C35.4265 18.5551 35.3455 20.8421 35.5966 23.149C35.7505 23.5357 37.9211 23.4357 38.4719 23.409C40.2132 23.3223 42.8698 22.1155 43.2181 24.1091C43.3801 25.0625 43.5825 26.8227 42.2704 27.1494C41.1608 27.4228 38.4233 27.5228 37.1679 27.5628C35.7667 27.6095 31.6522 27.9228 31.1663 26.6427C31.1582 24.7625 30.8261 22.8956 30.7046 21.0287C30.494 17.8884 30.5345 14.7747 30.5345 11.6477C30.5345 9.3408 30.2105 6.13378 30.5264 3.94688C30.6884 2.83342 31.7413 2.6334 32.9238 2.53339H32.9157Z" fill="#F6F5F1"/>
<path d="M11.0961 50.0586C10.7964 49.7852 10.7721 50.0986 10.7316 50.292C10.0027 53.5056 9.66251 56.806 8.4881 59.9464C7.23271 60.4997 5.23217 60.4264 4.97299 59.0129C4.09826 54.3457 3.03725 49.6986 2.14632 45.0381C1.95194 44.0179 0.931424 39.4308 1.2716 38.8374C1.59557 38.2773 4.69762 37.8106 5.06209 38.6374L7.3461 50.5187C7.62148 50.5587 7.58098 50.232 7.62148 50.0586C7.92925 48.9385 8.05884 47.7717 8.32612 46.6382C8.5286 45.8115 9.27374 42.2378 9.88119 41.9177C10.4481 41.6177 12.1652 41.6377 12.5864 42.1244L14.8137 50.512C15.4778 46.7249 15.7775 42.8512 16.5226 39.0774C16.636 38.5173 16.798 37.1372 17.3569 36.8438C18.2316 36.3838 21.4065 36.4304 20.9854 37.8239C19.325 44.258 18.9362 51.2454 17.1868 57.6261C16.96 58.4595 16.8304 59.0129 15.656 59.1329C14.9676 59.1996 13.6231 59.2196 13.2343 58.6595L11.0718 50.0586H11.0961Z" fill="#F6F5F1"/>
<path d="M88.8254 34.8706C89.0279 35.0106 89.0441 35.4507 89.0684 35.6707C89.4734 40.3045 88.9469 45.1851 88.8659 49.8189C88.8173 52.5792 89.1575 55.7596 88.8821 58.4398C88.8092 59.1866 88.6958 59.6933 87.6591 59.7467C87.1813 59.7733 86.6953 59.72 86.3632 59.4266C85.6991 58.8332 84.0832 55.9468 83.5 55C83.3947 54.8333 83.3665 54.8261 83.2855 54.6928L80.4669 49.8922L80.6127 58.8532C80.4021 59.7533 77.4702 61.1001 76.8141 60.1934C76.6278 59.9333 76.7007 57.9798 76.7169 57.4931C76.8789 52.8392 76.7655 48.1721 76.9194 43.5116C76.9599 42.2981 76.6278 39.2711 76.9923 38.3443C77.5188 36.9975 79.1548 37.9909 79.7461 38.8644C81.7223 41.7647 83.3017 45.8918 84.7353 49.0588C84.8244 49.2522 84.7758 49.5322 85.1321 49.5789C84.9296 47.252 84.8892 44.9117 84.7596 42.5848C84.6948 41.518 84.4275 40.2645 84.3789 39.2044C84.3384 38.311 84.2088 36.2841 84.387 35.5107C84.5976 34.5906 88.2342 34.4306 88.8254 34.8506V34.8706Z" fill="#F6F5F1"/>
<path d="M132.416 47.4254L132.659 39.0912C132.934 38.3377 136.312 38.1844 136.506 39.2512L136.555 57.2131C136.344 57.9466 136.603 58.8933 135.478 59.0933C134.7 59.2334 132.627 59.2667 132.327 58.5199L132.432 50.8191C131.744 50.9925 128.617 50.8658 128.399 51.1191L128.464 60.0935C128.221 60.9869 125.37 61.3869 124.681 60.5068C124.114 59.7801 124.446 57.0331 124.398 55.973C124.171 51.0658 123.952 46.1519 124.195 41.2114C124.244 40.1779 124.438 38.9978 124.527 37.951C124.989 37.1176 128.148 37.291 128.464 38.1777L128.212 47.4587C128.585 47.9055 131.655 47.3387 132.408 47.4321L132.416 47.4254Z" fill="#F6F5F1"/>
<path d="M92.4215 38.064C92.543 38.0573 92.6726 38.064 92.7941 38.064C93.3287 38.0373 93.9361 38.044 94.4788 38.064C108.159 38.564 105.243 60.4198 93.6445 60.2131C92.1462 60.1864 91.3605 59.9797 91.1337 58.7329C90.1537 53.3123 91.0891 47.4339 91 42C90.9947 41.6732 91 41.8956 91 41.5C91 41.3906 91 41.1213 91 41C91 41 91.0771 40.0109 91.1095 39.7575C91.1418 39.5308 91.1095 39.3438 91.2957 38.684C91.3979 38.3224 91.6085 38.1084 92.0409 38.0706C92.1172 38.064 92.1295 38.0573 92.3672 38.064H92.4215ZM98.5 44C98.3588 43.6935 97.9075 43.0669 97.7428 42.8378C97.5 42.5 95.5317 41.0976 95.232 42.2978C94.9647 43.3712 94.8999 45.2848 94.8432 46.4382C94.7137 49.2252 94.6651 52.7656 95.0538 55.5059C95.2806 57.1194 97.5565 54.8791 97.9939 54.2591C99.9782 51.4454 99.4008 45.9554 98.5 44Z" fill="#F6F5F1"/>
<path d="M261.771 24.1557C261.706 24.1091 260.912 23.1556 260.815 23.0223C258.264 19.5419 258.839 11.7211 259.106 7.67394C259.219 5.96709 258.385 3.78018 261.439 3.88686C263.285 3.95353 263.455 4.62027 263.407 5.98042C263.277 9.82084 262.888 13.8146 263.407 17.6617C263.569 18.8552 264.063 22.6822 266.493 21.1221C267.108 20.7287 267.383 19.6553 267.497 19.0285C268.266 14.8481 267.513 9.73417 267.335 5.50704C267.311 5.02032 267.221 3.93353 267.367 3.54016C267.618 2.84008 270.915 2.26002 271.401 3.70017C272.089 5.7404 271.433 8.74739 272.008 10.8876C271.943 14.1613 272.543 23.3757 268.04 24.8558C266.655 25.3159 264.395 25.2159 263.026 24.7358C262.896 24.6891 261.827 24.1891 261.771 24.1491V24.1557Z" fill="#F6F5F1"/>
<path d="M249.897 3.16707C258.199 2.62034 258.458 15.2817 257.251 19.6822C255.137 27.3631 246.754 27.1697 244.333 19.5022C243.077 15.5284 242.842 3.63379 249.897 3.17374V3.16707ZM252.116 21.2224C252.408 20.989 252.918 20.1223 253.072 19.7822C254.287 17.0353 254.109 10.5412 252.4 7.94759C251.509 6.59411 249.856 6.26074 248.844 7.68757C247.175 10.0412 247.232 18.7621 249.379 20.889C250.099 21.6024 251.209 21.9425 252.116 21.2224Z" fill="#F6F5F1"/>
<path d="M157.5 57C157.46 56.9467 157.103 56.556 157.054 56.4796C155.856 54.5927 156.188 53.0192 158.966 52.5925C161.93 52.1391 160.067 54.0593 161.493 55.2994C163.809 57.313 165.769 54.306 163.995 52.0124C161.671 48.9987 156.398 47.5519 156.341 43.0648C156.277 37.8709 164.222 34.7572 167.235 39.4977C168.434 41.3779 168.58 43.2048 165.567 43.5648C163.388 43.8248 164.692 41.5313 163.007 40.9712C160.966 40.2911 160.65 42.4847 160.893 43.6382C161.355 45.8384 167.494 48.5254 168.709 51.6657C171.301 58.3464 162.238 63.3807 157.5 57Z" fill="#F6F5F1"/>
<path d="M145.796 47.2918C147.181 47.4852 146.776 50.8255 146.169 50.8255H142.427C141.811 50.8255 142.297 53.4925 142.313 53.8392C142.346 54.2992 141.949 55.0793 142.419 55.5927C142.937 56.1594 147.384 55.1193 148.315 55.6594C148.833 55.9594 149.084 58.9131 147.618 58.9398C145.61 58.9531 143.464 59.3865 141.495 59.4398C141.26 59.4465 139.446 59.3931 139.349 59.3598C138.256 58.9664 138.758 57.5596 138.709 56.9195C138.353 51.8323 138.175 47.3918 138.41 42.2913C138.442 41.5512 138.215 39.3509 138.458 38.8642C138.523 38.7375 139.26 38.3375 139.519 38.2775C140.88 37.9508 145.707 37.7308 147.092 37.9108C148.615 38.1108 148.493 39.7443 148.307 40.7378C147.983 42.458 142.978 41.0778 142.419 41.7379C142.216 41.9779 142.362 43.9314 142.338 44.4382C142.305 45.1049 142.281 45.4383 142.305 46.1317C142.305 46.3184 141.917 47.2851 142.435 47.2851C143.383 47.2851 144.954 47.1651 145.796 47.2851V47.2918Z" fill="#F6F5F1"/>
<path d="M62.5107 46.8252H66.528C67.4027 46.8252 67.7267 49.5988 66.9896 50.1255C66.8924 50.1922 66.0258 50.5122 65.9691 50.5122H62.5107L62.616 59.2865C62.2839 60.1266 58.7769 60.46 58.4367 59.4732C58.5096 58.7598 58.2504 58.0531 58.2018 57.3597C57.9022 52.6591 58.1856 47.7453 58.4043 43.0581C58.4772 41.4646 57.6754 37.9042 60.1862 37.6042C62.1219 37.3708 66.5199 37.2241 68.407 37.4308C70.0998 37.6175 69.8811 40.5778 69.1116 40.9512C68.0668 41.4646 63.1586 40.8178 62.778 41.2712L62.5107 46.8185V46.8252Z" fill="#F6F5F1"/>
<path d="M239.611 24.4693C239.295 24.736 237.473 24.7026 236.962 24.6426C235.934 24.5226 235.658 24.1692 235.545 23.3491C235.213 20.9489 235.788 18.0686 235.545 15.655C235.334 13.5081 233.22 10.5011 232.224 8.39418C231.949 7.82079 230.475 4.76045 230.499 4.44708C230.58 3.36697 233.763 2.96692 234.524 3.58032C235.002 3.96703 236.614 8.77422 237.084 9.77433C237.149 9.91435 237.464 10.9345 237.78 10.6611L240.68 2.66689C240.899 2.26685 241.214 1.90014 241.789 1.89347C242.567 1.88014 245.41 2.1935 244.892 3.20695L239.846 14.7549C239.846 16.9551 239.813 19.162 239.829 21.3623C239.829 22.0223 240.259 23.9292 239.603 24.4693H239.611Z" fill="#F6F5F1"/>
<path d="M115.229 41.6781C115.189 41.5515 114.986 41.4781 114.808 41.4781C114.039 41.4581 112.022 41.8648 111.382 41.4648C110.799 41.0981 110.588 38.6511 111.536 38.3378L121.684 37.4443C123.547 37.4577 123.426 38.9645 123.272 40.1513C123.134 41.1981 122.081 41.0181 120.931 41.1447C120.364 41.2114 119.449 40.9114 119.344 41.5315L119.53 58.72C119.247 59.2934 115.95 59.4534 115.78 59.3734C115.642 59.3134 115.488 59.0134 115.456 58.8733C115.407 58.68 115.229 57.6599 115.229 57.5199V41.6781Z" fill="#F6F5F1"/>
<path d="M32.8347 56.6327C33.5556 57.1528 38.2046 55.886 38.9659 56.5861C39.4924 57.0661 39.5167 59.3664 38.9416 59.8131C38.4881 60.1665 36.7467 60.3331 36.0583 60.3731C34.9081 60.4398 33.0372 60.5665 31.9438 60.5132C31.6684 60.4998 29.7084 60.3065 29.595 60.2731C28.3477 59.8598 28.7284 57.9329 28.6636 57.0595C28.372 53.119 28.2586 49.1519 28.2991 45.2248C28.3072 44.0047 28.0075 40.0176 28.6555 39.2175C29.0604 38.7108 31.4416 38.7108 32.0815 38.8708C32.4541 38.9641 32.7051 39.3909 32.7618 39.6976C32.6889 44.0714 32.4055 48.3985 32.5917 52.7523C32.6241 53.4391 32.3893 56.3394 32.8185 56.6394L32.8347 56.6327Z" fill="#F6F5F1"/>
<path d="M44.5979 56.8564C45.3187 57.3764 49.9677 56.1096 50.7291 56.8097C51.2555 57.2898 51.2798 59.59 50.7048 60.0367C50.2512 60.3901 48.5099 60.5568 47.8214 60.5968C46.6713 60.6635 44.8004 60.7901 43.7069 60.7368C43.4316 60.7235 41.4715 60.5301 41.3581 60.4968C40.1108 60.0834 40.4915 58.1565 40.4267 57.2831C40.1351 53.3427 40.0217 49.3756 40.0622 45.4485C40.0703 44.2283 39.7707 40.2412 40.4186 39.4411C40.8236 38.9344 43.2048 38.9344 43.8446 39.0944C44.2172 39.1878 44.4683 39.6145 44.525 39.9212C44.4521 44.295 44.1686 48.6221 44.3549 52.9759C44.3873 53.6627 44.1524 56.563 44.5817 56.863L44.5979 56.8564Z" fill="#F6F5F1"/>
<path d="M71.8087 38.2507C74.6516 37.8574 75.259 38.9375 74.8379 41.051C74.3762 46.4116 75.4939 52.5456 74.8379 57.8195C74.684 59.0797 74.0603 59.4531 72.5053 59.4464C71.1041 59.4464 70.9745 58.9397 70.7477 57.9596C70.0269 54.7525 70.3671 49.5053 70.359 46.1383C70.359 44.1914 70.0269 41.0044 70.359 39.2242C70.4804 38.5908 71.0798 38.3508 71.7925 38.2507H71.8087Z" fill="#F6F5F1"/>
<path d="M23.7715 38.2573C25.2375 38.0906 26.2985 38.344 26.4443 39.6708C26.6144 41.1977 26.2661 42.8045 26.2418 44.2847C26.177 48.2784 26.7116 52.5389 26.4443 56.446C26.4119 56.9327 26.258 58.4129 26.0394 58.7262C25.5858 59.393 23.4233 59.7263 22.7915 59.1263C21.8925 58.2662 22.0302 54.7201 21.9573 53.5C21.8601 51.9665 21.7953 50.132 21.7548 48.6051C21.6657 45.4715 22.0221 42.3578 21.9573 39.2241C22.1031 38.604 23.1317 38.3373 23.7796 38.264L23.7715 38.2573Z" fill="#F6F5F1"/>
<path d="M198.58 37.9509C199.511 37.9043 200.896 37.9509 201.058 38.8977C201.439 41.2113 200.872 44 200.872 46.4452C200.872 48.5 200.71 50.6657 200.491 52.7392C200.41 53.4593 200.353 54.4527 199.284 54.5261C198.952 54.5461 197.956 54.4194 197.705 54.2727C196.992 53.8794 196.946 50.3128 196.943 49.3655C196.935 45.7718 196.636 42.2047 196.773 38.5977C196.854 37.9909 197.972 37.9776 198.604 37.9443L198.58 37.9509Z" fill="#F6F5F1"/>
<path d="M198.377 56.0927C201.05 55.6793 201.933 57.6728 200.904 59.3997C200.167 60.6398 197.267 60.5132 196.822 58.9863C196.474 57.7795 196.7 56.346 198.377 56.0927Z" fill="#F6F5F1"/>
<path d="M124.56 41.8512C124.56 41.6712 124.56 41.4045 124.56 41.2378C124.843 41.2845 124.851 41.7912 124.56 41.8512Z" fill="#F6F5F1"/>
<path d="M174.12 55.5127C174.314 56.0328 177.116 55.466 177.764 55.4394C178.477 55.4127 179.781 55.2727 180.186 55.7527C180.469 56.0928 180.299 56.6462 180.664 56.8195C181.093 54.5259 181.611 52.239 182.138 49.9588C182.826 47.0184 183.474 43.9381 184.3 40.9778C184.503 40.2644 184.94 38.2975 185.28 37.7974C185.912 36.8573 190.229 36.6773 190.521 38.1775L195.753 58.633C196.279 60.3199 195.024 60.6199 193.274 60.6733C191.97 60.7133 191.695 60.2399 191.379 59.3198C190.65 57.2329 190.513 54.7993 189.929 52.6657C189.84 51.7389 185.783 52.0056 185.612 52.2057C184.989 54.1792 185.037 56.7262 184.252 58.6197C183.855 59.5665 182.81 59.4731 181.741 59.2464C180.372 58.9597 181.142 58.7531 179.619 58.9664C177.959 59.1998 174.986 59.4198 173.285 59.4465C170.572 59.4931 170.823 58.7797 170.572 56.8995C169.835 51.3722 170.24 45.665 170.402 40.1377C170.415 39.6864 170.309 39.2143 170.402 38.8672C170.5 38.5 171.228 38.2508 171.422 38.2175C172.654 38.0041 175.132 37.9241 176.46 37.8974C179.384 37.8374 180.575 37.7774 180.121 40.6044C180.064 40.9711 179.465 41.5978 179.084 41.5978H174.411C174.209 41.5978 174.144 41.9712 174.12 42.1312C173.99 43.038 174.152 44.2648 174.136 45.2182C174.12 45.905 173.804 46.5184 174.136 47.2851H177.594C178.72 47.2851 178.752 50.8189 177.78 50.8189H174.136C174.411 51.9723 173.771 54.5459 174.136 55.506L174.12 55.5127ZM187.953 42.3646C187.386 42.2913 187.653 42.4779 187.573 42.738C187.362 43.4314 186.131 48.2852 186.35 48.5253C186.633 48.8453 188.512 48.5919 189.079 48.6719L187.953 42.3646Z" fill="#F6F5F1"/>
</g>
<defs>
<clipPath id="clip0_141_260">
<rect width="272" height="61" fill="white"/>
</clipPath>
</defs>
</svg>
