<svg width="88" height="542" viewBox="0 0 88 542" fill="none" xmlns="http://www.w3.org/2000/svg">
<path d="M55.4526 6.89805C55.4524 6.38805 55.6022 5.98299 55.9021 5.68287C56.2019 5.38274 56.5469 5.2026 56.9368 5.14244L85.6898 0.225702C85.7498 0.195677 85.8098 0.180652 85.8698 0.180628C85.9298 0.180603 85.9748 0.180585 86.0048 0.180573C86.2448 0.180475 86.4549 0.270389 86.6349 0.450316C86.845 0.66023 86.9501 0.885187 86.9502 1.12519L86.9525 6.70519C86.9528 7.54519 86.623 8.01032 85.9631 8.10059L68.3693 11.0328L78.7656 14.2685C79.0056 14.3584 79.2607 14.5083 79.5308 14.7182C79.8308 14.9281 79.981 15.273 79.9812 15.753L79.9825 18.993C79.9827 19.503 79.8329 19.8631 79.5329 20.0732C79.263 20.2833 79.0081 20.4184 78.7681 20.4785L68.4194 23.7228L85.9706 26.6406C86.6307 26.7303 86.9609 27.1952 86.9612 28.0352L86.9635 33.6152C86.9636 33.8852 86.8587 34.1102 86.6488 34.2903C86.4688 34.4704 86.2589 34.5605 86.0189 34.5606C85.9889 34.5606 85.9439 34.5606 85.8839 34.5606C85.8239 34.5607 85.7639 34.5607 85.7039 34.5607L56.9469 29.6674C56.5568 29.6076 56.2118 29.4277 55.9116 29.1279C55.6115 28.828 55.4614 28.423 55.4611 27.9131L55.4594 23.6381C55.4592 23.128 55.594 22.738 55.8639 22.4679C56.1338 22.1978 56.3887 22.0177 56.6287 21.9276L69.4968 17.3773L56.625 12.8376C56.385 12.7477 56.1299 12.5678 55.8598 12.2979C55.5897 12.058 55.4545 11.6831 55.4543 11.1731L55.4526 6.89805ZM55.4668 41.6866C55.4666 41.3566 55.5715 41.0865 55.7814 40.8764C55.9914 40.6663 56.2613 40.5612 56.5913 40.5611L85.8413 40.5492C86.1713 40.549 86.4414 40.6539 86.6514 40.8638C86.8615 41.0737 86.9666 41.3437 86.9668 41.6737L86.9754 62.6887C86.9755 63.0187 86.8706 63.2887 86.6607 63.4988C86.4508 63.7089 86.1808 63.814 85.8508 63.8142L81.6208 63.8159C81.2908 63.816 81.0208 63.7111 80.8107 63.5012C80.6006 63.2913 80.4955 63.0213 80.4954 62.6913L80.4895 48.3363L74.4145 48.3388L74.42 61.7038C74.4201 62.0338 74.3002 62.3039 74.0603 62.514C73.8504 62.7241 73.5804 62.8292 73.2504 62.8293L69.3354 62.8309C69.0354 62.831 68.7654 62.7261 68.5253 62.5162C68.3152 62.3063 68.2101 62.0364 68.21 61.7064L68.2045 48.3414L61.9495 48.3439L61.9555 63.0589C61.9556 63.3889 61.8507 63.659 61.6408 63.869C61.4309 64.0791 61.161 64.1842 60.831 64.1844L56.601 64.1861C56.271 64.1862 56.0009 64.0813 55.7908 63.8714C55.5807 63.6615 55.4756 63.3916 55.4755 63.0616L55.4668 41.6866ZM55.4835 82.7069C55.4834 82.3769 55.5883 82.1068 55.7982 81.8967C56.0081 81.6867 56.2781 81.5816 56.6081 81.5814L85.8581 81.5695C86.1881 81.5693 86.4581 81.6742 86.6682 81.8841C86.8783 82.0941 86.9834 82.364 86.9835 82.694L86.9921 103.709C86.9922 104.039 86.8874 104.309 86.6774 104.519C86.4675 104.729 86.1976 104.834 85.8676 104.834L81.6376 104.836C81.3076 104.836 81.0375 104.731 80.8274 104.522C80.6174 104.312 80.5122 104.042 80.5121 103.712L80.5062 89.3567L74.4312 89.3591L74.4367 102.724C74.4368 103.054 74.3169 103.324 74.077 103.534C73.8671 103.744 73.5972 103.849 73.2672 103.85L69.3522 103.851C69.0522 103.851 68.7821 103.746 68.542 103.537C68.3319 103.327 68.2268 103.057 68.2267 102.727L68.2212 89.3617L61.9662 89.3642L61.9723 104.079C61.9724 104.409 61.8675 104.679 61.6576 104.889C61.4477 105.099 61.1777 105.205 60.8477 105.205L56.6177 105.206C56.2877 105.207 56.0177 105.102 55.8076 104.892C55.5975 104.682 55.4924 104.412 55.4923 104.082L55.4835 82.7069ZM55.4958 112.797C55.4957 112.497 55.6006 112.227 55.8105 111.987C56.0204 111.777 56.2904 111.672 56.6204 111.672L85.8704 111.66C86.2004 111.66 86.4704 111.764 86.6805 111.974C86.8906 112.214 86.9957 112.484 86.9958 112.784L86.9978 117.644C86.998 118.124 86.8631 118.484 86.5932 118.724C86.3533 118.995 86.1584 119.16 86.0084 119.22L71.7917 127.145L86.0149 135.06C86.1649 135.15 86.36 135.3 86.6001 135.509C86.8702 135.749 87.0053 136.124 87.0056 136.634L87.0075 141.449C87.0077 141.779 86.9028 142.049 86.6928 142.259C86.4829 142.499 86.213 142.62 85.883 142.62L56.633 142.632C56.303 142.632 56.0329 142.512 55.8228 142.272C55.6128 142.062 55.5077 141.792 55.5075 141.462L55.5053 136.107C55.5052 135.777 55.6101 135.492 55.82 135.252C56.0299 135.042 56.2999 134.937 56.6299 134.937L73.5049 134.93L64.0978 129.849C63.8277 129.729 63.5877 129.549 63.3776 129.309C63.1675 129.069 63.0623 128.739 63.0622 128.319L63.0612 125.979C63.061 125.559 63.1659 125.229 63.3758 124.989C63.5857 124.749 63.8256 124.554 64.0956 124.404L73.4985 119.315L56.6235 119.322C56.2935 119.322 56.0234 119.217 55.8133 119.007C55.6033 118.797 55.4982 118.527 55.498 118.197L55.4958 112.797ZM55.0664 163.114C55.0652 160.354 55.5143 157.954 56.4134 155.913C57.3126 153.873 58.6619 152.282 60.4615 151.142C62.291 150.001 64.5707 149.37 67.3007 149.249C68.5907 149.218 69.8807 149.203 71.1707 149.202C72.4607 149.202 73.7657 149.216 75.0857 149.246C77.7857 149.365 80.051 149.994 81.8815 151.133C83.7419 152.302 85.1376 153.907 86.0684 155.946C86.9993 157.986 87.4652 160.371 87.4664 163.101C87.4675 165.801 87.0034 168.171 86.0743 170.211C85.1451 172.282 83.7508 173.902 81.8912 175.073C80.0617 176.244 77.797 176.875 75.097 176.966C73.777 177.026 72.4721 177.057 71.1821 177.057C69.8921 177.058 68.602 177.028 67.312 176.969C64.582 176.85 62.3017 176.221 60.4712 175.082C58.6708 173.942 57.3201 172.353 56.4193 170.313C55.5185 168.274 55.0675 165.874 55.0664 163.114ZM61.5464 163.111C61.547 164.701 62.0275 165.991 62.9879 166.981C63.9484 168 65.4786 168.54 67.5786 168.599C68.8986 168.658 70.1436 168.688 71.3136 168.687C72.4836 168.687 73.6986 168.656 74.9586 168.596C76.3686 168.535 77.5085 168.265 78.3783 167.784C79.2781 167.334 79.9378 166.704 80.3575 165.894C80.7772 165.083 80.9868 164.153 80.9864 163.103C80.9859 162.083 80.7756 161.168 80.3552 160.359C79.9349 159.549 79.2746 158.904 78.3744 158.424C77.5043 157.945 76.3641 157.675 74.9541 157.616C73.6941 157.586 72.4791 157.572 71.3091 157.572C70.1391 157.573 68.8941 157.588 67.5741 157.619C65.4742 157.71 63.9444 158.25 62.9848 159.241C62.0252 160.231 61.5457 161.521 61.5464 163.111ZM55.5278 191.202C55.5277 190.872 55.6326 190.601 55.8425 190.391C56.0524 190.181 56.3224 190.076 56.6524 190.076L79.9624 190.067L79.9591 182.057C79.959 181.727 80.0639 181.457 80.2738 181.246C80.5137 181.036 80.7836 180.931 81.0836 180.931L85.8986 180.929C86.2286 180.929 86.4987 181.034 86.7088 181.244C86.9189 181.454 87.024 181.724 87.0241 182.054L87.034 206.264C87.0341 206.594 86.9292 206.864 86.7193 207.074C86.5094 207.284 86.2394 207.389 85.9094 207.389L81.0944 207.391C80.7944 207.391 80.5244 207.286 80.2843 207.076C80.0742 206.867 79.9691 206.597 79.969 206.267L79.9657 198.257L56.6557 198.266C56.3257 198.266 56.0557 198.161 55.8456 197.951C55.6355 197.741 55.5304 197.472 55.5303 197.142L55.5278 191.202ZM55.5371 213.966C55.537 213.636 55.6419 213.366 55.8518 213.156C56.0617 212.946 56.3317 212.841 56.6617 212.841L85.9117 212.829C86.2417 212.829 86.5117 212.934 86.7218 213.144C86.9319 213.353 87.037 213.623 87.0371 213.953L87.0396 219.983C87.0397 220.313 86.9348 220.583 86.7249 220.794C86.515 221.004 86.245 221.109 85.915 221.109L56.665 221.121C56.335 221.121 56.065 221.016 55.8549 220.806C55.6448 220.596 55.5397 220.326 55.5396 219.996L55.5371 213.966ZM55.0984 241.651C55.0973 238.891 55.5463 236.491 56.4455 234.451C57.3447 232.41 58.694 230.82 60.4935 229.679C62.3231 228.538 64.6028 227.907 67.3328 227.786C68.6228 227.756 69.9128 227.74 71.2028 227.74C72.4928 227.739 73.7978 227.754 75.1178 227.783C77.8178 227.902 80.0831 228.531 81.9135 229.67C83.774 230.84 85.1697 232.444 86.1005 234.484C87.0313 236.523 87.4973 238.908 87.4984 241.638C87.4995 244.338 87.0355 246.708 86.1063 248.749C85.1772 250.819 83.7828 252.44 81.9233 253.61C80.0938 254.781 77.8291 255.412 75.1291 255.503C73.8091 255.564 72.5041 255.594 71.2141 255.595C69.9241 255.595 68.6341 255.566 67.3441 255.506C64.614 255.387 62.3338 254.758 60.5033 253.619C58.7029 252.48 57.3522 250.89 56.4514 248.851C55.5505 246.811 55.0996 244.411 55.0984 241.651ZM61.5784 241.649C61.5791 243.239 62.0596 244.528 63.02 245.518C63.9804 246.538 65.5106 247.077 67.6107 247.136C68.9307 247.196 70.1757 247.225 71.3457 247.225C72.5157 247.224 73.7307 247.194 74.9907 247.133C76.4006 247.073 77.5405 246.802 78.4103 246.322C79.3102 245.871 79.9699 245.241 80.3896 244.431C80.8092 243.621 81.0189 242.691 81.0184 241.641C81.018 240.621 80.8076 239.706 80.3873 238.896C79.967 238.086 79.3067 237.441 78.4065 236.962C77.5363 236.482 76.3962 236.213 74.9862 236.153C73.7262 236.124 72.5112 236.109 71.3412 236.11C70.1712 236.11 68.9262 236.126 67.6062 236.156C65.5062 236.247 63.9764 236.788 63.0169 237.778C62.0573 238.768 61.5778 240.059 61.5784 241.649ZM55.5573 263.292C55.5571 262.962 55.662 262.692 55.8719 262.482C56.0819 262.272 56.3518 262.167 56.6818 262.167L85.9318 262.155C86.2618 262.155 86.5319 262.26 86.7419 262.469C86.952 262.679 87.0571 262.949 87.0573 263.279L87.0592 268.049C87.0594 268.559 86.9396 268.919 86.6997 269.129C86.4898 269.37 86.3248 269.52 86.2048 269.58L68.8843 280.567L85.9393 280.56C86.2693 280.56 86.5394 280.665 86.7495 280.874C86.9595 281.084 87.0647 281.354 87.0648 281.684L87.067 287.084C87.0671 287.414 86.9622 287.684 86.7523 287.894C86.5424 288.105 86.2725 288.21 85.9424 288.21L56.6925 288.222C56.3925 288.222 56.1224 288.117 55.8823 287.907C55.6722 287.697 55.5671 287.427 55.567 287.097L55.565 282.282C55.5648 281.802 55.6847 281.442 55.9246 281.202C56.1645 280.992 56.3294 280.857 56.4194 280.797L73.0649 269.81L56.6849 269.817C56.3549 269.817 56.0849 269.712 55.8748 269.502C55.6647 269.292 55.5596 269.022 55.5595 268.692L55.5573 263.292ZM55.5698 294.061C55.5697 293.821 55.6596 293.596 55.8396 293.386C56.0495 293.206 56.2744 293.116 56.5144 293.116C56.6644 293.116 56.7995 293.13 56.9195 293.16L85.8138 303.724C86.1438 303.813 86.4289 303.993 86.669 304.263C86.9391 304.563 87.0743 304.968 87.0745 305.478L87.0772 312.138C87.0774 312.648 86.9426 313.038 86.6727 313.308C86.4328 313.608 86.1479 313.803 85.8179 313.894L56.9322 324.435C56.8123 324.495 56.6773 324.526 56.5273 324.526C56.2873 324.526 56.0622 324.421 55.8521 324.211C55.6721 324.031 55.582 323.806 55.5819 323.536L55.5796 318.001C55.5794 317.551 55.6843 317.206 55.8942 316.966C56.1341 316.756 56.344 316.621 56.524 316.561L61.1133 314.804L61.1084 302.789L56.5177 301.081C56.3377 301.021 56.1276 300.886 55.8875 300.676C55.6775 300.466 55.5723 300.106 55.5721 299.596L55.5698 294.061ZM67.5892 304.631L67.5926 313.001L79.4708 308.766L67.5892 304.631ZM55.5847 330.548C55.5846 330.218 55.6895 329.948 55.8994 329.738C56.1093 329.528 56.3793 329.423 56.7093 329.422L85.9593 329.41C86.2893 329.41 86.5593 329.515 86.7694 329.725C86.9795 329.935 87.0846 330.205 87.0847 330.535L87.0872 336.475C87.0873 336.775 86.9824 337.03 86.7725 337.24C86.5626 337.48 86.2926 337.6 85.9626 337.6L62.3826 337.61L62.3882 351.2C62.3883 351.53 62.2684 351.8 62.0285 352.01C61.8186 352.25 61.5486 352.37 61.2186 352.371L56.7186 352.372C56.3886 352.373 56.1186 352.253 55.9085 352.013C55.6984 351.803 55.5933 351.533 55.5932 351.203L55.5847 330.548ZM0.00530726 13.6257C0.00408215 10.6257 0.423065 8.13552 1.26226 6.15518C2.13145 4.17482 3.25584 2.67437 4.63542 1.6538C6.015 0.633238 7.48478 0.0926381 9.04476 0.032001C9.28476 0.031903 9.49479 0.121817 9.67487 0.301744C9.88495 0.511658 9.99005 0.751615 9.99016 1.02162L9.99248 6.69161C9.99265 7.11162 9.91778 7.42665 9.76786 7.63671C9.61796 7.87677 9.42305 8.08685 9.18312 8.26695C8.73322 8.50713 8.29835 8.83731 7.87852 9.25748C7.45871 9.70765 7.11394 10.2778 6.84422 10.9679C6.60452 11.688 6.48488 12.573 6.48531 13.623C6.48602 15.363 6.75655 16.6679 7.29691 17.5377C7.83727 18.4375 8.57246 18.8872 9.50246 18.8868C10.1625 18.8865 10.7024 18.6463 11.1222 18.1662C11.572 17.686 11.9616 16.9058 12.2912 15.8257C12.6508 14.7755 13.0102 13.3654 13.3695 11.5952C13.8485 9.31504 14.4628 7.36479 15.2121 5.74448C15.9914 4.15416 16.9959 2.93875 18.2256 2.09825C19.4853 1.25774 21.0451 0.837101 22.9051 0.836341C24.7351 0.835594 26.3703 1.34493 27.8107 2.36434C29.2511 3.41375 30.3767 4.86829 31.1875 6.72796C31.9983 8.58763 32.4042 10.7925 32.4052 13.3425C32.406 15.4125 32.1368 17.2276 31.5974 18.7878C31.0581 20.378 30.3386 21.7133 29.4391 22.7937C28.5395 23.874 27.5798 24.6844 26.56 25.2249C25.5703 25.7953 24.5954 26.0957 23.6354 26.126C23.3954 26.1261 23.1704 26.0362 22.9603 25.8563C22.7802 25.6764 22.6901 25.4514 22.69 25.1814L22.6876 19.2414C22.6875 18.9114 22.7474 18.6264 22.8673 18.3864C22.9872 18.1463 23.1821 17.9362 23.452 17.7561C24.1119 17.5759 24.6817 17.0956 25.1614 16.3154C25.6711 15.5652 25.9257 14.5751 25.9252 13.3451C25.9247 12.0251 25.6842 10.9902 25.2039 10.2404C24.7536 9.52059 24.0485 9.16088 23.0885 9.16127C22.4885 9.16151 21.9636 9.35673 21.5137 9.74691C21.0639 10.1671 20.6742 10.8423 20.3446 11.7724C20.0149 12.7325 19.6705 14.0377 19.3112 15.6878C18.8023 18.418 18.1582 20.6233 17.3789 22.3036C16.6295 23.9839 15.64 25.2143 14.4104 25.9948C13.2107 26.7753 11.6958 27.1659 9.86584 27.1667C7.82584 27.1675 6.0556 26.5832 4.55512 25.4138C3.08466 24.2744 1.95901 22.6849 1.17817 20.6452C0.397341 18.6055 0.00638536 16.2657 0.00530726 13.6257ZM0.018614 46.2106C0.0175114 43.5106 0.451544 41.1404 1.32071 39.1001C2.21989 37.0897 3.58425 35.5292 5.4138 34.4184C7.27335 33.3077 9.62812 32.7517 12.4781 32.7505L30.8381 32.743C31.1681 32.7429 31.4382 32.8478 31.6482 33.0577C31.8583 33.2676 31.9634 33.5376 31.9636 33.8676L31.9659 39.6726C31.9661 40.0026 31.8612 40.2726 31.6513 40.4827C31.4414 40.6928 31.1714 40.7979 30.8414 40.798L12.5264 40.8055C10.5764 40.8063 9.1066 41.2719 8.11698 42.2023C7.15737 43.1627 6.67792 44.4979 6.67861 46.2079C6.6793 47.8879 7.15983 49.1927 8.12021 50.1223C9.1106 51.0819 10.5808 51.5613 12.5308 51.5605L30.8458 51.553C31.1758 51.5529 31.4458 51.6578 31.6559 51.8677C31.866 52.1076 31.9711 52.3776 31.9713 52.6776L31.9736 58.5276C31.9738 58.8276 31.8689 59.0826 31.659 59.2927C31.4491 59.5328 31.1791 59.6529 30.8491 59.653L12.4891 59.6605C9.63911 59.6617 7.28388 59.1077 5.42343 57.9984C3.59298 56.8892 2.22734 55.3297 1.32652 53.3201C0.455697 51.3104 0.0197288 48.9406 0.018614 46.2106ZM0.0318931 78.728C0.030668 75.728 0.449651 73.2379 1.28884 71.2575C2.15803 69.2772 3.28242 67.7767 4.662 66.7561C6.04159 65.7356 7.51137 65.195 9.07134 65.1343C9.31134 65.1342 9.52138 65.2242 9.70145 65.4041C9.91154 65.614 10.0166 65.854 10.0167 66.124L10.0191 71.794C10.0192 72.214 9.94436 72.529 9.79445 72.739C9.64455 72.9791 9.44963 73.1892 9.20971 73.3693C8.7598 73.6095 8.32494 73.9396 7.90511 74.3598C7.48529 74.81 7.14053 75.3801 6.87081 76.0702C6.6311 76.7903 6.51146 77.6754 6.51189 78.7254C6.5126 80.4654 6.78314 81.7703 7.32349 82.6401C7.86386 83.5398 8.59904 83.9895 9.52904 83.9892C10.189 83.9889 10.7289 83.7487 11.1487 83.2685C11.5986 82.7883 11.9882 82.0081 12.3178 80.928C12.6774 79.8779 13.0368 78.4677 13.3961 76.6976C13.8751 74.4174 14.4893 72.4671 15.2387 70.8468C16.018 69.2565 17.0225 68.0411 18.2522 67.2006C19.5118 66.3601 21.0717 65.9394 22.9317 65.9387C24.7617 65.9379 26.3969 66.4473 27.8373 67.4667C29.2777 68.5161 30.4033 69.9706 31.2141 71.8303C32.0248 73.69 32.4307 75.8948 32.4318 78.4448C32.4326 80.5148 32.1634 82.3299 31.624 83.8901C31.0847 85.4804 30.3652 86.8156 29.4656 87.896C28.5661 88.9764 27.6064 89.7868 26.5866 90.3272C25.5969 90.8976 24.622 91.198 23.662 91.2284C23.422 91.2285 23.197 91.1386 22.9869 90.9587C22.8068 90.7787 22.7167 90.5538 22.7166 90.2838L22.7142 84.3438C22.7141 84.0138 22.7739 83.7287 22.8938 83.4887C23.0137 83.2486 23.2087 83.0386 23.4786 82.8585C24.1385 82.6782 24.7083 82.198 25.188 81.4178C25.6977 80.6676 25.9523 79.6774 25.9518 78.4474C25.9512 77.1274 25.7108 76.0925 25.2305 75.3427C24.7802 74.6229 24.0751 74.2632 23.1151 74.2636C22.5151 74.2638 21.9902 74.4591 21.5403 74.8492C21.0905 75.2694 20.7008 75.9446 20.3711 76.8747C20.0415 77.8349 19.6971 79.14 19.3377 80.7901C18.8289 83.5204 18.1848 85.7256 17.4054 87.4059C16.6561 89.0862 15.6666 90.3166 14.4369 91.0971C13.2373 91.8776 11.7224 92.2683 9.89242 92.269C7.85242 92.2698 6.08219 91.6856 4.58171 90.5162C3.11124 89.3768 1.98559 87.7872 1.20476 85.7476C0.423927 83.7079 0.0329712 81.368 0.0318931 78.728ZM0.492979 105.875C0.492845 105.545 0.597734 105.275 0.807648 105.065C1.01756 104.855 1.28752 104.75 1.61752 104.75L24.9275 104.74L24.9242 96.7302C24.9241 96.4002 25.029 96.1301 25.2389 95.92C25.4788 95.71 25.7488 95.6048 26.0488 95.6047L30.8638 95.6028C31.1938 95.6026 31.4638 95.7075 31.6739 95.9174C31.884 96.1273 31.9891 96.3973 31.9892 96.7273L31.9991 120.937C31.9993 121.267 31.8944 121.537 31.6845 121.747C31.4746 121.958 31.2046 122.063 30.8746 122.063L26.0596 122.065C25.7596 122.065 25.4896 121.96 25.2495 121.75C25.0394 121.54 24.9343 121.27 24.9341 120.94L24.9309 112.93L1.62086 112.94C1.29086 112.94 1.02082 112.835 0.810736 112.625C0.60065 112.415 0.49554 112.145 0.495405 111.815L0.492979 105.875ZM0.499771 122.507C0.499673 122.267 0.589581 122.042 0.769496 121.832C0.979422 121.652 1.20439 121.562 1.44439 121.561C1.59439 121.561 1.72939 121.576 1.8494 121.606L30.7437 132.17C31.0738 132.259 31.3588 132.439 31.5989 132.709C31.8691 133.009 32.0042 133.414 32.0044 133.924L32.0072 140.584C32.0074 141.094 31.8725 141.484 31.6026 141.754C31.3628 142.054 31.0778 142.249 30.7479 142.34L1.86218 152.881C1.7422 152.941 1.60721 152.971 1.45721 152.971C1.21721 152.972 0.992169 152.867 0.782084 152.657C0.60201 152.477 0.511918 152.252 0.511808 151.982L0.509548 146.447C0.509364 145.997 0.614223 145.652 0.824125 145.412C1.06404 145.202 1.27398 145.067 1.45396 145.006L6.04324 143.25L6.03834 131.235L1.44764 129.526C1.26761 129.467 1.05756 129.332 0.817473 129.122C0.607387 128.912 0.50224 128.552 0.502032 128.042L0.499771 122.507ZM12.5191 133.077L12.5225 141.447L24.4008 137.212L12.5191 133.077ZM0.514671 158.994C0.514537 158.664 0.619426 158.394 0.829341 158.184C1.03925 157.974 1.30921 157.868 1.63921 157.868L30.8892 157.856C31.2192 157.856 31.4893 157.961 31.6993 158.171C31.9094 158.381 32.0145 158.651 32.0147 158.981L32.0171 165.011C32.0173 165.341 31.9124 165.611 31.7025 165.821C31.4926 166.031 31.2226 166.136 30.8926 166.136L1.64259 166.148C1.31259 166.148 1.04255 166.044 0.832465 165.834C0.622379 165.624 0.517269 165.354 0.517134 165.024L0.514671 158.994ZM0.521181 174.934C0.521046 174.604 0.625936 174.334 0.83585 174.124C1.04576 173.913 1.31572 173.808 1.64572 173.808L30.8957 173.796C31.2257 173.796 31.4958 173.901 31.7058 174.111C31.9159 174.321 32.021 174.591 32.0212 174.921L32.0231 179.691C32.0233 180.201 31.9035 180.561 31.6636 180.771C31.4537 181.011 31.2887 181.161 31.1688 181.221L13.8482 192.208L30.9032 192.201C31.2332 192.201 31.5033 192.306 31.7134 192.516C31.9235 192.726 32.0286 192.996 32.0287 193.326L32.0309 198.726C32.031 199.056 31.9261 199.326 31.7162 199.536C31.5063 199.746 31.2364 199.851 30.9064 199.851L1.65636 199.863C1.35636 199.863 1.08632 199.758 0.846233 199.549C0.636147 199.339 0.531037 199.069 0.530902 198.739L0.528936 193.924C0.52874 193.444 0.648593 193.084 0.888495 192.843C1.12841 192.633 1.29335 192.498 1.38333 192.438L18.0288 181.451L1.64885 181.458C1.31885 181.458 1.0488 181.353 0.838717 181.144C0.628631 180.934 0.523521 180.664 0.523386 180.334L0.521181 174.934ZM0.533746 205.702C0.533648 205.462 0.623556 205.237 0.80347 205.027C1.0134 204.847 1.23836 204.757 1.47836 204.757C1.62836 204.757 1.76337 204.772 1.88338 204.802L30.7777 215.365C31.1077 215.455 31.3928 215.635 31.6329 215.905C31.903 216.205 32.0382 216.61 32.0384 217.12L32.0411 223.78C32.0413 224.29 31.9065 224.68 31.6366 224.95C31.3967 225.25 31.1118 225.445 30.7819 225.535L1.89615 236.077C1.77617 236.137 1.64119 236.167 1.49119 236.167C1.25119 236.167 1.02614 236.062 0.816058 235.852C0.635985 235.672 0.545893 235.447 0.545782 235.177L0.543522 229.642C0.543338 229.192 0.648197 228.847 0.858099 228.607C1.09801 228.397 1.30796 228.262 1.48793 228.202L6.07722 226.445L6.07231 214.43L1.48161 212.722C1.30159 212.662 1.09153 212.527 0.851447 212.317C0.641361 212.107 0.536214 211.747 0.536006 211.237L0.533746 205.702ZM12.5531 216.272L12.5565 224.642L24.4348 220.408L12.5531 216.272ZM0.548646 242.189C0.548511 241.859 0.653401 241.589 0.863315 241.379C1.07323 241.169 1.34319 241.064 1.67319 241.064L30.9232 241.052C31.2532 241.052 31.5232 241.157 31.7333 241.367C31.9434 241.576 32.0485 241.846 32.0486 242.176L32.0543 255.901C32.0553 258.481 31.6962 260.597 30.9768 262.247C30.2575 263.897 29.223 265.113 27.8733 265.893C26.5537 266.704 24.9788 267.109 23.1488 267.11C22.0688 267.111 21.1087 266.901 20.2686 266.481C19.4584 266.092 18.7832 265.597 18.243 264.997C17.7027 264.427 17.3125 263.887 17.0723 263.378C16.5328 264.518 15.6482 265.523 14.4185 266.394C13.1889 267.294 11.7491 267.745 10.0991 267.745C8.11908 267.746 6.4089 267.297 4.96853 266.397C3.55818 265.528 2.46265 264.239 1.68195 262.529C0.931266 260.849 0.555421 258.779 0.554416 256.319L0.548646 242.189ZM6.40148 249.117L6.40405 255.417C6.40458 256.707 6.77997 257.682 7.53024 258.341C8.28051 259.001 9.13565 259.331 10.0956 259.33C11.1456 259.33 12.0305 258.985 12.7502 258.294C13.47 257.634 13.8296 256.674 13.829 255.414L13.8265 249.114L6.40148 249.117ZM19.5415 249.112L19.5439 255.007C19.5444 256.237 19.8598 257.151 20.49 257.751C21.1203 258.381 21.9304 258.696 22.9204 258.695C23.8804 258.695 24.6603 258.379 25.26 257.749C25.8898 257.149 26.2044 256.234 26.2039 255.004L26.2015 249.109L19.5415 249.112ZM0.562136 275.224C0.562002 274.894 0.666891 274.624 0.876805 274.414C1.08672 274.204 1.35668 274.099 1.68668 274.098L30.9367 274.086C31.2667 274.086 31.5367 274.191 31.7468 274.401C31.9569 274.611 32.062 274.881 32.0621 275.211L32.0646 281.151C32.0647 281.451 31.9598 281.706 31.7499 281.916C31.54 282.156 31.27 282.276 30.94 282.276L7.36002 282.286L7.36557 295.876C7.36571 296.206 7.24582 296.476 7.0059 296.686C6.796 296.926 6.52605 297.046 6.19605 297.047L1.69605 297.048C1.36605 297.049 1.096 296.929 0.885902 296.689C0.675816 296.479 0.570706 296.209 0.570571 295.879L0.562136 275.224ZM0.573653 303.424C0.573518 303.094 0.678408 302.824 0.888322 302.614C1.09824 302.404 1.36819 302.299 1.69819 302.299L30.9482 302.287C31.2782 302.287 31.5482 302.392 31.7583 302.602C31.9684 302.812 32.0735 303.082 32.0737 303.412L32.0822 324.427C32.0824 324.757 31.9775 325.027 31.7676 325.237C31.5577 325.447 31.2877 325.552 30.9577 325.552L26.7277 325.554C26.3977 325.554 26.1277 325.449 25.9176 325.239C25.7075 325.029 25.6024 324.759 25.6022 324.429L25.5964 310.074L19.5214 310.077L19.5268 323.442C19.527 323.772 19.4071 324.042 19.1672 324.252C18.9572 324.462 18.6873 324.567 18.3573 324.567L14.4423 324.569C14.1423 324.569 13.8722 324.464 13.6322 324.254C13.4221 324.044 13.317 323.774 13.3168 323.444L13.3114 310.079L7.05637 310.082L7.06238 324.797C7.06252 325.127 6.95763 325.397 6.74771 325.607C6.5378 325.817 6.26784 325.922 5.93784 325.922L1.70784 325.924C1.37784 325.924 1.1078 325.819 0.897712 325.609C0.687626 325.399 0.582516 325.129 0.582381 324.799L0.573653 303.424ZM0.591877 348.052C0.591669 347.542 0.741504 347.137 1.04138 346.837C1.34126 346.537 1.68618 346.357 2.07616 346.297L30.8292 341.38C30.8891 341.35 30.9491 341.335 31.0091 341.335C31.0691 341.335 31.1141 341.335 31.1441 341.335C31.3841 341.335 31.5942 341.424 31.7742 341.604C31.9843 341.814 32.0894 342.039 32.0895 342.279L32.0918 347.859C32.0921 348.699 31.7623 349.164 31.1024 349.255L13.5086 352.187L23.9049 355.423C24.1449 355.513 24.4 355.662 24.6701 355.872C24.9702 356.082 25.1203 356.427 25.1205 356.907L25.1218 360.147C25.122 360.657 24.9722 361.017 24.6723 361.227C24.4023 361.437 24.1474 361.573 23.9074 361.633L13.5588 364.877L31.1099 367.795C31.77 367.884 32.1002 368.349 32.1005 369.189L32.1028 374.769C32.1029 375.039 31.998 375.264 31.7881 375.444C31.6081 375.624 31.3982 375.715 31.1582 375.715C31.1282 375.715 31.0832 375.715 31.0232 375.715C30.9632 375.715 30.9032 375.715 30.8432 375.715L2.08618 370.822C1.69615 370.762 1.35108 370.582 1.05096 370.282C0.750833 369.982 0.600667 369.577 0.600459 369.067L0.598713 364.792C0.598505 364.282 0.733346 363.892 1.00324 363.622C1.27313 363.352 1.52805 363.172 1.76801 363.082L14.6362 358.531L1.7643 353.992C1.52427 353.902 1.26919 353.722 0.999082 353.452C0.728984 353.212 0.593831 352.837 0.593623 352.327L0.591877 348.052ZM0.604351 378.597C0.604253 378.357 0.694161 378.132 0.874075 377.922C1.084 377.742 1.30896 377.652 1.54897 377.652C1.69896 377.652 1.83397 377.667 1.95398 377.697L30.8483 388.26C31.1783 388.35 31.4634 388.53 31.7035 388.8C31.9736 389.099 32.1088 389.504 32.109 390.014L32.1117 396.674C32.1119 397.184 31.9771 397.574 31.7072 397.845C31.4673 398.145 31.1824 398.34 30.8525 398.43L1.96676 408.972C1.84678 409.032 1.71179 409.062 1.56179 409.062C1.32179 409.062 1.09675 408.957 0.886663 408.747C0.70659 408.567 0.616498 408.342 0.616388 408.072L0.614127 402.537C0.613944 402.087 0.718803 401.742 0.928705 401.502C1.16862 401.292 1.37856 401.157 1.55854 401.097L6.14782 399.34L6.14292 387.325L1.55222 385.617C1.37219 385.557 1.16214 385.422 0.922052 385.212C0.711967 385.002 0.60682 384.642 0.606611 384.132L0.604351 378.597ZM12.6237 389.167L12.6271 397.537L24.5054 393.303L12.6237 389.167ZM0.619251 415.084C0.619116 414.754 0.724006 414.484 0.93392 414.274C1.14383 414.064 1.41379 413.959 1.74379 413.959L30.9938 413.947C31.3238 413.947 31.5938 414.052 31.8039 414.261C32.014 414.471 32.1191 414.741 32.1193 415.071L32.1242 427.311C32.1258 431.181 31.2271 434.227 29.428 436.447C27.6589 438.698 25.1394 439.824 21.8694 439.826C19.7394 439.826 17.9391 439.302 16.4687 438.253C14.9983 437.233 13.8877 435.884 13.1371 434.204L2.0696 440.419C1.88963 440.509 1.72465 440.554 1.57465 440.554C1.33465 440.554 1.10961 440.449 0.899524 440.239C0.71945 440.059 0.629358 439.834 0.629248 439.564L0.626822 433.624C0.62659 433.054 0.761418 432.634 1.03131 432.364C1.3312 432.094 1.60112 431.899 1.84107 431.779L11.739 426.645L11.7371 422.01L1.74708 422.014C1.41708 422.014 1.14704 421.909 0.936952 421.699C0.726867 421.489 0.621756 421.219 0.621622 420.889L0.619251 415.084ZM18.0821 422.007L18.0842 427.227C18.0848 428.637 18.4302 429.687 19.1205 430.377C19.8108 431.096 20.7559 431.456 21.9559 431.455C23.1259 431.455 24.0708 431.11 24.7905 430.419C25.5102 429.759 25.8698 428.694 25.8692 427.224L25.8671 422.004L18.0821 422.007ZM0.632508 447.547C0.632386 447.247 0.737275 446.977 0.947177 446.737C1.15709 446.527 1.42705 446.422 1.75705 446.422L31.007 446.41C31.337 446.41 31.6071 446.515 31.8172 446.725C32.0273 446.965 32.1324 447.235 32.1325 447.535L32.1345 452.395C32.1347 452.875 31.9998 453.235 31.7299 453.475C31.49 453.745 31.2951 453.91 31.1451 453.97L16.9284 461.896L31.1516 469.81C31.3016 469.9 31.4967 470.05 31.7368 470.26C32.0069 470.5 32.142 470.875 32.1422 471.385L32.1442 476.2C32.1443 476.53 32.0395 476.8 31.8295 477.01C31.6196 477.25 31.3497 477.37 31.0197 477.37L1.76969 477.382C1.43969 477.382 1.16964 477.262 0.959545 477.022C0.749459 476.812 0.644349 476.542 0.644214 476.212L0.642027 470.857C0.641892 470.527 0.746776 470.242 0.956678 470.002C1.16659 469.792 1.43655 469.687 1.76655 469.687L18.6415 469.68L9.23447 464.599C8.96442 464.479 8.72435 464.299 8.51425 464.059C8.30415 463.819 8.19902 463.489 8.19885 463.069L8.19789 460.729C8.19772 460.309 8.30259 459.979 8.51249 459.739C8.72239 459.499 8.96231 459.304 9.23225 459.154L18.6352 454.065L1.76017 454.072C1.43017 454.072 1.16013 453.967 0.950044 453.757C0.739958 453.547 0.634848 453.277 0.634713 452.947L0.632508 447.547ZM0.65109 493.049C0.650955 492.719 0.755845 492.449 0.965759 492.239C1.17567 492.029 1.44563 491.924 1.77563 491.924L25.0856 491.914L25.0824 483.904C25.0822 483.574 25.1871 483.304 25.397 483.094C25.6369 482.884 25.9069 482.779 26.2069 482.779L31.0219 482.777C31.3519 482.777 31.6219 482.882 31.832 483.091C32.0421 483.301 32.1472 483.571 32.1474 483.901L32.1572 508.111C32.1574 508.441 32.0525 508.711 31.8426 508.921C31.6327 509.132 31.3627 509.237 31.0327 509.237L26.2177 509.239C25.9177 509.239 25.6477 509.134 25.4076 508.924C25.1975 508.714 25.0924 508.444 25.0922 508.114L25.089 500.104L1.77897 500.114C1.44897 500.114 1.17893 500.009 0.968846 499.799C0.75876 499.589 0.65365 499.319 0.653515 498.989L0.65109 493.049ZM0.660386 515.814C0.660251 515.484 0.765141 515.214 0.975055 515.004C1.18497 514.794 1.45493 514.689 1.78493 514.688L31.0349 514.676C31.3649 514.676 31.635 514.781 31.8451 514.991C32.0551 515.201 32.1603 515.471 32.1604 515.801L32.1628 521.606C32.1629 521.936 32.058 522.206 31.8481 522.416C31.6382 522.626 31.3682 522.731 31.0382 522.731L20.1932 522.736L20.1978 533.851L31.0428 533.846C31.3728 533.846 31.6428 533.951 31.8529 534.161C32.063 534.371 32.1681 534.641 32.1682 534.971L32.1706 540.776C32.1707 541.106 32.0658 541.376 31.8559 541.586C31.646 541.796 31.376 541.901 31.046 541.901L1.79604 541.913C1.46604 541.914 1.196 541.809 0.985916 541.599C0.77583 541.389 0.67072 541.119 0.670585 540.789L0.668215 534.984C0.66808 534.654 0.77297 534.384 0.982884 534.174C1.1928 533.964 1.46276 533.859 1.79276 533.858L12.9978 533.854L12.9932 522.739L1.78822 522.743C1.45822 522.744 1.18817 522.639 0.978087 522.429C0.768002 522.219 0.662891 521.949 0.662757 521.619L0.660386 515.814Z" fill="#E2725B"/>
</svg>
