<svg width="19" height="19" viewBox="0 0 19 19" fill="none" xmlns="http://www.w3.org/2000/svg">
<g clip-path="url(#clip0_141_713)">
<path d="M3.6678 0.071383C2.86186 -0.019237 2.03577 -0.019237 1.23991 0.071383C0.635454 0.131796 0.141817 0.605034 0.071297 1.21924C-0.0193711 2.03482 -0.0193711 2.87053 0.071297 3.68611C0.141817 4.30032 0.635454 4.77356 1.22983 4.83397C2.0257 4.92459 2.86186 4.92459 3.65772 4.83397C4.26218 4.76349 4.74574 4.29025 4.81626 3.68611C4.917 2.87053 4.917 2.03482 4.81626 1.21924C4.74574 0.605034 4.2521 0.131796 3.65772 0.071383H3.6678Z" fill="#E2725B"/>
<path d="M10.719 0.0704064C9.92313 -0.0202136 9.08696 -0.0202136 8.2911 0.0704064C7.68665 0.140889 7.20308 0.614126 7.13256 1.21826C7.03182 2.03384 7.03182 2.86956 7.13256 3.68514C7.20308 4.29934 7.69672 4.77258 8.2911 4.83299C9.08696 4.92361 9.92313 4.92361 10.719 4.83299C11.3234 4.76251 11.807 4.28927 11.8775 3.68514C11.9783 2.86956 11.9783 2.03384 11.8775 1.21826C11.807 0.604058 11.3134 0.13082 10.719 0.0704064Z" fill="#E2725B"/>
<path d="M17.771 0.0704064C16.9751 -0.0202136 16.139 -0.0202136 15.3431 0.0704064C14.7386 0.140889 14.2551 0.614126 14.1846 1.21826C14.0838 2.03384 14.0838 2.86956 14.1846 3.68514C14.2551 4.29934 14.7487 4.77258 15.3431 4.83299C16.139 4.92361 16.9751 4.92361 17.771 4.83299C18.3754 4.76251 18.859 4.28927 18.9295 3.68514C19.0303 2.86956 19.0303 2.03384 18.9295 1.21826C18.859 0.604058 18.3654 0.13082 17.771 0.0704064Z" fill="#E2725B"/>
<path d="M3.66699 7.11875C2.87112 7.02813 2.03496 7.02813 1.2391 7.11875C0.634644 7.18923 0.151081 7.66247 0.0805616 8.2666C-0.0201807 9.08218 -0.0201807 9.9179 0.0805616 10.7335C0.151081 11.3477 0.644719 11.8209 1.2391 11.8813C2.03496 11.972 2.87112 11.972 3.66699 11.8813C4.27144 11.8108 4.75501 11.3376 4.82553 10.7335C4.92627 9.9179 4.92627 9.08218 4.82553 8.2666C4.75501 7.6524 4.26137 7.17916 3.66699 7.11875Z" fill="#E2725B"/>
<path d="M10.719 7.11875C9.92313 7.02813 9.08696 7.02813 8.2911 7.11875C7.68665 7.18923 7.20308 7.66247 7.13256 8.2666C7.03182 9.08218 7.03182 9.9179 7.13256 10.7335C7.20308 11.3477 7.69672 11.8209 8.2911 11.8813C9.08696 11.972 9.92313 11.972 10.719 11.8813C11.3234 11.8108 11.807 11.3376 11.8775 10.7335C11.9783 9.9179 11.9783 9.08218 11.8775 8.2666C11.807 7.6524 11.3134 7.17916 10.719 7.11875Z" fill="#E2725B"/>
<path d="M17.771 7.11875C16.9751 7.02813 16.139 7.02813 15.3431 7.11875C14.7386 7.18923 14.2551 7.66247 14.1846 8.2666C14.0838 9.08218 14.0838 9.9179 14.1846 10.7335C14.2551 11.3477 14.7487 11.8209 15.3431 11.8813C16.139 11.972 16.9751 11.972 17.771 11.8813C18.3754 11.8108 18.859 11.3376 18.9295 10.7335C19.0303 9.9179 19.0303 9.08218 18.9295 8.2666C18.859 7.6524 18.3654 7.17916 17.771 7.11875Z" fill="#E2725B"/>
<path d="M3.66699 14.1671C2.87112 14.0765 2.03496 14.0765 1.2391 14.1671C0.634644 14.2376 0.151081 14.7108 0.0805616 15.3149C-0.0201807 16.1305 -0.0201807 16.9662 0.0805616 17.7818C0.151081 18.396 0.644719 18.8693 1.2391 18.9297C2.03496 19.0203 2.87112 19.0203 3.66699 18.9297C4.27144 18.8592 4.75501 18.386 4.82553 17.7818C4.92627 16.9662 4.92627 16.1305 4.82553 15.3149C4.75501 14.7007 4.26137 14.2275 3.66699 14.1671Z" fill="#E2725B"/>
<path d="M10.719 14.1671C9.92313 14.0765 9.08696 14.0765 8.2911 14.1671C7.68665 14.2376 7.20308 14.7108 7.13256 15.3149C7.03182 16.1305 7.03182 16.9662 7.13256 17.7818C7.20308 18.396 7.69672 18.8693 8.2911 18.9297C9.08696 19.0203 9.92313 19.0203 10.719 18.9297C11.3234 18.8592 11.807 18.386 11.8775 17.7818C11.9783 16.9662 11.9783 16.1305 11.8775 15.3149C11.807 14.7007 11.3134 14.2275 10.719 14.1671Z" fill="#E2725B"/>
<path d="M17.771 14.1671C16.9751 14.0765 16.139 14.0765 15.3431 14.1671C14.7386 14.2376 14.2551 14.7108 14.1846 15.3149C14.0838 16.1305 14.0838 16.9662 14.1846 17.7818C14.2551 18.396 14.7487 18.8693 15.3431 18.9297C16.139 19.0203 16.9751 19.0203 17.771 18.9297C18.3754 18.8592 18.859 18.386 18.9295 17.7818C19.0303 16.9662 19.0303 16.1305 18.9295 15.3149C18.859 14.7007 18.3654 14.2275 17.771 14.1671Z" fill="#E2725B"/>
</g>
<defs>
<clipPath id="clip0_141_713">
<rect width="19" height="19" fill="white"/>
</clipPath>
</defs>
</svg>
