<svg width="20" height="19" viewBox="0 0 20 19" fill="none" xmlns="http://www.w3.org/2000/svg">
<g clip-path="url(#clip0_141_729)">
<path d="M0.576901 6.03366H0.674646V5.22134C0.674646 4.7031 1.08941 4.28131 1.59902 4.28131H2.17823V2.48413C2.17823 2.19655 2.2696 1.65412 2.88188 1.24974C3.04953 1.13913 3.25633 1.03914 3.51476 0.944455C3.8689 0.814084 4.33906 0.685187 4.95222 0.549506C6.60344 0.184939 8.29759 0 9.98796 0C11.6783 0 13.3725 0.184939 15.0237 0.549801C15.6369 0.685482 16.1073 0.814379 16.4615 0.94475C16.7196 1.03943 16.9267 1.13942 17.094 1.25003C17.7066 1.65442 17.7977 2.19685 17.7977 2.48443V4.28161H18.401C18.9106 4.28161 19.3254 4.7034 19.3254 5.22164V6.03395H19.4231C19.7413 6.03395 20 6.29705 20 6.62062V8.63017C20 8.95374 19.7413 9.21684 19.4231 9.21684H18.8575C18.5393 9.21684 18.2806 8.95374 18.2806 8.63017V6.62062C18.2806 6.29705 18.5393 6.03395 18.8575 6.03395H18.955V5.22164C18.955 4.91105 18.7064 4.65827 18.401 4.65827H17.7977V15.3281C17.7977 15.6322 17.6968 16.2026 17.0215 16.6061C16.9525 16.6474 16.8765 16.6872 16.7933 16.7259V18.5065C16.7933 18.7788 16.5754 19.0003 16.3077 19.0003H14.7003C14.4326 19.0003 14.2148 18.7788 14.2148 18.5065V17.3913C12.8208 17.6332 11.4014 17.7559 9.98825 17.7559C8.57516 17.7559 7.15568 17.6332 5.76173 17.3913V18.5065C5.76173 18.7788 5.54391 19.0003 5.2762 19.0003H3.66877C3.40106 19.0003 3.18324 18.7788 3.18324 18.5065V16.7259C3.1 16.6872 3.02429 16.6474 2.95497 16.6061C2.27946 16.2026 2.17881 15.6325 2.17881 15.3281V4.65797H1.5996C1.29418 4.65797 1.04561 4.91075 1.04561 5.22134V6.03366H1.14307C1.46124 6.03366 1.71996 6.29676 1.71996 6.62033V8.62988C1.71996 8.95344 1.46124 9.21655 1.14307 9.21655H0.57748C0.259302 9.21655 0.000581964 8.95344 0.000581964 8.62988V6.62033C0.000581964 6.29676 0.259302 6.03366 0.57748 6.03366H0.576901ZM13.6396 1.796C13.6396 1.78803 13.6332 1.78125 13.6251 1.78125H6.35081C6.34269 1.78125 6.33631 1.78803 6.33631 1.796V2.59032C6.33631 2.59828 6.34269 2.60507 6.35081 2.60507H13.6251C13.6332 2.60507 13.6396 2.59828 13.6396 2.59032V1.796ZM15.504 14.8325C15.8387 14.8325 16.1111 14.5556 16.1111 14.2155C16.1111 13.8754 15.8387 13.5981 15.504 13.5981C15.1693 13.5981 14.8973 13.8751 14.8973 14.2155C14.8973 14.5559 15.1693 14.8325 15.504 14.8325ZM6.33631 15.418C6.33631 15.426 6.34269 15.4328 6.35081 15.4328H13.6251C13.6332 15.4328 13.6396 15.426 13.6396 15.418V14.6237C13.6396 14.6155 13.6332 14.609 13.6251 14.609H6.35081C6.34269 14.609 6.33631 14.6155 6.33631 14.6237V15.418ZM4.4719 14.8325C4.80662 14.8325 5.07868 14.5556 5.07868 14.2155C5.07868 13.8754 4.80662 13.5981 4.4719 13.5981C4.13719 13.5981 3.86484 13.8751 3.86484 14.2155C3.86484 14.5559 4.13719 14.8325 4.4719 14.8325ZM3.79349 11.3804C3.92024 11.4287 4.33007 11.532 5.64629 11.6741C8.52701 11.9859 11.4483 11.9859 14.3291 11.6741C15.6459 11.5317 16.0551 11.4287 16.1819 11.3804V4.6214C16.0656 4.57568 15.7065 4.4807 14.6017 4.34502C11.5832 3.97426 8.39214 3.97426 5.37365 4.34502C4.26858 4.4807 3.90951 4.57568 3.79349 4.6214V11.3804Z" fill="#E2725B"/>
<path d="M6.92939 4.86905C7.0019 4.7956 7.11908 4.7956 7.1913 4.86905L9.94962 7.6741C10.0218 7.74754 10.0218 7.867 9.94962 7.94044C9.91336 7.97731 9.86609 7.9956 9.81852 7.9956C9.77095 7.9956 9.72367 7.97731 9.68742 7.94044L6.9291 5.1354C6.85688 5.06195 6.85688 4.94249 6.9291 4.86905H6.92939Z" fill="#E2725B"/>
<path d="M5.49515 5.58975C5.56766 5.51631 5.68484 5.51631 5.75706 5.58975L7.9379 7.80754C8.01012 7.88098 8.01012 8.00044 7.9379 8.07389C7.90164 8.11076 7.85437 8.12904 7.8068 8.12904C7.75923 8.12904 7.71195 8.11076 7.6757 8.07389L5.49486 5.8561C5.42264 5.78265 5.42264 5.6632 5.49486 5.58975H5.49515Z" fill="#E2725B"/>
<path d="M5.76729 8.04568C5.73104 8.08254 5.68376 8.10083 5.63619 8.10083C5.58862 8.10083 5.54135 8.08254 5.50509 8.04568L4.21961 6.73842C4.14739 6.66498 4.14739 6.54552 4.21961 6.47208C4.29213 6.39863 4.4093 6.39863 4.48153 6.47208L5.767 7.77933C5.83922 7.85277 5.83922 7.97223 5.767 8.04568H5.76729Z" fill="#E2725B"/>
</g>
<defs>
<clipPath id="clip0_141_729">
<rect width="20" height="19" fill="white" transform="matrix(-1 0 0 1 20 0)"/>
</clipPath>
</defs>
</svg>
