<svg width="18" height="17" viewBox="0 0 18 17" fill="none" xmlns="http://www.w3.org/2000/svg">
<g clip-path="url(#clip0_141_723)">
<path d="M8.59306 8.28585C8.83802 8.4547 9.15803 8.4547 9.40298 8.28585L17.996 2.31444V2.11265C17.996 0.951308 17.0874 0 15.9732 0H2.02283C0.908692 0 0 0.94719 0 2.11265V2.29797L8.59306 8.28585Z" fill="#E2725B"/>
<path d="M10.1339 9.42226C9.79017 9.66112 9.39508 9.78055 9 9.78055C8.60492 9.78055 8.20983 9.66112 7.86611 9.42226L0 3.94092V14.8871C0 16.0485 0.908692 16.9957 2.02283 16.9957H15.9732C17.0874 16.9957 17.996 16.0485 17.996 14.8871V3.95739L10.1299 9.41815L10.1339 9.42226Z" fill="#E2725B"/>
</g>
<defs>
<clipPath id="clip0_141_723">
<rect width="18" height="17" fill="white"/>
</clipPath>
</defs>
</svg>
