<svg width="18" height="18" viewBox="0 0 18 18" fill="none" xmlns="http://www.w3.org/2000/svg">
<g clip-path="url(#clip0_141_726)">
<path d="M18 16.0002V14.3502C18 13.5302 17.5 12.8002 16.74 12.4902L14.71 11.6802C13.74 11.2902 12.64 11.7102 12.18 12.6402L12 12.9902C12 12.9902 9.5 12.4902 7.5 10.4902C5.5 8.49023 5 5.99023 5 5.99023L5.35 5.81023C6.28 5.34023 6.7 4.24023 6.31 3.28023L5.5 1.25023C5.2 0.490234 4.46 -0.00976562 3.64 -0.00976562H1.99C0.9 0.000234375 0 0.900234 0 2.00023C0 10.8402 7.16 18.0002 16 18.0002C17.1 18.0002 18 17.1002 18 16.0002Z" fill="#E2725B"/>
</g>
<defs>
<clipPath id="clip0_141_726">
<rect width="18" height="18" fill="white"/>
</clipPath>
</defs>
</svg>
