<svg width="845" height="171" viewBox="0 0 845 171" fill="none" xmlns="http://www.w3.org/2000/svg">
<path d="M229.297 33.9277C115.542 8.34385 -4.02196 40.2836 -49.5844 59.4515L-47.1909 129.114C-6.69929 115.767 84.755 89.7083 126.559 88.272C217.677 85.1413 507.745 150.697 611.494 147.832C715.149 144.969 795.375 128.289 844 115.659L822.5 56.159L820.811 56.4322C780.802 62.9047 690.62 77.4942 609.254 82.6473C506.089 89.181 371.492 65.9076 229.297 33.9277Z" fill="#949FCB"/>
<path d="M811.12 76.105L831.071 71.5652C831.883 71.3804 832.531 70.7697 832.763 69.97C832.915 69.4469 832.876 68.8867 832.653 68.3898L832.571 68.2069C832.019 66.9803 830.682 66.3095 829.369 66.6004L809.952 70.9036C808.779 71.1635 807.926 72.1753 807.866 73.3747C807.78 75.1376 809.399 76.4966 811.12 76.105Z" fill="white"/>
<path d="M777.177 81.4993L797.347 78.0613C798.168 77.9214 798.848 77.3472 799.124 76.5614C799.305 76.0474 799.296 75.4859 799.101 74.9775L799.029 74.7904C798.545 73.5354 797.247 72.7922 795.92 73.0107L776.296 76.2417C775.111 76.4368 774.203 77.4002 774.078 78.5946C773.895 80.35 775.437 81.7959 777.177 81.4993Z" fill="white"/>
<path d="M740.194 87.7415L760.401 84.5342C761.224 84.4037 761.911 83.8373 762.196 83.0548C762.383 82.5429 762.381 81.9813 762.191 81.4707L762.121 81.2828C761.652 80.0223 760.362 79.2643 759.033 79.4676L739.373 82.4741C738.186 82.6556 737.267 83.6086 737.128 84.8015C736.925 86.5547 738.451 88.0181 740.194 87.7415Z" fill="white"/>
<path d="M701.309 94.1938L721.647 91.9536C722.475 91.8624 723.188 91.3295 723.51 90.5614C723.721 90.059 723.745 89.498 723.58 88.9789L723.519 88.7879C723.111 87.5065 721.859 86.6878 720.521 86.8275L700.741 88.8933C699.546 89.018 698.583 89.9261 698.387 91.111C698.1 92.8526 699.555 94.3871 701.309 94.1938Z" fill="white"/>
<path d="M664.365 97.665L684.703 95.4248C685.53 95.3336 686.244 94.8007 686.566 94.0326C686.776 93.5302 686.801 92.9692 686.636 92.4501L686.575 92.2591C686.167 90.9777 684.915 90.159 683.577 90.2987L663.796 92.3645C662.602 92.4892 661.638 93.3973 661.443 94.5822C661.156 96.3238 662.611 97.8583 664.365 97.665Z" fill="white"/>
<path d="M627.618 101.668L647.955 99.4282C648.783 99.3371 649.496 98.8041 649.819 98.036C650.029 97.5336 650.054 96.9726 649.889 96.4535L649.828 96.2625C649.419 94.9811 648.168 94.1625 646.83 94.3021L627.049 96.3679C625.855 96.4927 624.891 97.4007 624.696 98.5856C624.409 100.327 625.864 101.862 627.618 101.668Z" fill="white"/>
<path d="M590.492 101.706L610.951 101.482C611.784 101.473 612.546 101.013 612.942 100.281C613.202 99.8014 613.282 99.2456 613.168 98.7127L613.127 98.5166C612.847 97.2012 611.682 96.2631 610.337 96.2702L590.449 96.375C589.248 96.3814 588.199 97.19 587.888 98.3499C587.431 100.055 588.727 101.725 590.492 101.706Z" fill="white"/>
<path d="M552.959 99.5495L573.325 101.519C574.154 101.599 574.961 101.223 575.433 100.537C575.742 100.089 575.882 99.5445 575.826 99.0025L575.805 98.8031C575.668 97.4653 574.61 96.4077 573.272 96.2707L553.487 94.2448C552.293 94.1225 551.164 94.8141 550.73 95.934C550.093 97.58 551.202 99.3796 552.959 99.5495Z" fill="white"/>
<path d="M518.038 97.5256L538.403 99.4947C539.232 99.5749 540.04 99.1992 540.512 98.5133C540.821 98.0646 540.96 97.5205 540.905 96.9786L540.884 96.7792C540.747 95.4413 539.689 94.3838 538.351 94.2468L518.566 92.2209C517.371 92.0985 516.242 92.7902 515.809 93.9101C515.171 95.5561 516.281 97.3557 518.038 97.5256Z" fill="white"/>
<path d="M483.034 92.5153L503.4 94.4845C504.229 94.5646 505.036 94.1889 505.508 93.503C505.817 93.0543 505.956 92.5103 505.901 91.9683L505.88 91.7689C505.743 90.4311 504.685 89.3736 503.347 89.2366L483.562 87.2106C482.367 87.0883 481.239 87.7799 480.805 88.8998C480.168 90.5458 481.277 92.3455 483.034 92.5153Z" fill="white"/>
<path d="M446.067 88.5554L466.433 90.5245C467.261 90.6047 468.069 90.2289 468.541 89.543C468.85 89.0944 468.989 88.5503 468.934 88.0084L468.913 87.8089C468.776 86.4711 467.718 85.4136 466.38 85.2766L446.595 83.2506C445.4 83.1283 444.271 83.82 443.838 84.9399C443.201 86.5858 444.31 88.3855 446.067 88.5554Z" fill="white"/>
<path d="M411.963 82.2835L431.948 86.6676C432.762 86.8461 433.608 86.5693 434.159 85.9446C434.519 85.536 434.722 85.0124 434.732 84.4677L434.735 84.2673C434.758 82.9226 433.834 81.7465 432.522 81.4509L413.12 77.0796C411.949 76.8157 410.745 77.3678 410.181 78.4279C409.352 79.9862 410.239 81.9053 411.963 82.2835Z" fill="white"/>
<path d="M379.933 76.1707L399.918 80.5548C400.731 80.7333 401.578 80.4565 402.129 79.8318C402.489 79.4232 402.692 78.8997 402.701 78.3549L402.705 78.1545C402.728 76.8098 401.804 75.6337 400.492 75.3381L381.09 70.9668C379.918 70.7029 378.715 71.255 378.151 72.3152C377.322 73.8734 378.209 75.7925 379.933 76.1707Z" fill="white"/>
<path d="M346.892 70.1102L366.877 74.4943C367.691 74.6727 368.537 74.3959 369.088 73.7713C369.448 73.3627 369.651 72.8391 369.661 72.2944L369.664 72.0939C369.687 70.7493 368.763 69.5731 367.451 69.2776L348.049 64.9063C346.878 64.6423 345.674 65.1944 345.11 66.2546C344.281 67.8128 345.168 69.732 346.892 70.1102Z" fill="white"/>
<path d="M313.852 64.0496L333.837 68.4337C334.65 68.6122 335.497 68.3354 336.048 67.7108C336.408 67.3021 336.611 66.7786 336.62 66.2338L336.624 66.0334C336.647 64.6887 335.723 63.5126 334.411 63.217L315.009 58.8457C313.837 58.5818 312.634 59.1339 312.07 60.1941C311.241 61.7523 312.128 63.6714 313.852 64.0496Z" fill="white"/>
<path d="M280.783 56.9935L300.769 61.3776C301.582 61.556 302.428 61.2793 302.979 60.6546C303.34 60.246 303.543 59.7224 303.552 59.1777L303.555 58.9772C303.579 57.6326 302.654 56.4564 301.342 56.1609L281.94 51.7896C280.769 51.5256 279.565 52.0777 279.001 53.1379C278.172 54.6961 279.059 56.6153 280.783 56.9935Z" fill="white"/>
<path d="M247.715 49.9378L267.701 54.3219C268.514 54.5004 269.36 54.2236 269.911 53.5989C270.272 53.1903 270.475 52.6667 270.484 52.122L270.487 51.9216C270.51 50.5769 269.586 49.4008 268.274 49.1052L248.872 44.7339C247.701 44.47 246.497 45.022 245.933 46.0822C245.104 47.6404 245.991 49.5596 247.715 49.9378Z" fill="white"/>
<path d="M213.652 42.909L233.637 47.2931C234.451 47.4715 235.297 47.1948 235.848 46.5701C236.208 46.1615 236.411 45.6379 236.421 45.0932L236.424 44.8928C236.447 43.5481 235.523 42.372 234.211 42.0764L214.809 37.7051C213.637 37.4412 212.434 37.9932 211.87 39.0534C211.041 40.6116 211.928 42.5308 213.652 42.909Z" fill="white"/>
<path d="M180.637 37.4207L200.834 40.6948C201.656 40.828 202.486 40.5049 203.002 39.8508C203.339 39.423 203.513 38.889 203.492 38.3446L203.484 38.1442C203.433 36.8003 202.445 35.677 201.119 35.4543L181.505 32.1609C180.321 31.962 179.15 32.5797 178.645 33.6694C177.903 35.271 178.895 37.1383 180.637 37.4207Z" fill="white"/>
<path d="M143.865 36.2518L164.317 36.8604C165.149 36.8852 165.93 36.4565 166.355 35.7407C166.634 35.2725 166.737 34.7203 166.645 34.1833L166.611 33.9857C166.385 32.66 165.259 31.6753 163.915 31.6277L144.039 30.9237C142.839 30.8812 141.759 31.6465 141.4 32.7928C140.874 34.4776 142.101 36.1993 143.865 36.2518Z" fill="white"/>
<path d="M107.484 39.6617L127.863 37.8294C128.692 37.7549 129.416 37.2363 129.753 36.4748C129.974 35.9768 130.01 35.4163 129.855 34.8941L129.798 34.7019C129.416 33.4125 128.18 32.569 126.84 32.6818L107.022 34.3508C105.825 34.4516 104.844 35.3401 104.625 36.5209C104.303 38.2564 105.726 39.8197 107.484 39.6617Z" fill="white"/>
<path d="M71.0336 43.9019L91.4118 42.0697C92.2413 41.9951 92.9651 41.4765 93.3025 40.7151C93.5232 40.217 93.5593 39.6566 93.4043 39.1343L93.3473 38.9421C92.9648 37.6528 91.7295 36.8092 90.3894 36.9221L70.5712 38.591C69.3745 38.6918 68.393 39.5804 68.1741 40.7612C67.8523 42.4966 69.2756 44.0599 71.0336 43.9019Z" fill="white"/>
<path d="M34.8164 51.071L54.8188 46.7659C55.633 46.5907 56.2881 45.9877 56.5301 45.1907C56.6883 44.6694 56.6558 44.1088 56.4382 43.6093L56.3582 43.4255C55.8212 42.1925 54.4922 41.506 53.1759 41.7815L33.7094 45.8562C32.534 46.1023 31.6682 47.104 31.595 48.3026C31.4874 50.0644 33.0909 51.4424 34.8164 51.071Z" fill="white"/>
<path d="M-0.319339 59.4143L19.6831 55.1092C20.4973 54.934 21.1524 54.3309 21.3943 53.534C21.5526 53.0127 21.5201 52.4521 21.3025 51.9526L21.2225 51.7688C20.6855 50.5358 19.3565 49.8493 18.0402 50.1248L-1.42628 54.1995C-2.60172 54.4455 -3.46748 55.4472 -3.54071 56.6459C-3.64833 58.4077 -2.04485 59.7856 -0.319339 59.4143Z" fill="white"/>
</svg>
