<svg width="849" height="146" viewBox="0 0 849 146" fill="none" xmlns="http://www.w3.org/2000/svg">
<path d="M623.822 128.865C736.828 157.58 857.227 128.953 903.302 111.051L902.832 41.3481C861.988 53.5727 769.849 77.0965 728.021 77.3782C636.851 77.9921 348.704 4.45291 244.916 4.45291C141.221 4.45291 66.7219 19.5941 17.7665 30.8775L0.598767 95C39.8696 89.7566 162.71 72.6212 245.355 69.6747C348.661 65.9917 482.564 92.9721 623.822 128.865Z" fill="#949FCB"/>
<path d="M43.3855 70.6412L23.3173 74.6285C22.5004 74.7908 21.8359 75.3833 21.5813 76.1763C21.4148 76.6951 21.4384 77.2561 21.648 77.759L21.7252 77.944C22.2426 79.1854 23.5604 79.8929 24.881 79.6383L44.4096 75.8728C45.5888 75.6454 46.4703 74.6576 46.5626 73.4602C46.6981 71.7004 45.1167 70.2972 43.3855 70.6412Z" fill="white"/>
<path d="M77.4645 66.1854L57.2078 69.0652C56.3832 69.1824 55.6871 69.7376 55.3894 70.5155C55.1947 71.0243 55.1875 71.5858 55.3692 72.0994L55.436 72.2884C55.8845 73.5563 57.1616 74.3351 58.4941 74.1533L78.2 71.4653C79.3899 71.303 80.3243 70.3651 80.4821 69.1746C80.714 67.4248 79.212 65.9369 77.4645 66.1854Z" fill="white"/>
<path d="M114.606 60.9665L94.3177 63.6146C93.4918 63.7224 92.7894 64.2696 92.4828 65.044C92.2823 65.5505 92.2687 66.1119 92.4445 66.6276L92.5092 66.8173C92.9432 68.0903 94.2112 68.8836 95.5458 68.7171L115.281 66.2545C116.473 66.1058 117.418 65.1786 117.589 63.99C117.841 62.243 116.356 60.738 114.606 60.9665Z" fill="white"/>
<path d="M153.654 55.5901L133.262 57.268C132.432 57.3363 131.705 57.8494 131.361 58.6082C131.137 59.1046 131.097 59.6648 131.248 60.1882L131.303 60.3808C131.676 61.673 132.905 62.5259 134.246 62.4232L154.076 60.9043C155.273 60.8126 156.262 59.9315 156.489 58.7524C156.824 57.0194 155.413 55.4454 153.654 55.5901Z" fill="white"/>
<path d="M190.68 53.1404L170.288 54.8183C169.458 54.8866 168.731 55.3997 168.387 56.1585C168.163 56.6549 168.123 57.2151 168.274 57.7385L168.329 57.9311C168.702 59.2233 169.931 60.0762 171.272 59.9735L191.102 58.4546C192.299 58.3629 193.288 57.4818 193.515 56.3027C193.85 54.5697 192.439 52.9957 190.68 53.1404Z" fill="white"/>
<path d="M227.523 50.1531L207.132 51.831C206.302 51.8993 205.574 52.4124 205.231 53.1712C205.007 53.6676 204.966 54.2278 205.117 54.7512L205.173 54.9438C205.546 56.236 206.774 57.0889 208.115 56.9862L227.946 55.4673C229.143 55.3756 230.131 54.4945 230.359 53.3154C230.694 51.5824 229.283 50.0083 227.523 50.1531Z" fill="white"/>
<path d="M264.636 51.1406L244.179 50.7992C243.346 50.7853 242.571 51.2241 242.155 51.9454C241.883 52.4173 241.787 52.9707 241.886 53.5065L241.922 53.7037C242.166 55.0263 243.304 55.9962 244.649 56.0263L264.532 56.4705C265.733 56.4973 266.803 55.718 267.146 54.5671C267.651 52.8756 266.401 51.17 264.636 51.1406Z" fill="white"/>
<path d="M302.095 54.3322L281.792 51.8015C280.965 51.6985 280.148 52.0518 279.657 52.7244C279.336 53.1644 279.181 53.7044 279.222 54.2477L279.237 54.4476C279.338 55.7887 280.366 56.875 281.699 57.0489L301.421 59.6203C302.612 59.7756 303.759 59.1153 304.224 58.0078C304.906 56.3801 303.847 54.5505 302.095 54.3322Z" fill="white"/>
<path d="M336.947 57.3195L316.644 54.7889C315.817 54.6858 315 55.0392 314.509 55.7117C314.188 56.1517 314.034 56.6917 314.074 57.235L314.089 57.4349C314.19 58.776 315.218 59.8623 316.552 60.0362L336.273 62.6076C337.464 62.7629 338.611 62.1027 339.076 60.9951C339.758 59.3674 338.699 57.5378 336.947 57.3195Z" fill="white"/>
<path d="M371.799 63.2941L351.496 60.7635C350.67 60.6605 349.852 61.0138 349.361 61.6864C349.04 62.1263 348.886 62.6663 348.926 63.2096L348.941 63.4095C349.042 64.7506 350.07 65.8369 351.404 66.0108L371.125 68.5822C372.316 68.7375 373.464 68.0773 373.928 66.9698C374.61 65.342 373.551 63.5124 371.799 63.2941Z" fill="white"/>
<path d="M408.643 68.2731L388.34 65.7425C387.513 65.6395 386.696 65.9928 386.205 66.6654C385.883 67.1053 385.729 67.6453 385.77 68.1886L385.785 68.3885C385.885 69.7296 386.914 70.8159 388.247 70.9898L407.969 73.5612C409.16 73.7165 410.307 73.0563 410.772 71.9488C411.454 70.321 410.394 68.4914 408.643 68.2731Z" fill="white"/>
<path d="M442.561 75.4849L422.704 70.5507C421.896 70.3499 421.042 70.6032 420.475 71.2124C420.103 71.6109 419.886 72.1286 419.861 72.6729L419.852 72.8732C419.792 74.2167 420.683 75.4179 421.987 75.7496L441.261 80.6548C442.424 80.951 443.643 80.4324 444.236 79.3882C445.108 77.8534 444.274 75.9105 442.561 75.4849Z" fill="white"/>
<path d="M474.41 82.4795L454.554 77.5453C453.745 77.3445 452.892 77.5978 452.324 78.207C451.952 78.6055 451.735 79.1233 451.711 79.6675L451.702 79.8678C451.641 81.2113 452.533 82.4125 453.836 82.7442L473.11 87.6495C474.274 87.9456 475.492 87.427 476.085 86.3828C476.957 84.8481 476.123 82.9051 474.41 82.4795Z" fill="white"/>
<path d="M507.271 89.4497L487.414 84.5155C486.606 84.3147 485.752 84.568 485.184 85.1772C484.813 85.5757 484.596 86.0935 484.571 86.6377L484.562 86.838C484.502 88.1815 485.393 89.3827 486.697 89.7144L505.971 94.6197C507.134 94.9159 508.353 94.3972 508.946 93.353C509.817 91.8183 508.984 89.8754 507.271 89.4497Z" fill="white"/>
<path d="M540.131 96.4204L520.275 91.4862C519.467 91.2854 518.613 91.5387 518.045 92.1479C517.674 92.5464 517.456 93.0642 517.432 93.6084L517.423 93.8087C517.363 95.1522 518.254 96.3534 519.557 96.6851L538.831 101.59C539.995 101.887 541.213 101.368 541.806 100.324C542.678 98.789 541.844 96.8461 540.131 96.4204Z" fill="white"/>
<path d="M572.992 104.387L553.135 99.4526C552.327 99.2517 551.474 99.505 550.906 100.114C550.534 100.513 550.317 101.03 550.292 101.575L550.283 101.775C550.223 103.119 551.115 104.32 552.418 104.651L571.692 109.557C572.856 109.853 574.074 109.334 574.667 108.29C575.539 106.755 574.705 104.812 572.992 104.387Z" fill="white"/>
<path d="M605.853 112.353L585.996 107.418C585.188 107.218 584.334 107.471 583.766 108.08C583.395 108.479 583.177 108.996 583.153 109.541L583.144 109.741C583.084 111.084 583.975 112.286 585.278 112.617L604.552 117.523C605.716 117.819 606.934 117.3 607.528 116.256C608.399 114.721 607.566 112.778 605.853 112.353Z" fill="white"/>
<path d="M639.709 120.319L619.852 115.385C619.044 115.184 618.191 115.437 617.623 116.046C617.251 116.445 617.034 116.963 617.009 117.507L617 117.707C616.94 119.051 617.832 120.252 619.135 120.584L638.409 125.489C639.573 125.785 640.791 125.266 641.384 124.222C642.256 122.687 641.422 120.745 639.709 120.319Z" fill="white"/>
<path d="M672.559 126.717L652.461 122.887C651.643 122.731 650.804 123.031 650.271 123.67C649.922 124.089 649.734 124.618 649.739 125.163L649.741 125.363C649.755 126.708 650.712 127.858 652.031 128.117L671.547 131.951C672.725 132.182 673.913 131.597 674.447 130.522C675.233 128.941 674.293 127.047 672.559 126.717Z" fill="white"/>
<path d="M709.285 128.9L688.858 127.727C688.027 127.68 687.235 128.087 686.79 128.79C686.498 129.251 686.38 129.8 686.457 130.339L686.485 130.538C686.675 131.869 687.773 132.885 689.116 132.969L708.964 134.222C710.163 134.297 711.264 133.562 711.654 132.426C712.226 130.757 711.047 129.002 709.285 128.9Z" fill="white"/>
<path d="M745.746 126.496L725.325 127.765C724.494 127.817 723.756 128.315 723.398 129.067C723.164 129.559 723.112 130.118 723.253 130.644L723.304 130.838C723.651 132.137 724.863 133.015 726.205 132.939L746.062 131.818C747.261 131.75 748.267 130.889 748.518 129.714C748.888 127.989 747.508 126.387 745.746 126.496Z" fill="white"/>
<path d="M782.3 123.264L761.879 124.533C761.048 124.584 760.31 125.083 759.952 125.834C759.718 126.326 759.666 126.885 759.807 127.412L759.858 127.605C760.205 128.905 761.417 129.782 762.759 129.706L782.616 128.585C783.815 128.517 784.821 127.656 785.072 126.482C785.442 124.756 784.062 123.154 782.3 123.264Z" fill="white"/>
<path d="M818.702 117.097L798.588 120.848C797.769 121.001 797.098 121.586 796.834 122.376C796.661 122.893 796.678 123.454 796.882 123.959L796.957 124.145C797.46 125.392 798.769 126.115 800.093 125.876L819.664 122.341C820.846 122.127 821.739 121.15 821.845 119.953C822.002 118.195 820.437 116.774 818.702 117.097Z" fill="white"/>
<path d="M854.054 109.727L833.941 113.478C833.122 113.631 832.451 114.216 832.187 115.006C832.014 115.522 832.031 116.084 832.235 116.589L832.31 116.775C832.813 118.022 834.122 118.745 835.445 118.506L855.017 114.97C856.199 114.757 857.092 113.78 857.198 112.583C857.354 110.825 855.79 109.404 854.054 109.727Z" fill="white"/>
</svg>
