<svg width="235" height="90" viewBox="0 0 235 90" fill="none" xmlns="http://www.w3.org/2000/svg">
<g clip-path="url(#clip0_141_742)">
<path d="M88.6645 51.7655C89.141 52.4118 89.1564 52.935 89.2178 53.689C89.2178 53.8736 89.2178 54.0583 89.2178 54.2429C89.2178 63.6142 89.4177 74.1858 88.9565 83.4802C88.9258 84.2034 88.603 87.6965 88.3263 87.9273C87.696 88.4659 82.0853 88.5736 82.0853 87.5888V73.6011C82.0853 73.2933 81.409 73.201 81.1323 73.1702C80.3483 73.0779 73.8768 73.3548 73.554 73.5857C72.6624 74.2012 74.1535 86.6809 73.431 88.5582C72.8623 89.6969 67.0825 89.7123 66.5752 88.8352L65.8681 54.3814C65.9757 53.4889 67.3745 53.4889 68.0816 53.4274C68.2661 53.412 68.4506 53.4274 68.635 53.4274C68.8195 53.4274 69.0039 53.4274 69.1884 53.4274C70.5719 53.4582 71.9707 52.9965 72.4165 54.72C72.5241 58.767 72.5395 62.8448 73.0314 66.8765H80.8402C81.8548 66.8765 81.9931 65.9071 82.07 65.0915C82.3005 62.8448 81.8394 60.6444 81.7933 58.5208C81.7625 57.4129 81.6242 52.9965 81.947 52.3348C83.0691 50.0266 88.3878 52.0117 88.6645 51.7809V51.7655Z" fill="#E2725B"/>
<path d="M95.2436 52.5807C96.5348 52.3037 98.0412 52.8885 99.2095 52.8577C102.883 52.7808 107.064 52.0883 110.754 52.5653C111.199 52.6269 111.615 52.673 111.845 53.1193C112.168 53.7656 112.168 57.8742 111.553 58.3204C110.492 59.0591 103.606 58.382 101.7 58.6128C101.192 58.6744 100.424 58.7975 100.239 59.3514C100.024 59.9977 100.116 66.0606 100.439 66.4607C101.254 67.4917 106.373 66.2453 107.479 67.0916C108.463 67.8456 108.74 72.8775 106.634 72.8775H100.87C100.562 72.8775 100.47 73.5546 100.439 73.8316C100.147 76.2936 101.085 79.3251 100.762 81.8949C101.454 83.0028 110.754 80.9716 112.352 81.6333C112.614 83.1105 113.213 85.9727 112.275 87.2653C112.137 87.4499 110.585 87.65 110.185 87.6962C106.234 88.1732 99.7936 88.6656 95.9199 88.2501C95.3358 88.1886 94.6594 88.127 94.5365 87.45L93.8601 72.2158C94.352 66.63 93.2606 60.1054 93.8601 54.6427C93.9062 54.1811 94.1214 53.4732 94.4135 53.1347C94.4442 53.1039 95.1821 52.5961 95.2436 52.5807Z" fill="#E2725B"/>
<path d="M141.866 69.3231C141.866 69.1385 141.866 68.9538 141.866 68.7691V68.4331V68.2152C141.866 67.6612 141.866 67.1226 141.866 66.5687C141.851 65.3838 141.866 64.1835 141.866 62.9986C141.866 62.7216 141.866 62.4447 141.866 62.1831C141.866 61.8138 141.866 61.4444 141.866 61.0905C141.866 59.6287 141.866 58.1668 141.866 56.7049C141.866 56.0586 141.866 55.4277 141.866 54.7814C141.866 54.5968 141.866 54.4121 141.866 54.2275C142 53.855 141.988 53.8436 142.42 53.4119C142.696 53.1349 142.604 53.1657 142.696 53.1349C144.5 52.5328 156.777 52.5809 159.021 52.8425C159.298 52.8733 159.974 52.9656 159.974 53.2734V57.659C159.974 57.9668 158.852 58.5361 158.452 58.5977C155.855 59.0131 152.365 58.2899 149.69 58.5977C149.322 58.6438 148.184 58.9516 148.184 59.2901V66.4302C148.184 66.4302 148.568 66.8456 148.599 66.8456H155.455C155.901 66.8456 156.223 70.708 156.116 71.3543C155.993 72.0776 155.363 72.8777 154.625 72.8777H148.86C148.046 72.8777 148.722 75.2475 148.737 75.7399C148.768 76.9402 148.461 81.1719 148.968 81.8182C149.383 82.3568 150.428 82.2336 151.059 82.2183C152.442 82.1721 154.302 82.0336 155.685 81.9105C157.884 81.7105 160.312 79.9101 160.743 83.4801C161.204 87.2501 160.528 87.7118 157.069 87.9734C154.025 88.2042 148.661 88.7736 145.832 88.5274C141.497 88.1427 142.619 86.2961 142.389 82.9107C142.097 78.4636 141.943 73.7241 141.851 69.3231H141.866Z" fill="#E2725B"/>
<path d="M126.51 52.5809C137.393 53.6889 142.005 66.8456 132.781 73.0008C132.167 73.4163 130.414 73.7856 130.322 74.6781C131.675 77.7865 133.719 80.6948 135.548 83.5878C136.163 84.5726 137.808 86.2191 136.778 87.4194C136.425 87.8349 136 87.855 135.287 88.5273C134.5 88.855 132.705 89.9276 131.152 88.6812C128.785 85.0188 126.879 80.8333 124.542 77.1863C124.388 76.9401 123.589 75.4937 123.22 75.8938C122.774 80.187 123.973 84.6188 123.251 88.8966C123.205 88.9428 122.236 89.3121 122.129 89.3429C121.683 89.4198 120.054 89.6199 119.654 89.6199C119.147 89.6199 118.931 89.4352 118.563 89.3429C118.24 89.2659 116.918 89.2967 116.918 88.6504V83.1569C116.918 82.1875 116.672 81.0487 116.641 80.0024V79.7144V79.4484C116.549 76.4169 116.395 73.2778 116.349 70.2617C116.272 64.8759 116.395 59.4901 116.411 54.1043C116.995 52.3809 124.896 52.3809 126.51 52.5501V52.5809ZM123.405 58.413C121.652 58.7977 122.636 60.2903 122.667 61.4906C122.744 63.6603 122.298 67.2611 122.667 69.1846C122.974 70.8003 126.248 69.7539 127.401 69.2615C132.32 67.1995 132.612 60.675 127.171 58.9054C126.095 58.5515 124.511 58.1514 123.405 58.3976V58.413Z" fill="#E2725B"/>
<path d="M54.37 3.18539C56.5067 2.63142 59.3043 1.95435 60.7954 4.03173C61.8099 8.46348 62.0866 13.0645 62.9474 17.527C63.0858 18.281 64.0542 23.0052 64.254 23.2206C64.6537 23.6668 64.7459 23.1744 64.7921 22.8051C65.3301 19.1274 66.4061 15.6035 66.7289 11.895C66.9595 10.8794 71.9092 9.66374 72.7239 11.5719C73.8307 14.157 74.215 18.4657 75.0297 21.3586C75.1526 21.7895 75.3064 22.8205 75.7675 22.9436C75.7829 21.6048 76.1672 20.2815 76.3209 18.9581C76.9358 13.7108 77.2586 8.35576 77.9503 3.03151C78.0118 2.53909 78.4079 1.11658 78.5001 0.85498C78.6764 0.35498 78.4422 0.430937 79.7642 0.169341C81.7471 -0.21536 85.4671 -0.199971 85.3902 2.47754C85.2673 7.20166 83.4534 14.0955 82.6848 19.0043C81.7471 24.9748 81.1476 31.0069 79.7334 36.9159C79.2415 38.4239 74.5378 38.4701 73.7231 37.7623C72.6778 36.8544 70.8639 27.8216 70.2951 25.9596C69.834 25.8673 69.7264 26.0674 69.5419 26.4367C68.6504 28.2832 68.5889 31.684 68.1124 33.6383C68.0048 34.0999 67.6385 34.878 67.5001 35.355C67.331 35.9089 67.4053 36.3773 67.1593 36.9313C66.36 38.7779 62.3633 38.7779 61.0413 37.5776C58.9815 29.6835 57.4136 21.6664 55.8764 13.6492C55.3999 11.141 54.4622 7.97106 54.124 5.52437C54.0164 4.72419 54.124 3.9394 54.4161 3.17L54.37 3.18539Z" fill="#E2725B"/>
<path d="M42.0418 2.64699C52.2026 4.86287 52.387 22.5591 49.1743 30.0838C47.9599 32.9306 44.1477 37.5316 40.9504 38.0394C40.0588 38.1779 36.9076 38.1779 36.0161 38.0394C34.9247 37.8702 33.3414 36.793 32.4498 36.1159C24.8715 30.3916 25.8246 10.9411 32.7265 4.83209C34.9093 2.8932 39.2441 2.03147 42.0572 2.63161L42.0418 2.64699ZM35.4473 12.2491C34.5001 14.855 34.0639 15.5114 33.8025 18.2812C33.6181 20.2663 33.2953 22.5129 33.5258 24.5903C33.5566 24.7903 33.6745 25.303 33.8025 25.6987C34.5001 27.855 35.0323 31.0379 37.6301 31.6072C42.0879 32.5921 44.1477 25.252 44.4706 21.9436C44.7934 18.6351 44.3629 10.8334 40.935 9.35617C38.0451 8.10974 36.7847 10.2025 35.4473 12.2337V12.2491Z" fill="#E2725B"/>
<path d="M137.894 2.55862C148.054 4.77449 148.239 22.4707 145.026 29.9954C143.812 32.8422 140 37.4432 136.802 37.951C135.911 38.0895 132.759 38.0895 131.868 37.951C130.776 37.7818 129.193 36.7046 128.302 36.0275C120.723 30.3032 121.676 10.8528 128.578 4.74371C130.761 2.80482 135.096 1.9431 137.909 2.54323L137.894 2.55862ZM131.299 12.1607C130 14.855 129.916 15.423 129.654 18.1928C129.47 20.1779 129.147 22.4245 129.378 24.5019C129.408 24.702 129.526 25.2147 129.654 25.6104C130.352 27.7666 130.884 30.9495 133.482 31.5189C137.94 32.5037 140 25.1636 140.322 21.8552C140.645 18.5468 140.215 10.745 136.787 9.26779C133.897 8.02136 132.636 10.1141 131.299 12.1453V12.1607Z" fill="#E2725B"/>
<path d="M7.48606 33.3766C7.48606 34.4076 7.74738 38.4239 7.02491 38.8855C6.30243 39.3471 0.753217 39.4549 0.399666 38.4085L0 4.07782C0.491897 3.04682 3.53551 3.06221 4.61154 3.16992C5.85665 3.29303 6.24094 3.67773 6.37929 4.97032C6.74821 8.18641 6.2102 12.4335 6.64061 15.6958C6.76358 16.6037 6.97879 16.8191 7.87035 16.9268C10.376 17.25 13.1429 16.3421 15.6946 16.6344V2.09276C15.6946 1.98505 17.6007 1.44647 17.8774 1.4003C19.0303 1.20026 22.2891 1.1387 22.5504 2.52363C22.3813 4.55484 22.8117 6.55528 22.8425 8.57111C22.8886 11.9257 22.5658 15.3572 22.5504 18.6964C22.5043 25.0825 23.0269 31.7608 21.9663 38.0084C20.8595 38.193 16.8167 38.7932 16.2326 37.8699C15.5716 36.131 16.0635 23.4975 15.4486 23.082C14.5571 22.4665 8.68506 23.8668 7.20937 23.5129C7.22474 26.0673 7.48475 28.8006 7.50012 31.355C7.50012 32.0474 7.48606 32.855 7.48606 33.392V33.3766Z" fill="#E2725B"/>
<path d="M114.72 3.1852C115.949 3.13903 116.656 3.1852 117.871 3.20058C119.777 3.23136 121.329 2.04648 121.591 4.95482C122.144 11.0177 119.423 8.74027 114.904 9.47889L114.52 10.2329C114.612 17.2498 114.935 24.2822 114.981 31.3145C114.981 32.6686 115.78 36.1002 114.428 37.0542C113.69 37.5774 110.293 37.6543 109.37 37.4851C108.34 37.3004 108.187 34.9922 108.125 34.0689C107.848 30.2681 108.417 25.9595 108.417 22.1278C108.417 18.0039 108.002 13.9106 108.14 9.78665H101.976C101.976 9.78665 100.916 9.01725 100.885 8.9557C100.516 8.35557 100.685 4.97021 101.177 4.30852C101.592 3.75455 103.898 3.53912 104.728 3.47757C108.033 3.24675 111.445 3.32369 114.735 3.20058L114.72 3.1852Z" fill="#E2725B"/>
<path d="M171 4.35514C175 1.85506 182.355 1.50824 185.584 7.3249C186.506 8.98681 188.074 13.7417 185.307 14.1572C184.769 14.2341 182.478 14.4649 182.048 14.4342C180.342 14.3264 180.741 13.08 180.511 12.1721C180.465 11.9567 180.357 11.0334 180.28 10.8334C179.788 9.71005 180.096 9.7716 178.267 9.17147C176.437 8.57133 175.146 9.49461 173.993 10.7872C170.919 14.2495 170.842 25.0057 173.009 28.9605C175.976 34.3463 181.264 31.6841 181.08 26.2368C179.45 25.7597 176.115 26.76 175.853 24.7441C175.638 23.1438 175.407 20.5432 177.39 20.2201C178.666 20.0046 186.275 20.0816 187.105 20.6201C187.935 21.1587 187.766 25.5289 187.674 26.6522C187.351 30.9147 185.061 36.7314 180.48 37.8393C177.99 38.4395 173 38.355 171.334 36.9314C169.812 36.162 166.553 31.4533 166 29.7914C165.892 29.4683 165.585 28.9297 165.462 28.545C165.324 28.0833 165.324 28.2372 165.17 27.6063C164.355 21.3434 164.171 15.419 167.122 9.66388C167.998 7.94043 168.874 6.74016 169.95 5.26291C170.765 4.5089 171 4.35514 171 4.35514Z" fill="#E2725B"/>
<path d="M232.099 2.92363C232.76 2.87746 233.651 2.89285 233.959 3.93924C234.174 4.66247 234.128 7.95551 233.759 8.55564C233.005 9.83284 228.44 8.90956 226.888 9.49431L227.364 35.6385L226.826 36.7619C225.642 36.9619 221.646 38.393 220.969 36.4079L220.57 9.77129C219.386 9.77129 218.187 9.77129 217.003 9.77129C216.819 9.77129 216.635 9.77129 216.45 9.77129H214.252C214.19 9.66358 213.791 9.5097 213.637 9.17116C213.176 8.12477 213.406 5.41648 213.898 4.35471C214.206 3.70841 215.512 3.78536 216.173 3.73919C217.157 3.67764 218.833 3.46221 219.601 3.46221H225.089C225.197 3.46221 225.981 3.38527 226.334 3.36988C228.348 3.30833 230.162 3.29294 232.083 2.92363H232.099Z" fill="#E2725B"/>
<path d="M198.081 38.5935C196.636 38.5627 193.331 38.8858 192.931 37.0239C192.762 36.2699 192.639 34.3925 192.593 33.5308C192.147 25.4675 192.255 17.1887 192.04 9.11004C191.871 2.75479 191.963 2.2316 198.357 2.64708C200.648 2.80096 201.632 2.78557 202.124 2.80096C203.968 2.84712 209.148 2.04695 210.086 2.98561C210.686 3.58575 210.962 8.35603 209.179 8.67918C208.61 8.78689 206.75 9.07927 206.166 8.95616C205.413 8.78689 205.259 8.67918 204.937 8.67918C203.814 8.67918 199.541 8.44836 198.972 9.01771C198.527 9.46397 198.45 16.2193 198.757 16.6502C199.341 17.4965 205.229 16.1885 206.32 17.4503C206.243 17.6812 206.551 18.6814 206.597 19.0969C206.52 20.1894 206.966 22.1283 205.505 22.9439C205.321 22.9285 205.136 22.9439 204.952 22.9439C204.076 22.9131 199.526 22.8208 199.172 23.067C198.419 23.5902 199.372 30.4224 199.326 31.7304C199.695 32.4998 202.4 32.3921 203.2 32.2844C203.569 32.2382 203.753 32.1921 204.045 32.1151C204.337 32.0382 205.598 31.8381 206.335 31.7304C207.627 31.7612 208.903 31.4073 210.178 31.7304C210.209 31.7458 210.593 31.9305 210.732 32.0074L211.008 32.5614C210.947 33.4693 211.07 34.4079 211.008 35.3004C210.87 37.3778 210.317 37.3932 208.272 37.7625C208.103 37.7933 207.685 37.8242 207.5 37.855C207.208 37.9011 207.411 37.8241 206.889 37.9626C206.151 38.0549 204.953 38.3242 204 38.355C202.955 38.3858 201.691 38.355 200.5 38.355C200.316 38.3704 200.094 38.3473 199.941 38.378" fill="#E2725B"/>
</g>
<defs>
<clipPath id="clip0_141_742">
<rect width="234.082" height="89.6198" fill="white"/>
</clipPath>
</defs>
</svg>
