<svg width="184" height="128" viewBox="0 0 184 128" fill="none" xmlns="http://www.w3.org/2000/svg">
<g clip-path="url(#clip0_141_243)">
<path d="M51.5154 57.3952C51.5154 57.3952 42.6482 17.7785 41.9566 15.5486C41.265 13.3187 39.7359 5.62126 28.7399 5.39411C17.7439 5.16696 6.9732 14.4449 2.56022 24.6282C-1.85276 34.8115 0.168139 42.2786 3.15983 45.4459C6.15152 48.6132 9.51757 50.2736 15.8753 48.9907C22.233 47.7078 24.9995 43.2576 24.403 42.429C23.8066 41.6004 21.3352 42.9569 19.6157 43.3344C17.8962 43.7119 14.6031 44.2398 12.9598 41.0725C11.3164 37.9052 10.4408 28.896 15.2789 21.3841C18.8131 15.8973 22.1791 13.4083 25.0788 12.4837C27.9785 11.5591 29.2665 12.7844 30.0914 16.0285C30.9162 19.2726 35.1769 37.4509 36.2239 41.5236C37.2708 45.5963 42.7371 65.7805 43.2542 67.2458C43.7713 68.7111 44.3773 70.6402 45.2751 70.941C46.1729 71.2417 50.2306 69.7892 52.2515 69.1878C54.2724 68.5863 57.245 67.6969 58.2919 66.7179C59.3389 65.7389 63.901 43.184 64.8749 39.1113C65.8489 35.0386 71.607 9.16606 71.8323 7.656C72.0575 6.14594 72.2796 3.2058 69.3641 1.47179C66.4485 -0.262222 63.1554 0.339243 60.9854 1.54857C58.8154 2.7547 57.7399 3.79447 58.0667 4.79264C58.514 6.14914 60.3097 6.07555 60.5349 7.80956C60.7602 9.54357 55.5985 36.0976 55.075 40.2439C54.5515 44.3933 51.9342 57.5168 51.9342 57.5168L51.5218 57.3952H51.5154Z" fill="#F5F5F0"/>
<path d="M83.6214 15.5836C83.6214 18.223 81.1341 20.7057 78.2217 20.7057C75.3094 20.7057 72.3716 18.6294 72.3716 15.9867C72.3716 13.3441 75.3094 10.7783 78.2217 10.7783C81.1341 10.7783 83.6214 12.941 83.6214 15.5804V15.5836Z" fill="#F5F5F0"/>
<path d="M74.7415 25.684C74.1672 26.5094 74.4052 28.4002 74.4052 29.0784C74.4052 29.7567 75.7154 50.4592 75.7503 51.0287C75.7852 51.5982 75.8614 52.7819 76.5371 53.2906C77.2129 53.7993 78.2757 53.5721 79.0053 53.4026C79.735 53.233 82.9869 52.4972 83.4374 52.4396C83.8879 52.382 84.6842 52.0173 84.6715 50.6864C84.6588 49.3555 83.4754 27.2356 83.3803 25.7384C83.3041 24.5514 82.8758 23.7004 81.6988 23.8156C80.5218 23.9308 75.5283 24.5514 74.7415 25.684Z" fill="#F5F5F0"/>
<path d="M98.9224 18.7253C98.9224 18.7253 98.8241 16.2042 98.1356 15.9547C96.9015 15.5036 90.2265 16.3514 89.665 18.047C89.1035 19.7426 90.3947 42.995 90.6199 46.6742C90.6961 47.9283 90.4518 50.011 92.5837 49.7295C94.7157 49.448 97.8565 48.597 98.6972 48.2578C99.5379 47.9187 99.9884 47.8067 99.8742 44.5243C99.76 41.2418 99.4269 33.5475 99.7631 30.2107C100.099 26.8738 101.676 23.8921 103.129 22.6284C104.757 21.2143 107.111 20.76 107.393 23.1371C107.675 25.5141 108.348 44.0124 108.402 44.9178C108.456 45.8232 107.955 46.8981 110.309 46.6134C112.666 46.3319 115.696 45.6504 116.479 45.3689C117.263 45.0873 117.602 44.2363 117.434 40.5028C117.266 36.7692 117.155 22.9099 116.987 21.4383C116.819 19.9666 116.229 14.6878 111.546 13.4881C109.021 12.8418 106.889 12.6082 104.703 13.6896C101.841 15.1037 98.9256 18.7253 98.9256 18.7253H98.9224Z" fill="#F5F5F0"/>
<path d="M147.075 38.9606C146.418 36.7371 147.748 23.9496 147.598 20.4816C147.449 17.0104 145.73 12.1827 139.743 9.8472C133.76 7.50852 126.879 11.5812 124.483 13.2416C122.091 14.9021 122.241 15.8075 122.241 17.919C122.241 20.0305 122.688 25.3125 125.083 22.9738C127.475 20.6352 131.441 17.695 133.76 17.1671C136.079 16.6393 138.398 18.5236 138.471 21.467C138.547 24.4103 138.763 24.3431 135.181 24.8614C131.013 25.4661 126.784 27.7472 123.719 31.9702C120.651 36.1933 121.121 43.3405 125.159 45.8295C129.198 48.3185 132.789 46.8853 135.334 45.6023C137.878 44.3194 138.998 43.1645 138.998 43.1645C142.288 47.01 145.854 48.069 148.347 45.5288C152.05 41.7568 147.9 41.7568 147.075 38.967V38.9606ZM135.105 38.9606C133.871 39.7541 130.356 41.4497 129.943 37.5274C129.531 33.605 132.748 31.1544 135.105 30.2874C137.462 29.4204 138.097 29.8363 138.097 29.8363C138.471 36.4748 136.339 38.1704 135.105 38.9638V38.9606Z" fill="#F5F5F0"/>
<path d="M160.434 5.28841C160.155 2.51783 157.722 0 154.683 0C151.643 0 149.143 2.27469 149.185 5.07726C149.213 6.92964 149.857 8.20295 151.177 8.82361C152.497 9.44428 153.588 9.19153 153.785 10.2377C153.982 11.2839 153.112 12.2181 151.57 13.5202C150.029 14.8223 149.017 15.1902 149.017 15.1902C149.017 15.1902 148.728 16.1692 150.644 16.1788C152.557 16.1884 156.031 15.3853 158.414 12.1637C160.796 8.94199 160.599 6.93604 160.434 5.29161V5.28841Z" fill="#F5F5F0"/>
<path d="M174.657 10.8617C171.459 10.0139 166.243 9.95629 161.98 14.3681C157.716 18.7799 159.286 24.6634 160.914 27.6067C162.541 30.5501 165.793 32.1881 167.535 33.3206C169.276 34.4532 173.09 36.827 172.639 39.7128C172.192 42.5985 170.339 43.1072 167.928 42.7681C165.517 42.429 162.992 40.3367 161.868 37.902C160.745 35.4706 159.511 36.2064 157.83 38.1292C156.148 40.0519 156.485 42.2594 157.773 44.7485C159.064 47.2375 163.045 50.0113 167.646 50.4624C172.246 50.9135 177.912 49.3298 180.323 44.4669C182.734 39.6008 181.221 34.7923 178.416 31.7946C175.612 28.7969 170.729 26.6469 169.216 24.5546C167.703 22.4623 168.15 20.1972 169.441 19.1222C170.733 18.0473 172.36 17.8201 173.873 18.8407C175.564 19.9764 176.494 22.6958 176.96 23.5372C178.305 25.9687 180.666 23.3933 181.84 22.4623C183.41 21.2178 184.587 20.6515 183.692 18.8983C182.553 16.6716 180.786 12.4901 174.66 10.8649L174.657 10.8617Z" fill="#F5F5F0"/>
<path d="M50.5447 128C49.4787 128 49.1329 127.408 48.8537 126.935L48.7807 126.81C48.4 126.18 43.6476 118.005 41.2174 113.555C39.8755 111.095 38.7873 109.287 38.0925 108.171C38.1242 109.783 38.1718 112.186 38.1718 113.261C38.1718 113.706 38.1972 114.544 38.2289 115.516C38.3495 119.244 38.4256 122.401 38.1528 123.313C37.7277 124.73 36.5665 124.785 35.637 124.826C35.5323 124.83 35.4244 124.836 35.3197 124.842C34.7074 124.881 34.0285 124.887 33.3083 124.894C32.8166 124.897 32.2963 124.903 31.7506 124.919H31.665C30.1517 124.919 30.047 123.755 29.9804 122.984C29.9708 122.868 29.9613 122.753 29.9455 122.635C29.8757 122.046 29.7266 110.711 29.4791 86.966L29.4569 84.7937C29.422 81.5881 30.6656 81.2809 32.9213 80.7242C33.375 80.6123 33.8889 80.4843 34.4568 80.3179C35.288 80.0748 35.9415 79.9596 36.4523 79.9596C37.0075 79.9596 37.4072 80.0972 37.6769 80.3819C38.0608 80.785 38.0417 81.3417 38.0259 81.748C38.0259 81.8216 38.0195 81.892 38.0195 81.9624C38.0195 82.6086 38.1115 91.733 38.1528 95.5817C40.4497 91.3139 42.3183 86.3614 43.7174 80.833C43.9173 80.0396 44.0315 79.3965 44.133 78.8303C44.298 77.9057 44.4153 77.2402 44.7992 76.7155C44.9832 76.466 45.4686 75.7973 51.1157 74.4313C51.4012 74.3609 51.6614 74.3257 51.8898 74.3257C52.3752 74.3257 52.74 74.4824 52.9748 74.7896C53.3714 75.3079 53.2476 76.0565 53.0763 76.7187C52.8257 77.6881 48.7236 89.036 47.388 92.2417C46.6964 93.9021 45.6463 95.9784 44.7167 97.8116C43.9997 99.2321 43.1876 100.835 43.0765 101.254C43.6222 102.697 52.9018 117.014 55.9253 121.298C57.3592 123.332 57.8859 124.606 57.6257 125.425C57.429 126.045 56.8707 126.244 56.4995 126.372C56.417 126.4 56.3377 126.426 56.2679 126.458C55.7476 126.695 55.0592 126.887 54.0154 127.178C53.4761 127.328 52.8447 127.504 52.096 127.725C51.4679 127.91 50.9634 128 50.5478 128H50.5447Z" fill="#F5F5F0"/>
<path d="M57.6257 116.46C56.0236 116.46 55.8206 115.193 55.7317 114.653L55.7127 114.544C55.608 113.952 55.5921 100.109 55.5921 91.9123C55.5921 89.3464 57.0705 89.0681 57.7812 88.9337C57.8351 88.9241 57.8859 88.9145 57.9303 88.9049C58.4569 88.7898 59.6371 88.6106 61.2519 88.3706C61.4105 88.3483 61.5628 88.3354 61.7056 88.3354C62.8382 88.3354 63.4885 89.0617 63.4885 90.3286C63.4885 91.1668 63.3743 111.214 63.2633 113.395C63.1554 115.526 61.4264 115.824 59.7577 116.115C59.3706 116.182 58.9709 116.252 58.5743 116.342C58.2253 116.422 57.9081 116.464 57.6257 116.464V116.46Z" fill="#F5F5F0"/>
<path d="M69.1134 119.189C67.5621 119.189 67.4986 117.772 67.4701 117.167C67.4669 117.065 67.4605 116.972 67.4542 116.892C67.3717 116.137 66.9656 86.8155 66.9656 86.5563C66.9656 86.3868 66.9688 86.198 66.972 85.9997C66.9847 85.4174 67.0132 83.8689 66.7436 83.6706C66.7055 83.6482 66.6008 83.6098 66.3787 83.6098C65.9377 83.6098 65.3223 83.757 64.6719 83.9137C64.4086 83.9777 64.1421 84.0417 63.8788 84.0993C63.3617 84.2081 62.8477 84.3328 62.2766 84.4704C61.4835 84.6592 60.5825 84.8767 59.4277 85.1167C59.0756 85.1902 58.7551 85.2286 58.4696 85.2286C56.7469 85.2286 56.6137 83.8785 56.5693 83.437C56.4931 82.6788 56.4202 81.3703 56.306 79.3068C56.1791 77.0225 58.3395 76.8273 59.2628 76.7442C59.3548 76.7346 59.4341 76.7282 59.507 76.7186C61.382 76.4946 77.0733 74.2039 79.6906 73.8168C80.9184 73.6345 81.7401 73.5513 82.3555 73.5513C83.1487 73.5513 83.6658 73.6856 84.0402 73.9864C84.7191 74.5366 84.6049 75.7524 84.5033 76.8273C84.4907 76.9585 84.478 77.0865 84.4684 77.208C84.4589 77.3328 84.4494 77.4896 84.4367 77.6687C84.313 79.6075 84.1226 81.5463 83.2565 82.1157C82.4539 82.6436 79.7001 82.8004 76.9464 82.9156L76.3373 82.9412C75.2935 82.9891 75.2237 83.3571 75.1507 83.7506C75.1349 83.8306 75.1222 83.9009 75.1032 83.9681C75.0492 84.3296 75.0524 88.5175 75.0556 91.8863C75.0556 94.209 75.0587 96.4005 75.0461 97.773C75.0143 100.71 75.6044 110.103 75.8582 114.115C75.9217 115.12 75.9661 115.836 75.9819 116.111C76.074 117.887 75.1476 118.37 74.586 118.501C74.0753 118.62 70.8361 119.077 69.3196 119.189C69.2499 119.195 69.1801 119.199 69.1166 119.199L69.1134 119.189Z" fill="#F5F5F0"/>
<path d="M93.618 122.772C91.6161 122.772 89.5001 122.193 87.3269 121.051C81.4101 117.945 78.5802 105.835 80.8835 93.4861C83.0598 81.8215 89.1384 76.5107 93.8654 76.5107C94.4682 76.5107 95.0488 76.5971 95.5976 76.7699C100.493 78.3087 101.521 86.2621 101.219 88.1369C100.927 89.9509 97.7835 90.3604 96.7049 90.3604C96.4828 90.3604 96.3083 90.3444 96.1846 90.3156C95.2138 90.0853 94.9663 89.2151 94.7633 88.1913C94.7125 87.929 94.6871 87.6538 94.6617 87.3595C94.5602 86.1982 94.446 85.4815 93.4245 85.344C93.3769 85.3376 93.3261 85.3344 93.2785 85.3344C92.3585 85.3344 91.0007 86.6333 89.7729 92.8271C88.6213 98.6402 88.488 103.366 89.3605 107.697C90.5597 113.654 92.3363 114.345 93.5704 114.345C93.8242 114.345 94.1034 114.313 94.3984 114.249C95.5405 113.997 96.0577 111.744 96.4352 110.097C96.5304 109.678 96.6224 109.284 96.7144 108.948C96.9713 108.036 97.4789 107.592 98.2657 107.592C98.8622 107.592 99.5665 107.851 100.458 108.177C100.763 108.289 101.089 108.408 101.441 108.529C103.916 109.374 104.163 110.522 104.065 111.639C103.976 112.608 102.45 117.717 99.9694 120.216C98.3355 121.864 96.0799 122.772 93.618 122.772Z" fill="#F5F5F0"/>
<path d="M128.601 122.405C126.755 122.405 126.289 121.822 126.162 120.949C126.155 120.904 126.149 120.856 126.14 120.815C126.048 120.354 126.082 119.096 126.143 117.081C126.159 116.575 126.174 116.06 126.187 115.568C126.2 115.053 126.108 114.694 125.917 114.496C125.746 114.32 125.47 114.24 125.02 114.24C124.848 114.24 124.677 114.25 124.512 114.262C124.35 114.272 124.195 114.282 124.055 114.282H123.989C123.833 114.278 123.513 114.269 123.081 114.256C121.254 114.205 117.453 114.102 115.572 114.102C115.258 114.102 114.998 114.102 114.814 114.112C114.668 114.118 114.598 114.173 114.55 114.224C114.144 114.681 114.265 116.291 114.36 117.583C114.411 118.242 114.461 118.927 114.461 119.541C114.461 122.085 113.167 122.126 110.819 122.203C110.518 122.213 110.194 122.222 109.842 122.238C109.465 122.254 109.138 122.264 108.84 122.264C107.447 122.264 106.705 122.078 106.276 121.621C105.832 121.15 105.829 120.485 105.867 119.788C105.997 117.372 106.203 97.6005 105.988 94.3373C105.912 93.1791 106.153 92.2897 106.705 91.6947C107.298 91.0548 108.094 90.914 108.662 90.9108C108.846 90.898 110.353 90.7861 111.714 90.7861C111.952 90.7861 112.18 90.7861 112.399 90.7989C114.573 90.8757 114.573 92.8208 114.573 93.4575C114.573 93.8286 114.557 95.2043 114.534 96.8967C114.5 99.6417 114.458 103.055 114.458 104.546C114.458 106.037 115.026 106.098 116.06 106.127H116.152C116.838 106.149 117.929 106.213 119.195 106.29C121.171 106.408 123.414 106.543 124.785 106.543C125.064 106.543 125.299 106.536 125.48 106.527C126.539 106.459 126.584 105.931 126.571 105.007C126.571 104.857 126.568 104.713 126.571 104.581C126.615 103.66 126.593 101.833 126.571 99.8976C126.533 96.7655 126.492 93.5279 126.698 92.6225C126.996 91.3012 128.478 91.0868 130.724 90.7605C131.2 90.6901 131.72 90.6165 132.282 90.5237C132.551 90.4789 132.805 90.4565 133.033 90.4565C134.924 90.4565 134.962 91.973 134.981 92.7024C134.981 92.8016 134.985 92.8944 134.991 92.9776C135.061 94.0429 134.813 117.951 134.712 119.903C134.597 122.11 132.954 122.19 130.873 122.289C130.461 122.309 130.01 122.331 129.528 122.369C129.188 122.395 128.877 122.408 128.598 122.408L128.601 122.405Z" fill="#F5F5F0"/>
<path d="M142.173 123.275C141.238 123.275 140.571 123.054 140.134 122.596C139.547 121.982 139.572 121.144 139.591 120.587C139.594 120.459 139.601 120.344 139.591 120.251C139.562 119.81 139.95 110.906 140.505 98.3714C140.793 91.8609 141.041 86.2397 141.108 84.4481C141.161 82.9989 141.165 81.7767 141.168 80.7946C141.174 78.3855 141.177 77.285 141.859 76.7987C142.367 76.4371 143.192 76.2676 144.461 76.2676C145.73 76.2676 147.25 76.4275 148.874 76.6003C149.88 76.7059 150.917 76.8147 151.91 76.885C153.125 76.9714 153.95 77.2945 154.438 77.8672C155.121 78.6702 155.025 79.7932 154.927 80.9833C154.895 81.364 154.86 81.7575 154.851 82.1574C154.797 84.4545 153.407 84.7201 152.367 84.7201C152.005 84.7201 151.634 84.6881 151.237 84.6561L150.993 84.6369C150.616 84.6049 150.305 84.5921 150.045 84.5921C148.826 84.5921 148.81 84.7393 148.664 86.1342C148.652 86.2685 148.636 86.4093 148.62 86.5565C148.566 87.03 148.538 88.1113 148.493 89.7461C148.458 91.0674 148.414 92.7087 148.341 94.7274C148.271 96.6726 148.29 97.9459 148.604 98.2754C148.668 98.3426 148.785 98.413 149.166 98.4098C149.385 98.4098 149.654 98.3874 149.968 98.3618C150.098 98.3522 150.238 98.3394 150.384 98.3298C150.498 98.3202 150.606 98.317 150.711 98.317C151.421 98.317 151.954 98.509 152.332 98.8993C153.071 99.6639 153.039 100.979 153.001 102.642L152.995 102.863C152.944 105.115 152.418 105.701 150.441 105.701C150.184 105.701 149.895 105.695 149.575 105.688C149.575 105.688 149.35 105.685 149.299 105.685C148.43 105.685 148.128 105.871 148.03 105.979C147.916 106.104 147.919 106.28 147.941 106.536C147.951 106.654 147.96 106.766 147.941 106.878C147.919 107.061 147.919 108.382 147.919 109.658C147.919 111.105 147.919 112.903 147.89 114.291C147.881 114.828 147.976 115.209 148.182 115.42C148.382 115.625 148.728 115.721 149.274 115.721C149.692 115.721 150.175 115.667 150.685 115.606C151.212 115.545 151.758 115.481 152.31 115.468H152.43C153.211 115.468 153.775 115.657 154.153 116.044C154.768 116.674 154.753 117.657 154.733 118.789C154.727 119.119 154.721 119.461 154.733 119.813C154.762 120.904 154.521 121.723 154.013 122.244C153.528 122.747 152.954 122.824 152.655 122.824C152.487 122.824 151.593 122.871 150.457 122.932C147.862 123.07 143.937 123.278 142.167 123.278L142.173 123.275Z" fill="#F5F5F0"/>
<path d="M158.553 124.919C158.036 124.919 157.636 124.772 157.367 124.484C156.938 124.023 156.983 123.364 157.011 122.926C157.018 122.84 157.024 122.76 157.024 122.689C157.024 121.781 158.153 80.2541 158.22 78.6928C158.264 77.6466 159.077 77.0228 160.393 77.0228C161.291 77.0228 162.271 77.3139 162.833 77.7522C163.728 78.4465 165.025 81.7001 166.17 84.6947C166.262 84.9378 166.348 85.1554 166.418 85.3377C166.932 86.659 171.297 96.1225 173.251 100.339C173.042 94.4173 172.481 78.5041 172.357 74.9592C172.233 71.3537 172.779 70.6818 173.972 70.6018C174.054 70.5954 174.133 70.5922 174.213 70.5762C174.609 70.4963 175.044 70.4355 175.707 70.3459C176.345 70.2595 177.214 70.1411 178.496 69.9428C178.838 69.8884 179.159 69.8628 179.444 69.8628C181.855 69.8628 181.855 71.8144 181.855 72.9821C181.855 74.281 181.611 84.845 181.433 92.5585L181.332 96.9799C181.094 107.474 180.78 120.226 180.656 121.384C180.529 122.552 179.679 123.22 178.324 123.22C177.214 123.22 176.031 122.769 175.571 122.35C175.06 121.886 173.978 119.647 172.252 116.035C171.427 114.307 170.577 112.522 169.86 111.134C168.524 108.545 166.392 104.601 165.203 102.412C165.273 106.926 165.428 118.268 165.244 120.171C164.981 122.91 162.36 124.004 159.832 124.714C159.33 124.855 158.909 124.922 158.55 124.922L158.553 124.919Z" fill="#F5F5F0"/>
<path d="M135.216 53.8601C131.672 50.4848 126.092 48.1078 122.215 50.8624C120.156 52.3244 119.204 53.7097 118.199 55.1782C118.018 55.4437 117.831 55.7157 117.634 55.994C117.393 56.3331 117.142 56.733 116.892 57.1617C116.685 55.8948 116.21 54.6983 115.251 53.9241C114.011 52.9195 112.526 52.542 111.08 52.8619C109.471 53.217 108.101 54.3912 107.219 56.1732C105.988 58.6526 105.658 63.8802 105.442 68.5864C105.401 69.4758 105.366 70.2436 105.328 70.5539C105.283 70.9122 104.741 71.856 104.186 72.6495C104.018 72.6335 103.849 72.6367 103.681 72.6623C103.161 71.92 102.184 70.8771 100.705 70.7619C99.3444 70.6563 98.4783 71.165 97.9866 71.6097C97.4409 72.1056 97.0887 72.7934 97.0729 73.4077C97.0602 73.8908 97.241 74.6042 97.7899 75.1705C98.1769 75.5704 98.8971 76.0439 100.141 76.0439H100.172C100.877 76.0407 101.511 75.8743 102.051 75.6536C102.111 76.1079 102.308 76.6038 102.764 77.1093C104.129 78.6161 105.902 79.6591 107.615 80.6669C108.037 80.9164 108.453 81.1595 108.859 81.4091C111.416 82.9831 114.81 85.0211 118.395 86.8191L118.446 86.8447C119.322 87.2926 120.81 88.0508 122.158 88.0508C122.478 88.0508 122.789 88.0092 123.081 87.91C123.674 87.7085 124.138 87.2958 124.42 86.7135L124.433 86.6847C124.607 86.3296 124.966 85.5873 124.639 84.7523C124.553 84.538 124.43 84.3396 124.271 84.1573C126.479 81.4539 134.014 72.1536 136.307 68.4776C138.865 64.3825 139.179 57.6288 135.222 53.8633L135.216 53.8601ZM100.16 74.2811C99.7949 74.2811 99.3159 74.2267 99.0367 73.9388C98.8527 73.75 98.8146 73.5197 98.8178 73.4557C98.8178 73.4045 98.8907 73.1485 99.1699 72.9054C99.3825 72.7198 99.7537 72.5087 100.356 72.5087C100.426 72.5087 100.496 72.5087 100.572 72.5183C101.311 72.5759 101.863 73.1357 102.193 73.5836C101.736 73.8972 101.013 74.2779 100.16 74.2843V74.2811ZM122.859 85.9041L122.843 85.9329C122.764 86.0928 122.669 86.1856 122.517 86.2368C121.869 86.4575 121.041 86.0928 120.451 85.8497C117.828 84.7619 115.362 83.3255 112.926 81.8698C110.489 80.4141 108.078 79.1376 105.835 77.4996C105.195 77.0325 104.585 76.5142 104.049 75.9223C103.634 75.4648 103.795 75.0585 103.986 74.5338C103.957 74.6042 105.429 75.5384 105.528 75.6024C106.299 76.1239 107.069 76.6454 107.844 77.1636C112.282 80.1358 116.901 82.9479 121.844 84.9923C122.072 85.0883 122.298 85.2066 122.542 85.261C122.745 85.3058 123.053 85.2066 123.015 85.5298C122.999 85.6641 122.916 85.7825 122.859 85.9009V85.9041ZM134.404 67.2683C132.183 70.8259 124.537 80.2573 122.459 82.804C120.981 82.1833 117.567 80.6765 114.506 78.8049C112.146 77.362 108.174 74.6778 106.365 73.4461C106.876 72.6623 107.457 71.6225 107.552 70.8291C107.599 70.4324 107.634 69.7029 107.679 68.6919C107.815 65.691 108.101 59.446 109.22 57.1873C109.795 56.0324 110.623 55.2806 111.555 55.0758C112.33 54.9062 113.142 55.1238 113.843 55.6933C115.178 56.7714 114.963 60.1403 114.712 61.6663C114.617 62.2422 114.414 64.2513 114.966 64.4369C115.515 64.6257 116.133 63.2756 116.368 62.7413C116.384 62.7029 118.218 59.0589 119.458 57.3089C119.664 57.021 119.855 56.7394 120.045 56.4643C121.013 55.0566 121.774 53.9433 123.51 52.7115C126.549 50.552 131.257 53.1978 133.677 55.5045C136.802 58.4798 136.488 63.9282 134.404 67.2651V67.2683Z" fill="#F5F5F0"/>
<path d="M136.932 64.8396L136.755 64.107L135.587 64.3917L133.969 57.7244L136.311 57.1133L136.123 56.3839L133.792 56.9918L132.757 52.7303L132.031 52.9095L133.065 57.1805L126.907 58.7865L125.242 51.1851L124.512 51.3482L126.184 58.9753L119.877 60.6229L118.982 56.9086L118.256 57.0877L119.154 60.8117L112.958 62.4273L110.826 54.6371L110.106 54.8386L112.234 62.6193L106.66 64.075L106.847 64.8044L112.434 63.3455L114.154 69.6321L108.481 71.0174L107.05 65.2619L106.324 65.4442L107.752 71.1934L106.026 71.6157L106.203 72.3483L107.936 71.926L109.255 77.2336L109.982 77.0512L108.665 71.75L114.354 70.3583L116.086 76.6865L111.137 77.9118L111.314 78.6445L116.286 77.4128L117.571 82.1093L118.291 81.9077L117.012 77.2304L122.767 75.8067L124.439 82.7556L125.166 82.5764L123.494 75.6244L129.512 74.1335L129.855 75.6915L130.584 75.5284L130.238 73.9543L132.158 73.4808L131.98 72.7482L130.08 73.2185L128.684 66.8519L135.042 65.2971L135.549 67.3926L136.276 67.2134L135.768 65.1211L136.932 64.8364V64.8396ZM126.349 59.7111L127.792 66.2953L121.609 67.8053L120.055 61.3524L126.349 59.7111ZM113.161 63.1536L119.334 61.5411L120.886 67.9813L114.887 69.4466L113.164 63.1504L113.161 63.1536ZM116.812 76.5074L115.08 70.1792L121.057 68.7171L122.586 75.0741L116.809 76.5042L116.812 76.5074ZM129.35 73.4041L123.316 74.8981L121.787 68.5412L127.954 67.0343L129.35 73.4041ZM128.522 66.1193L127.075 59.5224L133.249 57.9099L134.864 64.5676L128.522 66.1193Z" fill="#F5F5F0"/>
</g>
<defs>
<clipPath id="clip0_141_243">
<rect width="184" height="128" fill="white"/>
</clipPath>
</defs>
</svg>
