<svg width="161" height="27" viewBox="0 0 161 27" fill="none" xmlns="http://www.w3.org/2000/svg">
<path d="M125.026 15.8093C124.916 16.0075 125.366 16.9388 125.486 17.2063C126.496 19.5643 128.196 22.1501 129.066 24.4387C129.616 25.8753 128.536 26.2914 127.256 26.7372C126.296 27.0741 125.826 27.2227 125.156 26.331L121.456 17.0973C121.446 16.6911 120.426 16.9883 120.406 17.0775L120.686 26.0635C119.606 26.7075 116.646 27.5694 116.426 25.7168C116.196 23.7254 116.346 21.4962 116.286 19.485C116.186 16.0174 116.006 12.5003 116.116 9.01286C116.166 7.53665 116.206 5.43628 116.436 4.01952C116.546 3.36563 117.116 3.08822 117.726 3.01887C122.686 2.43433 128.616 3.91054 128.676 9.79554C128.706 12.3814 127.336 14.6105 125.036 15.7895L125.026 15.8093ZM120.656 6.70443C120.396 6.7936 120.276 8.22026 120.256 8.57693C120.186 9.6073 120.126 11.5492 120.256 12.53C120.386 13.5108 121.916 12.956 122.566 12.6786C125.266 11.4996 125.176 7.63573 122.326 6.84313C121.886 6.71434 121.096 6.56572 120.676 6.70443H120.656Z" fill="#E2725B"/>
<path d="M104.777 3.49438C106.017 3.02873 109.137 2.81077 109.747 4.26716C110.817 8.37874 111.697 12.5399 112.697 16.6712C113.297 19.1184 114.567 22.5166 114.847 24.8548C114.917 25.3997 114.987 25.8653 114.417 26.1725C113.847 26.4796 111.177 26.8164 110.787 26.3706C110.557 26.113 110.167 24.1712 110.057 23.6857C109.847 22.7247 109.247 18.088 108.637 17.7611C108.177 17.5233 105.187 17.3152 104.717 17.4737C104.027 17.7016 104.367 20.981 102.877 20.9314C102.597 20.9314 100.907 20.4658 100.637 20.337C100.487 20.2577 100.287 20.0299 100.177 19.8812C101.257 14.7195 102.977 9.69642 104.157 4.55448C104.297 3.94022 104.097 3.74207 104.767 3.49438H104.777ZM105.567 14.0953C106.007 14.2935 108.137 14.4619 108.287 14.0161C108.567 13.1739 107.147 9.07226 107.227 7.89327L105.567 14.0953Z" fill="#E2725B"/>
<path d="M146.297 16.6911C147.157 13.4712 147.897 10.172 148.817 6.97192C149.057 6.11989 149.637 3.83127 150.327 3.45479C151.077 3.03868 153.917 3.02877 154.627 3.50433C155.257 3.92044 155.747 7.45739 155.967 8.32924C156.057 8.8147 156.057 8.64628 156.287 9.28035C156.587 10.1324 156.847 11.7968 157.067 12.7678C157.977 16.8793 159.197 20.9117 160.207 24.9935C160.487 26.222 159.307 26.4499 158.327 26.5391C156.377 26.7273 156.187 26.5985 155.727 24.8746C155.297 23.2597 154.977 19.2274 154.307 18.0781C153.857 17.3153 150.907 17.454 150.007 17.454C149.617 18.088 149.487 20.4163 149.007 20.7829C148.487 21.1792 146.327 20.6838 145.837 20.2479C145.347 19.8119 145.557 19.059 145.697 18.4942C145.817 17.9791 146.157 17.2657 146.307 16.6713L146.297 16.6911ZM153.497 14.4223L152.497 8.05183L150.877 14.026C151.657 14.5115 152.617 14.4322 153.497 14.4322V14.4223Z" fill="#E2725B"/>
<path d="M15.3765 24.2306C11.1065 19.8416 11.6965 4.80213 18.9565 3.6826C28.6965 2.17667 29.1665 18.6428 24.8165 23.9036C22.2965 26.9452 18.1265 27.0542 15.3765 24.2306ZM19.5665 7.93288C19.0565 8.03195 18.5265 8.46788 18.2265 8.88399C16.6865 10.9745 16.7865 17.6124 17.7365 19.9902C18.3665 21.5754 19.7765 22.9327 21.4465 21.6348C23.9465 19.693 24.1965 10.1918 21.5865 8.28954C20.9965 7.85362 20.2765 7.80408 19.5665 7.93288Z" fill="#E2725B"/>
<path d="M4.62641 22.7445C4.82641 23.0814 8.32641 22.6752 8.95641 22.5959C9.85641 22.4869 11.7764 21.5655 12.0864 22.8733C12.1864 23.3192 12.1864 25.3799 12.0164 25.7663C11.9164 26.0041 11.1764 26.2815 10.9064 26.3409C9.34641 26.6976 3.19641 27.0939 1.81641 26.6778C1.61641 26.6183 0.786408 26.2319 0.706408 26.1031C0.666408 24.5675 0.386408 23.012 0.316408 21.4764C0.126408 17.2855 -0.193592 11.5987 0.156408 7.50693C0.236408 6.54591 0.476408 5.87221 1.49641 5.65424C2.51641 5.43628 4.15641 5.24804 4.40641 6.48647C4.84641 8.62647 4.34641 10.816 4.28641 12.9659C4.20641 15.6112 4.27641 18.6924 4.43641 21.3278C4.44641 21.5358 4.57641 22.6752 4.61641 22.7445H4.62641Z" fill="#E2725B"/>
<path d="M41.8265 3.18728C41.9765 3.18728 42.1365 3.17737 42.2865 3.18728C42.3865 3.18728 42.5065 3.16746 42.5965 3.18728C43.1965 3.32598 43.2865 3.79163 43.3665 4.32663C43.5965 5.96135 43.6465 8.26978 43.6765 9.93422C43.7465 13.491 43.6365 20.7135 41.6765 23.6758C39.9665 26.2517 36.4965 27.1137 33.7065 25.796C33.2165 25.5681 32.4965 25.2511 32.1765 24.8845C31.5865 24.3198 31.1765 23.6263 30.8265 22.9625C28.9965 19.5147 28.9165 10.4098 29.2665 6.43691C29.3465 5.53533 29.4765 4.84181 30.4165 4.53468C31.2465 4.26718 33.3165 3.90061 33.6465 4.99042C33.7565 5.33718 33.7965 6.2982 33.8065 6.71432C33.8965 10.7169 32.9265 16.6415 34.3565 20.3667C35.1565 22.4374 37.3365 22.8337 38.3365 20.7333C39.3865 18.5041 39.3465 12.3615 39.2365 9.77571L38.8065 4.34644C39.0465 3.56376 41.1065 3.22691 41.8365 3.17737L41.8265 3.18728Z" fill="#E2725B"/>
<path d="M55.1465 0.155645C55.7565 0.0268481 57.7265 -0.13167 58.1765 0.185367C58.6265 0.502404 58.5365 7.77445 58.5265 8.88408C58.5065 11.886 58.2665 14.9771 58.2065 17.9791C58.1665 20.4361 58.3565 22.913 58.0565 25.3502C57.2165 25.905 56.5965 26.2518 55.7565 25.4295C55.0665 24.7458 52.8965 20.4658 52.2365 19.2869C51.4665 17.8998 50.8265 16.2156 49.7865 15.0366L49.9465 16.3245L50.0665 24.9539C49.8165 25.7564 47.6165 26.8066 46.8065 26.7273C46.5665 26.7075 46.3665 26.5391 46.2965 26.3211C46.1265 25.7663 46.2465 23.5966 46.2565 22.8535C46.3665 17.5729 46.2865 12.1932 46.5665 6.92241C46.6265 5.81278 46.1365 4.1087 47.3365 3.66287H47.6465C47.7465 3.66287 47.8765 3.64305 47.9565 3.66287C48.9065 3.93037 49.0465 4.45546 49.5165 5.22824C51.2765 8.18065 52.3665 11.7671 54.1565 14.7394C54.2565 14.9078 54.3065 15.1555 54.5365 15.1951C54.2565 10.5287 54.2065 5.82269 53.7565 1.15629C53.7565 0.482589 54.6165 0.284441 55.1465 0.175459V0.155645Z" fill="#E2725B"/>
<path d="M67.7464 18.0285C67.4664 17.7511 67.2964 14.9077 68.0564 14.6897C69.6964 14.6501 71.5364 14.3033 73.1564 14.4222C73.7664 14.4618 74.7764 14.5213 74.9064 15.2643C75.1564 16.6415 74.8864 19.5939 74.5364 20.9611C73.4764 25.0826 70.2164 27.5694 65.8764 26.0337C57.4164 23.0318 58.6764 2.11721 69.3164 3.19712C71.6164 3.42499 73.2764 5.29749 73.7664 7.43749C74.2564 9.57749 73.7964 10.1125 71.5964 10.3106C69.3964 10.5088 70.3764 9.35953 69.7264 8.10129C68.9264 6.54582 67.2364 7.20962 66.3564 8.30934C64.2064 10.9843 63.8564 19.1282 66.4064 21.5655C68.7064 23.7649 70.9364 21.2781 70.6264 18.7518C70.4864 17.6223 68.3664 18.6626 67.7464 18.0384V18.0285Z" fill="#E2725B"/>
<path d="M85.1664 3.3953C85.1664 3.3953 85.3464 3.35567 85.3864 3.35567C85.4364 3.35567 85.4964 3.33585 85.6464 3.30613C86.2964 3.20706 86.9664 3.31604 87.6264 3.34576C88.3264 3.72224 88.4064 5.74335 88.2064 6.42697C87.9764 7.19974 86.5864 7.21956 85.9364 7.28891H85.7864C85.5364 7.30873 85.2764 7.2691 85.0164 7.28891H84.8664C84.7664 7.28891 84.6664 7.28891 84.5564 7.28891C84.1464 7.30873 83.8064 7.30873 83.4264 7.33845C82.9464 7.36817 81.3464 7.25919 81.2064 7.69511C81.1864 8.80474 80.9264 9.90447 81.0264 11.0141C81.1464 12.3912 81.2764 12.3813 82.6564 12.312C82.9264 12.3021 83.1464 12.2426 83.3364 12.2228C83.6364 12.1832 84.0164 12.1634 84.3164 12.1435C84.8764 12.1237 85.0564 12.0544 85.6864 12.2228C86.8364 12.9758 86.5464 14.2439 86.3864 15.1059C86.1564 16.3542 82.7464 15.9282 81.7264 16.0966C81.5364 16.1164 81.3464 16.2254 81.2664 16.3938C81.0464 16.8397 81.3164 20.1983 81.3064 20.9909C81.3064 21.6051 81.1064 22.2887 81.5664 22.3284C82.3564 22.3977 82.4364 22.3779 82.6464 22.368C83.0964 22.3482 83.6764 22.368 84.1764 22.3185C85.1964 22.2194 86.6864 21.8627 87.6264 21.8627C87.7764 21.8627 88.4064 21.724 88.6264 21.9915C88.8664 22.2788 88.9764 24.7161 88.8464 25.0925C88.7864 25.261 88.4964 25.6573 87.9364 25.8059C85.3564 26.1229 81.3264 26.7174 78.8164 26.4201C78.4664 26.3805 78.1664 26.2418 77.9864 26.113C77.8064 25.8356 77.5864 25.6176 77.5364 25.2709C77.3264 23.9136 77.4364 22.2689 77.3764 20.8819C77.2664 18.3357 77.0964 15.7003 77.0664 13.1442C77.0264 10.3206 77.0864 7.48706 77.1064 4.67335C77.2464 4.1978 77.5964 4.07891 77.7864 3.97983C78.9464 3.35567 84.6264 3.49437 84.7664 3.48446C84.8864 3.47456 84.8964 3.46465 84.9864 3.44483C85.0564 3.43493 85.0964 3.41511 85.1964 3.4052L85.1664 3.3953Z" fill="#E2725B"/>
<path d="M140.126 3.30619C140.126 3.30619 140.306 3.26656 140.346 3.26656C140.396 3.26656 140.456 3.24674 140.606 3.21702C141.256 3.11794 141.926 3.22693 142.586 3.25665C143.286 3.63313 143.366 5.65424 143.166 6.33785C142.936 7.11063 141.546 7.13045 140.896 7.1998H140.746C140.496 7.21961 140.236 7.17998 139.976 7.1998H139.826C139.726 7.1998 139.626 7.1998 139.516 7.1998C139.106 7.21961 138.766 7.21961 138.386 7.24934C137.906 7.27906 136.306 7.17008 136.166 7.606C136.146 8.71563 135.886 9.81536 135.986 10.925C136.106 12.3021 136.236 12.2922 137.616 12.2229C137.886 12.213 138.106 12.1535 138.296 12.1337C138.596 12.0941 138.976 12.0742 139.276 12.0544C139.836 12.0346 140.016 11.9653 140.646 12.1337C141.796 12.8867 141.506 14.1548 141.346 15.0167C141.116 16.2651 137.706 15.8391 136.686 16.0075C136.496 16.0273 136.306 16.1363 136.226 16.3047C136.006 16.7505 136.276 20.1092 136.266 20.9018C136.266 21.516 136.066 22.1996 136.526 22.2393C137.316 22.3086 137.396 22.2888 137.606 22.2789C138.056 22.2591 138.636 22.2789 139.136 22.2293C140.156 22.1303 141.646 21.7736 142.586 21.7736C142.736 21.7736 143.366 21.6349 143.586 21.9024C143.826 22.1897 143.936 24.6269 143.806 25.0034C143.746 25.1718 143.456 25.5681 142.896 25.7168C140.316 26.0338 136.286 26.6282 133.776 26.331C133.426 26.2914 133.126 26.1527 132.946 26.0239C132.766 25.7465 132.546 25.5285 132.496 25.1818C132.286 23.8244 132.396 22.1798 132.336 20.7928C132.226 18.2466 132.056 15.6112 132.026 13.0551C131.986 10.2315 132.046 7.39795 132.066 4.58424C132.206 4.10869 132.556 3.9898 132.746 3.89072C133.906 3.26656 139.586 3.40526 139.726 3.39535C139.846 3.38544 139.856 3.37554 139.946 3.35572C140.016 3.34582 140.056 3.326 140.156 3.31609L140.126 3.30619Z" fill="#E2725B"/>
</svg>
