<svg width="199" height="27" viewBox="0 0 199 27" fill="none" xmlns="http://www.w3.org/2000/svg">
<g clip-path="url(#clip0_148_2234)">
<path d="M198.674 2.16298L199 25.4315C198.609 26.2137 196.719 25.8226 196.181 25.2197C194.161 22.0097 193.021 17.8872 191.114 14.6935C190.984 14.4653 190.903 14.1394 190.609 14.0906L190.805 25.2849C190.674 25.7574 186.943 27.0447 187.155 25.3338L187.269 4.1672C187.562 3.5806 189.583 3.48283 190.104 3.97167L195.464 15.1008L195.106 2.6844C195.383 1.75561 197.876 1.96744 198.69 2.16298H198.674Z" fill="#E2725B"/>
<path d="M170.194 14.9868C170.455 14.9216 170.471 14.612 170.504 14.4165C170.699 13.0478 169.869 8.30606 170.504 7.55651C170.976 7.0025 174.235 7.03509 174.431 7.8824L174.593 25.5945C174.268 26.4256 171.025 26.393 170.683 25.9367C170.537 25.7249 170.325 24.1769 170.292 23.8021C170.162 22.026 170.39 20.1196 170.504 18.3598H166.382V25.6434C166.382 26.3767 163.091 26.4256 162.488 25.8715L162.455 8.40383C162.732 7.13286 166.382 7.73575 166.382 8.22459V15.0031C167.359 14.8402 169.396 15.2149 170.211 15.0031L170.194 14.9868Z" fill="#E2725B"/>
<path d="M123.401 26.5498C123.157 27.332 119.85 27.3808 119.556 25.9469C119.459 20.2113 119.67 14.4756 119.556 8.73993C119.556 7.87632 118.921 4.6663 119.687 4.17747C120.452 3.68863 123.239 3.57457 123.564 4.53594L123.401 12.0966L128.143 4.60112C129.446 3.98193 130.684 4.78036 131.89 5.23661C132.086 5.49732 131.434 6.57276 131.255 6.89865C130.587 8.12074 126.041 14.4593 126.041 15.0296C126.66 16.7731 132.232 24.3338 132.118 25.5559C132.037 26.3706 128.876 27.2179 128.24 26.3869C126.579 24.0894 125.536 21.0097 123.972 18.7122C123.825 18.5003 123.662 18.2233 123.401 18.1744V26.5824V26.5498Z" fill="#E2725B"/>
<path d="M160.598 20.3253C161.119 21.0423 160.582 23.5353 160.142 24.3338C158.121 28.0815 152.37 26.6965 150.708 23.4213C148.118 18.3374 147.629 5.96986 153.755 3.16721C156.476 1.91253 159.702 3.05314 160.728 5.90468C161.461 7.90891 161.999 10.956 158.936 10.7442C156.525 10.5812 158.529 7.89261 156.525 7.06159C154.26 6.11651 153.054 10.9071 152.924 12.4714C152.777 14.4104 153.234 21.4008 155.661 21.8896C157.942 22.3458 157.128 20.3253 158.17 19.9668C158.675 19.7876 160.305 19.9668 160.565 20.3253H160.598Z" fill="#E2725B"/>
<path d="M180.068 12.8685H184.222C185.102 12.8685 184.76 15.5571 184.32 16.0133C183.88 16.4696 181.094 16.3718 180.263 16.5184L180.459 22.5963C181.632 22.9385 184.662 22.0586 185.526 22.4985C186.389 22.9385 186.194 25.6271 185.738 26.3114C185.233 27.0773 180.394 27.1262 179.335 27.061C178.667 27.0121 176.614 26.9306 176.614 26.1485V3.97167C177.624 3.8739 178.748 3.61319 179.742 3.56431C180.638 3.51542 183.913 3.41766 184.565 3.61319C185.444 3.8739 185.624 6.17143 184.972 6.36696C184.874 6.39955 183.848 6.59509 183.799 6.59509H180.361C180.361 6.59509 180.052 6.87209 180.052 6.90468V12.8848L180.068 12.8685Z" fill="#E2725B"/>
<path d="M141.112 7.36685H137.576C136.892 7.36685 136.762 3.79999 137.609 3.50275C141.063 3.78347 145.152 2.79268 148.509 3.25505C149.861 3.43669 149.828 6.64027 149.209 7.06962C148.492 7.5485 145.332 7.0531 145.185 7.69712C145.152 7.84574 145.364 8.37416 145.38 8.70443C145.446 11.842 145.152 15.029 145.576 18.15C145.299 19.6527 146 25.7131 145.38 26.5883C144.892 27.2819 141.568 27.7112 141.324 26.3571C141.226 20.0325 141.519 13.6914 141.112 7.38337V7.36685Z" fill="#E2725B"/>
<path d="M134.888 8.64216C135.523 8.57698 137.169 8.47922 137.462 8.87028L137.576 23.5516C137.446 24.6108 133.519 24.3827 133.405 23.5516C133.34 19.4128 133.145 15.2251 133.519 11.1026C133.617 9.99461 132.754 8.87028 134.888 8.65846V8.64216Z" fill="#E2725B"/>
<path d="M29.5551 26.1853C29.327 27.0001 26.8016 26.9186 26.1825 26.5927C25.8567 26.4135 25.7263 24.784 25.71 24.2789C25.6286 22.9427 25.9218 21.6066 25.9055 20.4171C25.8729 17.2071 25.6937 13.8667 25.6937 10.6078C25.6937 9.72788 26.0359 8.61985 25.9218 7.65847C26.1825 6.6971 29.4085 6.89263 29.7506 7.29999L33.2536 16.3434L33.4491 16.0501L36.9032 7.41406C37.3105 6.9904 40.1454 6.9904 40.4876 7.52812C41.2696 8.70132 40.7645 13.1497 40.9438 14.9584C40.9926 18.201 41.514 22.4865 41.123 25.8269C40.9764 27.0489 37.8318 26.7556 37.4734 26.1364L37.0987 16.4575L34.6548 22.6331C34.28 23.0894 32.5367 23.0894 32.1131 22.5679L29.5714 16.6205V26.169L29.5551 26.1853Z" fill="#E2725B"/>
<path d="M45.6524 7.02295C46.2878 7.02295 46.8743 7.20219 47.2165 7.85397C47.5749 8.55463 47.8519 9.33677 48.1289 10.0863C48.1452 10.1515 48.1778 10.2004 48.1941 10.2656C48.5688 11.2921 48.9761 12.3024 49.3671 13.3289C49.5626 13.8503 49.7582 14.3881 49.9537 14.9095C50.084 15.3006 50.5891 16.3108 50.752 16.2782C50.9964 16.2456 51.2082 15.7568 51.306 15.5776C51.6318 14.8606 51.8111 14.0296 52.0554 13.28C52.3324 12.4653 52.6094 11.6669 52.9027 10.8522C53.1308 10.2167 53.3263 9.56489 53.587 8.9457C53.8314 8.37539 54.1083 7.67473 54.6786 7.31625C54.923 7.1696 55.2488 7.20218 55.5258 7.18589C56.2101 7.13701 57.5461 6.81112 57.9208 7.59325C58.1489 8.27762 58.0675 9.09235 58.0675 9.80931C58.0838 11.0314 58.1164 12.2535 58.1489 13.4756C58.1815 14.6977 58.2793 15.822 58.2793 16.9952C58.3119 17.7284 58.3282 18.4454 58.3607 19.1786C58.3933 20.2867 58.3119 21.3784 58.3282 22.4864C58.3445 23.5945 58.4259 24.6699 58.4585 25.7616C58.4911 26.8371 55.3466 26.5112 55.1348 26.2831C55.0044 26.1527 55.0044 25.8431 54.9881 25.6639C54.9556 25.2728 54.9556 24.8654 54.9556 24.4744C54.9556 22.6494 54.7926 20.8244 54.6786 19.0157C54.6297 18.2825 54.6786 17.5655 54.6297 16.8322C54.6297 16.653 54.6297 16.4738 54.6297 16.3108C54.0432 16.1968 54.369 16.5878 54.2876 16.8322C53.9617 17.6796 53.6195 18.5432 53.2774 19.3905C52.9353 20.2378 52.5279 21.0851 52.2835 21.965C52.2347 22.128 52.2021 22.4213 52.0717 22.5516C51.9414 22.682 51.7296 22.7309 51.5992 22.7309C51.1756 22.7309 50.6217 22.7634 50.1981 22.7309C49.3834 22.6657 49.1716 21.5088 48.9272 20.9059C48.5036 19.8956 48.0474 18.9179 47.6401 17.9077C47.526 17.6307 47.412 17.3374 47.3468 17.0441C47.2979 16.8322 47.3468 16.5552 47.135 16.3923C46.8906 16.1805 46.8743 16.4738 46.8743 16.6693C46.9721 18.1521 46.858 19.6349 46.7929 21.1014C46.7277 22.5679 46.8418 24.0018 46.7929 25.4357C46.7929 25.6802 46.8092 26.0549 46.6788 26.2668C46.4833 26.5927 45.9131 26.6089 45.5709 26.6252C45.2125 26.6415 44.8703 26.6252 44.5119 26.6252C43.9579 26.6252 43.4366 26.2342 43.2736 25.6965C43.1922 25.4032 43.2736 25.0936 43.2736 24.8003C43.2736 24.067 43.2736 23.3337 43.2736 22.6005C43.2736 21.134 43.241 19.6675 43.2736 18.201C43.2736 18.0869 43.2736 17.9729 43.2736 17.8588C43.2736 16.7019 43.2573 15.5287 43.2736 14.3555C43.2899 13.2149 43.2736 12.0905 43.3062 10.9499C43.3062 10.3633 43.3225 9.79301 43.3551 9.20641C43.3877 8.68499 43.3388 8.03321 43.5343 7.54437C43.681 7.18589 44.0557 7.13701 44.3978 7.10442C44.8214 7.05553 45.2776 6.99036 45.7176 6.99036L45.6524 7.02295Z" fill="#E2725B"/>
<path d="M17.6125 6.89262C24.6021 6.12678 24.7161 16.0501 23.7223 20.7104C22.9728 24.2789 20.4963 27.2282 16.5046 26.1039C11.633 24.7351 11.7471 14.7466 13.0994 10.95C13.8977 8.70131 15.1034 7.16963 17.6125 6.89262ZM19.3395 22.5516C19.5024 22.4213 19.9586 21.6554 20.0564 21.4273C20.8385 19.472 20.9362 13.1334 19.8935 11.341C19.2092 10.1515 17.7591 10.0375 16.8467 11.0477C15.2663 12.8238 15.3315 19.195 16.2276 21.297C16.749 22.5028 18.1013 23.5293 19.3395 22.5516Z" fill="#E2725B"/>
<path d="M5.0019 5.49123C7.13625 5.13275 9.18914 5.71935 10.2645 7.67469C11.1932 9.32044 11.6819 11.1617 9.2869 11.5365C6.89186 11.9113 8.13011 10.5588 7.21771 9.49968C6.54971 8.71754 5.52326 8.78272 4.87155 9.56486C3.43779 11.2921 3.56813 18.9179 4.25243 21.0362C4.61087 22.1279 5.24629 22.8449 6.50083 22.5679C8.11382 22.2094 7.31547 19.6186 8.1464 19.309C8.68406 19.1134 10.9651 18.9831 11.1606 19.5534C11.405 20.3029 11.0628 22.0464 10.7858 22.8123C9.17285 27.3259 3.07935 27.1955 1.18938 23.0241C-0.700577 18.8527 -1.02643 6.50149 5.0019 5.49123Z" fill="#E2725B"/>
<path d="M102.35 26.2083C101.636 26.2083 100.667 26.1219 100.454 25.3942C100.363 25.0735 100.277 23.4639 100.277 23.4454C100.241 22.7054 100.259 21.9469 100.277 21.213C100.29 20.621 100.308 20.0043 100.29 19.4061C100.265 18.3824 100.216 17.2908 100.168 16.1684C100.034 12.9986 99.8812 9.40323 100.143 6.49858C100.241 5.39469 100.832 5.11101 101.752 5.02467C101.899 5.01233 102.069 5 102.258 5C103.355 5 104.038 5.33918 104.178 5.95588C104.196 7.41746 104.202 8.83586 104.202 10.2604C104.208 13.2144 104.214 16.2732 104.342 19.2642C104.349 19.4246 104.342 19.7391 104.336 20.1091C104.324 20.7196 104.3 21.8544 104.379 22.027C104.385 22.027 104.483 22.0887 104.934 22.0887C105.433 22.0887 106.153 22.0147 106.914 21.9345C107.768 21.842 108.645 21.7495 109.34 21.7495C109.913 21.7495 110.279 21.8112 110.498 21.9469C111.162 22.3477 110.931 24.685 110.925 24.7097C110.797 25.7026 109.535 25.7026 108.859 25.7026H108.2C107.847 25.7026 107.487 25.7149 107.28 25.8012C106.805 26.0047 103.843 26.1651 103.276 26.1836L103.02 26.1959C102.825 26.2083 102.593 26.2144 102.35 26.2144V26.2083Z" fill="#E2725B"/>
<path d="M76.462 7.54442C76.5598 7.57701 77.2441 8.61985 77.3744 8.83168L81.3662 16.653L81.0077 4.82323C80.8937 4.6277 81.7572 4.22034 81.8061 4.22034H84.6084C84.8039 4.22034 84.8528 4.64399 84.8854 4.82323C85.3905 9.15757 84.8202 15.5613 84.6899 20.0586C84.6573 21.2807 84.9343 25.061 84.5758 25.892C84.4944 26.0876 84.3803 26.1527 84.1848 26.2016C83.2072 26.4786 82.8325 26.2016 82.246 25.4847C81.1055 24.067 79.8998 21.1992 78.9385 19.5046C78.5964 18.9017 78.2054 18.1521 77.684 17.6959C77.4396 20.0586 77.9936 23.0242 77.684 25.3217C77.6351 25.6639 77.407 26.0713 77.1463 26.2831C76.5272 26.7882 75.3215 27.1141 74.5232 26.9838C74.621 22.4376 74.3929 17.8751 74.5232 13.329C74.5232 13.0845 74.5395 12.0743 74.5721 11.5855C74.6047 10.7544 74.4254 7.83772 75.1749 7.5933C75.3541 7.52812 76.3154 7.51183 76.462 7.56071V7.54442Z" fill="#E2725B"/>
<path d="M93.2599 6.53415C93.3576 6.56674 93.4717 6.58304 93.5694 6.61563C93.7975 6.6808 94.0094 6.77857 94.2375 6.84375C94.4981 6.92522 94.6285 6.94152 94.8566 7.20223C95.1661 7.56071 95.0847 8.13102 95.1987 8.58726C95.3128 9.01092 95.3454 9.45087 95.4431 9.87453L95.8179 11.3736C96.046 12.2861 96.274 13.1986 96.5021 14.1111C96.6814 14.8281 96.7465 15.5939 96.9746 16.3109C97.2027 17.0278 97.3657 17.6633 97.5286 18.364C97.7078 19.1461 97.8707 19.9282 98.0663 20.6941C98.2944 21.6066 98.5713 22.5028 98.8157 23.4153C98.8809 23.6271 98.9298 23.8552 98.9787 24.067C99.0764 24.4418 99.1416 24.8329 99.2393 25.2077C99.4023 25.7943 99.4348 26.332 98.832 26.6742C98.4084 26.9186 97.8544 27.0164 97.3657 26.9349C96.5999 26.8045 95.8179 26.9838 95.5409 26.1039C95.1987 24.9958 95.0847 23.8715 94.938 22.7309C94.8729 22.2258 94.7914 21.7206 94.6611 21.2318C94.5307 20.743 94.3026 20.2867 94.156 19.8142C94.0745 19.5535 93.8301 19.472 93.5694 19.4557C93.3088 19.4557 93.0481 19.3905 92.7874 19.4068C92.2334 19.4068 91.6795 19.2765 91.1255 19.2765C90.8974 19.2602 90.6368 19.2276 90.4087 19.2765C90.1968 19.3253 90.1806 19.7979 90.1154 19.9771C89.9525 20.4171 89.8873 20.7593 89.7732 21.1992C89.6429 21.7369 89.7081 21.8347 89.4311 22.4213C89.3822 22.5191 89.0401 22.5842 88.9423 22.5842C88.7631 22.6168 88.6001 22.5842 88.4372 22.5354C88.0136 22.4213 87.6063 22.3561 87.199 22.2584C87.0686 22.2258 86.9057 22.2584 86.7917 22.1769C86.5636 22.0302 86.4984 21.7206 86.4984 21.4762C86.4821 20.857 86.6939 20.2541 86.8568 19.6675L87.4108 17.6307C87.6063 16.93 87.7855 16.2457 87.9647 15.545C88.4372 13.72 88.8771 11.8788 89.2844 10.0538C89.4148 9.48346 89.5451 8.91315 89.7569 8.37543C89.9525 7.8866 89.985 7.36517 90.3924 6.97411C90.7834 6.59933 91.3373 6.51786 91.8587 6.46898C92.3312 6.42009 92.8037 6.43639 93.2599 6.55045V6.53415ZM92.7385 11.227C92.4452 10.9337 92.4452 11.2922 92.3801 11.4877C92.2009 12.0743 91.1092 15.8057 91.1744 16.0176C91.321 16.5064 93.2762 16.6693 93.5369 16.3109C93.6835 16.099 92.9177 11.4062 92.7385 11.227Z" fill="#E2725B"/>
<path d="M71.3385 5.00938C71.4721 5.00938 71.6147 5 71.7484 5.00938C71.8375 5.00938 71.9444 4.99062 72.0246 5.00938C72.5593 5.14074 72.6395 5.58175 72.7108 6.08843C72.9157 7.63662 72.9603 9.82286 72.987 11.3992C73.0494 14.7677 72.9514 21.6079 71.2048 24.4134C69.681 26.853 66.5888 27.6693 64.1026 26.4214C63.666 26.2056 63.0244 25.9053 62.7392 25.5581C62.2135 25.0233 61.8481 24.3665 61.5362 23.7378C59.9055 20.4725 59.8342 11.8496 60.1461 8.087C60.2174 7.23315 60.3332 6.57634 61.1709 6.28547C61.9105 6.03213 63.7551 5.68496 64.0492 6.71709C64.1472 7.04549 64.1828 7.95564 64.1917 8.34973C64.2719 12.1405 63.4075 17.7515 64.6818 21.2795C65.3947 23.2405 67.3374 23.6159 68.2285 21.6267C69.1641 19.5155 69.1285 13.698 69.0305 11.2491L68.6473 6.10719C68.8612 5.36594 70.6969 5.04691 71.3474 5L71.3385 5.00938Z" fill="#E2725B"/>
</g>
<defs>
<clipPath id="clip0_148_2234">
<rect width="199" height="27" fill="white"/>
</clipPath>
</defs>
</svg>
