<svg width="198" height="27" viewBox="0 0 198 27" fill="none" xmlns="http://www.w3.org/2000/svg">
<path d="M151.492 6.10074C157.14 10.9961 155.679 22.3825 147.728 24.959C146.398 25.3912 142.165 26.1642 141.668 24.585C141.341 23.5378 141.331 20.9281 141.284 19.698C141.135 15.5257 140.891 9.73277 141.284 5.66024C141.397 4.52991 141.687 3.83176 143.073 3.66554C145.883 3.33308 149.46 4.33044 151.492 6.09243V6.10074ZM145.686 21.5431C146.117 21.8672 147.625 21.0195 148.027 20.7369C152.026 17.8778 152.007 9.20916 146.8 7.50535C146.117 7.28094 145.443 6.94849 145.33 7.74638C144.946 10.6138 145.377 14.9356 145.517 17.8945C145.546 18.4762 145.386 21.3104 145.695 21.5431H145.686Z" fill="#E2725B"/>
<path d="M184.338 11.711C184.347 9.81598 184.263 7.2478 184.507 5.36945C184.694 3.89835 186.183 3.90666 187.607 4.10613C189.152 4.33054 188.543 5.83488 188.534 6.69925C188.506 8.41138 188.496 10.1484 188.627 11.8522C189.086 11.7026 189.358 11.1375 189.62 10.7967C191.165 8.76045 192.42 6.54134 193.919 4.47183C194.509 3.69057 196.625 4.71286 197.112 5.21153C197.805 5.91799 197.093 6.55796 196.672 7.21455C195.323 9.34224 193.666 11.3369 192.27 13.448C192.205 13.7638 193.357 15.3264 193.581 15.7336C194.284 17.0219 194.911 18.3766 195.623 19.6649C196.148 20.6123 197.44 22.3411 197.712 23.1888C198.067 24.3275 194.902 25.5077 194.134 24.9425L189.302 16.1824C187.99 16.9221 188.693 18.1522 188.721 19.2327C188.749 20.3131 188.927 24.0865 188.637 24.8428C188.3 25.7404 184.544 25.8401 184.675 24.3109C184.647 20.1053 184.31 15.9082 184.338 11.7026V11.711Z" fill="#E2725B"/>
<path d="M160.307 7.389C160.504 8.89334 159.932 10.4559 160.129 11.9436C160.148 12.0932 160.204 12.4589 160.391 12.4589H164.596C165.72 12.4589 165.682 16.041 164.428 16.041H160.56C160.026 16.041 160.475 17.5786 160.485 17.9028C160.513 18.5926 160.382 20.9696 160.719 21.4184C160.831 21.5764 161.037 21.568 161.225 21.568C162.751 21.5597 164.568 21.1691 166.104 21.1192C167.64 21.0694 167.996 20.9447 168.183 22.3992C168.492 24.6931 167.602 24.6183 165.43 24.8427C164.109 24.9757 162.386 25.1003 161.065 25.1502C159.998 25.1918 157.038 25.4411 156.683 24.4022C156.561 24.0531 156.477 22.848 156.439 22.3825C156.093 17.7947 156.093 12.9409 156.28 8.36973C156.336 7.01499 155.606 4.15591 157.525 3.95644C158.649 3.84008 160.522 3.83177 161.721 3.80684C162.826 3.7819 166.188 3.64892 167.031 3.88164C168.408 4.26396 167.968 7.39731 166.937 7.39731H160.298L160.307 7.389Z" fill="#E2725B"/>
<path d="M175.394 3.3995C178.316 3.16678 181.547 5.41914 181.641 8.07875C181.678 9.02624 179.562 9.63296 178.71 9.63296C177.127 9.62465 177.942 7.4554 176.322 7.12295C174.392 6.73232 173.446 8.08706 173.83 9.63296C174.383 11.9186 180.096 13.8218 181.632 16.8804C185.359 24.2857 173.971 28.6907 170.496 22.1331C169.719 20.662 169.27 19.3655 171.311 18.7172C174.608 17.6617 173.194 20.3794 174.945 21.4682C176.556 22.4739 178.372 21.1607 178.288 19.5566C178.12 16.6061 171.536 14.7776 170.15 11.2537C168.764 7.72968 171.096 3.74026 175.404 3.39119L175.394 3.3995Z" fill="#E2725B"/>
<path d="M106.926 5.12821L112.807 15.7168L112.676 3.88982C112.713 2.90078 115.804 3.06701 116.244 3.34959C116.619 3.59062 116.647 4.34695 116.684 4.7542C117.106 9.81577 116.843 16.6726 116.506 21.7674C116.441 22.798 116.965 24.5932 115.401 24.8176C114.661 24.9257 113.79 24.8758 113.303 24.3106C111.309 21.5596 110.082 17.8777 108.134 15.1765C108.031 15.0269 108.153 14.9106 107.759 14.9854L107.89 24.8758C107.647 25.8233 103.957 26.322 104.06 24.9091C103.948 19.7228 103.863 14.5698 104.069 9.4002C104.116 8.31143 103.854 6.49957 104.097 5.54377C104.228 5.01185 104.519 4.94536 105.043 4.98691C105.755 5.03678 106.242 4.74589 106.916 5.14483L106.926 5.12821Z" fill="#E2725B"/>
<path d="M95.3223 4.83733C95.4347 4.84564 95.5564 4.82071 95.6594 4.83733C97.598 5.13654 99.4804 7.08138 100.23 8.61065C101.962 12.1346 101.915 16.3817 100.632 20.0137C100.557 20.2132 100.445 20.3961 100.333 20.5789C100.005 21.1108 99.7145 21.6843 99.3306 22.183C98.1318 23.7039 96.5772 24.8343 94.4045 24.9673C84.6179 25.5574 84.4493 7.33903 92.1381 4.97862C92.8405 4.76253 94.5637 4.76253 95.3316 4.82902L95.3223 4.83733ZM93.5897 8.44443C91.6886 8.82675 90.7427 12.3757 90.6116 13.8634C90.4618 15.6752 90.7989 19.9971 92.8405 20.9778C94.8821 21.9586 96.0809 20.5124 96.7364 19.0081C97.7198 16.7723 97.804 14.0545 97.214 11.7274C96.8113 10.1649 95.828 7.99562 93.5804 8.45274L93.5897 8.44443Z" fill="#E2725B"/>
<path d="M80.0175 3.78994C80.2423 3.82319 80.4764 3.88137 80.6918 3.93955C81.7314 4.20551 82.7428 4.63769 83.5482 5.28597C86.442 7.61313 86.7136 12.3256 83.9696 14.8356C83.6325 15.1432 82.696 15.5753 82.7053 15.7914L86.2173 23.978C85.6647 24.7676 83.5763 25.6819 82.696 25.0668C81.5534 24.2606 80.0831 18.5591 79.1466 17.1794C79.0904 16.7805 78.0415 17.0132 77.8355 17.1462C77.3672 17.4537 77.8355 19.5648 77.8448 20.1299C77.8917 21.734 78.1352 24.2523 77.3298 25.5821C75.7096 25.6569 74.0145 26.2387 73.7991 24.3188C73.5275 21.8753 73.668 18.8417 73.6305 16.34C73.5837 12.8825 73.6773 9.42499 73.6305 5.9675C73.6305 5.3026 73.3215 4.76236 74.0145 4.26369C74.5296 3.88968 75.2226 3.74839 75.8688 3.66527C77.2267 3.49074 78.669 3.58216 80.0175 3.80657V3.78994ZM77.4983 7.1477V13.4144C77.4983 13.9463 79.4837 13.4643 79.8864 13.298C82.7896 12.0929 82.4525 7.96221 79.3807 7.11446C79.0248 7.01472 77.6482 6.72383 77.4983 7.1477Z" fill="#E2725B"/>
<path d="M123.232 4.68789C124.853 4.59646 126.388 4.55491 128.018 4.53828C128.571 4.53828 129.985 4.13103 130.256 4.93723C130.387 5.33617 130.378 7.41399 130.05 7.67995C129.31 8.26174 126.819 7.77969 125.761 8.12876C125.761 9.12611 125.621 10.1816 125.742 11.179C125.855 12.1099 125.939 12.9992 125.92 13.9383C125.855 17.3044 126.285 20.6455 126.267 24.0116C126.126 25.1586 123.963 25.0838 122.97 24.984C122.446 24.9342 122.315 24.743 122.23 24.2942C121.949 22.6901 122.08 20.5126 122.052 18.8586C121.996 15.8001 122.361 12.1847 122.062 9.21754C122.034 8.91833 121.968 8.91002 121.884 8.71055C121.556 7.97916 121.547 8.41965 120.797 8.41965C120.086 8.41965 118.334 8.55263 117.857 8.18694C117.314 7.77137 117.164 5.16163 118.278 4.98709C119.599 4.77931 121.238 4.771 122.558 4.68789C122.67 4.68789 122.783 4.68789 122.895 4.68789C123.008 4.68789 123.12 4.68789 123.232 4.68789Z" fill="#E2725B"/>
<path d="M71.7855 5.42741C71.7855 5.62688 71.7855 5.82635 71.7855 6.02582C71.6824 6.56605 71.9072 7.00655 70.9894 7.1894C70.0248 7.38056 65.08 6.99824 64.799 7.36394L64.5556 12.8909H69.0134C69.5472 12.8909 70.0716 16.3235 68.6762 16.3235H64.8084C64.5087 16.3235 64.5368 17.0964 64.5462 17.2959C64.5837 18.6174 64.8646 20.1384 64.9021 21.4599C64.9208 22.2245 65.0519 24.4353 64.8552 25.0171C64.5836 25.8482 61.0998 26.1474 60.8938 24.8675C60.9687 24.0779 60.7252 23.2634 60.6784 22.5154C60.463 18.4263 60.5473 14.362 60.6877 10.2812C60.7533 8.56076 60.566 6.77384 60.8657 5.07002C61.0624 3.92307 61.9708 3.88151 63.1227 3.79009C65.5108 3.60724 68.2454 3.74853 70.671 3.6571C71.9728 3.82333 71.7855 4.48823 71.7761 5.43572L71.7855 5.42741Z" fill="#E2725B"/>
<path d="M14.04 20.047C12.9536 19.8392 13.0192 17.67 13.1878 16.9053C15.1919 13.3481 16.8683 9.2839 19.0504 5.84303C19.2845 5.46902 19.5467 4.87892 19.9962 4.74594C20.5113 4.59633 22.9931 4.62127 23.4894 4.7958C24.1918 5.04514 24.3136 5.80147 24.3698 6.39988C24.6882 9.5831 24.1169 13.1486 24.3979 16.3734C24.5945 16.9053 25.8495 16.3402 26.402 16.8305C26.8984 17.271 26.8703 19.1078 26.4769 19.5982C25.9057 20.3047 24.6507 19.9556 24.5477 20.047C24.3698 20.2049 24.6882 23.7788 24.5477 24.4437C24.3979 25.1418 22.6466 25.3164 21.9723 25.2582C19.4718 25.067 21.3635 20.047 20.4364 20.047H14.0494H14.04ZM20.6799 10.5057C20.2866 10.4309 20.4083 10.5472 20.3053 10.6968C19.5092 11.7939 18.1232 14.5366 17.5145 15.8249C17.4302 15.9994 16.9807 16.7724 17.4115 16.7724H20.4364C20.4364 16.7724 20.6893 16.5646 20.6893 16.548V10.5057H20.6799Z" fill="#E2725B"/>
<path d="M5.21799 22.1415C5.39593 22.2911 9.36675 21.8589 10.0036 21.834C10.5655 21.8091 11.708 21.7841 11.9141 22.3908C12.0358 22.7399 12.0077 24.8094 11.7923 25.0588C11.6706 25.2001 11.3147 25.3081 11.118 25.3497C10.4531 25.491 8.80484 25.5325 8.0088 25.5658C6.31371 25.6489 3.18575 25.865 1.6124 25.707C-0.29809 25.5159 0.254454 23.8453 0.226359 22.5321C2.10875 19.0082 6.69768 14.9273 7.50309 11.0875C8.13055 8.07051 4.92767 7.27262 4.09417 9.54991C3.88814 10.1068 4.00988 10.913 3.46671 11.2288C2.59575 11.7358 1.63113 11.6527 0.732078 11.2537C0.24509 11.0376 0.0203273 10.5722 0.00159694 10.0985C-0.0358637 9.15928 0.5916 7.61339 1.26589 6.8903C4.15036 3.78189 10.0129 4.18083 11.193 8.38634C12.7101 13.797 8.04626 17.0218 5.59259 21.1691C5.41465 21.4683 5.17116 21.7343 5.22735 22.1083L5.21799 22.1415Z" fill="#E2725B"/>
<path d="M45.3965 9.26161C43.2707 9.29485 41.1167 9.60237 39.0001 9.49432C37.8482 9.3281 37.9606 6.53551 38.5132 6.21137C39.2249 5.78749 41.8097 6.03683 42.8024 5.98696C44.254 5.92047 45.8742 5.71269 47.3258 5.67945C48.3185 5.65451 49.564 5.55478 49.7607 6.66849C50.1447 8.82111 48.4121 11.3145 47.5786 13.3674C46.3799 16.3428 45.3872 19.3931 44.7691 22.5098C44.6192 23.2495 44.4975 25.8426 44.0386 26.1917C43.6265 26.5075 41.8659 26.4992 41.304 26.3912C40.639 26.2582 40.3487 25.7263 40.33 25.1528C40.2925 23.8645 40.9013 21.313 41.2384 19.9748C42.1656 16.268 43.945 12.8105 45.3872 9.26161H45.3965Z" fill="#E2725B"/>
<path d="M35.1021 0.0279198C36.0199 -0.0967494 38.3331 0.169212 37.9585 1.37435C35.3737 9.72719 32.8264 18.0883 30.4477 26.491C30.1105 27.4219 27.3291 26.9149 26.9919 26.25C26.7859 25.8511 26.917 25.4521 26.9826 25.0532C27.8254 19.8254 30.6537 12.9353 32.2364 7.64105C32.8732 5.52999 33.3134 3.07816 34.0532 1.0419C34.2686 0.451795 34.3061 0.135967 35.1021 0.0279198Z" fill="#E2725B"/>
</svg>
