<svg width="191" height="27" viewBox="0 0 191 27" fill="none" xmlns="http://www.w3.org/2000/svg">
<g clip-path="url(#clip0_144_2125)">
<path d="M168.261 24.9571C167.755 24.9571 167.267 24.797 166.847 24.4896C166.311 24.0989 166.353 22.9654 166.384 22.0496C166.396 21.7742 166.402 21.518 166.396 21.3323C166.365 20.7367 166.347 20.1411 166.323 19.5455C166.274 18.2903 166.17 17.0287 166.109 15.7351C166.128 13.769 166.177 11.4763 166.085 9.33088C165.988 6.98695 165.884 4.55977 166.116 2.38876C166.28 0.870968 167.615 0 169.778 0C171.01 0 172.417 0.3074 173.277 0.762097C176.598 2.52324 177.311 8.04364 175.684 11.4443C175.538 11.7517 175.191 12.2 174.849 12.6354C174.557 13.0133 174.118 13.5768 174.075 13.7626L177.037 23.0038V23.0486C176.897 23.9708 175.233 24.56 174.404 24.56C174.307 24.56 174.221 24.5536 174.142 24.5344C173.984 24.5024 173.667 24.3102 173.551 24.1886C172.478 22.0816 171.887 19.7761 171.314 17.5474C171.101 16.7277 170.894 15.908 170.662 15.1074C170.54 15.0754 170.424 15.0562 170.321 15.0562C170.016 15.0562 170.004 15.2035 169.998 15.274L170.034 24.0861L169.986 24.1373C169.541 24.6561 168.931 24.9443 168.255 24.9443L168.261 24.9571ZM170.15 4.14991C169.894 4.14991 169.87 4.20114 169.858 4.35484L169.998 11.0216C171.704 11.0088 172.631 9.21561 172.655 7.44165C172.68 5.84701 171.96 4.21395 170.297 4.15631H170.15V4.14991Z" fill="#E2725B"/>
<path d="M6.35064 24.9229C4.77822 24.9229 3.27894 24.1992 2.34646 22.9952C-0.676482 19.0759 -0.658198 7.35621 1.70043 3.21271C2.74871 1.37471 4.39426 0.273193 6.10076 0.273193C7.6488 0.273193 9.07495 1.14416 10.111 2.72599C13.0304 7.1897 13.6764 19.9212 9.38577 23.7893C8.58128 24.513 7.50253 24.9165 6.35674 24.9165L6.35064 24.9229ZM6.04591 4.74971C5.88745 4.74971 5.72289 4.76892 5.54005 4.81375C5.24142 4.8842 5.0281 5.15958 4.86964 5.39653C3.17533 7.91978 3.39474 17.4876 5.20485 19.8251C5.57053 20.2926 6.00325 20.5552 6.42378 20.5552C6.76508 20.5552 7.08809 20.3887 7.37454 20.0493C9.31264 17.795 9.07495 7.22813 7.03934 5.17239C6.75898 4.8906 6.42987 4.74971 6.04591 4.74971Z" fill="#E2725B"/>
<path d="M129.267 24.8942C127.524 24.8942 125.915 24.0168 124.855 22.4926C124.617 22.1468 124.41 21.7369 124.184 21.3143C124.087 21.1285 123.849 20.6162 123.74 20.2832C123.471 19.4827 123.24 16.6136 123.24 16.5752C123.057 14.4106 123.13 12.2203 123.197 10.107C123.215 9.62024 123.228 9.13352 123.24 8.6468C123.246 8.3394 123.24 7.89111 123.221 7.37878C123.185 5.91862 123.136 4.10624 123.471 3.45942C123.544 3.32493 123.709 3.08798 123.892 3.00472C124.105 2.90866 124.544 2.84462 125.044 2.84462C125.507 2.84462 127.043 2.90866 127.256 3.7284C127.354 5.64324 127.274 7.5645 127.201 9.42171C127.098 11.9514 126.994 14.5643 127.311 17.0875C127.506 18.6693 127.933 20.7763 129.371 20.7763C129.572 20.7763 129.798 20.7379 130.029 20.6546C130.797 20.3857 131.315 19.2393 131.571 17.2348C131.9 14.6347 131.791 11.8489 131.687 9.15273C131.614 7.27631 131.535 5.32944 131.614 3.48504C131.851 2.63328 133.68 2.60767 133.893 2.60767C134.247 2.60767 134.533 2.63969 134.71 2.69732C135.734 3.03034 135.685 5.16293 135.655 6.57185C135.648 6.88565 135.642 7.15463 135.655 7.34676L135.691 8.21772C135.88 12.278 136.191 19.0792 134.174 22.1212C133.022 23.8567 131.193 24.8942 129.273 24.8942H129.267Z" fill="#E2725B"/>
<path d="M119.9 23.9453C119.559 23.9453 119.095 23.894 118.839 23.6507C118.468 23.2984 118.267 22.056 118.017 20.3461C117.919 19.6417 117.791 18.7771 117.688 18.5401L113.561 18.6618C113.501 18.9372 113.415 19.4367 113.324 20.0003C112.922 22.3954 112.702 23.4201 112.416 23.5994C112.275 23.6827 112.05 23.7275 111.739 23.7275C110.916 23.7275 109.35 23.3945 109.161 22.7413C109.064 22.3954 109.112 21.9279 109.155 21.5501L109.167 21.4348C109.49 18.3096 110.307 14.9538 111.099 11.7133C111.812 8.78658 112.55 5.76381 112.922 2.92035L112.982 2.6834C113.08 2.27994 113.159 1.95973 113.708 1.74199C114.055 1.6075 115.055 1.54346 115.89 1.54346C116.213 1.54346 117.005 1.55627 117.316 1.65233C118.035 1.88288 118.267 2.88193 118.431 3.61201C118.462 3.74009 118.486 3.85536 118.516 3.96424C119.638 8.22301 120.479 12.6611 121.296 16.9583C121.649 18.8219 122.003 20.6855 122.374 22.5299C122.307 23.5162 120.857 23.9453 119.9 23.9453ZM116.767 14.6784C116.767 14.6784 116.767 14.6656 116.786 14.6528C116.828 14.6272 116.877 14.5952 116.926 14.5695V14.3902L115.561 8.28705L114.329 14.6784H116.767Z" fill="#E2725B"/>
<path d="M100.239 25.0542C99.5255 25.0542 98.5564 24.9646 98.3431 24.2089C98.2517 23.8759 98.1664 22.2044 98.1664 22.1852C98.1298 21.4167 98.1481 20.6289 98.1664 19.8668C98.1786 19.252 98.1968 18.6116 98.1786 17.9904C98.1542 16.9273 98.1054 15.7938 98.0567 14.6282C97.9226 11.3365 97.7702 7.60285 98.0323 4.58649C98.1298 3.44014 98.721 3.14555 99.6413 3.05589C99.7875 3.04308 99.9582 3.03027 100.147 3.03027C101.244 3.03027 101.927 3.3825 102.067 4.02292C102.085 5.54071 102.091 7.01367 102.091 8.49303C102.097 11.5606 102.104 14.7371 102.231 17.8431C102.238 18.0096 102.231 18.3363 102.225 18.7205C102.213 19.3545 102.189 20.5329 102.268 20.7122C102.274 20.7122 102.372 20.7762 102.823 20.7762C103.322 20.7762 104.042 20.6994 104.803 20.6161C105.657 20.5201 106.534 20.424 107.229 20.424C107.802 20.424 108.168 20.4881 108.387 20.6289C109.051 21.0452 108.82 23.4724 108.814 23.498C108.686 24.5291 107.424 24.5291 106.748 24.5291H106.089C105.736 24.5291 105.376 24.5419 105.169 24.6316C104.694 24.8429 101.732 25.0094 101.165 25.0286L100.909 25.0414C100.714 25.0542 100.482 25.0606 100.239 25.0606V25.0542Z" fill="#E2725B"/>
<path d="M139.5 24.5023C138.678 24.5023 138.111 24.323 137.818 23.9644C137.635 23.7402 137.562 23.4585 137.611 23.119C137.812 20.1411 137.696 16.9198 137.58 13.801C137.459 10.4132 137.331 6.91007 137.611 3.68877C137.696 2.73455 138.367 2.11975 139.317 2.11975C139.744 2.11975 140.183 2.24783 140.555 2.47198L140.603 2.49759L140.628 2.54883C141.262 3.82966 141.871 5.12971 142.481 6.42335C143.498 8.58156 144.541 10.8038 145.686 12.9364C145.723 12.3536 145.735 11.7132 145.711 11.0344C145.711 10.8807 145.686 10.6693 145.674 10.5861L145.656 10.4324L145.619 10.1698C145.607 10.0353 145.601 9.8752 145.589 9.57421C145.583 9.33725 145.558 9.20277 145.558 8.96581C145.552 8.40224 145.558 7.83868 145.558 7.2687C145.558 7.2687 145.558 5.61643 145.564 5.23858C145.564 4.58536 145.571 3.92573 145.564 3.2725C145.564 3.21486 145.552 3.09959 145.546 3.02914C145.546 2.86904 145.534 2.77938 145.51 2.61927L145.485 2.40794V2.08132C145.497 1.59461 145.485 1.03744 145.979 0.8197C146.265 0.691617 147.6 0.557129 148.027 0.557129C148.082 0.557129 148.124 0.557129 148.161 0.557129C148.496 0.595554 148.746 0.736446 148.996 0.877338C149.075 0.922167 149.16 0.9734 149.252 1.01183L149.325 1.09508L149.355 1.19114C149.313 3.54788 149.331 5.94304 149.349 8.26776C149.361 10.1442 149.374 12.091 149.355 13.9995C149.331 16.8109 149.276 19.6352 149.227 22.2865C149.142 23.0934 148.295 23.4521 147.545 23.4521C147.003 23.4521 146.534 23.2727 146.296 22.9717C145.436 21.4924 144.693 19.9362 143.974 18.4312C143.181 16.7789 142.371 15.0818 141.42 13.5064C141.42 13.9355 141.42 14.3581 141.408 14.7872C141.402 15.4596 141.39 16.1385 141.408 16.8109C141.42 17.4706 141.444 18.1302 141.469 18.7898C141.499 19.6608 141.53 20.5382 141.542 21.4155C141.542 21.5884 141.566 21.7998 141.597 22.0175C141.694 22.8821 141.847 24.1885 140.634 24.3999C140.421 24.4383 139.988 24.5023 139.506 24.5023H139.5Z" fill="#E2725B"/>
<path d="M154.42 24.8107C154.018 24.8107 153.603 24.7851 153.189 24.7339C151.488 24.529 151.537 22.9791 151.58 21.6022C151.586 21.3333 151.598 21.0579 151.592 20.8017C151.592 20.5328 151.592 20.251 151.604 19.9692C151.622 19.2839 151.647 18.5731 151.464 17.9775C151.452 17.6829 151.458 17.4523 151.458 17.2154C151.458 16.9208 151.458 16.6326 151.458 16.338V15.9025C151.452 15.5055 151.421 15.0828 151.391 14.6665C151.36 14.2439 151.33 13.834 151.324 13.4561C151.312 12.7133 151.287 11.8743 151.263 10.9969C151.19 8.56975 151.104 5.81596 151.324 3.85628C151.415 3.03654 151.939 2.58185 152.927 2.46657C153.268 2.42815 153.628 2.40894 153.993 2.40894C157.126 2.40894 161.142 3.94594 162.763 6.87905C164.884 10.7216 164.872 15.7232 162.733 19.6234C160.929 22.9151 157.906 24.7979 154.432 24.7979L154.42 24.8107ZM155.511 13.4625C155.511 15.1084 155.529 16.8696 155.645 18.7012C155.669 19.0726 155.645 19.4056 155.627 19.6682C155.608 19.9628 155.59 20.2446 155.657 20.3278C155.688 20.3598 155.761 20.3726 155.816 20.3726C155.974 20.3726 156.224 20.315 156.571 20.1933C159.314 19.2455 160.027 16.0562 160.204 14.7306C160.362 13.565 160.362 13.0399 160.204 11.9063C160.124 11.3171 160.039 11.0738 159.887 10.6191L159.801 10.3565C159.753 10.2156 159.728 10.0811 159.698 9.94665C159.655 9.74812 159.619 9.55599 159.509 9.32544C158.765 7.76923 157.12 6.67412 155.486 6.6549V13.4561L155.511 13.4625Z" fill="#E2725B"/>
<path d="M184.137 23.926C182.979 23.926 182.346 23.4264 182.26 22.4466C182.169 21.3835 182.205 20.2372 182.242 19.0268C182.303 16.9646 182.37 14.832 181.761 13.1029C181.224 11.5979 180.475 10.0417 179.743 8.53674C179.048 7.0958 178.329 5.61003 177.799 4.16909C177.5 3.35576 177.36 2.76017 177.574 2.31188C177.787 1.85719 178.323 1.61383 179.122 1.37047L179.286 1.31923C179.573 1.22958 179.896 1.12711 180.206 1.12711C180.493 1.12711 180.743 1.21677 180.938 1.39608L180.962 1.4217L180.98 1.45372C181.608 2.73456 182.126 4.09865 182.626 5.4115C183.04 6.50021 183.473 7.62735 183.955 8.69044C183.967 8.71606 183.985 8.76089 184.003 8.81212C184.113 9.10671 184.192 9.25401 184.241 9.33086L187.337 1.33204C187.49 1.05026 187.77 0.915771 188.184 0.915771C189.08 0.915771 190.677 1.62663 190.89 2.11976C191.085 2.56164 190.963 2.93949 190.842 3.31093L190.799 3.45182C190.226 5.32184 189.3 7.27512 188.41 9.15794C187.624 10.8102 186.813 12.5265 186.246 14.166C186.338 15.2035 186.332 16.2602 186.325 17.2848C186.325 17.6307 186.325 17.9765 186.325 18.3159C186.325 19.0908 186.325 19.8657 186.325 20.6406C186.325 21.3067 186.325 21.9663 186.325 22.6323L186.277 22.8693C186.155 23.4521 186.069 23.6954 185.265 23.8171C184.924 23.8683 184.521 23.9196 184.131 23.9196L184.137 23.926Z" fill="#E2725B"/>
<path d="M190.732 3.24781C190.512 2.74829 187.959 1.62756 187.514 2.44729L184.369 10.5806C184.131 10.8111 183.869 9.96579 183.796 9.81209C182.723 7.44895 181.962 4.9129 180.822 2.57538C180.353 2.15911 179.688 2.43448 179.17 2.59459C177.555 3.08771 177.36 3.48477 177.97 5.13705C179.048 8.07656 180.877 11.1121 181.931 14.0709C182.912 16.8311 182.193 20.5455 182.443 23.4594C182.571 24.958 184.07 24.8363 185.247 24.6634C186.039 24.5417 185.996 24.3624 186.149 23.6707C186.149 22.2362 186.149 20.7888 186.149 19.3543C186.149 17.9646 186.203 16.5621 186.076 15.1788C187.282 11.6437 189.568 7.94848 190.64 4.42618C190.762 4.02272 190.921 3.66409 190.738 3.23501L190.732 3.24781Z" fill="#E2725B"/>
<path d="M53.3403 6.53863C53.3525 6.59627 53.3647 6.67312 53.3769 6.71795L53.3952 6.82041L53.4378 7.02535C53.4561 7.14703 53.4622 7.19186 53.4683 7.26871C53.4683 7.31354 53.4744 7.35196 53.4683 7.39679C53.4561 7.53768 53.45 7.64655 53.4439 7.75542C53.4317 8.00519 53.3952 8.31899 53.322 8.53033L53.2428 8.6328L53.1392 8.70965C53.0295 8.7865 52.8588 8.86335 52.6821 8.97222C52.548 9.05547 52.353 9.11311 52.2372 9.14513C51.9934 9.20917 50.8354 9.31804 50.232 9.31804C49.909 9.31804 49.8237 9.29243 49.7566 9.23479L49.7079 9.18996L49.6591 8.88896C49.4885 7.8771 49.2935 6.73716 48.2513 6.56425C48.1233 6.54504 48.0014 6.53223 47.8795 6.53223C47.2517 6.53223 46.7215 6.82682 46.4229 7.34556C46.0816 7.92834 46.0877 8.69684 46.4351 9.4013C46.8983 10.3427 48.3732 11.329 49.6774 12.1999C50.549 12.7827 51.3717 13.3335 51.902 13.8522C53.4256 15.3572 54.224 17.6435 53.9985 19.8145C53.7974 21.7165 52.8466 23.2855 51.323 24.227C50.5307 24.7137 49.3117 25.0083 48.0623 25.0083C47.2274 25.0083 46.4899 24.8802 45.9231 24.6304C44.2837 23.9132 41.6873 21.0185 42.3151 18.7834C42.5467 17.9637 44.5092 17.6947 44.8566 17.6755H44.9845C46.0267 17.6755 46.1303 18.3031 46.2279 18.9115C46.2644 19.1228 46.301 19.347 46.368 19.5711C46.7215 20.6662 47.5382 21.0505 48.1842 21.0505C48.6718 21.0505 49.1411 20.8327 49.4641 20.4549C49.8603 19.9938 50.0309 19.3278 49.9456 18.5336C49.8176 17.2848 48.3549 16.2538 46.8068 15.1651C45.143 13.9931 43.2659 12.6674 42.5954 10.7782C41.8763 8.74167 42.0713 6.73076 43.144 5.1105C44.2227 3.48384 46.0755 2.46558 47.9709 2.46558C49.8664 2.46558 51.6216 3.49665 52.7491 5.35386C52.8649 5.54598 52.9624 5.68688 53.0234 5.77013C53.066 5.82777 53.1331 5.95585 53.1636 6.03911C53.2245 6.1864 53.2611 6.28246 53.2915 6.36572" fill="#E2725B"/>
<path d="M79.4071 24.7392C77.3045 24.7392 77.0546 24.5919 76.9632 24.5343C76.4451 24.2269 76.4817 23.9003 76.5061 23.6377C76.5183 23.5416 76.5244 23.452 76.5061 23.3623C76.2379 21.9662 76.1952 20.4292 76.1587 18.937C76.1465 18.5336 76.1404 18.1365 76.1221 17.7459C76.0977 17.0798 76.0673 16.3818 76.0368 15.6581C75.8783 12.0782 75.7077 8.01793 75.9819 4.83505C76.0551 3.9961 76.311 3.41332 77.3106 3.29805C78.2979 3.18277 79.401 3.16356 80.3457 3.16356H82.168C82.5276 3.16997 82.8811 3.16356 83.2224 3.16356C83.393 3.16356 83.6551 3.13154 83.9598 3.09311C84.4413 3.04188 85.0325 2.97144 85.5444 2.97144C86.1295 2.97144 86.483 3.05469 86.6719 3.24041C87.0315 3.59904 87.0925 4.74539 87.0681 5.3666C87.0498 5.82129 86.9767 6.62822 86.6536 6.9036C86.422 7.10213 85.8735 7.18538 84.7643 7.18538C84.2585 7.18538 83.6917 7.16617 83.1188 7.15336C82.5459 7.13415 81.973 7.12134 81.4549 7.12134C80.7175 7.12134 80.2116 7.15977 79.913 7.23662V11.6491H84.0451C84.1366 11.6491 84.2706 11.6811 84.3925 11.822C84.8923 12.4112 84.7156 14.5054 84.7095 14.531C84.6546 15.0049 84.5083 15.5044 83.7892 15.6197C83.5698 15.6581 82.9359 15.6581 82.1985 15.6645C81.5159 15.6645 80.5224 15.6773 80.1872 15.7221C80.1872 16.0616 80.1872 16.4074 80.1872 16.7468C80.1872 17.1695 80.1811 17.5986 80.1872 18.0212C80.2177 19.9169 80.3152 20.474 80.3701 20.6406L86.7146 20.3396C86.9462 20.3908 87.0986 20.5253 87.2144 20.7366C87.6044 21.4475 87.5435 22.9653 87.4094 23.4456C87.2936 23.8619 86.7451 24.1821 86.3977 24.2525C85.3555 24.4574 83.6429 24.6047 81.3147 24.7008C80.9917 24.7136 80.2116 24.7392 79.4071 24.7392Z" fill="#E2725B"/>
<path d="M29.6261 16.1835C29.3884 16.1835 29.1751 16.113 28.9618 15.9529C28.4864 15.6135 28.2792 14.3006 28.4132 13.3976C28.5108 12.738 28.7789 12.3217 29.1812 12.2001C30.0649 12.1488 30.906 12.0976 31.7531 12.0464C33.1488 11.9631 34.5932 11.8734 36.0133 11.835C36.2692 11.8286 36.5618 11.8094 36.8604 11.7966C37.3053 11.771 37.7685 11.7454 38.2012 11.7454C38.5243 11.7454 38.7924 11.7582 39.0179 11.7902C39.5543 11.8606 39.9443 12.4626 40.0662 13.3976C40.1942 14.3775 39.9992 15.511 39.3653 15.7992C39.1093 15.9145 38.6462 15.9657 37.9087 15.9657C37.5004 15.9657 37.0676 15.9529 36.6654 15.9337C36.3241 15.9209 36.0133 15.9081 35.7634 15.9081C35.6903 15.9081 35.6232 15.9081 35.5623 15.9081L34.6176 15.9465C33.2707 15.9977 31.875 16.0554 30.4854 16.0554C30.3392 16.0554 30.2051 16.0874 30.0649 16.113C29.9247 16.145 29.7784 16.1771 29.62 16.1771L29.6261 16.1835Z" fill="#E2725B"/>
<path d="M16.2666 24.5845C15.8399 24.5845 15.0659 24.5141 14.682 24.0402C14.5052 23.8224 14.4382 23.5406 14.4869 23.2268C14.6698 20.2553 14.5601 17.066 14.4565 13.9856C14.3468 10.6362 14.2249 7.17157 14.4869 3.94386C14.5113 3.63006 14.5357 3.28423 14.682 3.03447C14.9197 2.60539 15.712 2.37484 16.3763 2.37484C16.6749 2.37484 17.2234 2.42607 17.4977 2.75268C18.3205 4.32171 19.0823 5.91635 19.8197 7.45335C20.7157 9.32337 21.636 11.2446 22.6355 13.089L22.4648 1.5551C22.6599 0.831432 24.0799 0.760986 24.6772 0.760986C25.1221 0.760986 25.5243 0.799411 25.7255 0.863453C26.2252 1.01715 26.341 1.72161 26.3654 1.92655C26.4995 3.14334 26.53 4.70596 26.4081 6.19813C26.3532 6.88978 26.3593 6.67204 26.3105 7.29965L26.2862 7.65188L26.2679 8.11298C26.2557 8.28589 26.2252 8.64453 26.2191 8.81103C26.2191 8.88148 26.2252 8.94552 26.2252 8.99676C26.213 10.2648 26.2191 11.5392 26.2252 12.8136C26.2252 13.4861 26.2313 16.7138 26.2313 16.7138C26.2313 18.6094 26.2374 20.5755 26.2008 22.5032C26.0424 23.3357 25.0611 23.4894 24.7625 23.515C24.6406 23.5278 24.5309 23.5342 24.4334 23.5342C23.5375 23.5342 23.2449 23.118 22.7696 22.3174C21.9285 20.9085 21.1849 19.3139 20.4719 17.7705C19.8563 16.4384 19.2164 15.0679 18.5216 13.8255L18.4485 13.6974C18.3997 13.6078 18.3509 13.5181 18.3022 13.4348L18.5033 23.6175C18.3205 24.2515 17.2295 24.5909 16.2788 24.5909L16.2666 24.5845Z" fill="#E2725B"/>
<path d="M67.7115 24.7329C66.4865 24.7329 66.2305 24.2078 66.1208 22.7284C65.9379 20.2628 65.9501 17.6563 65.9623 15.1395C65.9745 12.8788 65.9867 10.5413 65.8526 8.31904C65.8404 8.15894 65.81 8.00524 65.7856 7.84513C65.749 7.66582 65.7124 7.48009 65.7063 7.28797L61.9216 7.42246L61.8728 7.1855C61.69 6.34656 61.3121 4.61102 61.8119 3.77848C61.952 3.54793 62.1471 3.40064 62.397 3.33659L72.9468 2.70898C72.9834 2.70898 73.0199 2.70898 73.0565 2.70898C73.2759 2.70898 73.4465 2.76662 73.6111 2.8883C73.9524 3.13806 74.117 4.08588 74.1291 4.86079C74.1352 5.36672 74.0865 6.2633 73.672 6.58991C73.349 6.84608 72.5263 6.88451 71.3134 6.91012C70.771 6.92293 70.253 6.92934 69.9604 6.98697C69.8019 7.01899 69.7959 7.0254 69.7837 7.08304C69.8385 8.31904 69.8507 9.6319 69.8568 10.9063C69.8629 11.963 69.869 13.0133 69.8995 14.07C69.9299 15.0754 70.0031 16.1321 70.0701 17.1504C70.2103 19.1869 70.3566 21.2939 70.1859 23.3048C70.0762 24.5664 69.4058 24.6177 68.4733 24.6881C68.1564 24.7137 67.9187 24.7265 67.7054 24.7265L67.7115 24.7329Z" fill="#E2725B"/>
<path d="M57.5456 24.7072C56.8995 24.7072 56.4485 24.5599 56.1743 24.2525C55.7781 23.8106 55.8086 23.1382 55.8452 22.4209C55.8635 22.0943 55.8757 21.7549 55.8574 21.4219C55.5283 16.2665 55.5526 11.0151 55.577 5.93658V4.33554L55.5953 4.29071C55.6258 4.13701 55.6562 3.96409 55.7538 3.8168C55.9975 3.43895 56.6192 3.24683 57.5943 3.24683C58.0027 3.24683 58.3379 3.28525 58.4598 3.29806C58.8742 3.34929 59.3252 3.48378 59.4776 4.1242C59.5446 5.87254 59.5263 7.61447 59.5081 9.29877C59.4898 10.7205 59.4776 12.1935 59.5081 13.6408C59.5385 15.0049 59.6299 16.4074 59.7214 17.7651C59.8067 19.0523 59.892 20.3844 59.9286 21.6844C59.9652 22.914 59.9834 23.6825 59.5507 24.1629C59.2155 24.5279 58.6426 24.688 57.6248 24.7072H57.5578H57.5456Z" fill="#E2725B"/>
</g>
<defs>
<clipPath id="clip0_144_2125">
<rect width="191" height="27" fill="white"/>
</clipPath>
</defs>
</svg>
