<svg width="35" height="23" viewBox="0 0 35 23" fill="none" xmlns="http://www.w3.org/2000/svg">
<path d="M4.34335 0.884145C3.46063 -0.176628 1.90098 -0.298175 0.866635 0.602377C-0.17313 1.50845 -0.29227 3.09961 0.590447 4.15486L6.15752 10.8013L0.834142 17.956C0.0109948 19.0665 0.222197 20.6466 1.30529 21.4864C1.74935 21.8289 2.27465 22.0002 2.79453 22.0002C3.54186 22.0002 4.27836 21.6576 4.76034 21.0057L11.2859 12.2322C11.99 11.2875 11.952 9.97254 11.1939 9.07199L4.34335 0.884145Z" fill="#E2725B"/>
<path d="M23.0917 9.06663L16.2303 0.884309C15.3422 -0.170939 13.788 -0.298011 12.7482 0.608066C11.7139 1.51414 11.5893 3.09978 12.4774 4.16055L18.0445 10.807L12.7211 17.9672C11.898 19.0777 12.1092 20.6578 13.1923 21.4976C13.6363 21.8401 14.1616 22.0114 14.6815 22.0114C15.4288 22.0114 16.1653 21.6688 16.6473 21.0169L23.1783 12.2434C23.8823 11.2987 23.8444 9.98376 23.0863 9.0832L23.0917 9.06663Z" fill="#E2725B"/>
<path d="M34.4101 9.06663L27.5487 0.884309C26.666 -0.170939 25.1063 -0.298011 24.0666 0.608066C23.0322 1.51414 22.9077 3.09978 23.7958 4.16055L29.3629 10.807L24.0395 17.9672C23.2163 19.0777 23.4275 20.6578 24.516 21.4976C24.9601 21.8401 25.4854 22.0114 26.0053 22.0114C26.7526 22.0114 27.4891 21.6688 27.9765 21.0169L34.5021 12.2434C35.2061 11.2987 35.1682 9.98376 34.4101 9.0832V9.06663Z" fill="#E2725B"/>
<g style="mix-blend-mode:multiply" opacity="0.2">
<path d="M7.25698 7.68537C4.94458 5.64669 2.65927 3.1605 1.42996 0.248901C1.22959 0.342824 1.04005 0.453321 0.866757 0.608017C-0.173008 1.50857 -0.292148 3.09973 0.590569 4.15498L6.15764 10.8014L0.834264 17.9561C0.0111169 19.0666 0.222319 20.6467 1.30541 21.4865C1.74947 21.829 2.27477 22.0003 2.79465 22.0003C3.54199 22.0003 4.27848 21.6577 4.76046 21.0058L11.2861 12.2323C11.546 11.8843 11.7031 11.4865 11.7626 11.0776C10.1597 10.0611 8.64333 8.91741 7.25156 7.69089L7.25698 7.68537Z" fill="#E2725B"/>
<path d="M18.781 14.3318C17.8875 14.0721 16.9994 13.7406 16.1329 13.3705L12.7212 17.9561C11.898 19.0666 12.1092 20.6467 13.1923 21.4865C13.6364 21.829 14.1617 22.0003 14.6816 22.0003C15.4289 22.0003 16.1654 21.6578 16.6474 21.0058L21.1909 14.8953C20.3786 14.7517 19.5717 14.5639 18.7756 14.3318H18.781Z" fill="#E2725B"/>
<path d="M26.0323 15.2766L24.034 17.9561C23.2109 19.0666 23.4221 20.6467 24.5106 21.4865C24.9546 21.8291 25.4799 22.0003 25.9998 22.0003C26.7472 22.0003 27.4837 21.6578 27.971 21.0059L32.9912 14.26C30.7113 14.8843 28.3718 15.2379 26.0323 15.2766Z" fill="#E2725B"/>
</g>
</svg>
