<svg width="35" height="22" viewBox="0 0 35 22" fill="none" xmlns="http://www.w3.org/2000/svg">
<g clip-path="url(#clip0_141_1164)">
<path d="M34.6521 10.1645L26.3878 0.492979C26.0011 0.0394725 25.3729 -0.118269 24.8219 0.0986256C24.271 0.31552 23.9133 0.862686 23.9278 1.46407L24.0921 8.79412L1.51757 6.99981C1.1261 6.97024 0.744301 7.10333 0.459159 7.37445C0.169184 7.64557 0.00486445 8.02513 0.00486445 8.42442V13.1912C3.15272e-05 13.5904 0.164351 13.97 0.449493 14.2411C0.710471 14.4876 1.04877 14.6207 1.40158 14.6207C1.43541 14.6207 1.47407 14.6207 1.5079 14.6207L24.184 12.8264L24.3579 20.605C24.3724 21.2015 24.7446 21.724 25.2955 21.9212C25.4502 21.9754 25.6048 22 25.7595 22C26.1655 22 26.5618 21.8226 26.8324 21.4923L34.6666 12.0278C35.1112 11.4905 35.1064 10.6969 34.6521 10.1645Z" fill="#E2725B"/>
<g opacity="0.2" style="mix-blend-mode:multiply">
<path d="M34.3234 9.77998C27.364 12.3433 19.3897 11.944 12.1935 10.7807C8.4818 10.1793 4.53331 9.3807 1.22276 7.47301C1.05844 7.37935 0.898954 7.28076 0.739468 7.17725C0.637977 7.23147 0.541318 7.29555 0.459159 7.37935C0.169184 7.64554 0.00486445 8.02511 0.00486445 8.42439V13.1911C3.15272e-05 13.5904 0.164351 13.97 0.449493 14.2411C0.710471 14.4876 1.04877 14.6207 1.40158 14.6207C1.43541 14.6207 1.47407 14.6207 1.5079 14.6207L24.184 12.8264L24.3579 20.605C24.3724 21.2014 24.7446 21.724 25.2955 21.9211C25.4502 21.9754 25.6048 22 25.7595 22C26.1655 22 26.5618 21.8226 26.8324 21.4923L34.6666 12.0278C35.1112 11.4905 35.1064 10.6969 34.6521 10.1645L34.3186 9.77505L34.3234 9.77998Z" fill="#E2725B"/>
</g>
<path d="M29.8191 7.29561C29.5727 7.42871 29.2585 7.37448 29.0749 7.1428C28.6544 6.62028 24.9282 2.53872 24.8702 2.46971C24.6528 2.21338 24.6721 1.82888 24.9234 1.60706C25.1747 1.38031 25.5517 1.40988 25.7692 1.66128C26.0011 1.9324 29.5678 5.82664 30.0028 6.36888C30.2106 6.63014 30.1768 7.01463 29.9206 7.23153C29.8868 7.25618 29.8578 7.28082 29.824 7.30054L29.8191 7.29561Z" fill="#E2725B"/>
<path d="M32.3612 10.1646C32.1292 10.3272 31.8103 10.3075 31.6024 10.1005C31.1288 9.63218 30.7132 9.04065 30.6504 8.98149C30.4039 8.75474 30.3846 8.36532 30.6069 8.11392C30.8292 7.86251 31.211 7.8428 31.4575 8.06955C31.7184 8.31109 31.9504 8.73009 32.4434 9.21811C32.6802 9.45472 32.685 9.83921 32.4579 10.0857C32.4289 10.1153 32.3999 10.1399 32.366 10.1646H32.3612Z" fill="#E2725B"/>
</g>
<defs>
<clipPath id="clip0_141_1164">
<rect width="35" height="22" fill="white"/>
</clipPath>
</defs>
</svg>
