<svg width="35" height="20" viewBox="0 0 35 20" fill="none" xmlns="http://www.w3.org/2000/svg">
<g clip-path="url(#clip0_141_1174)">
<path d="M15.54 7.92358C14.4187 7.92358 13.5076 8.85548 13.5076 10.0024C13.5076 11.1494 14.4187 12.0813 15.54 12.0813C16.6614 12.0813 17.5724 11.1494 17.5724 10.0024C17.5724 8.85548 16.6614 7.92358 15.54 7.92358Z" fill="#E2725B"/>
<path d="M8.76523 7.92358C7.64388 7.92358 6.73279 8.85548 6.73279 10.0024C6.73279 11.1494 7.64388 12.0813 8.76523 12.0813C9.88657 12.0813 10.7977 11.1494 10.7977 10.0024C10.7977 8.85548 9.88657 7.92358 8.76523 7.92358Z" fill="#E2725B"/>
<path d="M22.511 12.0764C23.6323 12.0764 24.5434 11.1445 24.5434 9.99755C24.5434 8.8506 23.6323 7.9187 22.511 7.9187C21.3896 7.9187 20.4785 8.8506 20.4785 9.99755C20.4785 11.1445 21.3896 12.0764 22.511 12.0764Z" fill="#E2725B"/>
<path d="M32.9676 7.92358C31.8463 7.92358 30.9352 8.85548 30.9352 10.0024C30.9352 11.1494 31.8463 12.0813 32.9676 12.0813C34.089 12.0813 35.0001 11.1494 35.0001 10.0024C35.0001 8.85548 34.089 7.92358 32.9676 7.92358Z" fill="#E2725B"/>
<path d="M22.8988 0C21.7774 0 20.8663 0.9319 20.8663 2.07885C20.8663 3.22581 21.7774 4.15771 22.8988 4.15771C24.0201 4.15771 24.9312 3.22581 24.9312 2.07885C24.9312 0.9319 24.0201 0 22.8988 0Z" fill="#E2725B"/>
<path d="M28.3233 3.96179C27.202 3.96179 26.2909 4.89369 26.2909 6.04065C26.2909 7.1876 27.202 8.1195 28.3233 8.1195C29.4447 8.1195 30.3558 7.1876 30.3558 6.04065C30.3558 4.89369 29.4447 3.96179 28.3233 3.96179Z" fill="#E2725B"/>
<path d="M28.3233 11.8853C27.202 11.8853 26.2909 12.8172 26.2909 13.9641C26.2909 15.1111 27.202 16.043 28.3233 16.043C29.4447 16.043 30.3558 15.1111 30.3558 13.9641C30.3558 12.8172 29.4447 11.8853 28.3233 11.8853Z" fill="#E2725B"/>
<path d="M22.8988 15.847C21.7774 15.847 20.8663 16.7789 20.8663 17.9259C20.8663 19.0729 21.7774 20.0048 22.8988 20.0048C24.0201 20.0048 24.9312 19.0729 24.9312 17.9259C24.9312 16.7789 24.0201 15.847 22.8988 15.847Z" fill="#E2725B"/>
<path d="M2.03244 7.92358C0.911093 7.92358 0 8.85548 0 10.0024C0 11.1494 0.911093 12.0813 2.03244 12.0813C3.15378 12.0813 4.06488 11.1494 4.06488 10.0024C4.06488 8.85548 3.15378 7.92358 2.03244 7.92358Z" fill="#E2725B"/>
<g style="mix-blend-mode:multiply" opacity="0.2">
<path d="M13.8253 11.1015C14.1851 11.6846 14.8158 12.0812 15.54 12.0812C16.4231 12.0812 17.166 11.503 17.4463 10.6953C16.2596 10.9008 15.0448 11.0346 13.8253 11.1015Z" fill="#E2725B"/>
<path d="M6.91495 10.8483C7.23267 11.5699 7.93818 12.0765 8.76517 12.0765C9.47536 12.0765 10.1014 11.6989 10.4612 11.135C9.2651 11.092 8.07367 10.9964 6.91028 10.8483H6.91495Z" fill="#E2725B"/>
<path d="M20.4833 9.98328C20.4833 9.98328 20.4833 9.99284 20.4833 10.0024C20.4833 11.1493 21.3944 12.0812 22.5157 12.0812C23.6371 12.0812 24.5482 11.1493 24.5482 10.0024C24.5482 9.46237 24.3426 8.97969 24.0155 8.60693C22.9035 9.16129 21.7214 9.62008 20.4879 9.98328H20.4833Z" fill="#E2725B"/>
<path d="M32.9676 7.92346C31.8463 7.92346 30.9352 8.85536 30.9352 10.0023C30.9352 11.1493 31.8463 12.0812 32.9676 12.0812C34.089 12.0812 35.0001 11.1493 35.0001 10.0023C35.0001 8.85536 34.089 7.92346 32.9676 7.92346Z" fill="#E2725B"/>
<path d="M29.4213 4.29628C28.599 5.34766 27.6412 6.27478 26.5665 7.06331C26.9169 7.68935 27.5664 8.11468 28.3233 8.11468C29.4446 8.11468 30.3557 7.18278 30.3557 6.03583C30.3557 5.30465 29.982 4.66426 29.4213 4.2915V4.29628Z" fill="#E2725B"/>
<path d="M28.3233 11.8853C27.202 11.8853 26.2909 12.8172 26.2909 13.9641C26.2909 15.1111 27.202 16.043 28.3233 16.043C29.4447 16.043 30.3558 15.1111 30.3558 13.9641C30.3558 12.8172 29.4447 11.8853 28.3233 11.8853Z" fill="#E2725B"/>
<path d="M22.8988 15.847C21.7774 15.847 20.8663 16.7789 20.8663 17.9259C20.8663 19.0729 21.7774 20.0048 22.8988 20.0048C24.0201 20.0048 24.9312 19.0729 24.9312 17.9259C24.9312 16.7789 24.0201 15.847 22.8988 15.847Z" fill="#E2725B"/>
<path d="M0.130824 9.29028C0.051395 9.51489 0 9.74906 0 9.99757C0 11.1445 0.911093 12.0764 2.03244 12.0764C3.03698 12.0764 3.86397 11.3309 4.0275 10.356C2.65852 10.0693 1.34561 9.71083 0.130824 9.29028Z" fill="#E2725B"/>
</g>
</g>
<defs>
<clipPath id="clip0_141_1174">
<rect width="35" height="20" fill="white"/>
</clipPath>
</defs>
</svg>
