<svg width="35" height="35" viewBox="0 0 35 35" fill="none" xmlns="http://www.w3.org/2000/svg">
<g clip-path="url(#clip0_141_1172)">
<path d="M17.4471 0C8.41687 0 0.919887 6.76435 0.00523482 15.7274C-0.0793573 16.5637 0.533936 17.3159 1.37457 17.4001C2.22578 17.4842 2.97125 16.8741 3.05584 16.0377C3.80659 8.63691 9.9924 3.0508 17.4418 3.0508C25.4305 3.0508 31.9282 9.52059 31.9282 17.479C31.9282 25.4373 25.1714 31.8913 16.5324 31.9124L14.1744 31.7914C14.1744 31.7914 14.1215 31.7914 14.0951 31.7914C10.4841 31.7914 7.5498 28.8458 7.5498 25.3111C7.5498 21.7764 10.3889 18.8308 14.0105 18.8308H14.4441L14.4335 24.0382C14.4335 24.459 14.6767 24.8798 15.0626 25.0639C15.2107 25.1323 15.3746 25.1901 15.5332 25.1901C15.7817 25.1901 16.0302 25.1165 16.2311 24.9482L23.8073 18.7414C24.0611 18.5362 24.2039 18.2311 24.2039 17.905C24.2039 17.5789 24.0611 17.2738 23.8073 17.0687L16.2575 10.8093C15.9297 10.5358 15.475 10.4832 15.0944 10.6567C14.7084 10.8356 14.4652 11.3563 14.4599 11.7824L14.4493 16.206H14.0052C8.74995 16.206 4.47804 20.3088 4.47804 25.5267C4.47804 30.7447 8.76581 34.8948 14.0475 34.9158L16.4108 35C16.4108 35 16.4637 34.9842 16.4901 34.9842C26.8632 34.9842 34.9894 27.2941 34.9894 17.4895C34.9894 7.68485 27.1276 0 17.4471 0Z" fill="#E2725B"/>
</g>
<defs>
<clipPath id="clip0_141_1172">
<rect width="35" height="35" fill="white"/>
</clipPath>
</defs>
</svg>
