<svg width="40" height="25" viewBox="0 0 40 25" fill="none" xmlns="http://www.w3.org/2000/svg">
<path d="M30.4041 0.222153C30.6159 0.252037 30.8285 0.282721 31.0411 0.313673C31.3486 0.358499 31.824 0.460158 32.4649 0.61785C34.6389 1.1515 36.4669 2.19077 37.951 3.73674C38.6206 4.43368 39.1821 5.33314 39.6361 6.43378C39.7397 6.68566 39.7701 6.94608 39.8469 7.14753C39.888 7.25586 39.914 7.35192 39.9225 7.4349C40.0077 8.24364 40.023 8.88935 39.9666 9.37363C39.8134 10.7013 39.2481 11.8263 38.4288 12.9253C37.8282 13.7295 37.1229 14.4795 36.3134 15.1765C35.3774 15.9796 34.5313 16.6253 33.7744 17.1123C33.5799 17.2364 33.1209 17.5264 32.3967 17.9819C31.7988 18.3578 31.3332 18.6358 30.9989 18.8178C29.7448 19.4998 28.9707 19.9113 28.6748 20.0521C28.1947 20.2808 27.3842 20.6576 26.2432 21.1848C25.879 21.3526 25.5705 21.4834 25.3186 21.5768C24.9125 21.7278 24.5177 21.9388 24.0848 22.0992C23.1219 22.4546 22.5653 22.6617 22.4149 22.7214C21.6397 23.0275 20.9643 23.2057 20.1211 23.5062C19.9036 23.5835 19.5931 23.6769 19.1889 23.7842C17.9425 24.1145 17.0256 24.3813 15.9572 24.5305C15.2922 24.6239 14.7327 24.7544 14.0967 24.8112C13.3368 24.8784 12.4737 24.9764 11.6851 24.9902C10.7364 25.007 9.80424 25.0022 8.88739 24.9753C8.67942 24.9689 8.12289 24.908 7.21947 24.7925C6.24699 24.6674 5.12984 24.3466 3.86718 23.8298C3.65153 23.7412 3.24736 23.492 2.6522 23.0806C2.06691 22.6758 1.55999 22.1803 1.12978 21.5944C0.685333 20.9871 0.539558 20.4897 0.2291 19.6855C0.211015 19.638 0.197588 19.5884 0.188819 19.5382C0.107437 19.0289 -0.0018932 18.5707 2.48932e-05 18.1193C0.00468313 17.386 -0.0142247 16.6816 0.137853 15.9652C0.215399 15.6005 0.273764 15.3299 0.314044 15.1546C0.418443 14.6994 0.594634 14.1722 0.844809 13.5724C1.13033 12.8896 1.61808 12.0226 2.30695 10.9732C2.40176 10.8286 2.48615 10.7166 2.55904 10.6392C2.68454 10.5058 2.75249 10.3417 2.87909 10.1821C3.54796 9.33494 4.22998 8.56996 4.92652 7.88797C5.14984 7.66971 5.33754 7.49894 5.48989 7.37567C5.78884 7.13499 5.95846 6.92314 6.26206 6.72062C6.3914 6.6339 6.65692 6.43432 7.05835 6.11973C8.12371 5.28671 9.27731 4.55989 10.52 3.94033C11.7684 3.3181 13.0713 2.7591 14.4299 2.26388C14.5765 2.21078 15.2788 1.99519 16.5357 1.61737C17.3531 1.37189 18.0619 1.18271 18.6645 1.0493C19.906 0.774209 20.6631 0.617317 20.9361 0.581029C21.6825 0.481237 22.1949 0.408395 22.4727 0.362768C23.061 0.266712 23.5373 0.20134 23.9012 0.16692C24.6158 0.0996811 25.2214 0.0297732 25.8231 0.0148312C26.6021 -0.00384642 27.3521 -0.00464647 28.0717 0.0110961C28.7394 0.0268386 29.5174 0.097013 30.4035 0.222953M24.4045 1.79507C24.3681 1.9042 24.4245 2.02187 24.5339 2.06083C24.7591 2.14301 25.0904 2.28016 25.5263 2.47307C25.8299 2.60648 26.1404 2.77991 26.4596 2.99364C27.7579 3.86401 28.8501 4.8027 29.7851 6.01087C29.9067 6.16856 30.0103 6.32145 30.0955 6.469C30.3599 6.93087 30.6178 7.2556 30.3945 7.76496C30.2249 8.15399 29.5867 8.15319 29.2842 7.97495C29.2603 7.96107 29.2392 7.9424 29.2228 7.92078C28.9162 7.52242 28.4871 6.82094 28.0703 6.35907C27.4225 5.64345 26.7769 5.06978 26.133 4.63673C25.8102 4.41927 25.5159 4.22262 25.2515 4.04439C24.9956 3.87175 24.6862 3.70099 24.3231 3.53022C23.7398 3.25593 23.3411 3.07769 23.1254 2.99471C22.4604 2.73802 21.6556 2.50402 20.7119 2.29029C20.4015 2.22039 20.1735 2.20358 20.0288 2.24173C19.7682 2.30977 19.5411 2.36314 19.3465 2.40129C18.6834 2.53204 17.9984 2.73722 17.4503 2.84822C17.0892 2.92186 16.6905 3.02913 16.2545 3.17188C16.1022 3.22124 15.487 3.41815 14.4101 3.76155C14.2778 3.80345 14.0767 3.8979 13.8076 4.04412C13.7742 4.0628 13.7577 4.10015 13.7665 4.13644C13.8164 4.34456 14.0663 4.37631 14.2715 4.36697C14.3425 4.36431 14.4123 4.37525 14.4784 4.40059C14.7274 4.49478 15.1511 4.56015 15.4278 4.65248C15.7986 4.77655 16.1063 4.8726 16.3504 4.93984C16.6436 5.02096 16.9464 5.12929 17.2588 5.26643C18.057 5.61624 18.7045 5.92895 19.2026 6.20592C20.3678 6.85536 21.3928 7.67531 22.2771 8.66602C22.6106 9.0393 22.8117 9.26317 22.8816 9.33868C23.1164 9.59163 23.3655 9.93583 23.628 10.3734C23.6422 10.3966 23.6529 10.4228 23.6595 10.4489C23.7784 10.9276 23.6145 11.2337 23.169 11.3652C22.8558 11.4586 22.5903 11.4082 22.3738 11.215C22.35 11.1936 22.3289 11.1693 22.3116 11.1421C21.7071 10.2035 20.955 9.3771 20.0562 8.66228C19.055 7.86555 18.0249 7.24412 16.9664 6.79906C16.1625 6.46233 15.4413 6.20111 14.8012 6.01621C13.8525 5.74298 12.768 5.54606 11.5483 5.42573C11.2935 5.40065 11.0951 5.41932 10.9524 5.48176C10.204 5.80835 9.47022 6.22913 8.75175 6.74303C8.03603 7.25613 7.63652 7.5443 7.55514 7.607C7.26112 7.83193 7.13562 7.97095 6.90161 8.11183C6.81064 8.16679 6.75419 8.2351 6.73008 8.31808C6.70432 8.40774 6.77228 8.49712 6.86791 8.50006C7.91026 8.52807 8.97946 8.69697 10.0747 9.00755C10.1936 9.04117 10.5816 9.16978 11.2379 9.39471C11.6911 9.54947 12.0676 9.70449 12.3674 9.85845C13.2354 10.3035 14.021 10.8043 14.7233 11.3615C15.35 11.8578 15.9679 12.4744 16.5762 13.2124C16.7927 13.4755 16.902 13.6844 16.9048 13.8384C16.9086 14.0884 16.805 14.2954 16.5935 14.4587C16.2907 14.6919 15.9726 14.6725 15.6383 14.4008C15.4141 14.2189 15.2599 13.9203 15.0204 13.6882C14.3268 13.0166 13.912 12.6254 13.7769 12.5155C13.5459 12.3271 13.1502 12.0592 12.5918 11.7123C12.2038 11.4717 11.7774 11.2571 11.3108 11.0696C10.1706 10.6096 9.10825 10.3083 8.12235 10.1645C7.43347 10.0647 6.58567 9.99853 5.57676 9.96678C5.33425 9.95931 5.0575 10.0292 4.90131 10.2011C4.16832 11.0042 3.52357 11.8906 2.96513 12.8599C1.9458 14.6306 1.33721 16.5405 1.59424 18.5304C1.66219 19.0614 1.83674 19.622 2.11733 20.2125C2.35682 20.7163 2.72482 21.1744 3.22188 21.5877C3.92884 22.1763 4.67141 22.5926 5.44934 22.837C6.03655 23.0227 6.849 23.2121 7.88861 23.405C8.24209 23.4712 8.65804 23.5142 9.13702 23.5347C9.97523 23.571 10.3939 23.5889 10.395 23.5889C10.6652 23.5971 11.3157 23.5657 12.3457 23.4936C13.1801 23.4349 13.7281 23.337 14.7938 23.2111C15.062 23.1793 15.3667 23.1281 15.7068 23.0582C16.5546 22.8837 17.1851 22.7719 17.963 22.5515C19.652 22.0739 20.9446 21.6744 21.8403 21.3526C23.6118 20.7155 25.6458 19.8384 27.9423 18.7218C28.5909 18.4064 29.3039 17.9837 30.1402 17.5379C31.4604 16.8353 32.7683 16.0031 34.0627 15.0393C34.9795 14.3573 35.8208 13.598 36.5864 12.7631C37.4591 11.8097 38.034 10.7462 38.3091 9.57322C38.4949 8.77915 38.4757 8.03472 38.2507 7.33964C37.9633 6.45139 37.5054 5.64639 36.8768 4.9233C36.5261 4.51933 35.9734 4.04812 35.6638 3.7749C35.5794 3.69938 35.3064 3.52115 34.8445 3.23858C34.5102 3.0342 34.2342 2.91386 33.8125 2.68546C33.5884 2.56512 33.1946 2.41223 32.6321 2.22839C32.3438 2.1342 31.8358 2.00266 31.1069 1.83456C30.5972 1.71689 30.0377 1.68167 29.616 1.6163C29.2414 1.5576 28.8668 1.52585 28.4912 1.52024C27.2515 1.50077 26.0366 1.53038 24.8465 1.6099C24.7525 1.6163 24.6405 1.63604 24.5111 1.66966C24.4804 1.67714 24.4536 1.69661 24.4374 1.72383C24.424 1.74518 24.4125 1.76866 24.404 1.79561L24.4045 1.79507Z" fill="#F5F5F0"/>
</svg>
