<svg width="45" height="32" viewBox="0 0 45 32" fill="none" xmlns="http://www.w3.org/2000/svg">
<path d="M10.7955 27.03C10.3451 27.3058 10.0378 27.5012 9.87531 27.6144C9.44504 27.9173 9.14514 28.1216 8.97489 28.2277C8.02503 28.8224 7.08059 29.4466 6.141 30.0984C5.8018 30.3335 5.48234 30.4949 4.98219 30.7658C4.49426 31.0306 3.98122 31.1376 3.44268 31.0841C1.57528 30.9018 0.179712 29.7009 0.00893229 27.8848C-0.0163154 27.6187 0.0120691 27.3077 0.0924013 26.9491C0.233352 26.3253 0.410143 25.8839 0.78711 25.3679C0.904871 25.2065 1.09808 25.0262 1.36658 24.8246C1.81505 24.4891 2.09277 24.2871 2.19863 24.2179C2.95764 23.7215 3.70163 23.2412 4.43087 22.7753C4.74455 22.5748 5.10702 22.2871 5.4969 22.0688C5.69543 21.9582 6.07896 21.7269 6.64599 21.3762C6.73456 21.3217 6.77032 21.2151 6.73232 21.1201C6.6266 20.8595 6.43465 20.676 6.30244 20.4783C6.08287 20.1502 5.88514 19.863 5.71062 19.6162C5.558 19.3999 5.47279 19.164 5.36292 18.9946C5.34084 18.96 5.32507 18.922 5.31717 18.8824C5.21676 18.3922 5.26452 17.8688 5.46194 17.3125C5.46967 17.2885 5.48174 17.2665 5.49691 17.2448C5.77188 16.8605 6.13223 16.5309 6.57966 16.2587C6.8441 16.0966 7.02305 15.9846 7.11797 15.9215C7.84928 15.4315 8.79885 14.7986 9.96371 14.0233C10.2123 13.8584 10.4725 13.6955 10.7423 13.5348C11.0819 13.3327 11.3246 13.134 11.7533 12.8508C16.9446 9.41858 22.4662 5.79104 28.3197 1.96634C28.754 1.68207 29.0692 1.51997 29.263 1.48051C30.1488 1.2961 31.04 1.37927 31.624 2.12044C32.1298 2.76253 32.5622 3.37299 32.9226 3.95116C32.9615 4.01337 33.044 4.03699 33.1121 4.00381C33.2664 3.92836 33.3914 3.8563 33.4886 3.78609C33.6696 3.65654 33.9984 3.43641 34.4739 3.12582C35.0316 2.76162 36.2725 1.92951 38.1942 0.629632C38.7232 0.271677 39.3329 0.0495664 40.0098 0.00865811C40.8157 -0.0391305 41.576 0.111076 42.2908 0.460206C43.1329 0.870835 43.8178 1.76369 44.0458 2.61499C44.3058 3.58746 44.1621 4.50154 43.6142 5.35864C43.1242 6.1256 42.1484 6.56219 41.4352 7.04821C40.5801 7.63193 39.6295 8.26016 38.5854 8.93293C38.2688 9.13715 38.0861 9.25702 38.0385 9.29366C37.836 9.44802 37.6234 9.56966 37.3999 9.66085C37.2707 9.71339 37.226 9.86706 37.3076 9.97826C37.7561 10.5917 38.1292 11.2073 38.4292 11.8243C38.605 12.1855 38.6521 12.626 38.5701 13.1441C38.4573 13.8565 38.1635 14.2026 37.5552 14.6126C36.4058 15.3877 34.5592 16.5879 31.2801 18.7587C30.5021 19.274 29.5208 19.918 28.3363 20.6918C27.5399 21.211 26.9072 21.6219 26.4411 21.9224C26.2841 22.0237 26.115 22.1418 25.9352 22.2749C25.7705 22.3981 25.6028 22.5156 25.4326 22.6281C22.955 24.2649 21.0571 25.5096 19.7373 26.3635C18.783 26.9816 17.6297 27.7539 15.8061 28.9544C15.6285 29.071 15.3971 29.187 15.1099 29.3046C14.1678 29.6915 13.2722 29.5733 12.4223 28.9509C12.3962 28.9325 12.3727 28.91 12.352 28.8863L11.8266 28.2778C11.8194 28.2692 11.8123 28.2603 11.8053 28.2506L11.0162 27.0772C10.968 27.006 10.8695 26.9858 10.796 27.0304M34.1243 5.52776L36.1153 8.35739C36.1857 8.45596 36.3249 8.48274 36.4279 8.41693L41.5611 5.09903C42.4886 4.49925 42.7582 3.32778 42.1624 2.48185L42.0739 2.35547C41.4781 1.50954 40.2444 1.30962 39.3157 1.90918L34.1837 5.2273C34.0806 5.29399 34.0541 5.42773 34.1243 5.52746M30.5393 3.35979C30.2994 3.03432 29.9384 2.85789 29.56 3.1155C29.1371 3.40277 28.8091 3.61548 28.5747 3.75247C28.292 3.91753 28.0571 4.1313 27.7235 4.31574C27.5697 4.39976 27.3542 4.53689 27.0763 4.72794C26.3498 5.22726 25.7189 5.60554 25.0622 6.03809C23.6309 6.97928 21.9311 8.09749 19.9631 9.39191C19.8206 9.48647 19.6956 9.57033 19.588 9.64348C18.2424 10.5571 16.9253 11.4197 15.6362 12.2336C15.2051 12.5058 14.8168 12.8036 14.3048 13.1021C14.2517 13.1326 14.2022 13.207 14.1533 13.237C13.1699 13.8574 12.563 14.2486 12.3317 14.4104C11.7962 14.7859 11.4921 14.9872 11.4222 15.0134C11.3223 15.0511 11.2168 15.1779 11.121 15.2408C9.87274 16.0485 8.59871 16.8873 7.30024 17.7566C6.77327 18.1104 6.98536 18.6977 7.29644 19.1409C8.76745 21.236 10.2064 23.2661 11.612 25.2297C12.478 26.4393 13.0671 27.251 13.3805 27.6654C13.6323 27.9984 13.9453 28.0789 14.3195 27.9086C14.4428 27.8519 14.5746 27.7787 14.7163 27.6885C17.3651 25.9966 20.8178 23.7305 25.0767 20.8887C28.7773 18.4195 30.8097 17.0661 31.1746 16.8284C31.2388 16.7863 31.5153 16.602 32.0051 16.2762C33.7319 15.1257 35.206 14.1682 36.4287 13.4023C36.7465 13.2035 37.0119 12.7995 36.8831 12.4236C36.8023 12.1876 36.6643 11.9347 36.4704 11.6634C35.0672 9.70545 34.342 8.69323 34.2952 8.62624C32.8494 6.54941 31.5983 4.79398 30.5403 3.35967M9.7228 25.304L7.9865 22.9009C7.84951 22.7117 7.57978 22.6634 7.3842 22.7933L2.51174 26.028C1.61591 26.6221 1.38654 27.7925 2.00036 28.6417L2.00959 28.6562C2.62371 29.5054 3.84746 29.7111 4.74298 29.1169L9.61452 25.882C9.81108 25.752 9.85948 25.4931 9.72244 25.3042L9.7228 25.304Z" fill="#F5F5F0"/>
</svg>
