<svg width="243" height="94" viewBox="0 0 243 94" fill="none" xmlns="http://www.w3.org/2000/svg">
<path d="M117.439 14.8739C117.163 13.9322 117.19 12.8838 117.272 11.7257C117.628 6.14155 122.837 2.32744 128.127 4.33739C133.826 6.49031 133.057 13.3942 130.115 17.6774C129.376 18.7585 126.932 20.426 127.449 21.8122C127.635 22.2974 130.476 26.2784 130.789 26.4202C131.511 26.7326 131.315 25.9575 131.457 25.6004C131.712 24.8998 132.769 21.3249 132.948 21.1891C133.487 20.8093 137.294 21.9595 137.401 23.2993C137.557 25.164 134.613 29.5577 134.689 31.2282C134.721 32.0013 137.359 34.6552 137.993 35.4218C137.23 36.2819 134.797 39.2328 133.719 38.93C133.009 38.7281 131.016 35.9166 130.674 35.9124C127.718 39.1329 124.915 38.6987 121.051 38.8173C120.928 38.8158 120.942 38.8436 120.668 38.785L119.55 38.4127C118.761 37.9753 117.768 37.4113 117.078 36.7268C114.385 34.0447 113.856 30.2022 114.804 26.6122C114.89 26.2683 115.116 25.7053 115.355 25.2252L115.69 24.7325C116.066 24.2266 117.468 22.6292 117.995 22.125C118.549 21.6074 119.652 20.9999 119.678 19.9791C119.704 18.9583 117.969 16.3982 117.572 15.2619C117.573 15.1377 117.479 14.9848 117.44 14.8601L117.439 14.8739ZM124.688 8.98716C121.664 9.84731 122.843 16.4989 124.514 16.5192C127.102 16.5507 129.154 7.71679 124.688 8.98716ZM120.871 32.2469C122.168 33.7115 127.131 33.3303 127.505 31.8446C127.606 31.4319 123.275 24.9076 122.865 24.8336C121.253 24.538 118.845 29.9592 120.871 32.2469Z" fill="#F5F5F0"/>
<path d="M94.3187 58.9697C94.5888 58.1589 97.2357 57.8599 98.08 58.2565C99.4826 58.9221 104.409 71.6355 105.612 74.0649C105.826 74.5091 105.956 75.1178 106.529 75.2214L106.072 57.6776C106.35 56.1769 110.715 56.4783 111.105 57.0764L111.272 89.5194C111.22 90.4709 108.698 90.6058 107.867 90.2093C106.247 89.4307 101.282 76.496 100.04 73.942C99.8258 73.4978 99.5775 72.5151 99.0438 72.481L99.223 89.2763C97.6502 90.2231 95.6607 90.5162 93.9297 89.8329L94.3052 58.9557L94.3187 58.9697Z" fill="#F5F5F0"/>
<path d="M29.5805 55.4226C42.7813 53.3339 41.9711 76.0369 39.026 83.963C35.3872 93.7435 25.2258 92.5436 22.3015 82.9869C20.1809 76.0479 19.9612 56.9477 29.5805 55.4226ZM31.0227 60.7113C29.7056 60.9023 28.9345 62.3694 28.4557 63.4536C26.4977 67.9144 26.3813 78.6071 28.3129 83.0738C29.2719 85.307 31.2988 86.4356 32.9018 84.1369C35.4245 80.5385 35.5128 66.52 33.5613 62.5636C33.0801 61.5918 32.2851 60.5197 31.0366 60.6977L31.0227 60.7113Z" fill="#F5F5F0"/>
<path d="M50.6416 55.6785C61.8102 54.0204 62.0181 69.588 61.3787 77.1144C60.9638 81.9527 58.9037 90.3035 53.1311 90.8542C48.2086 91.3187 45.3625 88.8555 43.7048 84.3922C41.079 77.3229 40.6668 57.1578 50.6416 55.6785ZM52.0425 60.9942C47.7925 61.3427 47.6619 73.2081 47.8306 76.2321C47.9537 78.4966 49.3504 88.6557 53.3938 85.0206C55.4847 83.1417 56.0127 72.3851 55.8288 69.4851C55.702 67.5242 54.7019 60.792 52.0286 61.0079L52.0425 60.9942Z" fill="#F5F5F0"/>
<path d="M69.3743 69.4569L77.5045 56.3642C78.47 55.8101 83.008 57.673 82.138 59.3872C79.8284 63.485 76.6604 67.2135 74.9772 71.6087C75.4506 74.3466 82.3087 87.0283 81.8779 88.6651C81.5331 89.9856 77.4252 91.0395 76.4517 90.0066L71.6317 77.5429C71.4993 76.0372 69.3219 78.2737 69.2788 78.4388C68.1077 83.5163 73.1949 93.1545 63.4791 90.2214L63.8892 56.5022C64.7845 56.0853 69.5403 55.8119 69.5287 56.7639L69.3743 69.4569Z" fill="#F5F5F0"/>
<path d="M134.531 81.4261C134.112 85.3951 132.21 90.9466 127.736 91.6649C112.888 94.051 112.953 66.1782 119.877 58.8111C123.401 55.0731 131.57 55.6967 133.74 60.8563C135.51 65.0726 133.921 66.2262 129.682 65.6503C127.789 59.1557 123.454 61.9731 122.105 67.0484C121.057 71.0097 120.593 83.2436 124.342 85.8144C129.11 89.0875 129.889 77.9475 129.321 77.3611C129.077 77.1097 125.892 77.7609 125.354 76.9541C125.018 76.4532 125.07 73.2801 125.595 72.9278C126.354 72.4126 134.66 71.9341 134.641 73.4379C134.611 75.9489 134.793 78.9593 134.545 81.3987L134.531 81.4261Z" fill="#F5F5F0"/>
<path d="M219.729 68.1669C219.242 68.8095 215.428 69.3151 214.959 68.5228C214.543 67.814 215.455 65.9761 213.653 64.3811C211.295 62.3102 208.894 64.9028 208.876 67.5519C208.851 71.8292 215.087 73.7403 217.378 76.8039C225.302 87.4287 210.827 98.5263 203.553 89.648C201.623 87.2926 199.776 81.5712 204.07 80.9611C204.495 80.8973 205.879 80.8313 206.069 80.9854C206.435 81.3072 206.32 85.1281 208.317 86.4495C210.804 88.0942 213.933 86.4212 213.996 83.5104C214.111 78.558 203.784 76.3212 202.91 69.3146C202.262 64.1046 205.168 58.2616 210.705 57.8736C214.448 57.6018 217.544 58.6743 219.198 62.2821C219.812 63.6281 220.648 66.9224 219.729 68.1531L219.729 68.1669Z" fill="#F5F5F0"/>
<path d="M228.813 58.8941C233.597 56.2753 240.525 58.6916 241.167 64.5224C241.66 69.0268 241.014 69.1708 236.622 68.8C236.389 59.8142 226.535 64.8551 230.835 70.5649C232.708 73.0576 236.526 74.4563 238.566 76.8131C243.928 82.9636 239.612 93.274 231.397 93.0223C230.617 92.999 229.509 92.8338 228.773 92.6178C228.472 92.5314 227.886 92.3449 227.654 92.2317C226.511 91.6658 225.483 90.5356 224.82 89.879C224.685 89.7532 224.106 88.9044 223.905 88.5432C223.639 87.9328 221.467 82.9388 224.317 81.6902C228.159 80.0121 227.069 82.938 228.423 85.314C230.742 89.4405 236.317 87.1211 235.045 82.5382C233.956 78.5923 227.238 76.8962 225.193 72.773C222.987 68.3444 224.332 61.3648 228.826 58.9081L228.813 58.8941Z" fill="#F5F5F0"/>
<path d="M193.542 55.802L200.74 87.8475C200.665 89.5162 195.26 90.2508 194.54 88.6828L192.961 78.8251L186.224 78.7431C185.8 83.1536 184.449 86.1453 179.786 83.3288L187.201 55.8628C187.855 55.0153 192.757 55.1025 193.529 55.788L193.542 55.802ZM191.493 73.4395C191.995 72.6591 191.084 69.9158 191.11 68.8674L189.795 63.2353C189.753 65.5668 187.342 71.2502 187.771 73.1872C187.952 73.9898 191.13 73.987 191.493 73.4257L191.493 73.4395Z" fill="#F5F5F0"/>
<path d="M15.7442 88.3715C13.4444 90.5376 8.35093 90.4204 5.73951 88.926C4.95063 88.4748 2.88038 85.2759 2.44006 84.3185C-0.803818 77.3934 -0.917068 63.0551 4.97142 57.483C9.66832 53.0417 17.667 54.1463 18.7596 61.1556C18.8995 62.0404 18.9885 64.8564 18.7471 65.5572C18.3925 66.5602 15.0888 66.8098 14.273 66.317C13.1989 65.6692 13.815 58.929 9.99451 61.1318C5.05689 63.9695 5.68678 76.3685 7.80906 80.9203C8.54309 82.5023 9.91973 84.1748 11.8062 83.3423C13.6926 82.5097 12.2127 79.1938 16.4728 80.2667C19.7771 81.0934 17.3927 86.8323 15.7579 88.3717L15.7442 88.3715Z" fill="#F5F5F0"/>
<path d="M161.29 82.7589C161.451 83.0231 161.372 86.0854 161.27 86.6637C160.354 92.1445 153.506 93.2203 149.459 90.4528C145.411 87.6852 143.919 79.7465 143.756 75.0944C143.554 69.186 145.254 60.0167 151.107 57.3695C156.616 54.8837 161.866 57.8867 162.327 63.9362C162.503 66.2841 162.798 67.9988 160.151 68.2564C155.105 68.7332 158.329 64.9087 155.927 63.127C152.52 60.6156 150.413 67.1444 149.932 69.581C149.274 72.9813 149.533 76.4755 150.341 79.8522C150.875 82.1079 151.875 85.4456 154.726 85.3009C156.946 85.1899 156.236 82.7389 157.446 82.3258C158.065 82.1126 161.008 82.2863 161.276 82.745L161.29 82.7589Z" fill="#F5F5F0"/>
<path d="M171.618 57.8673L171.706 85.4797C173.399 85.9833 178.06 84.4945 179.254 85.3507C179.811 85.7439 180.024 90.7554 178.688 91.3463C177.064 92.0579 168.748 92.219 166.931 91.8519C166.016 91.6614 165.612 91.0907 165.61 90.1524C166.632 80.4229 164.708 68.5739 166.042 59.0966C166.373 56.6996 169.872 57.2389 171.604 57.8671L171.618 57.8673Z" fill="#F5F5F0"/>
<path d="M90.5586 89.985C90.3308 90.6997 84.8646 93.0756 84.5285 89.1803C83.6894 79.3454 85.4731 67.8175 85.0196 57.8078C84.63 54.933 90.9797 55.3551 90.9685 56.2795L90.5584 89.9988L90.5586 89.985Z" fill="#F5F5F0"/>
<path d="M15.8943 18.5928C16.8364 19.9566 18.3881 20.7482 19.1774 22.2894C22.2805 28.3986 18.6646 36.3028 11.6842 37.0596C10.1483 37.2203 3.45071 37.2493 2.51573 36.4238C1.79768 35.7803 2.3393 26.1553 2.30734 24.2783C2.22086 17.8746 1.48279 10.9938 2.13611 4.57156C2.27513 3.27616 2.3398 2.46282 3.67464 1.9409C6.50933 0.843873 12.1994 1.45122 14.9212 2.878C20.7319 5.95679 21.388 15.072 15.8944 18.579L15.8943 18.5928ZM8.3817 6.80012C7.88671 6.95969 7.84244 7.22132 7.75458 7.68941C7.59354 8.54298 7.54503 15.9109 7.84244 16.2319C8.84252 17.3342 12.0092 15.9652 12.9526 14.9694C16.2267 11.5319 13.3724 5.23255 8.39523 6.81408L8.3817 6.80012ZM7.82718 32.1279C17.0182 33.1642 17.158 20.54 7.9562 21.5182L7.82718 32.1279Z" fill="#F5F5F0"/>
<path d="M102.896 15.8561C102.998 16.5059 103.196 17.0603 103.243 17.7508C103.278 18.248 103.23 18.7717 103.224 19.2684C103.241 20.138 103.257 21.0489 103.192 21.9174C102.698 28.728 100.132 34.8097 93.3364 37.2522C91.4244 37.9327 85.0642 39.4974 84.0236 37.2217L84.1986 5.94202C84.421 3.41955 88.5254 3.77303 90.4405 3.96191C97.4449 4.61283 101.774 9.0121 102.896 15.8561ZM89.9125 32.7398C99.2408 31.5009 100.434 11.0794 90.3707 9.70135C89.8063 9.94286 89.8415 10.4263 89.7805 10.9361C89.0113 17.8813 90.1619 25.7468 89.9125 32.7398Z" fill="#F5F5F0"/>
<path d="M29.8214 36.7419C29.4661 37.8001 25.4129 37.737 24.5446 37.0641C24.2461 36.8259 23.882 32.9854 23.8374 32.1432C23.4266 23.1276 24.501 13.6195 24.1732 4.53589C28.2018 2.1149 36.0663 2.98327 39.3528 6.40394C43.9513 11.179 42.3919 20.0327 36.7242 23.2203C36.9979 25.4866 42.1369 34.2423 41.8864 35.702C41.7834 36.2803 37.9778 38.3866 36.7294 37.4331C35.1416 36.2271 32.9835 26.7349 31.2257 24.8783C31.0055 24.9584 29.9489 25.1249 29.9481 25.1939C29.9219 27.3462 30.2481 35.4363 29.8077 36.7418L29.8214 36.7419ZM30.2233 8.19715C29.6438 8.54887 29.4442 18.2056 29.8848 19.1355C30.7663 20.9814 34.8098 18.464 35.7026 17.1226C36.7632 15.5072 36.858 12.2105 35.9335 10.5296C35.1161 9.04318 31.6445 7.33131 30.2231 8.21094L30.2233 8.19715Z" fill="#F5F5F0"/>
<path d="M73.406 1.46379L80.6085 33.123C80.476 35.0118 75.6427 36.0293 74.6941 34.0722C73.9858 32.6285 73.1766 24.8361 72.8247 24.4869C71.8097 24.6125 66.4605 24.1335 66.1146 24.4191C64.9385 25.3983 66.6413 32.9118 59.6131 28.5901L66.939 1.67493C67.5979 0.42725 72.6886 0.765132 73.406 1.46379ZM70.0286 8.90166C69.3011 9.03081 69.4028 9.68058 69.2458 10.203C68.9176 11.2891 67.1697 18.7468 67.4392 19.1089C67.9507 19.8464 71.0602 19.8014 71.3635 18.5081C71.7819 16.7607 69.8235 11.1208 70.0286 8.90166Z" fill="#F5F5F0"/>
<path d="M44.8859 4.15287C45.2767 3.55047 55.9509 3.12833 56.9296 3.73358C57.7181 4.21233 57.884 7.47086 57.6208 7.71603C57.3437 7.97484 50.9475 7.99365 50.0982 8.01092L49.9921 16.7305L56.1954 16.8059C57.51 16.8219 56.204 21.7322 55.9438 21.729L50.4937 21.6627C49.6583 21.6526 50.2912 22.5434 50.2904 22.6124L50.1867 31.1388C52.3718 31.6483 57.6884 29.1878 58.0858 32.5457C58.3844 35.0193 58.2801 36.8395 55.5497 37.2478C54.452 37.4139 51.8476 37.5892 50.697 37.6028C49.7929 37.6194 44.4805 37.4858 44.4918 36.5614L44.8859 4.15287Z" fill="#F5F5F0"/>
</svg>
