<svg width="142" height="83" viewBox="0 0 142 83" fill="none" xmlns="http://www.w3.org/2000/svg">
<g clip-path="url(#clip0_141_1320)">
<rect width="141.337" height="82.0131" fill="#F5F5F0"/>
<path d="M141.337 37.1439C141.337 57.6566 111.455 74.2878 74.5903 74.2878C37.7257 74.2878 4.85714 62.2181 7.8487 37.1439C10.2773 16.7351 37.7312 0 74.5903 0C111.449 0 141.337 16.6312 141.337 37.1439Z" fill="#BED0E2"/>
<path d="M39.3153 49.6999C39.2767 52.0751 39.8397 54.507 41.3244 56.5092C41.5893 56.868 41.8984 57.2222 42.3179 57.4488C42.7374 57.6755 43.3004 57.7605 43.7364 57.5575C44.3601 57.2741 44.5147 56.5753 44.5919 55.9708C44.7962 54.4409 44.9949 52.9062 45.1991 51.3763C45.3536 50.2241 45.4971 49.0199 44.9838 47.948C44.4926 46.9092 42.9913 45.8798 41.6335 46.2339C39.8286 46.7061 39.3319 48.2691 39.3098 49.6952L39.3153 49.6999Z" stroke="black" stroke-miterlimit="10"/>
<path d="M79.7014 60.4048C81.9975 60.7023 84.3377 60.6693 86.6614 60.5418C92.5673 60.2254 98.5946 59.2574 103.833 57.0002C95.2884 55.3428 84.5254 54.3558 71.7754 54.4031C71.7754 54.4031 69.8877 54.2945 66.8354 54.2C70.114 57.463 74.7228 59.7626 79.7069 60.4048H79.7014Z" fill="#C07351"/>
<path d="M124.873 65.7125C124.337 66.5199 123.648 67.2613 122.858 67.8752C120.352 69.8254 117.046 70.7981 113.823 71.6859C108.452 73.1639 102.999 74.538 97.3913 75.0811C94.5212 75.3597 91.6345 75.4211 88.7478 75.4683C76.5994 75.6666 64.3959 75.6052 52.3579 74.1697C40.3199 72.7342 28.4033 69.8868 17.8114 64.7775C16.6578 64.2203 15.3773 63.4411 15.3552 62.3078C15.3331 61.1179 16.702 60.2962 17.9328 59.7343C19.5224 59.0071 21.1507 58.3366 22.801 57.7133C14.29 59.4368 7.57827 61.2831 4.85716 62.2134C0.706508 63.6347 -1.12044 65.6227 0.706508 67.8941C3.13508 70.9162 15.1344 75.9263 29.4134 78.056C43.6923 80.1856 65.29 82.3861 85.7121 81.9564C106.134 81.5267 119.083 82.5231 125.563 73.2914C127.357 70.732 127.064 68.1302 124.873 65.7077V65.7125Z" fill="#FDD3B2"/>
<path d="M15.3607 62.3126C15.3828 63.4459 16.6633 64.225 17.8169 64.7822C28.4033 69.8868 40.3254 72.7389 52.3634 74.1745C64.4014 75.61 76.5994 75.6666 88.7533 75.473C91.64 75.4258 94.5267 75.3644 97.3969 75.0858C103.005 74.5381 108.452 73.1687 113.828 71.6906C117.052 70.8029 120.358 69.8254 122.864 67.8799C123.653 67.2661 124.343 66.5247 124.878 65.7172C121.699 62.2087 114.513 59.078 103.833 57.0097C98.5946 59.2668 92.5673 60.2396 86.6615 60.5513C84.3433 60.674 82.003 60.7071 79.7014 60.4143C74.7228 59.7721 70.1085 57.4725 66.8299 54.2095C60.0907 54.0065 47.6828 53.8931 37.4 55.2625C32.2504 55.9472 27.2773 56.8208 22.801 57.7227C21.1507 58.346 19.5279 59.0166 17.9328 59.7438C16.702 60.3057 15.3331 61.1273 15.3552 62.3173L15.3607 62.3126Z" fill="#D69578"/>
<path d="M113.944 65.5519C113.944 66.8694 91.8608 69.6035 66.2946 70.0284C29.0601 70.647 17.3146 65.6227 17.3146 62.7848C17.3146 61.4673 39.1166 62.6384 64.302 64.0644C92.9868 65.6841 113.944 64.2344 113.944 65.5519Z" fill="#BD8369"/>
<path d="M101.823 62.9264C101.823 64.8483 80.579 68.0452 58.1588 68.0452C35.7387 68.0452 17.3146 64.7019 17.3146 62.78C17.3146 60.8582 35.4903 59.2999 57.9104 59.2999C80.3306 59.2999 101.829 60.9998 101.829 62.9217L101.823 62.9264Z" fill="#AC785D"/>
<path d="M91.0881 41.1005C91.0881 41.1005 96.1826 40.2506 98.1696 39.1125C100.162 37.9745 103.816 38.357 104.258 40.6283C104.699 42.8996 103.264 45.3646 98.9423 46.2145C94.6261 47.0645 91.0826 47.5414 91.0826 47.5414V41.1005H91.0881Z" fill="#6092A5"/>
<path d="M31.864 40.6241C31.864 40.6241 27.5478 39.6749 25.1137 38.9194C22.6796 38.1639 19.3569 38.2583 18.253 39.7694C17.1491 41.2804 17.5906 44.8834 23.0107 46.0214C28.4309 47.1594 31.864 46.8714 31.864 46.8714V40.6193V40.6241Z" fill="#6092A5"/>
<path d="M44.2111 64.6925C52.8436 65.7455 74.4303 63.0728 77.4163 57.3874C79.6296 53.1801 79.3868 42.9001 79.1053 37.8475L29.5955 37.0731C29.5955 37.0731 29.6948 50.1721 30.1971 57.1419C33.2935 60.556 37.2345 63.8425 44.2056 64.6925H44.2111Z" fill="#99C3CF"/>
<path d="M88.7037 59.8004C89.8959 57.8738 89.1894 43.6792 88.8527 37.9986L79.1053 37.8475C79.3813 42.9001 79.6241 53.1801 77.4163 57.3874C74.4303 63.0681 52.8436 65.7455 44.2111 64.6925C37.2345 63.8425 33.2991 60.556 30.2026 57.1419C30.3517 59.2054 30.5338 60.7354 30.7656 61.2218C31.7647 63.3514 38.7358 69.3343 65.6322 68.0452C66.5871 67.998 67.4978 67.9507 68.3864 67.8988C82.1079 65.1694 87.5667 61.6562 88.7147 59.7957L88.7037 59.8004Z" fill="#7AA6B0"/>
<path d="M93.191 38.0694L88.8527 38.0033C89.1894 43.684 89.8959 57.8785 88.7037 59.8051C87.5556 61.6609 82.0968 65.1789 68.3754 67.9082C92.49 66.5435 92.2251 63.4695 93.1855 58.8135C94.1845 53.9828 93.1855 38.0741 93.1855 38.0741L93.191 38.0694Z" fill="#76A1AC"/>
<path d="M74.64 11.1536C72.3991 11.8949 70.2078 12.8346 68.4416 14.2324C66.6809 15.6301 65.3728 17.5378 65.2348 19.5872C65.1796 20.4513 65.3838 21.4099 66.1786 21.9435C66.8189 22.3732 67.7351 22.4205 68.5078 22.1938C69.2806 21.9671 69.9208 21.4949 70.4562 20.9661C72.6309 18.8269 73.2215 15.767 75.352 13.5949C75.9702 12.9621 76.7098 12.4238 77.4936 11.9469C78.2001 11.5219 79.3536 11.1961 79.8835 10.6483C78.9728 9.64723 75.7108 10.7994 74.64 11.1536Z" fill="#F6EBE9"/>
<path d="M52.6338 11.3283C53.3348 12.0035 54.4111 12.2916 55.239 12.8535C56.7293 13.8735 57.1708 15.6207 57.5186 17.2262C59.0254 14.6762 61.7851 12.6882 64.9754 11.8524C64.2799 10.9836 63.0877 10.535 61.9949 10.0533C60.1845 9.25057 59.3842 7.67811 57.4468 9.04279C56.9942 9.35917 53.1416 11.8241 52.6393 11.333L52.6338 11.3283Z" fill="#F6EBE9"/>
<path d="M59.3841 20.9047C58.8763 21.3202 58.3575 21.7452 57.9877 22.2552C57.6179 22.7652 57.4026 23.3885 57.5462 23.9787C57.7559 24.8334 58.6445 25.4237 59.4725 25.9337C60.1955 26.3823 60.9296 26.8309 61.763 27.1048C62.039 27.1945 62.3426 27.2653 62.6241 27.1945C63.1208 27.0764 63.3582 26.5995 63.5072 26.1792C63.9653 24.909 64.2689 23.601 64.4069 22.2788C64.5062 21.3533 64.6221 19.1858 63.1374 18.9592C61.8348 18.7608 60.201 20.2294 59.3786 20.8999L59.3841 20.9047Z" fill="#F6EBE9"/>
<path d="M67.9614 24.3282C67.0066 25.2915 66.5208 26.5901 66.6533 27.8461C66.6864 28.1672 66.7582 28.4931 66.9458 28.7717C67.2881 29.2817 68.0221 29.5744 68.701 29.4705C69.5621 29.3383 70.1582 28.6819 70.666 28.0681C71.0247 27.6384 71.3835 27.1992 71.5601 26.694C71.7036 26.2831 71.7147 25.8487 71.7202 25.419C71.7368 24.6871 71.7644 23.4971 70.8205 23.1949C69.8767 22.8927 68.5244 23.7521 67.9559 24.3235L67.9614 24.3282Z" fill="#F6EBE9"/>
<path d="M73.3153 29.1589C73.8231 29.2486 74.3475 29.2816 74.8718 29.258C76.2572 29.1966 76.0696 26.9442 74.6621 26.7648C73.2546 26.5853 72.3384 28.9841 73.3209 29.1589H73.3153Z" fill="#F6EBE9"/>
<path d="M93.191 38.0695C93.191 40.9735 76.3952 43.1835 59.5663 43.1835C42.7374 43.1835 29.5955 39.9772 29.5955 37.0731C29.5955 34.169 37.7312 29.8294 61.476 29.9711C86.2144 30.1175 93.191 35.1654 93.191 38.0695Z" fill="#DE6344"/>
<path d="M34.3423 38.4944C35.0984 39.0375 36.1471 39.1413 37.1351 39.1791C37.8251 39.2027 38.5315 39.2075 39.1994 39.0658C39.8673 38.9241 40.5186 38.6172 40.916 38.1308C41.2195 37.7578 41.3575 37.3045 41.4845 36.8653C41.9371 35.3353 41.2085 34.6081 39.7734 33.796C38.8572 33.2765 37.7091 32.4974 36.528 32.6627C33.9614 33.0215 32.2393 36.9834 34.3367 38.4991L34.3423 38.4944Z" fill="#F6795D"/>
<path d="M74.9546 33.0451C73.6962 32.3746 71.941 32.2518 70.7819 33.0451C69.8546 33.6826 69.4848 34.7687 69.5179 35.7887C69.5455 36.667 69.8657 37.5878 70.6439 38.1592C71.3283 38.6691 72.2666 38.8391 73.1608 38.9477C74.1267 39.0611 75.1037 39.1225 76.0806 39.1319C76.5994 39.1319 77.1183 39.1225 77.6261 39.0469C79.8614 38.7069 81.705 36.9881 81.9147 35.0567C81.9423 34.8065 81.9423 34.5468 81.8043 34.3248C81.6994 34.1548 81.5173 34.0226 81.3352 33.9093C80.3692 33.3001 79.1936 32.809 78.1283 33.3379C76.7595 34.0132 76.34 33.7912 74.9436 33.0499L74.9546 33.0451Z" fill="#F6795D"/>
<path d="M55.1121 29.0314V32.1007C55.1121 32.1007 54.8913 32.9035 56.7182 33.286C58.5452 33.6685 63.027 33.4276 64.026 33.2387C65.1299 33.031 65.2348 32.1479 65.2348 31.6285V29.0314H55.1176H55.1121Z" fill="#505454"/>
<path d="M60.168 30.0505C62.9633 30.0505 65.2294 29.5941 65.2294 29.031C65.2294 28.4679 62.9633 28.0114 60.168 28.0114C57.3727 28.0114 55.1066 28.4679 55.1066 29.031C55.1066 29.5941 57.3727 30.0505 60.168 30.0505Z" fill="#656B6B"/>
</g>
<defs>
<clipPath id="clip0_141_1320">
<rect width="141.337" height="82.0131" fill="white"/>
</clipPath>
</defs>
</svg>
