<svg width="295" height="91" viewBox="0 0 295 91" fill="none" xmlns="http://www.w3.org/2000/svg">
<path d="M290.181 55.9411C296.112 61.0885 296.244 74.3815 292.344 80.7827C291.073 82.8775 287.414 85.79 285.134 86.7401C283.421 87.4565 276.785 89.2865 275.629 87.7135C275.04 86.9114 274.769 82.2935 274.707 80.9541C274.373 73.4315 274.04 61.8517 274.707 54.5316C274.777 53.7372 274.792 53.0442 275.529 52.5614C278.072 52.1019 281.397 52.0474 283.94 52.7483C285.63 53.2155 288.863 54.8041 290.181 55.9489V55.9411ZM280.909 58.4252L281.529 81.25C281.785 82.6751 283.235 81.7406 283.979 81.2344C289.871 77.1928 290.91 58.6744 280.909 58.433V58.4252Z" fill="#E2725B"/>
<path d="M253.663 68.9772C262.586 73.8988 259.795 86.8025 249.453 87.8849C247.863 88.0484 241.212 88.173 240.196 87.3242C238.839 86.2028 240.289 55.9879 239.8 51.9462C245.724 49.8904 255.539 50.5134 257.601 57.7322C258.88 62.21 257.051 66.1192 253.67 68.9694L253.663 68.9772ZM245.631 66.5008C255.632 67.3886 255.275 54.0488 245.359 55.9957L245.631 66.5008ZM245.623 83.267C256.151 84.2638 256.035 70.9708 245.623 71.7806V83.267Z" fill="#E2725B"/>
<path d="M188.554 51.9073L189.035 87.0127C188.647 87.5734 185.546 87.4878 185.011 86.6701L176.956 69.9117L177.057 86.1639C176.576 87.589 171.544 88.1185 171.544 87.1451V55.1624C171.544 54.1267 175.103 54.3292 175.824 54.4382L183.91 71.4614L183.274 53.5894C183.088 53.1222 183.709 51.8995 184.065 51.8995H188.546L188.554 51.9073Z" fill="#E2725B"/>
<path d="M140.291 69.1016C140.236 66.4306 140.36 63.7517 140.306 61.0807C140.275 59.6945 139.066 57.0079 141.438 56.5173C143.004 56.1902 146.741 56.1357 146.493 58.2694L146.47 86.6621C146.175 88.0249 142.965 88.1028 141.678 87.9548C141.368 87.9159 140.298 86.7634 140.298 86.6699V74.4438H134.267C134.267 74.4438 133.801 74.8331 133.801 74.8643V86.9503C133.801 87.7056 127.274 88.5778 127.909 85.8445L127.94 58.2928C127.871 56.7509 133.801 56.9767 133.801 57.7243V68.6889C133.801 68.6889 134.236 69.1094 134.267 69.1094H140.298L140.291 69.1016Z" fill="#E2725B"/>
<path d="M265.335 71.4692L265.645 81.0944C265.916 81.3592 271.739 80.3546 273.173 80.8374C274.437 81.2657 274.561 86.0939 272.522 86.9115C271.925 87.153 268.979 87.6358 268.273 87.6436C267.389 87.6513 266.475 87.6591 265.645 87.6436C264.699 87.6202 260.489 87.5268 260.125 86.9505L259.768 52.8341C263.676 52.7328 268.397 51.5647 272.235 52.5148C272.816 52.6627 273.537 56.0502 272.553 56.572L265.033 56.8679V66.4931C266.281 66.6411 271.305 65.8 272.01 66.7812C272.754 67.8247 271.925 71.4614 270.134 71.4614H265.343L265.335 71.4692Z" fill="#E2725B"/>
<path d="M120.889 58.7369C120.718 58.7681 120.408 59.0484 120.168 59.1029C120.268 68.4166 120.625 77.7692 120.377 87.0985C119.966 88.3289 114.245 88.9207 114.245 87.1452V59.5079C114.245 59.5079 113.81 59.0406 113.779 59.0406H108.833C108.779 59.0406 108.058 58.3164 108.058 58.2619V53.4493L125.796 52.8652C126.703 53.1767 127.083 58.7213 125.835 58.7213C124.416 58.7213 122.16 58.5033 120.889 58.7213V58.7369Z" fill="#E2725B"/>
<path d="M24.2818 67.1238L19.3123 80.2922C18.0796 81.2578 15.3583 81.0709 14.4358 79.6537C12.5828 76.8113 11.1718 70.6125 9.53598 67.1861C9.35766 66.8201 9.37317 66.2672 8.83047 66.1893L9.35766 86.1405C9.62901 88.2743 3.45776 88.3521 3.55855 86.2262C3.48102 77.2162 3.70585 68.1984 3.58181 59.1885C3.55855 57.3818 2.31034 52.9586 4.98507 52.5459C6.38833 52.3278 8.98553 52.2421 9.90036 53.4725L16.8701 71.4691L23.6539 53.2934C24.9641 52.4991 29.8561 51.8294 29.8561 54.2435V87.6201C28.7087 87.9705 24.2896 88.5234 24.2896 86.8414V67.1238H24.2818Z" fill="#E2725B"/>
<path d="M50.0234 85.9536C48.5736 87.4099 44.6274 89.1153 42.6349 88.796C30.2692 86.7635 30.6026 66.8824 34.4402 58.0437C36.7583 52.6938 42.4489 49.8592 47.8759 52.7795C56.466 57.3974 56.4505 79.4901 50.0234 85.9536ZM43.2552 58.1839C40.03 58.5032 38.5492 65.2548 38.3787 67.8869C38.1771 70.9318 38.8671 80.4791 42.1078 81.8653C46.9765 83.9445 48.1627 74.3115 48.3023 71.329C48.4418 68.3464 47.8448 57.7322 43.2629 58.1839H43.2552Z" fill="#E2725B"/>
<path d="M76.7164 84.8244V85.7588C76.0884 87.4643 72.8012 88.2897 71.46 87.4721C70.5296 86.9036 65.8469 75.316 65.2345 74.9422C64.9011 74.7397 64.1723 74.9578 63.7382 74.8877V86.8413C63.7382 87.7602 59.6602 87.7213 58.9314 87.6356C58.3267 87.5577 57.9158 87.5967 57.8615 86.8413C57.7297 77.6288 58.0398 68.4008 57.877 59.1962C57.8538 57.7399 56.9544 52.9741 57.9391 51.9851C59.3191 50.5911 66.6842 50.9727 68.7 51.4322C79.5074 53.9008 79.6237 68.8291 70.5451 73.5093L76.7241 84.8244H76.7164ZM63.7382 69.2964C73.8013 70.0206 74.2122 54.1889 63.4668 56.5952L63.7382 69.2964Z" fill="#E2725B"/>
<path d="M87.2369 52.2187C90.8963 52.0863 95.5325 51.2998 93.5245 56.5797L85.9965 56.8756V66.5007C86.9656 66.1192 92.3073 66.2749 92.819 66.6331C93.5865 67.1705 92.819 71.4691 91.0979 71.4691H86.3066V80.627C86.3066 80.7594 86.795 81.1488 87.0509 81.0787C88.8108 81.032 93.7571 79.5446 94.5711 81.3279C95.7108 83.8198 95.0518 86.9581 92.0204 87.3008C90.7025 87.4487 88.4154 87.6045 87.0896 87.6278C86.1283 87.6434 81.5929 87.1372 81.3526 87.3008C80.3214 86.779 80.7633 84.9568 80.7323 83.8821V83.5706C80.7323 83.2591 80.7323 82.9477 80.7323 82.6362C80.7246 81.7095 80.7323 80.775 80.7323 79.8405C80.7323 78.6023 80.7323 77.3563 80.7323 76.1181V75.8066C80.7168 68.1517 80.7323 60.4889 80.7323 52.8339C82.9031 52.6081 85.0274 52.2888 87.2214 52.2109L87.2369 52.2187Z" fill="#E2725B"/>
<path d="M220.294 58.8813C220.504 59.7781 220.617 60.3899 220.706 60.6581C223.617 69.6844 224.255 79.1716 226.342 88.3655C226.527 90.62 221.054 91.0977 220.253 89.9579C218.806 87.9046 218.976 81.5518 217.973 78.9537C217.399 77.4703 212.241 77.4116 211.19 77.9564C210.082 78.5347 210.502 82.2893 209.039 82.7419C208.198 83.0017 204.325 82.943 204.091 81.8954C203.897 81.0322 205.417 75.6432 205.74 74.3023C207.446 67.2623 209.314 60.2223 211.19 53.2242C212.249 51.7407 217.464 51.5563 218.483 52.7045C219.259 53.5845 219.534 55.4786 219.768 56.6101C219.906 57.2889 220.027 57.7163 220.302 58.8813H220.294ZM214.739 61.756C214.367 61.3621 214.108 61.7895 214.011 62.1666C213.753 63.1975 213.534 64.8653 213.3 65.9716C213.211 66.4158 213.098 66.8851 212.952 67.6478C212.75 68.6954 212.055 71.2935 212.297 72.1316C212.54 72.9697 216.445 72.3327 216.631 71.5868C216.752 71.1007 215.071 62.108 214.731 61.7476L214.739 61.756Z" fill="#E2725B"/>
<path d="M161.557 76.8034C161.115 76.4062 155.587 76.2349 155.106 76.5776C154.533 76.9825 154.509 80.6581 153.377 81.0475C151.579 81.6627 147.361 81.1643 148.772 78.283L155.099 53.9008C155.37 52.9819 156.92 52.6392 157.789 52.5614C158.975 52.4523 162.293 52.6237 162.774 53.6983L169.953 86.265C169.976 88.134 165.356 89.1308 164.076 87.7914C162.727 86.3818 162.51 78.9761 161.564 76.8112L161.557 76.8034ZM158.835 61.5324C158.06 61.3611 158.176 61.8283 158.014 62.3968C157.238 65.0445 157.083 67.8947 156.176 70.519C156.145 71.5625 160.153 71.3912 160.363 70.6514C160.696 69.4521 159.484 63.6058 158.843 61.5324H158.835Z" fill="#E2725B"/>
<path d="M242.589 1.84723L243.085 37.5289C242.496 38.7359 239.596 38.1363 238.775 37.2018C235.697 32.2724 233.945 25.9647 231.037 21.0664C230.836 20.7316 230.727 20.2098 230.262 20.1397L230.572 37.3109C230.378 38.0351 224.688 40.0131 224.99 37.3887L225.161 4.92324C225.603 4.0199 228.696 3.87973 229.487 4.61953L237.674 21.6972L237.123 2.6649C237.542 1.2476 241.341 1.57467 242.597 1.85502L242.589 1.84723Z" fill="#E2725B"/>
<path d="M201.537 20.6957C201.924 20.5944 201.963 20.1116 202.002 19.8079C202.289 17.6975 201.041 10.4241 202.002 9.27938C202.715 8.43835 207.708 8.49286 207.987 9.77777L208.227 36.9557C207.739 38.225 202.77 38.1783 202.258 37.4774C202.025 37.1581 201.707 34.7674 201.669 34.1911C201.483 31.4734 201.816 28.5453 201.979 25.8353H195.676V37.0102C195.676 38.1315 190.644 38.2016 189.722 37.3528L189.675 10.5565C190.109 8.61746 195.676 9.52858 195.676 10.2917V20.6957C197.172 20.4542 200.281 21.0305 201.529 20.6957H201.537Z" fill="#E2725B"/>
<path d="M88.9349 33.8951C88.5085 32.7192 87.6169 26.1311 89.0899 26.1311H94.0362C94.7417 26.1311 94.4471 28.9813 94.5324 29.6665C95.3852 36.0911 102.766 35.1644 102.192 29.1136C101.719 24.1531 95.4783 23.1485 92.571 20.5398C83.9498 12.8147 91.4623 -1.52962 102.913 3.22846C105.03 4.10843 108.092 7.86973 108.092 10.1358V14.6369C107.859 14.7463 107.418 14.9484 107.317 14.9484H102.681C101.952 14.9484 102.626 9.75427 100.479 8.46157C96.2768 5.94625 92.9508 12.4409 97.1219 16.1788C101.293 19.9168 106.301 19.9246 108.185 26.1856C111.844 38.3728 97.463 45.179 90.78 36.9944C90.4079 36.535 89.1054 34.3701 88.9271 33.8873L88.9349 33.8951Z" fill="#E2725B"/>
<path d="M287.866 35.1409C287.703 35.4991 287.447 36.4103 287.245 36.6905C286.92 37.1422 284.749 38.7153 284.168 39.0268C275.678 43.559 267.46 36.6983 268.685 27.5093C268.739 27.0965 269.081 26.1309 269.476 26.1309H274.112C275.353 26.1309 274.787 28.6618 274.918 29.6663C276.019 38.1078 285.478 33.2018 282.067 27.1355C278.996 21.6765 270.127 22.2684 269.321 13.5465C268.065 -0.135873 287.276 -1.52202 288.478 11.0701C288.718 13.5777 288.811 15.213 285.85 15.2831C281.074 15.3999 283.385 12.7756 282.105 10.0111C279.88 5.19847 273.686 9.061 275.988 14.2941C277.175 16.9807 283.16 19.2936 285.532 21.474C289.339 24.9939 289.943 30.523 287.858 35.1253L287.866 35.1409Z" fill="#E2725B"/>
<path d="M130.056 39.9537C129.692 41.1529 124.621 41.2386 124.187 39.0192C124.048 30.2273 124.358 21.412 124.187 12.6201C124.164 11.304 123.21 6.35902 124.381 5.61922C125.552 4.87942 129.808 4.69252 130.304 6.15654L130.048 17.7519L137.289 6.24221C139.266 5.28436 141.181 6.50698 143.011 7.22341C143.306 7.62836 142.313 9.28706 142.042 9.77767C141.011 11.6544 134.08 21.3653 134.08 22.2608C135.033 24.9397 143.53 36.5272 143.352 38.404C143.236 39.65 138.406 40.9582 137.437 39.6733C134.901 36.1457 133.312 31.4265 130.917 27.9066C130.699 27.5874 130.436 27.159 130.04 27.0812V39.9693L130.056 39.9537Z" fill="#E2725B"/>
<path d="M186.869 30.3987C187.675 31.4967 186.838 35.3281 186.179 36.5585C183.101 42.2978 174.317 40.1796 171.774 35.1646C167.82 27.3772 167.076 8.4072 176.426 4.10079C180.581 2.1851 185.504 3.92947 187.086 8.29818C188.194 11.3664 189.016 16.0544 184.349 15.7273C180.659 15.4703 183.736 11.3508 180.666 10.0659C177.209 8.61746 175.363 15.9765 175.177 18.3672C174.952 21.342 175.642 32.0652 179.372 32.8128C182.86 33.5059 181.612 30.3987 183.209 29.8536C183.977 29.5888 186.458 29.838 186.876 30.4065L186.869 30.3987Z" fill="#E2725B"/>
<path d="M215.634 17.5219H221.274C222.475 17.5219 222.005 21.8173 221.412 22.54C220.818 23.2626 217.021 23.1002 215.903 23.3438L216.179 33.0633C217.774 33.5992 221.895 32.2107 223.068 32.8928C224.242 33.5749 223.973 37.8865 223.358 38.9908C222.682 40.2088 216.083 40.2981 214.654 40.1925C213.75 40.1276 210.947 39.9814 210.947 38.7228V3.27971C212.314 3.10919 213.853 2.71132 215.199 2.622C216.407 2.5408 220.88 2.38652 221.764 2.69508C222.965 3.11731 223.193 6.78748 222.323 7.11227C222.185 7.16099 220.797 7.48579 220.714 7.48579H216.034C216.034 7.48579 215.62 7.9405 215.62 7.97298V17.5219H215.634Z" fill="#E2725B"/>
<path d="M157.098 9.98786H151.686C150.647 9.98786 150.43 4.57565 151.741 4.13956C157.005 4.56008 163.253 3.07269 168.394 3.76576C170.471 4.04611 170.402 8.89763 169.463 9.52841C168.363 10.2682 163.54 9.49726 163.315 10.4785C163.269 10.6965 163.595 11.5064 163.602 11.997C163.703 16.7551 163.633 21.6604 163.912 26.279C163.912 28.5745 164.548 37.7186 163.61 39.0425C162.874 40.0938 157.78 40.7479 157.416 38.6999C157.268 29.1292 157.726 19.5274 157.098 9.98786Z" fill="#E2725B"/>
<path d="M262.729 0.440644C263.83 0.362771 264.713 0.230386 265.341 1.35955C265.768 13.3677 265.636 25.586 265.411 37.6097C264.799 39.0036 259.961 39.2373 259.24 37.6097V1.91246C260 0.775501 261.465 0.534093 262.729 0.440644Z" fill="#E2725B"/>
<path d="M147.608 12.4877C148.569 12.3943 151.097 12.2385 151.546 12.8226L151.717 35.3514C151.515 36.9634 145.515 36.6285 145.344 35.3514C145.236 28.9891 144.957 22.5879 145.523 16.249C145.678 14.5436 144.344 12.8148 147.6 12.4877H147.608Z" fill="#E2725B"/>
<path d="M55.8901 2.6133L56.5414 38.513C55.1226 39.0581 53.1534 39.245 52.1145 37.9212L43.6019 20.2361L43.85 37.7187C43.4779 38.9803 37.4694 40.7947 38.0199 37.7966C38.6866 27.7275 37.1981 16.6617 38.0199 6.71724C38.2525 3.93716 40.6248 4.38882 42.6871 5.15977L51.0136 22.7203L50.4787 3.37647C50.4632 1.74891 55.2544 2.06819 55.8901 2.6133Z" fill="#E2725B"/>
<path d="M9.68327 39.0815L0 1.81117C1.07764 0.806604 5.38046 0.0512306 6.21776 1.19597L12.2262 27.6886L18.4207 1.00129C19.4363 -0.805379 26.3363 -0.229114 24.6617 3.23626L15.932 37.9367C15.5909 39.8758 10.6446 39.8836 9.68327 39.0893V39.0815Z" fill="#E2725B"/>
<path d="M29.7708 1.99811C30.9493 1.81121 33.2751 1.47635 33.5465 3.01046L33.4069 39.4942C32.0036 40.6312 28.0264 41.114 27.2279 39.175L27.0496 3.92159C27.0496 2.69897 28.7475 2.16943 29.7786 2.00589L29.7708 1.99811Z" fill="#E2725B"/>
<path d="M81.5859 35.9496C82.2449 38.5584 82.8622 39.3775 78.9237 40.0317C77.8383 40.2108 76.0547 40.559 75.6288 40.1251L72.6672 28.4519L65.8835 28.3428C65.5966 29.3941 65.1857 32.5792 64.0926 32.9062C63.1545 33.1866 59.3479 32.9062 59.1075 31.8549L66.2401 4.16309C67.0542 3.25197 73.1401 3.15074 73.8224 3.8516C74.1635 4.20203 75.7838 12.1296 76.0552 13.4067C76.0939 13.5936 76.4768 15.0205 76.5156 15.2074C77.1746 18.2912 77.6849 19.9751 78.3594 23.0433C78.5997 24.1336 79.1339 26.5688 79.2812 27.1918C79.7422 29.0355 79.7676 29.2997 80.2031 30.8793C80.3427 31.3855 80.2031 30.8793 80.6641 32.723C80.9312 33.7917 81.0552 34.2787 81.125 34.5668L81.5859 35.9496ZM67.403 22.7204C68.2714 22.5568 71.4423 23.1565 71.7058 22.2142L69.7211 12.48L67.403 22.7204Z" fill="#E2725B"/>
<path d="M86.6063 3.93157C86.4499 2.35288 85.0872 0.918213 83.385 0.918213C81.6829 0.918213 80.2829 2.21434 80.306 3.81125C80.322 4.86674 80.6826 5.59228 81.4218 5.94594C82.1609 6.29959 82.7721 6.15558 82.8822 6.75168C82.9924 7.34779 82.5056 7.8801 81.6421 8.62204C80.7786 9.36398 80.2118 9.57362 80.2118 9.57362C80.2118 9.57362 80.0501 10.1314 81.1233 10.1369C82.1946 10.1424 84.1402 9.68482 85.4745 7.8491C86.8088 6.01338 86.6987 4.87039 86.6063 3.93339V3.93157Z" fill="#E2725B"/>
</svg>
