<svg width="29" height="27" viewBox="0 0 29 27" fill="none" xmlns="http://www.w3.org/2000/svg">
<g clip-path="url(#clip0_314_286)">
<path d="M0.836504 8.57414H0.978235V7.4198C0.978235 6.68336 1.57964 6.08397 2.31857 6.08397H3.15844V3.53009C3.15844 3.12141 3.29092 2.3506 4.17873 1.77594C4.42181 1.61876 4.72168 1.47667 5.0964 1.34212C5.60991 1.15686 6.29164 0.973687 7.18071 0.780877C9.57499 0.262807 12.0315 0 14.4825 0C16.9336 0 19.3901 0.262807 21.7844 0.781297C22.6735 0.974106 23.3556 1.15727 23.8691 1.34254C24.2434 1.47709 24.5437 1.61918 24.7864 1.77636C25.6746 2.35102 25.8067 3.12183 25.8067 3.53051V6.08439H26.6814C27.4204 6.08439 28.0218 6.68377 28.0218 7.42022V8.57456H28.1635C28.6249 8.57456 29 8.94845 29 9.40825V12.2639C29 12.7237 28.6249 13.0976 28.1635 13.0976H27.3434C26.882 13.0976 26.5069 12.7237 26.5069 12.2639V9.40825C26.5069 8.94845 26.882 8.57456 27.3434 8.57456H27.4847V7.42022C27.4847 6.97886 27.1243 6.61964 26.6814 6.61964H25.8067V21.782C25.8067 22.2141 25.6603 23.0248 24.6812 23.5982C24.5811 23.6569 24.4709 23.7134 24.3502 23.7684V26.2988C24.3502 26.6856 24.0344 27.0004 23.6462 27.0004H21.3155C20.9273 27.0004 20.6114 26.6856 20.6114 26.2988V24.714C18.5902 25.0577 16.532 25.232 14.483 25.232C12.434 25.232 10.3757 25.0577 8.35451 24.714V26.2988C8.35451 26.6856 8.03866 27.0004 7.65048 27.0004H5.31972C4.93154 27.0004 4.61569 26.6856 4.61569 26.2988V23.7684C4.49499 23.7134 4.38522 23.6569 4.28471 23.5982C3.30522 23.0248 3.15928 22.2146 3.15928 21.782V6.61923H2.31941C1.87656 6.61923 1.51613 6.97844 1.51613 7.4198V8.57414H1.65744C2.1188 8.57414 2.49395 8.94803 2.49395 9.40783V12.2635C2.49395 12.7233 2.1188 13.0972 1.65744 13.0972H0.837343C0.375984 13.0972 0.000841141 12.7233 0.000841141 12.2635V9.40783C0.000841141 8.94803 0.375984 8.57414 0.837343 8.57414H0.836504ZM19.7774 2.55221C19.7774 2.54089 19.7682 2.53125 19.7564 2.53125H9.20867C9.1969 2.53125 9.18764 2.54089 9.18764 2.55221V3.68098C9.18764 3.6923 9.1969 3.70194 9.20867 3.70194H19.7564C19.7682 3.70194 19.7774 3.6923 19.7774 3.68098V2.55221ZM22.4808 21.0778C22.9662 21.0778 23.3611 20.6842 23.3611 20.201C23.3611 19.7177 22.9662 19.3237 22.4808 19.3237C21.9955 19.3237 21.601 19.7173 21.601 20.201C21.601 20.6847 21.9955 21.0778 22.4808 21.0778ZM9.18764 21.9098C9.18764 21.9212 9.1969 21.9308 9.20867 21.9308H19.7564C19.7682 21.9308 19.7774 21.9212 19.7774 21.9098V20.7811C19.7774 20.7693 19.7682 20.7601 19.7564 20.7601H9.20867C9.1969 20.7601 9.18764 20.7693 9.18764 20.7811V21.9098ZM6.48426 21.0778C6.96959 21.0778 7.36408 20.6842 7.36408 20.201C7.36408 19.7177 6.96959 19.3237 6.48426 19.3237C5.99893 19.3237 5.60402 19.7173 5.60402 20.201C5.60402 20.6847 5.99893 21.0778 6.48426 21.0778ZM5.50056 16.1721C5.68435 16.2408 6.2786 16.3875 8.18712 16.5896C12.3642 17.0326 16.6001 17.0326 20.7771 16.5896C22.6865 16.3871 23.2799 16.2408 23.4637 16.1721V6.56725C23.295 6.50228 22.7744 6.36732 21.1725 6.17451C16.7957 5.64763 12.1686 5.64763 7.79179 6.17451C6.18944 6.36732 5.66879 6.50228 5.50056 6.56725V16.1721Z" fill="#E2725B"/>
<path d="M10.048 6.91892C10.1531 6.81455 10.323 6.81455 10.4278 6.91892L14.4273 10.905C14.532 11.0094 14.532 11.1792 14.4273 11.2835C14.3747 11.3359 14.3062 11.3619 14.2372 11.3619C14.1683 11.3619 14.0997 11.3359 14.0471 11.2835L10.0476 7.29741C9.94284 7.19304 9.94284 7.02329 10.0476 6.91892H10.048Z" fill="#E2725B"/>
<path d="M7.96834 7.94332C8.07348 7.83895 8.24338 7.83895 8.3481 7.94332L11.5103 11.0949C11.615 11.1993 11.615 11.369 11.5103 11.4734C11.4578 11.5258 11.3892 11.5518 11.3202 11.5518C11.2513 11.5518 11.1827 11.5258 11.1301 11.4734L7.96791 8.32181C7.86319 8.21745 7.86319 8.04769 7.96791 7.94332H7.96834Z" fill="#E2725B"/>
<path d="M8.36231 11.4332C8.30974 11.4856 8.24119 11.5116 8.17221 11.5116C8.10324 11.5116 8.03469 11.4856 7.98212 11.4332L6.11818 9.5755C6.01346 9.47113 6.01346 9.30137 6.11818 9.197C6.22332 9.09263 6.39323 9.09263 6.49795 9.197L8.36189 11.0547C8.46661 11.159 8.46661 11.3288 8.36189 11.4332H8.36231Z" fill="#E2725B"/>
</g>
<defs>
<clipPath id="clip0_314_286">
<rect width="29" height="27" fill="white" transform="matrix(-1 0 0 1 29 0)"/>
</clipPath>
</defs>
</svg>
