<svg width="46" height="46" viewBox="0 0 46 46" fill="none" xmlns="http://www.w3.org/2000/svg">
<path fill-rule="evenodd" clip-rule="evenodd" d="M6.22949 19.2238C6.22949 14.0478 10.7703 10.0625 16.1003 10.0625C18.8478 10.0625 21.2654 11.3508 23.0003 13.0177C24.7353 11.3508 27.1528 10.0625 29.9003 10.0625C35.2304 10.0625 39.7712 14.0478 39.7712 19.2238C39.7712 22.7694 38.2591 25.8873 36.1644 28.5229C34.0731 31.1541 31.3378 33.387 28.7187 35.2015C27.7182 35.8946 26.7062 36.5338 25.7801 37.0055C24.9103 37.4484 23.9102 37.8542 23.0003 37.8542C22.0905 37.8542 21.0904 37.4484 20.2206 37.0055C19.2945 36.5338 18.2824 35.8946 17.282 35.2015C14.6629 33.387 11.9275 31.1541 9.83631 28.5229C7.74151 25.8873 6.22949 22.7694 6.22949 19.2238ZM16.1003 12.9375C12.1151 12.9375 9.10449 15.8683 9.10449 19.2238C9.10449 21.9138 10.2464 24.4183 12.087 26.7341C13.9312 29.0544 16.4126 31.1016 18.9192 32.8383C19.8677 33.4953 20.7611 34.0544 21.5255 34.4437C22.346 34.8615 22.8215 34.9792 23.0003 34.9792C23.1792 34.9792 23.6547 34.8615 24.4752 34.4437C25.2396 34.0544 26.1329 33.4953 27.0815 32.8383C29.5881 31.1016 32.0694 29.0544 33.9136 26.7341C35.7542 24.4183 36.8962 21.9138 36.8962 19.2238C36.8962 15.8683 33.8855 12.9375 29.9003 12.9375C27.6114 12.9375 25.4744 14.3049 24.14 16.0404C23.8678 16.3943 23.4467 16.6017 23.0003 16.6017C22.5539 16.6017 22.1328 16.3943 21.8607 16.0404C20.5263 14.3049 18.3891 12.9375 16.1003 12.9375Z" fill="#E2725B"/>
</svg>
