<svg width="21" height="21" viewBox="0 0 21 21" fill="none" xmlns="http://www.w3.org/2000/svg">
<path fill-rule="evenodd" clip-rule="evenodd" d="M6.34375 8.75C6.34375 6.45457 8.20457 4.59375 10.5 4.59375C12.7954 4.59375 14.6563 6.45457 14.6563 8.75C14.6563 11.0455 12.7954 12.9063 10.5 12.9063C8.20457 12.9063 6.34375 11.0455 6.34375 8.75ZM10.5 5.90625C8.92947 5.90625 7.65625 7.17944 7.65625 8.75C7.65625 10.3205 8.92947 11.5938 10.5 11.5938C12.0705 11.5938 13.3438 10.3205 13.3438 8.75C13.3438 7.17944 12.0705 5.90625 10.5 5.90625Z" fill="#F5F5F0"/>
<path fill-rule="evenodd" clip-rule="evenodd" d="M3.08408 7.74974C3.39412 3.98846 6.53725 1.09375 10.3113 1.09375H10.6893C14.4633 1.09375 17.6064 3.98846 17.9164 7.74974C18.083 9.77025 17.4589 11.7765 16.1755 13.346L11.9816 18.4751C11.216 19.4114 9.78452 19.4114 9.01889 18.4751L4.82498 13.346C3.54166 11.7765 2.91754 9.77025 3.08408 7.74974ZM10.3113 2.40625C7.22032 2.40625 4.64606 4.77704 4.39215 7.85757C4.25353 9.53916 4.77297 11.2089 5.84105 12.5152L10.0349 17.6443C10.2755 17.9384 10.7251 17.9384 10.9656 17.6443L15.1595 12.5152C16.2276 11.2089 16.747 9.53916 16.6084 7.85757C16.3545 4.77704 13.7802 2.40625 10.6893 2.40625H10.3113Z" fill="#F5F5F0"/>
</svg>
