<svg width="326" height="95" viewBox="0 0 326 95" fill="none" xmlns="http://www.w3.org/2000/svg">
<g clip-path="url(#clip0_141_456)">
<path d="M64.0223 57.4962C64.0223 57.4962 63.9471 57.9224 64.2228 58.0854C68.4074 60.5046 70.4496 63.4627 70.4872 68.4891C70.4997 70.5323 69.1967 74.4431 67.8311 75.9598C66.7661 77.1255 64.2228 78.2536 62.8321 79.0684C62.7569 79.5447 66.6784 86.1379 67.2923 87.2033C67.4427 87.4666 67.7809 87.5919 67.8311 87.6796C68.7582 89.2966 70.6125 91.5027 69.109 92.9066C68.8334 93.1698 66.7035 94.3105 66.3777 94.4107C65.2877 94.7366 64.3606 94.7366 63.6088 93.8091C61.8297 91.603 59.8251 86.6643 58.234 83.9569C57.5574 82.8162 56.9184 81.6129 55.9913 80.6352C55.0642 83.1546 57.0312 92.3551 55.9913 94.1099C55.6906 94.6238 52.9092 94.9497 52.17 94.9873C51.08 95.0375 50.0025 94.9748 49.4513 93.8968C48.9125 87.968 49.2132 82.0265 49.113 76.0726C49.113 75.308 48.7998 74.5935 48.7998 73.7537C48.7371 68.5393 48.7497 63.2873 48.9626 58.0728C49.6893 56.4433 56.6052 56.1926 58.2966 56.3431C58.8855 56.3932 63.7842 57.3458 64.0473 57.4837L64.0223 57.4962ZM55.5278 74.4807C59.9379 74.5684 64.1977 72.6256 63.7467 67.5741C63.5713 65.5936 62.3184 63.9892 60.5142 63.1995C59.6121 62.7984 55.9537 61.9084 55.3649 62.7357C54.538 63.9265 55.9537 72.4877 55.5278 74.4681V74.4807Z" fill="#F6F5F1"/>
<path d="M226.834 70.0938L235.153 56.3057C235.993 55.4032 241.067 58.1483 241.33 58.6747C241.531 59.0758 241.543 59.4393 241.318 59.8279C238.261 64.7289 234.853 69.4921 232.159 74.5937C232.923 77.1633 242.182 89.3219 242.069 90.7383C241.982 91.8414 237.446 94.599 236.193 93.9848C235.905 93.8469 233.637 90.3623 233.312 89.8233C231.833 87.3916 230.58 84.5587 228.989 82.1396C227.837 80.3722 227.335 80.7482 227.097 82.8415C226.859 84.9348 228.05 91.6283 227.26 92.957C226.759 93.8093 221.409 93.8093 220.933 93.0572C220.207 91.879 220.47 87.6047 220.382 86.0629C220.344 85.3735 220.094 84.7342 220.069 84.0323C219.768 75.5589 220.319 67.0103 220.069 58.5368C220.382 56.7695 226.809 57.346 226.809 58.5368V70.1063L226.834 70.0938Z" fill="#F6F5F1"/>
<path d="M80.1218 61.2693V69.0282C80.1218 69.0282 80.5353 69.467 80.5603 69.467H87.3008C88.4159 69.467 88.4535 75.9098 87.0127 75.9098H80.5729C79.7084 75.9098 80.4225 78.4417 80.435 78.9682C80.4726 80.0336 80.1845 85.1728 80.7608 85.5364C82.4397 85.5364 84.1686 85.6868 85.835 85.574C87.3635 85.4737 89.8943 84.684 91.1221 84.6965C91.5356 84.6965 92.7258 85.1102 92.7258 85.4361V90.4123C92.7258 90.7884 91.4479 91.2772 91.047 91.365C88.04 92.0168 78.8564 92.468 75.9121 92.0042C75.4235 91.929 74.2082 91.4276 74.0328 90.9513C73.3187 79.2314 73.2059 67.4614 73.5442 55.6914L75.5864 54.814L91.6609 54.8641C92.0367 54.9644 92.0868 55.2151 92.137 55.5535C92.3124 56.5437 92.5003 60.0785 91.7235 60.7178C90.9467 61.357 81.7631 61.0437 80.1218 61.2693Z" fill="#F6F5F1"/>
<path d="M205.698 58.7124L197.354 92.8692C196.402 94.411 192.368 93.3205 190.864 93.7968L182.081 60.041C182.445 58.4867 187.907 57.7723 188.797 59.1636L194.034 81.2246L199.471 58.0982C200.461 56.6817 204.345 58.0104 205.698 58.7124Z" fill="#F6F5F1"/>
<path d="M141.563 58.1229C141.801 58.4989 141.576 59.3889 141.463 59.8401C140.122 65.2802 135.111 72.2745 133.482 77.9276L133.357 92.4553C132.893 94.0095 126.967 94.0848 126.679 92.5179L126.616 78.5293C125.013 72.7633 120.039 65.9821 118.623 60.4543C118.335 59.3137 118.31 58.5992 119.45 58.0351C120.44 57.5463 123.622 56.8444 124.511 57.4836C125.852 58.4613 128.295 67.2481 129.535 69.1408L130.187 69.5169L135.148 57.3457C135.863 56.0045 141.288 57.7092 141.563 58.1354V58.1229Z" fill="#F6F5F1"/>
<path d="M146.261 80.0836C146.813 80.9485 145.334 86.564 147.915 87.0779C150.734 87.6295 151.135 83.9819 151.286 81.9638C151.824 74.7689 150.91 66.9724 150.759 59.765C150.609 57.6717 155.696 57.6466 156.848 58.2232C158.252 58.9251 157.65 65.6562 157.713 67.3233C157.888 72.2996 158.903 82.929 157.199 87.291C155.182 92.4302 150.672 94.5736 145.309 93.2074C142.352 92.4553 140.16 88.745 139.859 85.7618C139.759 84.7841 139.596 80.1337 140.636 79.7953C141.501 79.5195 145.836 79.4067 146.261 80.0836Z" fill="#F6F5F1"/>
<path d="M208.68 58.3738C210.321 58.2986 215.27 57.1705 215.696 59.4017L215.997 89.8608C216.41 92.6435 211.136 93.2953 209.72 92.3302C208.655 91.6032 208.517 85.2481 208.492 83.7565C208.379 77.602 208.818 71.5227 208.668 65.2679C208.605 62.974 208.73 60.6677 208.68 58.3738Z" fill="#F6F5F1"/>
<path d="M217.074 46.7293C217.375 46.98 219.066 48.9229 219.154 49.2112C219.305 49.7126 219.292 50.214 218.941 50.6276C217.275 51.4298 213.316 55.7794 211.775 55.7167C210.534 55.6665 209.043 54.6888 209.294 53.31C209.432 52.5956 214.18 47.4187 214.957 46.9299C215.508 46.5915 216.523 46.253 217.074 46.7293Z" fill="#F6F5F1"/>
<path d="M115.553 92.9443C114.689 93.4833 113.937 93.8844 112.922 94.11H112.333C111.456 93.6337 111.106 92.8315 110.579 92.0544C108.412 88.9332 106.545 84.3456 104.265 81.5253C103.989 81.1868 103.789 80.8108 103.263 80.9236C102.122 81.7258 104.014 91.4151 103.112 92.9318C102.611 93.7716 97.7248 93.734 96.9731 93.2075C95.6701 92.28 96.6097 87.8678 95.9332 86.3386C96.497 77.8777 94.4548 67.1355 95.7202 58.8752C95.9207 57.559 96.2464 57.5716 97.5243 57.4713C98.6394 57.3961 102.661 57.1705 102.661 58.8V70.0811L110.767 56.293C111.782 55.3279 117.094 58.2484 117.27 58.8501C117.583 59.8905 108.55 72.1368 107.923 74.3554C107.873 75.0825 111.757 81.1994 112.484 82.3651C113.298 83.6561 117.796 89.9485 117.758 90.7382C117.721 91.5906 116.217 92.4931 115.528 92.9318L115.553 92.9443Z" fill="#F6F5F1"/>
<path d="M244.4 60.7177C247.82 54.5131 257.329 54.7638 260.224 61.4447C262.153 65.9071 261.063 70.6953 258.407 74.581C257.467 75.9599 255.55 77.5768 254.886 78.9682C253.358 82.177 256.239 85.1227 250.514 84.8594C247.544 84.7216 247.945 82.8539 248.209 80.2091C248.81 74.2301 255.237 72.3123 254.661 65.5436C254.335 61.7832 250.739 61.4197 249.737 65.0422C249.599 65.5436 249.762 66.1703 249.612 66.6717C249.211 68.0254 246.054 67.7873 244.989 67.4614C242.157 66.5965 243.347 62.6481 244.4 60.7177Z" fill="#F6F5F1"/>
<path d="M251.278 93.9221C253.312 93.9221 254.962 92.2722 254.962 90.2369C254.962 88.2017 253.312 86.5518 251.278 86.5518C249.244 86.5518 247.595 88.2017 247.595 90.2369C247.595 92.2722 249.244 93.9221 251.278 93.9221Z" fill="#F6F5F1"/>
<path d="M168.563 79.7702C168.337 80.8482 167.611 85.0723 166.796 85.4734C165.857 85.9372 161.346 84.784 161.221 83.7061C163.764 75.5711 165.243 67.0601 167.824 58.9502C167.974 58.4613 168.162 57.5463 168.425 57.2078C169.39 55.9293 175.429 55.9418 176.431 57.3708C176.732 57.8095 177.02 58.9502 177.195 59.5268C179.125 65.9445 180.365 73.0391 182.044 79.5696C182.708 82.1518 185.853 91.089 185.201 93.0318C184.875 93.997 179.3 95.2755 178.285 92.4051C177.521 90.2366 176.506 81.4624 175.591 80.4471C174.777 79.5446 169.941 79.7702 168.563 79.7451V79.7702ZM174.414 74.4806C174.777 74.1171 173.299 67.3985 173.048 66.3331C172.935 65.8567 172.835 64.6785 172.372 64.5281C172.497 66.8094 169.853 72.1115 170.304 74.0043C170.48 74.7313 173.75 74.443 174.426 74.4931L174.414 74.4806Z" fill="#F6F5F1"/>
<path d="M31.0715 52.2194C31.4473 52.3322 31.4849 52.8837 31.5225 53.2347C32.5123 61.7206 30.9963 72.6884 31.1968 81.3624C31.1341 83.7189 31.6603 89.6979 31.084 91.5029C30.5578 93.145 27.9894 92.9444 27.1124 91.6408C25.0576 87.7801 22.9277 83.932 20.7227 80.1591C19.9083 78.7677 19.0563 77.1884 18.0415 75.96C17.816 78.3666 18.2921 80.7607 18.3422 83.1298C18.3798 84.822 18.6304 90.0364 18.267 91.2898C17.9037 92.5433 12.7669 95.3761 12.4536 92.8316C11.5516 85.4863 13.1678 76.3235 12.4536 68.7776C13.3557 66.5966 11.965 59.5897 13.3307 58.2235C15.0471 56.5062 16.8262 59.1385 17.603 60.4296C20.2716 64.8919 22.0006 70.3946 24.6191 74.7943C24.8071 75.1076 24.9198 75.5965 25.3583 75.6717L24.1806 53.5481C24.0553 52.9965 25.8344 52.2319 26.0975 52.2319C27.1625 52.2319 30.3699 52.0188 31.0715 52.2319V52.2194Z" fill="#F6F5F1"/>
<path d="M5.38739 57.8599C10.0982 57.9101 8.09361 62.1092 8.10614 65.2554C8.10614 69.8932 8.61982 74.6689 8.695 79.2942C8.72006 81.2872 8.98316 90.1617 8.33166 91.2647C7.73028 92.2926 3.43289 92.8942 2.53082 92.1923C1.10253 91.0767 1.41575 85.01 1.36563 83.1047C1.21529 76.7371 1.51598 70.2191 1.36563 63.7637C1.32805 62.1718 0.125281 58.8251 2.21759 58.1984C2.71875 58.048 4.81106 57.8474 5.38739 57.8599Z" fill="#F6F5F1"/>
<path d="M222.086 24.0917L222.311 39.1207C221.86 40.3992 217.2 42.8936 216.511 41.4396C216.686 33.0915 216.273 24.6683 216.498 16.3077C216.536 14.7408 216.824 6.78135 217.237 6.20475C217.538 5.77858 219.016 5.82872 219.53 5.99167C219.68 6.0418 221.61 7.922 221.698 8.04735C223.978 11.8077 226.032 17.8244 228.375 22.0485C228.613 22.4747 228.952 23.3396 229.403 23.5025L228.576 1.14076C228.964 -0.0124243 234.026 -0.238048 234.966 0.213199C235.529 0.476426 235.78 1.37892 235.855 1.96805C236.519 7.60863 235.617 13.8885 235.542 19.5416C235.479 24.8312 235.855 30.4593 235.567 35.6737C235.529 36.4383 235.216 39.6472 234.953 40.0357C234.364 40.863 232.309 40.6499 231.633 39.8853L222.098 24.0917H222.086Z" fill="#F6F5F1"/>
<path d="M196.502 38.0552C193.62 41.0635 188.985 42.2167 185.026 40.8003C172.772 36.4006 173.938 2.156 191.44 4.19914C204.721 5.75344 203.769 30.4467 196.49 38.0427L196.502 38.0552ZM188.91 10.9804C185.615 11.6572 183.936 17.5485 183.71 20.419C183.447 23.8409 183.723 34.4703 188.546 34.6708C193.721 34.8839 195.061 25.32 195.049 21.6097C195.036 18.1377 194.059 9.92747 188.91 10.9804Z" fill="#F6F5F1"/>
<path d="M251.215 28.4913C250.201 28.203 250.376 24.9064 250.514 23.9663C250.689 22.6877 251.215 22.7128 252.381 22.6251C253.934 22.4997 260.123 22.3994 261.339 22.7755C261.74 22.9008 262.316 23.3145 262.441 23.7281C262.529 24.0289 262.792 26.7364 262.792 27.2002C262.842 33.2795 260.111 40.4242 253.27 41.1011C233.124 43.0941 235.091 0.501424 254.899 4.61279C258.846 5.42754 262.867 11.6071 261.564 15.4176C261.188 16.5082 256.102 17.536 255.312 15.9065C254.987 15.2422 255.2 14.0263 254.736 12.9734C253.784 10.8049 251.842 10.3411 249.925 11.6823C245.49 14.7784 245.327 25.3075 246.893 29.8951C249.261 36.8393 256.202 36.0371 255.763 28.4913C254.536 28.2782 252.293 28.7921 251.228 28.4913H251.215Z" fill="#F6F5F1"/>
<path d="M160.695 33.3674C163.952 36.5512 167.773 33.4551 167.636 29.5192C167.56 27.3006 163.238 29.4691 162.486 27.9148C162.098 27.1251 162.098 23.0263 163.125 22.6879C163.877 22.4372 170.655 22.5249 171.87 22.6252C173.361 22.7505 174.163 22.8884 174.351 24.5304C175.103 31.061 172.923 40.3116 165.117 41.0887C158.828 41.7029 155.558 38.8701 153.014 33.5805C148.717 24.6683 150.997 3.5976 164.528 4.1742C169.853 4.39982 174.439 9.88999 173.474 15.1671C173.223 16.5584 168.926 16.7464 167.824 16.4205C166.533 16.0445 167.435 12.6978 165.493 11.4318C162.662 9.58916 160.231 12.5097 159.191 14.9289C157.299 19.316 157.061 29.8075 160.695 33.3548V33.3674Z" fill="#F6F5F1"/>
<path d="M124.499 3.37159C127.832 2.92034 131.064 3.84791 133.019 6.71834C135.148 9.83946 135.7 13.4118 131.089 14.0636C127.719 14.5399 129.059 13.0859 127.857 11.0052C126.002 7.79632 122.607 10.6166 123.785 14.5023C125.238 19.3282 132.956 21.8602 135.173 27.4256C138.819 36.5758 129.46 44.9114 121.091 39.7596C118.61 38.2304 114.626 32.3391 117.859 30.1205C118.523 29.6693 121.066 28.8545 121.805 28.9172C123.735 29.0927 122.557 33.3294 125.238 34.4199C128.182 35.6232 129.335 33.016 128.897 30.4589C128.182 26.2974 119.45 22.0733 117.332 16.8338C115.015 11.1055 118.172 4.23648 124.511 3.35905L124.499 3.37159Z" fill="#F6F5F1"/>
<path d="M94.7054 5.05131C96.3091 5.01371 97.9378 5.10145 99.554 5.06385C101.17 5.02624 102.599 3.94826 102.912 6.65575C103.651 12.9983 100.281 11.3186 95.5824 11.4941C95.6576 13.0484 95.4822 14.6403 95.5824 16.1821C95.5949 16.3701 95.5574 16.5832 95.5824 16.7712C95.7202 17.6612 95.5824 18.7266 95.6451 19.5539C95.6576 19.8171 95.8831 19.955 95.8831 19.9926C95.8831 20.0929 95.8831 20.1931 95.8831 20.2809C96.1337 26.5357 96.0334 32.8531 96.1086 39.1204C95.5824 40.9254 90.9342 40.7625 89.5059 40.1358L88.8544 11.7824H84.319C84.1687 11.7824 83.8554 12.1585 83.229 12.0331C81.0114 11.632 81.7005 6.21703 82.4146 5.76579C82.6527 5.61537 84.9454 5.37721 85.4842 5.35214C88.4786 5.17666 91.711 5.12652 94.7179 5.05131H94.7054Z" fill="#F6F5F1"/>
<path d="M211.461 6.30492C212.689 7.27008 211.85 8.99986 211.825 10.1656C211.674 18.5889 213.002 28.1152 212.414 36.2502C212.376 36.8518 212.05 39.2334 211.75 39.5468C211.086 40.2612 205.811 41.2891 205.523 39.3337C205.172 37.4284 204.896 35.2349 204.796 33.3171C204.47 26.9495 205.21 20.6069 205.097 14.2644C205.072 12.6224 204.17 7.7464 205.072 6.65589C205.886 5.66565 210.459 5.5403 211.436 6.31745L211.461 6.30492Z" fill="#F6F5F1"/>
<path d="M106.219 12.1713C106.821 11.4318 108.888 10.617 108.5 9.03764C108.449 8.86215 106.332 8.46105 105.781 6.7438C104.829 3.83576 106.37 1.21603 109.514 1.22856C116.305 1.26616 113.862 13.876 108.274 14.9665C106.608 15.2924 105.017 13.688 106.244 12.1713H106.219Z" fill="#F6F5F1"/>
<path d="M15.3478 27.9019L12.5664 39.6218C11.94 40.7373 7.4797 40.7875 7.00361 40.2109C6.52751 39.6343 5.51268 34.8711 5.24957 33.7681C3.37025 26.0342 1.22782 16.4954 0.162868 8.67375C0.0626375 7.97181 -0.200468 6.46766 0.263099 5.9412C0.927126 5.17659 6.02636 4.86323 6.64027 6.30471L10.0857 25.8587L11.1632 22.1109C11.9274 20.3184 11.7646 14.7781 13.0174 13.7127C13.7692 13.0734 17.6531 12.9731 18.2921 13.7628C18.9812 14.6152 20.422 22.9758 20.9106 24.856C21.0359 25.3448 20.6099 25.7083 21.4995 25.5704L23.9676 3.87299C24.569 2.0304 31.5726 2.38137 30.871 5.18913L25.2706 39.4463C24.4938 40.8126 20.3593 41.3265 19.4322 40.3738L15.3478 27.9019Z" fill="#F6F5F1"/>
<path d="M48.7371 6.36744C49.0879 5.15158 55.1519 4.70033 55.4776 6.36744C55.5779 11.7448 55.3398 17.1347 55.4776 22.4995C55.5528 25.9591 56.0164 29.5565 56.079 33.0161C56.1041 34.2695 56.292 39.4213 55.7658 40.0605C54.9765 41.0382 50.9923 41.0884 50.0401 40.5243C49.2508 40.048 49.0879 37.8294 49.0253 36.8517C48.9251 35.4227 49.1631 25.9967 48.7497 25.558C46.1938 25.4953 43.663 25.558 41.1321 25.8463L41.2825 40.7876C40.7437 41.9157 36.5716 41.8655 35.4315 41.6524C34.1912 41.4143 34.1661 38.9199 34.0909 37.7166C33.8654 34.3071 34.2037 30.5969 34.116 27.1373C33.9656 20.9578 33.6148 14.6779 33.5898 8.47326C33.3768 5.97887 39.2277 6.07914 39.9795 6.91896C40.0797 7.03178 40.5433 8.03455 40.5433 8.10975V18.3631C40.5433 18.4634 40.8565 19.065 41.0319 19.1026C42.9363 19.5539 46.6699 18.8394 48.7371 18.8018V6.36744Z" fill="#F6F5F1"/>
<path d="M281.235 35.8117C277.363 28.4664 277.752 16.3328 282.4 9.45133C285.294 5.16448 289.817 3.17148 294.941 4.67563C306.167 7.97224 305.114 30.685 298.361 37.8799C293.325 43.2572 284.692 42.3798 281.222 35.8242L281.235 35.8117ZM290.518 10.968C284.429 12.3594 284.53 27.3759 286.847 31.8006C288.589 35.1223 291.608 35.7365 293.951 32.5652C297.134 28.2533 297.635 17.6364 294.766 13.0488C293.763 11.4569 292.498 10.5168 290.518 10.968Z" fill="#F6F5F1"/>
<path d="M325.386 0.438563C325.712 0.764463 325.724 1.51654 325.762 1.96779C326.401 9.50111 325.599 17.5859 325.449 25.1067C325.373 28.9298 325.737 33.0913 325.474 36.8517C325.286 39.5592 325.023 41.5396 321.74 40.1232C318.62 35.0467 315.789 29.7821 312.719 24.6805C312.494 24.3045 312.782 23.941 311.993 24.104L312.531 38.8322C312.181 40.6121 308.572 42.2165 306.893 41.7151L307.157 6.5304C307.67 5.47749 310.088 5.82846 310.652 6.84376C313.947 11.8576 315.877 18.15 318.871 23.2391C319.097 23.6151 318.821 23.9786 319.598 23.8157L318.483 1.4664C319.097 -0.150565 324.634 -0.288446 325.386 0.451097V0.438563Z" fill="#F6F5F1"/>
<path d="M59.324 32.239C59.0859 31.8253 59.537 30.6972 59.6497 30.1833C61.5541 21.9229 64.4858 13.4746 66.6283 5.23935C67.618 3.76026 72.9428 3.82293 74.321 4.80063C74.9474 5.23935 75.01 5.86608 75.2356 6.51788C77.1274 11.9955 78.1798 18.6765 79.6207 24.3923C80.7107 28.7042 82.7654 33.9437 83.4419 38.1428C83.9055 41.0257 83.4044 41.477 80.5102 41.6775C77.2151 41.9157 76.9771 41.6399 76.1627 38.6818C75.5738 36.5383 74.8973 29.9953 73.895 28.654C73.4064 28.0022 67.6807 27.4758 67.1795 27.739C65.9768 28.3657 66.4654 33.342 64.323 33.718C63.5712 33.8559 59.6372 32.803 59.324 32.2515V32.239ZM70.7001 12.3841C70.7753 13.9635 68.1192 21.0205 68.3698 21.8728C68.5953 22.5998 72.1911 22.9759 72.617 22.3617C73.0931 21.6723 71.715 15.6807 71.4268 14.4272C71.3015 13.8882 71.1888 12.6473 70.7001 12.3841Z" fill="#F6F5F1"/>
</g>
<defs>
<clipPath id="clip0_141_456">
<rect width="326" height="95" fill="white"/>
</clipPath>
</defs>
</svg>
